<?xml version="1.0" standalone="no"?>
 <!DOCTYPE svg PUBLIC "-//W3C//DTD SVG 1.1//EN" 
 "http://www.w3.org/Graphics/SVG/1.1/DTD/svg11.dtd"> 
<svg xmlns="http://www.w3.org/2000/svg" version="1.1" 
    width="29.7002cm" height="21.0007cm" viewBox="0 0 116930 82680 ">
<title>SVG Picture created as WT32-SC01-B.SilkS.svg date 2022/04/27 08:35:33 </title>
  <desc>Picture generated by PCBNEW </desc>
<g style="fill:#000000; fill-opacity:1;stroke:#000000; stroke-opacity:1;
stroke-linecap:round; stroke-linejoin:round; "
 transform="translate(0 0) scale(1 1)">
</g>
<g style="fill:#000000; fill-opacity:0.0; 
stroke:#000000; stroke-width:-0.000393701; stroke-opacity:1; 
stroke-linecap:round; stroke-linejoin:round;">
</g>
<g style="fill:#000000; fill-opacity:0.0; 
stroke:#000000; stroke-width:59.0551; stroke-opacity:1; 
stroke-linecap:round; stroke-linejoin:round;">
<path d="M56250 18750
L56250 15850
" />
<path d="M55950 19350
L55950 18850
" />
<path d="M55950 21950
L55950 21450
" />
<path d="M56250 30800
L56250 22050
" />
<path d="M56250 36950
L56250 34050
" />
<path d="M55950 33300
L55950 33900
" />
<path d="M55950 31500
L55950 30950
" />
<path d="M53200 14950
L55350 14950
" />
<path d="M51850 15650
L52800 15650
" />
<path d="M47850 15650
L47850 18550
" />
<path d="M49950 15650
L47850 15650
" />
</g>
<g style="fill:#000000; fill-opacity:0.0; 
stroke:#000000; stroke-width:118.11; stroke-opacity:1; 
stroke-linecap:round; stroke-linejoin:round;">
<path d="M21967 22823
L21376 22823
" />
<path d="M21432 23076
L21404 23104
L21376 23160
L21376 23301
L21404 23357
L21432 23385
L21489 23414
L21545 23414
L21629 23385
L21967 23048
L21967 23414
" />
<path d="M21910 24004
L21939 23976
L21967 23892
L21967 23835
L21939 23751
L21882 23695
L21826 23667
L21714 23639
L21629 23639
L21517 23667
L21460 23695
L21404 23751
L21376 23835
L21376 23892
L21404 23976
L21432 24004
" />
<path d="M21807 28490
L21807 28687
" />
<path d="M22117 28771
L22117 28490
L21526 28490
L21526 28771
" />
<path d="M22117 28968
L21723 29278
" />
<path d="M21723 28968
L22117 29278
" />
<path d="M21723 29418
L21723 29643
" />
<path d="M21526 29503
L22032 29503
L22089 29531
L22117 29587
L22117 29643
" />
<path d="M22117 30290
L21526 30290
" />
<path d="M21526 30684
L21526 30796
L21554 30852
L21610 30909
L21723 30937
L21920 30937
L22032 30909
L22089 30852
L22117 30796
L22117 30684
L22089 30628
L22032 30571
L21920 30543
L21723 30543
L21610 30571
L21554 30628
L21526 30684
" />
<path d="M26853 35467
L26853 34876
L26712 34876
L26628 34904
L26571 34960
L26543 35017
L26515 35129
L26515 35214
L26543 35326
L26571 35382
L26628 35439
L26712 35467
L26853 35467
" />
<path d="M26290 35298
L26009 35298
" />
<path d="M26346 35467
L26150 34876
L25953 35467
" />
<path d="M25418 35410
L25446 35439
L25531 35467
L25587 35467
L25671 35439
L25728 35382
L25756 35326
L25784 35214
L25784 35129
L25756 35017
L25728 34960
L25671 34904
L25587 34876
L25531 34876
L25446 34904
L25418 34932
" />
<path d="M29909 35489
L29824 35517
L29684 35517
L29628 35489
L29599 35460
L29571 35404
L29571 35348
L29599 35292
L29628 35264
L29684 35235
L29796 35207
L29853 35179
L29881 35151
L29909 35095
L29909 35039
L29881 34982
L29853 34954
L29796 34926
L29656 34926
L29571 34954
" />
<path d="M29318 35517
L29318 34926
L29093 34926
L29037 34954
L29009 34982
L28981 35039
L28981 35123
L29009 35179
L29037 35207
L29093 35235
L29318 35235
" />
<path d="M28728 35517
L28728 34926
" />
<path d="M28390 35517
L28643 35179
" />
<path d="M28390 34926
L28728 35264
" />
<path d="M48523 35160
L48551 35189
L48635 35217
L48692 35217
L48776 35189
L48832 35132
L48860 35076
L48888 34964
L48888 34879
L48860 34767
L48832 34710
L48776 34654
L48692 34626
L48635 34626
L48551 34654
L48523 34682
" />
<path d="M48354 34823
L48129 34823
" />
<path d="M48270 34626
L48270 35132
L48242 35189
L48185 35217
L48129 35217
" />
<path d="M47932 35217
L47932 34823
" />
<path d="M47932 34935
L47904 34879
L47876 34851
L47820 34823
L47764 34823
" />
<path d="M47482 35217
L47539 35189
L47567 35132
L47567 34626
" />
<path d="M53167 35217
L53167 34626
L52942 34626
L52885 34654
L52857 34682
L52829 34739
L52829 34823
L52857 34879
L52885 34907
L52942 34935
L53167 34935
" />
<path d="M52492 35217
L52548 35189
L52576 35160
L52604 35104
L52604 34935
L52576 34879
L52548 34851
L52492 34823
L52407 34823
L52351 34851
L52323 34879
L52295 34935
L52295 35104
L52323 35160
L52351 35189
L52407 35217
L52492 35217
" />
<path d="M52098 34823
L51985 35217
L51873 34935
L51760 35217
L51648 34823
" />
<path d="M51198 35189
L51254 35217
L51367 35217
L51423 35189
L51451 35132
L51451 34907
L51423 34851
L51367 34823
L51254 34823
L51198 34851
L51170 34907
L51170 34964
L51451 35020
" />
<path d="M50917 35217
L50917 34823
" />
<path d="M50917 34935
L50889 34879
L50861 34851
L50804 34823
L50748 34823
" />
<path d="M55512 26310
L55540 26339
L55624 26367
L55681 26367
L55765 26339
L55821 26282
L55849 26226
L55877 26114
L55877 26029
L55849 25917
L55821 25860
L55765 25804
L55681 25776
L55624 25776
L55540 25804
L55512 25832
" />
<path d="M55259 26367
L55259 25776
" />
<path d="M55259 26057
L54921 26057
" />
<path d="M54921 26367
L54921 25776
" />
<path d="M54331 25804
L54387 25776
L54471 25776
L54556 25804
L54612 25860
L54640 25917
L54668 26029
L54668 26114
L54640 26226
L54612 26282
L54556 26339
L54471 26367
L54415 26367
L54331 26339
L54303 26310
L54303 26114
L54415 26114
" />
<path d="M53600 26142
L53150 26142
" />
<path d="M55412 22760
L55440 22789
L55524 22817
L55581 22817
L55665 22789
L55721 22732
L55749 22676
L55777 22564
L55777 22479
L55749 22367
L55721 22310
L55665 22254
L55581 22226
L55524 22226
L55440 22254
L55412 22282
" />
<path d="M55159 22817
L55159 22226
" />
<path d="M55159 22507
L54821 22507
" />
<path d="M54821 22817
L54821 22226
" />
<path d="M54231 22254
L54287 22226
L54371 22226
L54456 22254
L54512 22310
L54540 22367
L54568 22479
L54568 22564
L54540 22676
L54512 22732
L54456 22789
L54371 22817
L54315 22817
L54231 22789
L54203 22760
L54203 22564
L54315 22564
" />
<path d="M53500 22592
L53050 22592
" />
<path d="M53275 22817
L53275 22367
" />
<path d="M53676 27607
L53592 27635
L53563 27664
L53535 27720
L53535 27804
L53563 27860
L53592 27889
L53648 27917
L53873 27917
L53873 27326
L53676 27326
L53620 27354
L53592 27382
L53563 27439
L53563 27495
L53592 27551
L53620 27579
L53676 27607
L53873 27607
" />
<path d="M53310 27748
L53029 27748
" />
<path d="M53367 27917
L53170 27326
L52973 27917
" />
<path d="M52860 27326
L52523 27326
" />
<path d="M52692 27917
L52692 27326
" />
<path d="M51876 27692
L51426 27692
" />
<path d="M53726 29307
L53642 29335
L53613 29364
L53585 29420
L53585 29504
L53613 29560
L53642 29589
L53698 29617
L53923 29617
L53923 29026
L53726 29026
L53670 29054
L53642 29082
L53613 29139
L53613 29195
L53642 29251
L53670 29279
L53726 29307
L53923 29307
" />
<path d="M53360 29448
L53079 29448
" />
<path d="M53417 29617
L53220 29026
L53023 29617
" />
<path d="M52910 29026
L52573 29026
" />
<path d="M52742 29617
L52742 29026
" />
<path d="M51926 29392
L51476 29392
" />
<path d="M51701 29617
L51701 29167
" />
</g>
<g style="fill:#000000; fill-opacity:0.0; 
stroke:#000000; stroke-width:59.0551; stroke-opacity:1; 
stroke-linecap:round; stroke-linejoin:round;">
<path d="M21200 37750
L21250 37750
" />
<path d="M21350 14950
L21300 14950
" />
</g>
<g style="fill:#000000; fill-opacity:0.0; 
stroke:#000000; stroke-width:118.11; stroke-opacity:1; 
stroke-linecap:round; stroke-linejoin:round;">
<path d="M44338 19464
L44198 20055
L44085 19633
L43973 20055
L43832 19464
" />
<path d="M43692 19464
L43354 19464
" />
<path d="M43523 20055
L43523 19464
" />
<path d="M43214 19464
L42848 19464
L43045 19689
L42960 19689
L42904 19717
L42876 19746
L42848 19802
L42848 19942
L42876 19999
L42904 20027
L42960 20055
L43129 20055
L43185 20027
L43214 19999
" />
<path d="M42623 19521
L42595 19492
L42539 19464
L42398 19464
L42342 19492
L42314 19521
L42285 19577
L42285 19633
L42314 19717
L42651 20055
L42285 20055
" />
<path d="M42032 19830
L41582 19830
" />
<path d="M41329 20027
L41245 20055
L41104 20055
L41048 20027
L41020 19999
L40992 19942
L40992 19886
L41020 19830
L41048 19802
L41104 19774
L41217 19746
L41273 19717
L41301 19689
L41329 19633
L41329 19577
L41301 19521
L41273 19492
L41217 19464
L41076 19464
L40992 19492
" />
<path d="M40401 19999
L40429 20027
L40514 20055
L40570 20055
L40654 20027
L40711 19970
L40739 19914
L40767 19802
L40767 19717
L40739 19605
L40711 19549
L40654 19492
L40570 19464
L40514 19464
L40429 19492
L40401 19521
" />
<path d="M40036 19464
L39980 19464
L39923 19492
L39895 19521
L39867 19577
L39839 19689
L39839 19830
L39867 19942
L39895 19999
L39923 20027
L39980 20055
L40036 20055
L40092 20027
L40120 19999
L40148 19942
L40176 19830
L40176 19689
L40148 19577
L40120 19521
L40092 19492
L40036 19464
" />
<path d="M39276 20055
L39614 20055
" />
<path d="M39445 20055
L39445 19464
L39501 19549
L39558 19605
L39614 19633
" />
<path d="M38348 20027
L38405 20055
L38517 20055
L38573 20027
L38602 19970
L38602 19746
L38573 19689
L38517 19661
L38405 19661
L38348 19689
L38320 19746
L38320 19802
L38602 19858
" />
<path d="M38124 20055
L37814 19661
" />
<path d="M38124 19661
L37814 20055
" />
<path d="M37674 19661
L37449 19661
" />
<path d="M37589 19464
L37589 19970
L37561 20027
L37505 20055
L37449 20055
" />
<path d="M37027 20027
L37083 20055
L37196 20055
L37252 20027
L37280 19970
L37280 19746
L37252 19689
L37196 19661
L37083 19661
L37027 19689
L36999 19746
L36999 19802
L37280 19858
" />
<path d="M36746 19661
L36746 20055
" />
<path d="M36746 19717
L36717 19689
L36661 19661
L36577 19661
L36521 19689
L36492 19746
L36492 20055
" />
<path d="M36239 20027
L36183 20055
L36071 20055
L36014 20027
L35986 19970
L35986 19942
L36014 19886
L36071 19858
L36155 19858
L36211 19830
L36239 19774
L36239 19746
L36211 19689
L36155 19661
L36071 19661
L36014 19689
" />
<path d="M35733 20055
L35733 19661
" />
<path d="M35733 19464
L35761 19492
L35733 19521
L35705 19492
L35733 19464
L35733 19521
" />
<path d="M35368 20055
L35424 20027
L35452 19999
L35480 19942
L35480 19774
L35452 19717
L35424 19689
L35368 19661
L35283 19661
L35227 19689
L35199 19717
L35171 19774
L35171 19942
L35199 19999
L35227 20027
L35283 20055
L35368 20055
" />
<path d="M34918 19661
L34918 20055
" />
<path d="M34918 19717
L34890 19689
L34833 19661
L34749 19661
L34693 19689
L34665 19746
L34665 20055
" />
<path d="M33933 20055
L33933 19661
" />
<path d="M33933 19717
L33905 19689
L33849 19661
L33765 19661
L33708 19689
L33680 19746
L33680 20055
" />
<path d="M33680 19746
L33652 19689
L33596 19661
L33512 19661
L33455 19689
L33427 19746
L33427 20055
" />
<path d="M33062 20055
L33118 20027
L33146 19999
L33174 19942
L33174 19774
L33146 19717
L33118 19689
L33062 19661
L32977 19661
L32921 19689
L32893 19717
L32865 19774
L32865 19942
L32893 19999
L32921 20027
L32977 20055
L33062 20055
" />
<path d="M32359 20055
L32359 19464
" />
<path d="M32359 20027
L32415 20055
L32527 20055
L32584 20027
L32612 19999
L32640 19942
L32640 19774
L32612 19717
L32584 19689
L32527 19661
L32415 19661
L32359 19689
" />
<path d="M31824 19661
L31824 20055
" />
<path d="M32077 19661
L32077 19970
L32049 20027
L31993 20055
L31909 20055
L31852 20027
L31824 19999
" />
<path d="M31459 20055
L31515 20027
L31543 19970
L31543 19464
" />
<path d="M31009 20027
L31065 20055
L31178 20055
L31234 20027
L31262 19970
L31262 19746
L31234 19689
L31178 19661
L31065 19661
L31009 19689
L30981 19746
L30981 19802
L31262 19858
" />
<path d="M30278 19830
L29828 19830
" />
<path d="M29181 19464
L28984 20055
L28787 19464
" />
<path d="M28281 20055
L28618 20055
" />
<path d="M28450 20055
L28450 19464
L28506 19549
L28562 19605
L28618 19633
" />
<path d="M28028 19999
L28000 20027
L28028 20055
L28056 20027
L28028 19999
L28028 20055
" />
<path d="M27634 19464
L27578 19464
L27522 19492
L27494 19521
L27465 19577
L27437 19689
L27437 19830
L27465 19942
L27494 19999
L27522 20027
L27578 20055
L27634 20055
L27690 20027
L27719 19999
L27747 19942
L27775 19830
L27775 19689
L27747 19577
L27719 19521
L27690 19492
L27634 19464
" />
<path d="M43945 21059
L44142 20778
" />
<path d="M44282 21059
L44282 20468
L44057 20468
L44001 20496
L43973 20524
L43945 20581
L43945 20665
L43973 20721
L44001 20749
L44057 20778
L44282 20778
" />
<path d="M43776 20468
L43438 20468
" />
<path d="M43607 21059
L43607 20468
" />
<path d="M42904 21003
L42932 21031
L43017 21059
L43073 21059
L43157 21031
L43214 20974
L43242 20918
L43270 20806
L43270 20721
L43242 20609
L43214 20553
L43157 20496
L43073 20468
L43017 20468
L42932 20496
L42904 20524
" />
<path d="M42623 21031
L42623 21059
L42651 21115
L42679 21143
" />
<path d="M41723 20749
L41639 20778
L41611 20806
L41582 20862
L41582 20946
L41611 21003
L41639 21031
L41695 21059
L41920 21059
L41920 20468
L41723 20468
L41667 20496
L41639 20524
L41611 20581
L41611 20637
L41639 20693
L41667 20721
L41723 20749
L41920 20749
" />
<path d="M41076 20665
L41076 21059
" />
<path d="M41329 20665
L41329 20974
L41301 21031
L41245 21059
L41161 21059
L41104 21031
L41076 21003
" />
<path d="M40879 20665
L40654 20665
" />
<path d="M40795 20468
L40795 20974
L40767 21031
L40711 21059
L40654 21059
" />
<path d="M40542 20665
L40317 20665
" />
<path d="M40458 20468
L40458 20974
L40429 21031
L40373 21059
L40317 21059
" />
<path d="M40036 21059
L40092 21031
L40120 21003
L40148 20946
L40148 20778
L40120 20721
L40092 20693
L40036 20665
L39951 20665
L39895 20693
L39867 20721
L39839 20778
L39839 20946
L39867 21003
L39895 21031
L39951 21059
L40036 21059
" />
<path d="M39586 20665
L39586 21059
" />
<path d="M39586 20721
L39558 20693
L39501 20665
L39417 20665
L39361 20693
L39333 20749
L39333 21059
" />
<path d="M39080 21031
L39023 21059
L38911 21059
L38855 21031
L38827 20974
L38827 20946
L38855 20890
L38911 20862
L38995 20862
L39052 20834
L39080 20778
L39080 20749
L39052 20693
L38995 20665
L38911 20665
L38855 20693
" />
<path d="M38545 21031
L38545 21059
L38573 21115
L38602 21143
" />
<path d="M37870 21031
L37786 21059
L37645 21059
L37589 21031
L37561 21003
L37533 20946
L37533 20890
L37561 20834
L37589 20806
L37645 20778
L37758 20749
L37814 20721
L37842 20693
L37870 20637
L37870 20581
L37842 20524
L37814 20496
L37758 20468
L37617 20468
L37533 20496
" />
<path d="M37280 21059
L37280 20468
L37139 20468
L37055 20496
L36999 20553
L36971 20609
L36942 20721
L36942 20806
L36971 20918
L36999 20974
L37055 21031
L37139 21059
L37280 21059
" />
<path d="M35902 21003
L35930 21031
L36014 21059
L36071 21059
L36155 21031
L36211 20974
L36239 20918
L36267 20806
L36267 20721
L36239 20609
L36211 20553
L36155 20496
L36071 20468
L36014 20468
L35930 20496
L35902 20524
" />
<path d="M35396 21059
L35396 20749
L35424 20693
L35480 20665
L35593 20665
L35649 20693
" />
<path d="M35396 21031
L35452 21059
L35593 21059
L35649 21031
L35677 20974
L35677 20918
L35649 20862
L35593 20834
L35452 20834
L35396 20806
" />
<path d="M35115 21059
L35115 20665
" />
<path d="M35115 20778
L35086 20721
L35058 20693
L35002 20665
L34946 20665
" />
<path d="M34496 21059
L34496 20468
" />
<path d="M34496 21031
L34552 21059
L34665 21059
L34721 21031
L34749 21003
L34777 20946
L34777 20778
L34749 20721
L34721 20693
L34665 20665
L34552 20665
L34496 20693
" />
<path d="M34187 21031
L34187 21059
L34215 21115
L34243 21143
" />
<path d="M44001 22063
L44282 22063
L44282 21472
" />
<path d="M43804 22063
L43804 21669
" />
<path d="M43804 21472
L43832 21500
L43804 21528
L43776 21500
L43804 21472
L43804 21528
" />
<path d="M43523 22063
L43523 21472
L43298 21472
L43242 21500
L43214 21528
L43185 21585
L43185 21669
L43214 21725
L43242 21753
L43298 21782
L43523 21782
" />
<path d="M42848 22063
L42904 22035
L42932 22006
L42960 21950
L42960 21782
L42932 21725
L42904 21697
L42848 21669
L42764 21669
L42707 21697
L42679 21725
L42651 21782
L42651 21950
L42679 22006
L42707 22035
L42764 22063
L42848 22063
" />
<path d="M41948 21669
L41948 22260
" />
<path d="M41948 21697
L41892 21669
L41779 21669
L41723 21697
L41695 21725
L41667 21782
L41667 21950
L41695 22006
L41723 22035
L41779 22063
L41892 22063
L41948 22035
" />
<path d="M41329 22063
L41386 22035
L41414 22006
L41442 21950
L41442 21782
L41414 21725
L41386 21697
L41329 21669
L41245 21669
L41189 21697
L41161 21725
L41133 21782
L41133 21950
L41161 22006
L41189 22035
L41245 22063
L41329 22063
" />
<path d="M40936 21669
L40823 22063
L40711 21782
L40598 22063
L40486 21669
" />
<path d="M40036 22035
L40092 22063
L40205 22063
L40261 22035
L40289 21978
L40289 21753
L40261 21697
L40205 21669
L40092 21669
L40036 21697
L40008 21753
L40008 21810
L40289 21866
" />
<path d="M39755 22063
L39755 21669
" />
<path d="M39755 21782
L39726 21725
L39698 21697
L39642 21669
L39586 21669
" />
<path d="M38967 22035
L38911 22063
L38798 22063
L38742 22035
L38714 21978
L38714 21950
L38742 21894
L38798 21866
L38883 21866
L38939 21838
L38967 21782
L38967 21753
L38939 21697
L38883 21669
L38798 21669
L38742 21697
" />
<path d="M38208 21669
L38208 22063
" />
<path d="M38461 21669
L38461 21978
L38433 22035
L38377 22063
L38292 22063
L38236 22035
L38208 22006
" />
<path d="M37927 21669
L37927 22260
" />
<path d="M37927 21697
L37870 21669
L37758 21669
L37702 21697
L37674 21725
L37645 21782
L37645 21950
L37674 22006
L37702 22035
L37758 22063
L37870 22063
L37927 22035
" />
<path d="M37392 21669
L37392 22260
" />
<path d="M37392 21697
L37336 21669
L37224 21669
L37167 21697
L37139 21725
L37111 21782
L37111 21950
L37139 22006
L37167 22035
L37224 22063
L37336 22063
L37392 22035
" />
<path d="M36774 22063
L36830 22035
L36858 21978
L36858 21472
" />
<path d="M36605 21669
L36464 22063
" />
<path d="M36324 21669
L36464 22063
L36521 22203
L36549 22231
L36605 22260
" />
<path d="M36071 22035
L36071 22063
L36099 22119
L36127 22147
" />
<path d="M35368 22063
L35368 21472
L35227 21472
L35143 21500
L35086 21557
L35058 21613
L35030 21725
L35030 21810
L35058 21922
L35086 21978
L35143 22035
L35227 22063
L35368 22063
" />
<path d="M34440 22006
L34468 22035
L34552 22063
L34608 22063
L34693 22035
L34749 21978
L34777 21922
L34805 21810
L34805 21725
L34777 21613
L34749 21557
L34693 21500
L34608 21472
L34552 21472
L34468 21500
L34440 21528
" />
<path d="M34187 22063
L34187 21472
L34046 21472
L33962 21500
L33905 21557
L33877 21613
L33849 21725
L33849 21810
L33877 21922
L33905 21978
L33962 22035
L34046 22063
L34187 22063
" />
<path d="M33258 22006
L33287 22035
L33371 22063
L33427 22063
L33512 22035
L33568 21978
L33596 21922
L33624 21810
L33624 21725
L33596 21613
L33568 21557
L33512 21500
L33427 21472
L33371 21472
L33287 21500
L33258 21528
" />
<path d="M32302 22035
L32359 22063
L32471 22063
L32527 22035
L32555 22006
L32584 21950
L32584 21782
L32555 21725
L32527 21697
L32471 21669
L32359 21669
L32302 21697
" />
<path d="M31965 22063
L32021 22035
L32049 22006
L32077 21950
L32077 21782
L32049 21725
L32021 21697
L31965 21669
L31881 21669
L31824 21697
L31796 21725
L31768 21782
L31768 21950
L31796 22006
L31824 22035
L31881 22063
L31965 22063
" />
<path d="M31515 21669
L31515 22063
" />
<path d="M31515 21725
L31487 21697
L31431 21669
L31346 21669
L31290 21697
L31262 21753
L31262 22063
" />
<path d="M31037 21669
L30896 22063
L30756 21669
" />
<path d="M30306 22035
L30362 22063
L30474 22063
L30531 22035
L30559 21978
L30559 21753
L30531 21697
L30474 21669
L30362 21669
L30306 21697
L30278 21753
L30278 21810
L30559 21866
" />
<path d="M30025 22063
L30025 21669
" />
<path d="M30025 21782
L29996 21725
L29968 21697
L29912 21669
L29856 21669
" />
<path d="M29743 21669
L29518 21669
" />
<path d="M29659 21472
L29659 21978
L29631 22035
L29575 22063
L29518 22063
" />
<path d="M29097 22035
L29153 22063
L29265 22063
L29321 22035
L29350 21978
L29350 21753
L29321 21697
L29265 21669
L29153 21669
L29097 21697
L29068 21753
L29068 21810
L29350 21866
" />
<path d="M28815 22063
L28815 21669
" />
<path d="M28815 21782
L28787 21725
L28759 21697
L28703 21669
L28647 21669
" />
<path d="M44282 23067
L44282 22476
L44142 22476
L44057 22504
L44001 22560
L43973 22617
L43945 22729
L43945 22814
L43973 22926
L44001 22982
L44057 23039
L44142 23067
L44282 23067
" />
<path d="M43720 22898
L43438 22898
" />
<path d="M43776 23067
L43579 22476
L43382 23067
" />
<path d="M42848 23010
L42876 23039
L42960 23067
L43017 23067
L43101 23039
L43157 22982
L43185 22926
L43214 22814
L43214 22729
L43185 22617
L43157 22560
L43101 22504
L43017 22476
L42960 22476
L42876 22504
L42848 22532
" />
<path d="M42567 23039
L42567 23067
L42595 23123
L42623 23151
" />
<path d="M41892 22898
L41611 22898
" />
<path d="M41948 23067
L41751 22476
L41554 23067
" />
<path d="M41104 22673
L41104 23067
" />
<path d="M41357 22673
L41357 22982
L41329 23039
L41273 23067
L41189 23067
L41133 23039
L41104 23010
" />
<path d="M40570 23067
L40570 22476
" />
<path d="M40570 23039
L40626 23067
L40739 23067
L40795 23039
L40823 23010
L40851 22954
L40851 22785
L40823 22729
L40795 22701
L40739 22673
L40626 22673
L40570 22701
" />
<path d="M40289 23067
L40289 22673
" />
<path d="M40289 22476
L40317 22504
L40289 22532
L40261 22504
L40289 22476
L40289 22532
" />
<path d="M39923 23067
L39980 23039
L40008 23010
L40036 22954
L40036 22785
L40008 22729
L39980 22701
L39923 22673
L39839 22673
L39783 22701
L39755 22729
L39726 22785
L39726 22954
L39755 23010
L39783 23039
L39839 23067
L39923 23067
" />
<path d="M39052 22898
L38770 22898
" />
<path d="M39108 23067
L38911 22476
L38714 23067
" />
<path d="M38517 23067
L38517 22673
" />
<path d="M38517 22729
L38489 22701
L38433 22673
L38348 22673
L38292 22701
L38264 22757
L38264 23067
" />
<path d="M38264 22757
L38236 22701
L38180 22673
L38095 22673
L38039 22701
L38011 22757
L38011 23067
" />
<path d="M37730 22673
L37730 23264
" />
<path d="M37730 22701
L37674 22673
L37561 22673
L37505 22701
L37477 22729
L37449 22785
L37449 22954
L37477 23010
L37505 23039
L37561 23067
L37674 23067
L37730 23039
" />
<path d="M44113 24296
L44142 24267
L44198 24183
L44226 24127
L44254 24042
L44282 23902
L44282 23789
L44254 23649
L44226 23564
L44198 23508
L44142 23424
L44113 23396
" />
<path d="M43635 24042
L43692 24071
L43804 24071
L43860 24042
L43888 24014
L43917 23958
L43917 23789
L43888 23733
L43860 23705
L43804 23677
L43692 23677
L43635 23705
" />
<path d="M43438 24296
L43410 24267
L43354 24183
L43326 24127
L43298 24042
L43270 23902
L43270 23789
L43298 23649
L43326 23564
L43354 23508
L43410 23424
L43438 23396
" />
<path d="M42342 23761
L42257 23789
L42229 23817
L42201 23874
L42201 23958
L42229 24014
L42257 24042
L42314 24071
L42539 24071
L42539 23480
L42342 23480
L42285 23508
L42257 23536
L42229 23593
L42229 23649
L42257 23705
L42285 23733
L42342 23761
L42539 23761
" />
<path d="M41976 24042
L41892 24071
L41751 24071
L41695 24042
L41667 24014
L41639 23958
L41639 23902
L41667 23846
L41695 23817
L41751 23789
L41864 23761
L41920 23733
L41948 23705
L41976 23649
L41976 23593
L41948 23536
L41920 23508
L41864 23480
L41723 23480
L41639 23508
" />
<path d="M41189 23761
L41386 23761
" />
<path d="M41386 24071
L41386 23480
L41104 23480
" />
<path d="M40092 24014
L40120 24042
L40205 24071
L40261 24071
L40345 24042
L40401 23986
L40429 23930
L40458 23817
L40458 23733
L40429 23621
L40401 23564
L40345 23508
L40261 23480
L40205 23480
L40120 23508
L40092 23536
" />
<path d="M39755 24071
L39811 24042
L39839 24014
L39867 23958
L39867 23789
L39839 23733
L39811 23705
L39755 23677
L39670 23677
L39614 23705
L39586 23733
L39558 23789
L39558 23958
L39586 24014
L39614 24042
L39670 24071
L39755 24071
" />
<path d="M39305 23677
L39305 24071
" />
<path d="M39305 23733
L39276 23705
L39220 23677
L39136 23677
L39080 23705
L39052 23761
L39052 24071
" />
<path d="M38517 24042
L38573 24071
L38686 24071
L38742 24042
L38770 24014
L38798 23958
L38798 23789
L38770 23733
L38742 23705
L38686 23677
L38573 23677
L38517 23705
" />
<path d="M38039 24042
L38095 24071
L38208 24071
L38264 24042
L38292 23986
L38292 23761
L38264 23705
L38208 23677
L38095 23677
L38039 23705
L38011 23761
L38011 23817
L38292 23874
" />
<path d="M37758 23677
L37758 24267
" />
<path d="M37758 23705
L37702 23677
L37589 23677
L37533 23705
L37505 23733
L37477 23789
L37477 23958
L37505 24014
L37533 24042
L37589 24071
L37702 24071
L37758 24042
" />
<path d="M37308 23677
L37083 23677
" />
<path d="M37224 23480
L37224 23986
L37196 24042
L37139 24071
L37083 24071
" />
<path d="M36886 24071
L36886 23677
" />
<path d="M36886 23480
L36914 23508
L36886 23536
L36858 23508
L36886 23480
L36886 23536
" />
<path d="M36521 24071
L36577 24042
L36605 24014
L36633 23958
L36633 23789
L36605 23733
L36577 23705
L36521 23677
L36436 23677
L36380 23705
L36352 23733
L36324 23789
L36324 23958
L36352 24014
L36380 24042
L36436 24071
L36521 24071
" />
<path d="M36071 23677
L36071 24071
" />
<path d="M36071 23733
L36043 23705
L35986 23677
L35902 23677
L35846 23705
L35818 23761
L35818 24071
" />
<path d="M35115 23536
L35086 23508
L35030 23480
L34890 23480
L34833 23508
L34805 23536
L34777 23593
L34777 23649
L34805 23733
L35143 24071
L34777 24071
" />
<path d="M34411 23480
L34355 23480
L34299 23508
L34271 23536
L34243 23593
L34215 23705
L34215 23846
L34243 23958
L34271 24014
L34299 24042
L34355 24071
L34411 24071
L34468 24042
L34496 24014
L34524 23958
L34552 23846
L34552 23705
L34524 23593
L34496 23536
L34468 23508
L34411 23480
" />
<path d="M33990 23536
L33962 23508
L33905 23480
L33765 23480
L33708 23508
L33680 23536
L33652 23593
L33652 23649
L33680 23733
L34018 24071
L33652 24071
" />
<path d="M33427 23536
L33399 23508
L33343 23480
L33202 23480
L33146 23508
L33118 23536
L33090 23593
L33090 23649
L33118 23733
L33455 24071
L33090 24071
" />
<path d="M44282 25075
L44282 24484
" />
<path d="M44282 24709
L44226 24681
L44113 24681
L44057 24709
L44029 24737
L44001 24793
L44001 24962
L44029 25018
L44057 25046
L44113 25075
L44226 25075
L44282 25046
" />
<path d="M43776 25046
L43720 25075
L43607 25075
L43551 25046
L43523 24990
L43523 24962
L43551 24906
L43607 24878
L43692 24878
L43748 24850
L43776 24793
L43776 24765
L43748 24709
L43692 24681
L43607 24681
L43551 24709
" />
<path d="M43354 24681
L43129 24681
" />
<path d="M43270 25075
L43270 24568
L43242 24512
L43185 24484
L43129 24484
" />
<path d="M42932 25018
L42904 25046
L42932 25075
L42960 25046
L42932 25018
L42932 25075
" />
<path d="M42398 25046
L42454 25075
L42567 25075
L42623 25046
L42651 25018
L42679 24962
L42679 24793
L42651 24737
L42623 24709
L42567 24681
L42454 24681
L42398 24709
" />
<path d="M42061 25075
L42117 25046
L42145 25018
L42173 24962
L42173 24793
L42145 24737
L42117 24709
L42061 24681
L41976 24681
L41920 24709
L41892 24737
L41864 24793
L41864 24962
L41892 25018
L41920 25046
L41976 25075
L42061 25075
" />
<path d="M41611 24681
L41611 25075
" />
<path d="M41611 24737
L41582 24709
L41526 24681
L41442 24681
L41386 24709
L41357 24765
L41357 25075
" />
<path d="M40823 25046
L40879 25075
L40992 25075
L41048 25046
L41076 25018
L41104 24962
L41104 24793
L41076 24737
L41048 24709
L40992 24681
L40879 24681
L40823 24709
" />
<path d="M40345 25046
L40401 25075
L40514 25075
L40570 25046
L40598 24990
L40598 24765
L40570 24709
L40514 24681
L40401 24681
L40345 24709
L40317 24765
L40317 24821
L40598 24878
" />
<path d="M40064 24681
L40064 25271
" />
<path d="M40064 24709
L40008 24681
L39895 24681
L39839 24709
L39811 24737
L39783 24793
L39783 24962
L39811 25018
L39839 25046
L39895 25075
L40008 25075
L40064 25046
" />
<path d="M39614 24681
L39389 24681
" />
<path d="M39530 24484
L39530 24990
L39501 25046
L39445 25075
L39389 25075
" />
<path d="M39192 25075
L39192 24681
" />
<path d="M39192 24484
L39220 24512
L39192 24540
L39164 24512
L39192 24484
L39192 24540
" />
<path d="M38827 25075
L38883 25046
L38911 25018
L38939 24962
L38939 24793
L38911 24737
L38883 24709
L38827 24681
L38742 24681
L38686 24709
L38658 24737
L38630 24793
L38630 24962
L38658 25018
L38686 25046
L38742 25075
L38827 25075
" />
<path d="M38377 24681
L38377 25075
" />
<path d="M38377 24737
L38348 24709
L38292 24681
L38208 24681
L38152 24709
L38124 24765
L38124 25075
" />
<path d="M37477 24793
L37505 24765
L37561 24737
L37617 24737
L37674 24765
L37702 24793
L37730 24850
L37730 24906
L37702 24962
L37674 24990
L37617 25018
L37561 25018
L37505 24990
L37477 24962
" />
<path d="M37477 24737
L37477 24962
L37449 24990
L37420 24990
L37364 24962
L37336 24906
L37336 24765
L37392 24681
L37477 24625
L37589 24596
L37702 24625
L37786 24681
L37842 24765
L37870 24878
L37842 24990
L37786 25075
L37702 25131
L37589 25159
L37477 25131
L37392 25075
" />
<path d="M36830 24681
L36830 25159
L36858 25215
L36886 25243
L36942 25271
L37027 25271
L37083 25243
" />
<path d="M36830 25046
L36886 25075
L36999 25075
L37055 25046
L37083 25018
L37111 24962
L37111 24793
L37083 24737
L37055 24709
L36999 24681
L36886 24681
L36830 24709
" />
<path d="M36549 25075
L36549 24681
" />
<path d="M36549 24737
L36521 24709
L36464 24681
L36380 24681
L36324 24709
L36296 24765
L36296 25075
" />
<path d="M36296 24765
L36267 24709
L36211 24681
L36127 24681
L36071 24709
L36043 24765
L36043 25075
" />
<path d="M35508 25075
L35508 24765
L35536 24709
L35593 24681
L35705 24681
L35761 24709
" />
<path d="M35508 25046
L35564 25075
L35705 25075
L35761 25046
L35789 24990
L35789 24934
L35761 24878
L35705 24850
L35564 24850
L35508 24821
" />
<path d="M35227 25075
L35227 24681
" />
<path d="M35227 24484
L35255 24512
L35227 24540
L35199 24512
L35227 24484
L35227 24540
" />
<path d="M34861 25075
L34918 25046
L34946 24990
L34946 24484
" />
<path d="M34636 25018
L34608 25046
L34636 25075
L34665 25046
L34636 25018
L34636 25075
" />
<path d="M34102 25046
L34158 25075
L34271 25075
L34327 25046
L34355 25018
L34383 24962
L34383 24793
L34355 24737
L34327 24709
L34271 24681
L34158 24681
L34102 24709
" />
<path d="M33765 25075
L33821 25046
L33849 25018
L33877 24962
L33877 24793
L33849 24737
L33821 24709
L33765 24681
L33680 24681
L33624 24709
L33596 24737
L33568 24793
L33568 24962
L33596 25018
L33624 25046
L33680 25075
L33765 25075
" />
<path d="M33315 25075
L33315 24681
" />
<path d="M33315 24737
L33287 24709
L33230 24681
L33146 24681
L33090 24709
L33062 24765
L33062 25075
" />
<path d="M33062 24765
L33034 24709
L32977 24681
L32893 24681
L32837 24709
L32809 24765
L32809 25075
" />
<path d="M44282 26078
L44282 25488
" />
<path d="M44029 26078
L44029 25769
L44057 25713
L44113 25685
L44198 25685
L44254 25713
L44282 25741
" />
<path d="M43832 25685
L43607 25685
" />
<path d="M43748 25488
L43748 25994
L43720 26050
L43663 26078
L43607 26078
" />
<path d="M43495 25685
L43270 25685
" />
<path d="M43410 25488
L43410 25994
L43382 26050
L43326 26078
L43270 26078
" />
<path d="M43073 25685
L43073 26275
" />
<path d="M43073 25713
L43017 25685
L42904 25685
L42848 25713
L42820 25741
L42792 25797
L42792 25966
L42820 26022
L42848 26050
L42904 26078
L43017 26078
L43073 26050
" />
<path d="M42539 26022
L42510 26050
L42539 26078
L42567 26050
L42539 26022
L42539 26078
" />
<path d="M42539 25713
L42510 25741
L42539 25769
L42567 25741
L42539 25713
L42539 25769
" />
<path d="M41836 25460
L42342 26219
" />
<path d="M41217 25460
L41723 26219
" />
<path d="M41020 26078
L41020 25488
" />
<path d="M41020 25713
L40964 25685
L40851 25685
L40795 25713
L40767 25741
L40739 25797
L40739 25966
L40767 26022
L40795 26050
L40851 26078
L40964 26078
L41020 26050
" />
<path d="M40514 26050
L40458 26078
L40345 26078
L40289 26050
L40261 25994
L40261 25966
L40289 25910
L40345 25882
L40429 25882
L40486 25853
L40514 25797
L40514 25769
L40486 25713
L40429 25685
L40345 25685
L40289 25713
" />
<path d="M40092 25685
L39867 25685
" />
<path d="M40008 26078
L40008 25572
L39980 25516
L39923 25488
L39867 25488
" />
<path d="M39417 26050
L39473 26078
L39586 26078
L39642 26050
L39670 26022
L39698 25966
L39698 25797
L39670 25741
L39642 25713
L39586 25685
L39473 25685
L39417 25713
" />
<path d="M39080 26078
L39136 26050
L39164 26022
L39192 25966
L39192 25797
L39164 25741
L39136 25713
L39080 25685
L38995 25685
L38939 25713
L38911 25741
L38883 25797
L38883 25966
L38911 26022
L38939 26050
L38995 26078
L39080 26078
" />
<path d="M38630 25685
L38630 26078
" />
<path d="M38630 25741
L38602 25713
L38545 25685
L38461 25685
L38405 25713
L38377 25769
L38377 26078
" />
<path d="M37842 26050
L37899 26078
L38011 26078
L38067 26050
L38095 26022
L38124 25966
L38124 25797
L38095 25741
L38067 25713
L38011 25685
L37899 25685
L37842 25713
" />
<path d="M37364 26050
L37420 26078
L37533 26078
L37589 26050
L37617 25994
L37617 25769
L37589 25713
L37533 25685
L37420 25685
L37364 25713
L37336 25769
L37336 25825
L37617 25882
" />
<path d="M37083 25685
L37083 26275
" />
<path d="M37083 25713
L37027 25685
L36914 25685
L36858 25713
L36830 25741
L36802 25797
L36802 25966
L36830 26022
L36858 26050
L36914 26078
L37027 26078
L37083 26050
" />
<path d="M36633 25685
L36408 25685
" />
<path d="M36549 25488
L36549 25994
L36521 26050
L36464 26078
L36408 26078
" />
<path d="M36211 26078
L36211 25685
" />
<path d="M36211 25488
L36239 25516
L36211 25544
L36183 25516
L36211 25488
L36211 25544
" />
<path d="M35846 26078
L35902 26050
L35930 26022
L35958 25966
L35958 25797
L35930 25741
L35902 25713
L35846 25685
L35761 25685
L35705 25713
L35677 25741
L35649 25797
L35649 25966
L35677 26022
L35705 26050
L35761 26078
L35846 26078
" />
<path d="M35396 25685
L35396 26078
" />
<path d="M35396 25741
L35368 25713
L35311 25685
L35227 25685
L35171 25713
L35143 25769
L35143 26078
" />
<path d="M34861 26022
L34833 26050
L34861 26078
L34890 26050
L34861 26022
L34861 26078
" />
<path d="M34496 26078
L34552 26050
L34580 26022
L34608 25966
L34608 25797
L34580 25741
L34552 25713
L34496 25685
L34411 25685
L34355 25713
L34327 25741
L34299 25797
L34299 25966
L34327 26022
L34355 26050
L34411 26078
L34496 26078
" />
<path d="M34102 25685
L33962 26078
L33821 25685
" />
<path d="M33596 26078
L33596 25488
" />
<path d="M33343 26078
L33343 25769
L33371 25713
L33427 25685
L33512 25685
L33568 25713
L33596 25741
" />
</g>
<g style="fill:#000000; fill-opacity:0.0; 
stroke:#000000; stroke-width:59.0551; stroke-opacity:1; 
stroke-linecap:round; stroke-linejoin:round;">
<path d="M39550 15900
L39550 18550
" />
<path d="M38400 15900
L39550 15900
" />
<path d="M55950 30950
L56250 30800
" />
<path d="M55950 33900
L56250 34050
" />
<path d="M55950 31500
L55950 33300
" />
<path d="M55950 18850
L56250 18750
" />
<path d="M55950 21950
L56250 22050
" />
<path d="M55950 19350
L55950 21450
" />
<path d="M33050 14950
L21350 14950
" />
<path d="M33050 15900
L33050 14950
" />
<path d="M38400 15900
L33050 15900
" />
<path d="M47850 18550
L39550 18550
" />
<path d="M52800 15650
L53200 14950
" />
<path d="M49950 15650
L51850 15650
" />
<path d="M56250 15850 A900 900 0.0 0 0 55350 14950 " />
<path d="M20400 36950
L20400 15850
" />
<path d="M21250 37750
L55450 37750
" />
<path d="M55450 37750 A800 800 0.0 0 0 56250 36950 " />
<path d="M20400 36950 A800 800 0.0 0 0 21200 37750 " />
<path d="M21300 14950 A900 900 0.0 0 0 20400 15850 " />
</g>
<g style="fill:#000000; fill-opacity:1.0; 
stroke:#000000; stroke-width:59.0551; stroke-opacity:1; 
stroke-linecap:round; stroke-linejoin:round;">
<polyline style="fill-rule:evenodd;"
points="39524,14943
39524,18486
47791,18486
47791,14943
39524,14943
" /> 
</g>
<g style="fill:#000000; fill-opacity:1.0; 
stroke:#000000; stroke-width:3.93701; stroke-opacity:1; 
stroke-linecap:round; stroke-linejoin:round;">
<polyline style="fill-rule:evenodd;"
points="45010,26830
51790,26830
51790,26249
49359,26249
49358,26280
49353,26293
49335,26299
49311,26297
49293,26288
49292,26287
49284,26272
49273,26243
49261,26208
49261,26208
49241,26148
49222,26105
49202,26076
49179,26056
49176,26054
48827,26054
48826,26067
48823,26097
48816,26111
48808,26112
48795,26120
48778,26145
48770,26162
48748,26209
48728,26241
48706,26261
48679,26273
48659,26279
48618,26284
48584,26277
48551,26256
48525,26231
48506,26212
48495,26207
48487,26213
48484,26218
48471,26246
48462,26287
48457,26334
48456,26380
48458,26400
48472,26459
48496,26501
48531,26527
48578,26539
48595,26540
48618,26537
48631,26525
48640,26505
48651,26479
48661,26470
48668,26479
48670,26494
48664,26526
48651,26555
48634,26572
48631,26573
48602,26576
48564,26573
48525,26565
48495,26554
48490,26551
48471,26532
48450,26503
48440,26484
48426,26454
48419,26426
48415,26390
48415,26350
48416,26307
48420,26269
48429,26228
48443,26178
48453,26145
48469,26096
48483,26052
48494,26018
48501,25998
48501,25998
48516,25972
48537,25947
48560,25929
48580,25922
48584,25923
48596,25937
48599,25957
48590,25974
48589,25975
48579,25988
48565,26013
48550,26044
48537,26074
48530,26098
48530,26104
48537,26119
48552,26131
48575,26146
48588,26157
48608,26166
48627,26168
48643,26162
48658,26147
48676,26120
48690,26095
48718,26046
48745,26015
48771,26002
48799,26005
48804,26007
48819,26017
48826,26030
48827,26054
49176,26054
49162,26047
49131,26036
49104,26032
49098,26032
49079,26029
49075,26020
49078,26012
49092,26007
49120,26006
49147,26006
49184,26006
49206,26004
49216,26000
49219,25990
49220,25985
49227,25957
49250,25942
49271,25940
49302,25945
49319,25964
49325,25997
49324,26023
49323,26068
49331,26121
49339,26149
49352,26205
49359,26249
51790,26249
51790,25899
49986,25899
49973,25946
49944,25988
49901,26022
49885,26030
49848,26044
49819,26048
49790,26041
49777,26036
49747,26018
49720,25995
49701,25960
49698,25915
49711,25863
49722,25837
49740,25804
49753,25790
49761,25794
49763,25816
49758,25856
49754,25881
49751,25927
49762,25959
49787,25978
49788,25979
49823,25984
49854,25972
49878,25947
49889,25912
49890,25902
49885,25875
49870,25850
49854,25834
49827,25810
49800,25792
49792,25787
49768,25768
49762,25745
49773,25723
49782,25715
49812,25707
49847,25713
49885,25732
49922,25761
49954,25797
49976,25838
49981,25851
49986,25899
51790,25899
51790,25605
50530,25605
50523,25639
50508,25672
50486,25697
50463,25709
50458,25710
50443,25706
50440,25703
50446,25691
50460,25674
50474,25656
50474,25640
50468,25626
50455,25609
50430,25583
50398,25550
50362,25517
50185,25517
50184,25520
50172,25528
50157,25528
50150,25520
50157,25506
50174,25502
50180,25505
50185,25517
50362,25517
50361,25516
50324,25482
50290,25453
50264,25433
50233,25411
50170,25455
50132,25479
50107,25490
50094,25488
50096,25474
50112,25449
50113,25448
50137,25419
50162,25394
50165,25391
50192,25367
50161,25348
50135,25322
50122,25292
50122,25261
50136,25236
50161,25219
50171,25217
50190,25216
50207,25223
50227,25239
50248,25261
50292,25309
50326,25288
50351,25276
50366,25275
50375,25280
50383,25295
50373,25311
50348,25323
50344,25324
50334,25327
50330,25333
50334,25343
50348,25360
50371,25387
50405,25424
50452,25476
50487,25517
50510,25550
50523,25576
50529,25598
50530,25605
51790,25605
51790,25034
50940,25034
50930,25082
50901,25126
50875,25150
50844,25168
50824,25174
50815,25166
50821,25148
50837,25126
50858,25097
50872,25066
50875,25058
50877,25034
50868,25016
50854,25004
50818,24984
50774,24974
50732,24976
50697,24988
50693,24991
50682,25007
50675,25027
50658,25064
50632,25085
50609,25090
50582,25083
50565,25063
50558,25028
50558,24997
50566,24978
50586,24952
50613,24922
50643,24894
50672,24871
50677,24868
50698,24856
50714,24852
50733,24855
50763,24865
50800,24878
50828,24893
50854,24912
50886,24940
50896,24950
50921,24976
50934,24996
50939,25019
50940,25034
51790,25034
51790,24848
50797,24848
50793,24858
50785,24860
50772,24851
50770,24844
50775,24833
50787,24834
50797,24848
51790,24848
51790,24417
51218,24417
51199,24457
51181,24481
51161,24506
51149,24527
51147,24537
51145,24548
51140,24550
51130,24542
51130,24538
51125,24531
51123,24533
51124,24544
51138,24560
51138,24560
51153,24578
51160,24590
51152,24598
51132,24598
51106,24591
51086,24581
51060,24569
51037,24567
51022,24568
51022,24558
51022,24556
51023,24542
51018,24540
51000,24535
50970,24522
50936,24504
50902,24484
50874,24466
50860,24455
50834,24414
50826,24370
50835,24324
50839,24318
49854,24318
49854,24343
49842,24364
49818,24390
49788,24416
49757,24438
49734,24450
49716,24453
49681,24456
49635,24458
49580,24459
49541,24460
49463,24461
49400,24464
49351,24471
49310,24481
49274,24497
49241,24516
49183,24548
49113,24574
49055,24590
49003,24601
48967,24606
48940,24607
48920,24601
48901,24590
48893,24584
48869,24560
48860,24538
48860,24536
48861,24526
48866,24520
48880,24516
48906,24514
48948,24513
48957,24513
49032,24508
49101,24495
49171,24471
49247,24436
49279,24418
49315,24392
49351,24363
49384,24334
49411,24308
49427,24287
49430,24279
49424,24264
49410,24243
49410,24242
49392,24212
49393,24188
49413,24170
49427,24163
49455,24154
49474,24155
49483,24159
49498,24167
49503,24168
49504,24157
49503,24131
49502,24097
49502,24094
49498,24024
49456,24007
49410,23992
49349,23977
49278,23964
49203,23953
49128,23945
49084,23942
49032,23940
48995,23940
48969,23942
48949,23947
48929,23954
48922,23958
48872,23991
48826,24036
48785,24089
48753,24145
48734,24199
48730,24232
48738,24285
48760,24340
48794,24392
48818,24418
48853,24451
48864,24426
48875,24408
48896,24380
48925,24346
48949,24319
49023,24238
48995,24215
48977,24199
48973,24185
48978,24172
48987,24159
49000,24149
49021,24143
49053,24140
49100,24138
49115,24138
49168,24138
49207,24142
49227,24148
49245,24168
49249,24197
49240,24233
49220,24274
49189,24316
49151,24357
49105,24395
49071,24417
49022,24445
48986,24463
48957,24474
48933,24479
48916,24480
48881,24487
48864,24500
48837,24517
48807,24516
48779,24499
48763,24480
48742,24450
48719,24422
48717,24420
48697,24396
48675,24364
48666,24349
48652,24321
48644,24294
48640,24261
48640,24224
48641,24169
48647,24126
48659,24088
48681,24049
48712,24005
48735,23976
48793,23912
48847,23866
48898,23839
48948,23829
48950,23829
48985,23829
48955,23805
48932,23789
48914,23780
48911,23780
48898,23773
48875,23754
48846,23727
48816,23696
48815,23694
48539,23694
48534,23754
48510,23810
48509,23812
48479,23851
48440,23887
48400,23914
48370,23926
48349,23935
48318,23950
48283,23970
48281,23971
48249,23990
48224,24003
48211,24009
48210,24010
48195,24014
48167,24027
48132,24046
48094,24067
48057,24090
48031,24107
47995,24138
47960,24180
47929,24227
47904,24274
47889,24316
47886,24340
47892,24373
47910,24420
47937,24478
47954,24511
47968,24524
47994,24542
48019,24556
48057,24570
48102,24581
48149,24588
48197,24591
48239,24590
48273,24584
48294,24575
48300,24564
48306,24554
48329,24550
48339,24550
48366,24551
48379,24559
48386,24576
48388,24601
48381,24620
48361,24635
48325,24646
48273,24656
48255,24659
48212,24664
48183,24667
48158,24667
48131,24663
48094,24657
48087,24655
48027,24642
47981,24627
47944,24606
47910,24578
47889,24558
47845,24505
47810,24448
47786,24393
47776,24344
47776,24340
47781,24302
47795,24255
47815,24203
47839,24155
47864,24116
47864,24116
47880,24093
47889,24076
47890,24074
47899,24062
47921,24043
47953,24020
47992,23994
48033,23968
48074,23946
48075,23945
48110,23926
48153,23902
48198,23875
48243,23849
48282,23825
48312,23805
48330,23793
48332,23791
48341,23776
48352,23751
48354,23743
48362,23716
48360,23696
48348,23671
48347,23669
48307,23620
48252,23583
48182,23560
48097,23549
48078,23549
48034,23548
48005,23550
47983,23555
47964,23565
47946,23577
47918,23596
47893,23609
47884,23613
47865,23627
47854,23642
47833,23668
47800,23683
47761,23686
47754,23685
47730,23678
47723,23668
47496,23668
47491,23722
47487,23766
47485,23805
47485,23833
47486,23840
47486,23859
47484,23894
47479,23941
47473,23995
47465,24052
47457,24108
47450,24145
47438,24216
47427,24302
47415,24399
47410,24448
47406,24497
47404,24531
47406,24554
47411,24572
47415,24580
47425,24607
47429,24632
47420,24664
47395,24692
47361,24714
47322,24727
47284,24728
47260,24720
47239,24700
47221,24669
47211,24634
47210,24619
47216,24591
47228,24568
47239,24544
47249,24500
47258,24440
47266,24363
47272,24271
47275,24230
47277,24182
47280,24140
47283,24109
47285,24095
47283,24077
47267,24059
47255,24051
47233,24033
47221,24018
47220,24015
47210,24006
47181,23999
47134,23994
47069,23991
46988,23990
46974,23990
46906,23988
46854,23983
46818,23976
46801,23965
46800,23960
46804,23947
46817,23935
46841,23926
46878,23918
46929,23912
46997,23906
47072,23902
47120,23898
47162,23894
47192,23889
47207,23885
47207,23885
47211,23870
47211,23840
47208,23805
47202,23758
47197,23710
47193,23678
47178,23620
47148,23575
47101,23541
47055,23524
46983,23510
46920,23509
46857,23521
46805,23540
46752,23559
46703,23572
46660,23578
46627,23578
46607,23571
46604,23566
46606,23546
46621,23521
46645,23496
46659,23486
46683,23471
46713,23450
46725,23442
46756,23421
46795,23397
46820,23383
46861,23360
46907,23334
46930,23321
46969,23301
47005,23292
47041,23290
47073,23291
47096,23295
47104,23299
47119,23308
47148,23317
47188,23326
47234,23334
47280,23339
47322,23341
47330,23341
47372,23341
47398,23343
47414,23350
47422,23357
47439,23383
47455,23421
47468,23463
47475,23500
47480,23531
47487,23569
47490,23582
47496,23621
47496,23668
47723,23668
47721,23666
47720,23649
47722,23628
47727,23620
47731,23611
47732,23588
47731,23576
47736,23524
47758,23478
47784,23450
47801,23431
47809,23416
47810,23415
47818,23396
47841,23377
47871,23360
47903,23348
47931,23344
47946,23349
47966,23359
48000,23369
48044,23380
48094,23389
48144,23396
48176,23399
48265,23413
48344,23443
48414,23490
48442,23514
48493,23573
48525,23634
48539,23694
48815,23694
48787,23664
48763,23636
48748,23614
48745,23607
48733,23546
48726,23502
48722,23468
48722,23441
48726,23416
48729,23403
48748,23349
48776,23303
48810,23272
48825,23264
48862,23256
48915,23255
48982,23261
49061,23274
49149,23293
49245,23317
49346,23347
49412,23369
49505,23401
49581,23430
49641,23457
49687,23481
49722,23504
49742,23522
49757,23541
49766,23561
49769,23588
49770,23616
49771,23653
49775,23684
49780,23700
49784,23717
49781,23742
49771,23778
49751,23827
49739,23855
49729,23882
49723,23911
49719,23947
49718,23995
49718,24014
49718,24063
49719,24095
49722,24116
49728,24129
49737,24138
49741,24141
49771,24165
49788,24182
49795,24200
49795,24223
49795,24229
49794,24256
49799,24269
49813,24275
49840,24291
49854,24318
50839,24318
50861,24281
50902,24243
50905,24241
50935,24222
50954,24212
50967,24212
50979,24220
50984,24226
50994,24241
50994,24262
50982,24291
50963,24326
50945,24363
50941,24392
50949,24418
50956,24428
50972,24451
51000,24424
51022,24399
51038,24372
51039,24370
51062,24340
51094,24321
51132,24316
51169,24324
51197,24344
51217,24379
51218,24417
51790,24417
51790,23660
51297,23660
51293,23666
51284,23676
51266,23682
51235,23687
51193,23691
51148,23695
51104,23700
51071,23706
51065,23707
51029,23715
50988,23722
50975,23724
50926,23738
50898,23756
50883,23773
50877,23790
50879,23814
50881,23827
50888,23863
50896,23898
50899,23906
50902,23932
50898,23953
50888,23964
50876,23961
50873,23958
50861,23937
50848,23906
50836,23873
50830,23847
50830,23841
50824,23818
50817,23807
50810,23799
50799,23797
50781,23800
50752,23809
50720,23820
50661,23843
50619,23869
50591,23900
50571,23940
50568,23950
50561,23982
50563,24008
50569,24023
50584,24070
50587,24106
50579,24125
50565,24137
50548,24136
50526,24122
50507,24105
50485,24082
50472,24063
50470,24056
50463,24040
50450,24025
50434,24004
50431,23980
50442,23947
50451,23930
50465,23894
50476,23853
50478,23837
50485,23785
50547,23754
50604,23731
50679,23710
50770,23690
50876,23673
50940,23665
51016,23655
51076,23647
51120,23641
51151,23636
51172,23631
51185,23626
51192,23621
51215,23611
51245,23612
51275,23625
51281,23629
51297,23645
51297,23660
51790,23660
51790,23386
49570,23386
49568,23396
49561,23398
49543,23393
49524,23385
49500,23370
49490,23353
49496,23338
49505,23333
49522,23335
49543,23349
49561,23367
49569,23386
49570,23386
51790,23386
51790,20074
51495,20074
51491,20090
51469,20129
51434,20162
51389,20187
51338,20203
51285,20208
51236,20203
51194,20186
51170,20165
51160,20157
51148,20157
51126,20166
51116,20172
51061,20210
51024,20255
51013,20277
51004,20302
51006,20320
51014,20335
51023,20347
51034,20354
51052,20357
51081,20359
51122,20359
51195,20361
51253,20372
51302,20392
51322,20404
51352,20434
51367,20475
51369,20521
51357,20568
51340,20597
51306,20630
51265,20646
51215,20645
51175,20634
51132,20618
51102,20600
51086,20582
50800,20582
50799,20628
50795,20656
50789,20667
50779,20664
50769,20654
50759,20645
50750,20651
50742,20664
50727,20685
50712,20688
50705,20680
50704,20664
50709,20650
50715,20634
50706,20630
50700,20630
50683,20626
50680,20622
50686,20612
50704,20591
50729,20565
50740,20555
50800,20495
50800,20582
51086,20582
51079,20575
51056,20537
51053,20533
51031,20496
51007,20471
50974,20450
50966,20446
50910,20417
50844,20445
50808,20459
50782,20467
50758,20468
50728,20463
50719,20462
50663,20446
50596,20418
50521,20381
50442,20334
50361,20282
50347,20272
50300,20238
50289,20265
50283,20291
50277,20333
50272,20386
50268,20447
50266,20511
50265,20573
50265,20630
50271,20776
50279,20905
50289,21020
50301,21123
50316,21216
50335,21303
50357,21387
50375,21444
50399,21512
50426,21570
50459,21628
50482,21663
50507,21703
50531,21746
50550,21787
50564,21822
50569,21845
50570,21845
50578,21876
50601,21917
50640,21966
50691,22022
50704,22035
50754,22085
50791,22127
50816,22166
50832,22205
50840,22249
50844,22303
50844,22345
50836,22469
50813,22602
50778,22737
50733,22870
50678,22996
50615,23109
50584,23156
50530,23222
50474,23269
50416,23298
50355,23309
50345,23309
50283,23300
50222,23273
50162,23226
50103,23161
50045,23077
50002,23003
49967,22935
49931,22859
49896,22780
49864,22702
49837,22629
49816,22567
49804,22523
49794,22455
49792,22383
49799,22316
49804,22291
49816,22251
49833,22213
49856,22173
49887,22127
49921,22081
49944,22049
49961,22019
49969,21999
49969,21996
49960,21960
49932,21922
49887,21882
49868,21869
49828,21841
49783,21807
49740,21773
49735,21769
49674,21724
49622,21694
49579,21681
49566,21680
49535,21688
49496,21711
49449,21748
49425,21771
49397,21794
49356,21824
49308,21856
49259,21887
49252,21890
49130,21961
49188,22004
49253,22060
49303,22119
49336,22180
49352,22240
49353,22265
49353,22298
49361,22321
49378,22343
49382,22347
49404,22367
49426,22377
49456,22379
49465,22380
49500,22382
49525,22392
49545,22413
49563,22447
49578,22492
49575,22531
49555,22563
49554,22564
49523,22582
49482,22592
49443,22591
49430,22588
49409,22572
49387,22544
49367,22509
49355,22475
49353,22469
49341,22432
49321,22408
49299,22400
49277,22408
49253,22429
49231,22458
49217,22488
49214,22499
49207,22533
49199,22563
49190,22605
49196,22636
49211,22655
49242,22695
49257,22738
49255,22780
49240,22818
49212,22849
49173,22870
49125,22877
49102,22875
49059,22860
49029,22834
49013,22798
49012,22756
49025,22711
49053,22667
49073,22644
49101,22615
49117,22588
49125,22557
49125,22554
49128,22524
49125,22506
49113,22491
49103,22483
49074,22466
49043,22460
49020,22463
49004,22477
48996,22494
48985,22522
48980,22546
48980,22548
48970,22572
48947,22593
48915,22609
48880,22616
48848,22613
48838,22609
48805,22586
48789,22559
48786,22534
48794,22496
48821,22467
48863,22448
48908,22434
48948,22416
48979,22396
48997,22378
49000,22370
48993,22354
48977,22344
48961,22342
48951,22350
48941,22365
48923,22385
48921,22387
48900,22402
48878,22408
48847,22407
48802,22395
48770,22368
48753,22331
48754,22299
48768,22265
48793,22236
48810,22224
48837,22214
48866,22213
48902,22221
48935,22232
48966,22242
49002,22249
49039,22255
49071,22257
49092,22256
49100,22251
49092,22241
49072,22223
49047,22203
49013,22177
48972,22144
48935,22111
48934,22110
48898,22076
48859,22041
48826,22011
48826,22011
48800,21985
48786,21967
48782,21952
48784,21936
48794,21908
48815,21881
48849,21852
48897,21821
48962,21786
48986,21774
49073,21728
49140,21684
49190,21641
49223,21599
49239,21561
49245,21527
49241,21500
49225,21476
49195,21452
49148,21426
49139,21422
49093,21399
49043,21377
48999,21359
48990,21355
48928,21338
48852,21326
48768,21318
48682,21315
48598,21318
48589,21319
48535,21324
48478,21329
48428,21333
48410,21334
48370,21338
48337,21341
48316,21344
48315,21344
48291,21347
48260,21349
48257,21349
48229,21352
48221,21359
48231,21367
48258,21373
48282,21379
48303,21390
48325,21408
48348,21436
48376,21477
48411,21533
48417,21544
48458,21613
48487,21670
48506,21717
48515,21757
48517,21794
48515,21814
48503,21859
48482,21888
48449,21904
48401,21909
48398,21909
48339,21913
48269,21923
48199,21937
48137,21953
48121,21959
48066,21982
48013,22009
47968,22038
47931,22066
47907,22092
47900,22112
47909,22117
47936,22117
47975,22115
48041,22111
48092,22116
48130,22129
48150,22143
48187,22184
48207,22226
48208,22266
48190,22303
48180,22314
48143,22336
48099,22344
48053,22339
48010,22322
47976,22294
47958,22266
47943,22246
47924,22241
47908,22250
47901,22267
47906,22289
47922,22322
47947,22361
47979,22401
47997,22421
48026,22463
48037,22507
48033,22550
48013,22588
47978,22617
47955,22627
47907,22635
47865,22625
47827,22596
47807,22570
47794,22539
47790,22498
47794,22457
47805,22430
47813,22404
47819,22370
47819,22357
47818,22327
47812,22311
47799,22301
47794,22299
47758,22291
47722,22291
47693,22298
47688,22302
47675,22317
47657,22344
47641,22371
47624,22404
47614,22433
47610,22465
47610,22502
47606,22554
47596,22592
47575,22620
47542,22642
47538,22644
47500,22656
47456,22659
47416,22653
47395,22644
47371,22622
47349,22591
47334,22559
47330,22539
47338,22508
47361,22472
47395,22437
47436,22406
47436,22406
47485,22374
47520,22347
47545,22321
47564,22293
47570,22281
47584,22242
47593,22196
47595,22150
47591,22108
47580,22077
47575,22071
47549,22052
47518,22052
47484,22071
47459,22094
47412,22134
47356,22167
47300,22189
47280,22194
47236,22192
47196,22174
47162,22143
47139,22102
47130,22055
47130,22051
47138,22004
47160,21971
47197,21951
47207,21949
47242,21941
47280,21931
47288,21929
47319,21922
47345,21923
47378,21933
47380,21934
47424,21945
47469,21946
47484,21944
47532,21934
47567,21914
47595,21881
47609,21856
47634,21822
47673,21785
47721,21751
47772,21721
47821,21699
47864,21689
47868,21688
47883,21687
47881,21684
47862,21678
47860,21677
47792,21656
47729,21633
47674,21610
47641,21593
47616,21576
47583,21548
47543,21513
47503,21473
47494,21465
47425,21399
47359,21350
47295,21315
47227,21293
47151,21281
47090,21279
47030,21281
46977,21288
46925,21302
46867,21325
46835,21340
46806,21355
46768,21375
46725,21399
46684,21424
46648,21445
46625,21461
46625,21461
46614,21470
46591,21490
46560,21516
46524,21548
46487,21581
46451,21612
46421,21639
46399,21659
46393,21664
46356,21702
46312,21750
46265,21803
46220,21858
46181,21908
46156,21944
46114,22008
46081,22060
46055,22103
46032,22143
46010,22184
45987,22229
45975,22252
45957,22287
45942,22315
45932,22331
45931,22332
45923,22350
45915,22377
45914,22380
45908,22404
45901,22419
45900,22420
45890,22433
45876,22464
45858,22508
45837,22563
45815,22626
45791,22695
45768,22767
45746,22838
45726,22907
45710,22965
45662,23161
45625,23345
45598,23520
45580,23691
45571,23862
45570,23963
45578,24190
45606,24408
45651,24618
45715,24822
45797,25020
45899,25212
45965,25320
46032,25416
46111,25518
46197,25621
46287,25720
46376,25812
46463,25892
46506,25929
46645,26035
46793,26137
46943,26230
47090,26311
47120,26325
47155,26343
47182,26358
47198,26367
47200,26369
47211,26375
47236,26384
47262,26393
47292,26404
47313,26414
47320,26420
47328,26428
47338,26430
47359,26433
47389,26443
47421,26456
47450,26470
47469,26481
47472,26484
47479,26490
47479,26488
47485,26486
47501,26488
47531,26496
47575,26508
47636,26527
47658,26533
47697,26544
47747,26557
47804,26571
47863,26585
47920,26597
47972,26607
48014,26615
48042,26619
48048,26620
48063,26623
48065,26629
48052,26633
48024,26635
47983,26635
47935,26633
47883,26629
47832,26623
47805,26619
47764,26612
47728,26605
47705,26599
47678,26593
47641,26584
47617,26579
47583,26571
47566,26562
47566,26557
47566,26550
47556,26553
47535,26554
47512,26548
47489,26539
47475,26535
47449,26529
47414,26519
47373,26506
47332,26492
47296,26478
47268,26467
47254,26459
47254,26458
47240,26451
47230,26450
47204,26445
47163,26430
47110,26408
47048,26380
46978,26345
46904,26307
46828,26265
46752,26221
46739,26213
46592,26118
46444,26007
46298,25884
46157,25752
46025,25615
45907,25476
45859,25414
45837,25385
45819,25362
45810,25350
45810,25350
45797,25333
45776,25302
45749,25260
45717,25209
45683,25153
45649,25094
45615,25036
45584,24982
45567,24950
45528,24873
45487,24784
45446,24687
45405,24586
45368,24487
45336,24395
45311,24313
45303,24285
45285,24211
45270,24143
45259,24079
45251,24013
45246,23942
45242,23862
45240,23769
45240,23690
45242,23520
45249,23369
45260,23236
45276,23120
45290,23050
45342,22839
45401,22642
45468,22456
45545,22274
45635,22093
45699,21976
45783,21838
45885,21691
45973,21575
46050,21479
46130,21386
46211,21297
46291,21215
46367,21142
46437,21082
46486,21044
46517,21024
46562,20998
46615,20969
46671,20939
46702,20924
46796,20878
46873,20838
46938,20804
46992,20774
47037,20745
47076,20718
47111,20689
47145,20658
47180,20623
47201,20601
47241,20559
47271,20528
47297,20507
47322,20491
47349,20477
47370,20469
47429,20441
47471,20412
47494,20383
47500,20363
47496,20346
47480,20340
47471,20340
47444,20344
47410,20354
47398,20359
47366,20369
47321,20376
47270,20380
47218,20380
47170,20377
47134,20371
47120,20366
47095,20353
47063,20336
47054,20331
47013,20309
46954,20330
46894,20359
46854,20390
46804,20428
46744,20455
46683,20469
46665,20469
46626,20468
46601,20460
46583,20442
46569,20419
46552,20367
46553,20318
46571,20273
46604,20238
46624,20226
46670,20211
46730,20206
46800,20212
46843,20219
46877,20225
46900,20226
46917,20220
46925,20215
46945,20192
46949,20161
46938,20124
46913,20084
46876,20043
46827,20004
46820,19999
46792,19979
46760,19952
46737,19933
46708,19907
46688,19894
46672,19892
46654,19900
46643,19906
46611,19919
46569,19923
46527,19920
46495,19910
46462,19882
46438,19843
46424,19797
46421,19751
46433,19711
46461,19680
46502,19658
46550,19649
46599,19653
46633,19665
46669,19687
46709,19721
46748,19759
46778,19797
46779,19798
46815,19843
46858,19879
46902,19903
46943,19912
46945,19912
46977,19904
47005,19885
47024,19860
47028,19847
47025,19830
47013,19810
46989,19784
46977,19773
46937,19735
46911,19705
46897,19679
46891,19651
46893,19619
46893,19618
46900,19578
46913,19552
46936,19532
46952,19523
46999,19507
47044,19510
47070,19521
47105,19542
47124,19565
47131,19598
47131,19617
47130,19693
47130,19758
47131,19810
47134,19849
47137,19870
47139,19873
47153,19878
47166,19865
47176,19837
47182,19797
47185,19762
47192,19739
47206,19720
47224,19703
47252,19682
47280,19668
47290,19664
47328,19665
47365,19682
47398,19709
47421,19743
47429,19778
47422,19800
47405,19824
47401,19828
47375,19852
47346,19879
47336,19889
47313,19914
47297,19939
47293,19949
47285,19975
47272,20006
47269,20013
47257,20049
47258,20071
47273,20079
47298,20072
47335,20051
47346,20043
47378,20018
47408,19995
47423,19983
47471,19952
47535,19927
47610,19907
47691,19894
47774,19890
47826,19896
47867,19916
47901,19952
47921,19987
47930,20006
47936,20025
47940,20047
47943,20076
47944,20117
47944,20172
47944,20198
47944,20361
47979,20356
47999,20354
48035,20352
48085,20349
48146,20347
48213,20345
48265,20343
48407,20341
48532,20343
48645,20349
48748,20360
48847,20375
48943,20396
49000,20410
49089,20438
49185,20472
49282,20512
49373,20553
49455,20595
49510,20628
49578,20664
49644,20685
49706,20691
49762,20682
49809,20659
49845,20621
49854,20604
49869,20559
49877,20501
49878,20435
49871,20367
49865,20336
49856,20280
49853,20220
49855,20163
49862,20120
49867,20100
49873,20072
49874,20071
49886,20029
49904,19988
49923,19954
49937,19937
49975,19912
50026,19891
50085,19877
50124,19872
50197,19867
50381,19959
50440,19990
50496,20019
50545,20046
50584,20068
50609,20084
50610,20085
50653,20114
50688,20130
50713,20135
50722,20131
50722,20118
50713,20091
50698,20060
50675,20019
50652,19975
50637,19947
50618,19900
50610,19852
50613,19810
50624,19784
50642,19767
50669,19749
50679,19745
50706,19734
50725,19732
50745,19738
50755,19743
50781,19761
50807,19789
50815,19800
50830,19828
50838,19854
50839,19887
50838,19903
50837,19938
50839,19957
50846,19965
50852,19968
50869,19964
50873,19958
50887,19903
50898,19847
50906,19797
50909,19759
50909,19758
50916,19711
50937,19671
50969,19642
51008,19628
51051,19630
51052,19630
51100,19651
51133,19685
51148,19720
51155,19747
51154,19768
51145,19793
51138,19808
51112,19846
51078,19874
51068,19880
51020,19909
50991,19936
50980,19962
50987,19989
51011,20020
51022,20031
51047,20052
51068,20066
51077,20069
51106,20063
51143,20045
51184,20019
51208,20000
51260,19966
51316,19949
51381,19949
51393,19951
51442,19966
51476,19992
51494,20029
51495,20074
51790,20074
51790,19370
45010,19370
45010,26830
" /> 
<polyline style="fill-rule:evenodd;"
points="49860,20882
49842,20890
49803,20922
49779,20964
49772,21012
49772,21020
49777,21052
49783,21078
49785,21084
49788,21097
49779,21097
49774,21095
49747,21087
49735,21085
49706,21088
49671,21102
49635,21121
49607,21142
49602,21148
49585,21172
49581,21182
49590,21177
49612,21157
49613,21156
49659,21124
49713,21110
49729,21110
49749,21117
49776,21136
49805,21162
49831,21191
49851,21218
49854,21224
49863,21246
49864,21262
49856,21280
49843,21300
49826,21324
49815,21333
49807,21329
49803,21325
49794,21315
49786,21320
49778,21336
49756,21360
49723,21371
49682,21372
49638,21360
49597,21338
49578,21326
49570,21329
49570,21331
49579,21349
49606,21365
49647,21380
49658,21383
49685,21391
49703,21404
49721,21425
49738,21452
49762,21488
49784,21507
49804,21508
49824,21494
49837,21471
49840,21455
49846,21431
49855,21420
49866,21400
49870,21382
49876,21359
49893,21327
49917,21291
49945,21255
49973,21225
49986,21214
50012,21190
50039,21157
50064,21122
50082,21089
50083,21085
50005,21085
50004,21091
49993,21112
49974,21137
49950,21163
49926,21185
49906,21199
49895,21202
49882,21191
49861,21170
49848,21155
49819,21120
49801,21091
49791,21060
49786,21030
49787,20987
49800,20950
49823,20922
49852,20907
49882,20907
49908,20921
49936,20948
49963,20983
49986,21021
50001,21056
50005,21085
50083,21085
50089,21065
50090,21063
50082,21047
50062,21023
50033,20994
49999,20962
49964,20933
49930,20908
49902,20891
49878,20881
49860,20882
" /> 
<polyline style="fill-rule:evenodd;"
points="49690,21225
49684,21236
49667,21248
49634,21263
49605,21274
49592,21280
49597,21288
49600,21290
49629,21299
49666,21299
49702,21290
49724,21278
49751,21257
49728,21233
49706,21214
49693,21212
49690,21225
" /> 
<polyline style="fill-rule:evenodd;"
points="49571,21264
49560,21274
49563,21279
49564,21280
49572,21272
49575,21268
49577,21261
49571,21264
" /> 
<polyline style="fill-rule:evenodd;"
points="49573,21208
49571,21223
49573,21227
49578,21224
49579,21214
49576,21203
49573,21208
" /> 
<polyline style="fill-rule:evenodd;"
points="49326,20669
49305,20679
49296,20688
49290,20705
49281,20738
49272,20784
49262,20838
49252,20899
49244,20946
49232,21025
49219,21086
49207,21130
49193,21161
49178,21180
49171,21185
49157,21194
49158,21199
49160,21199
49181,21194
49191,21190
49206,21172
49222,21137
49238,21087
49250,21040
49260,21003
49275,20955
49292,20903
49311,20851
49328,20806
49342,20774
49344,20771
49359,20746
49374,20730
49388,20709
49387,20688
49373,20672
49349,20665
49326,20669
" /> 
<polyline style="fill-rule:evenodd;"
points="48769,20819
48738,20848
48721,20878
48693,20944
48672,20992
48658,21027
48651,21048
48650,21057
48654,21057
48664,21049
48670,21043
48691,21023
48724,21056
48756,21079
48790,21090
48821,21088
48838,21078
48847,21057
48847,21035
48810,21035
48804,21055
48789,21058
48766,21045
48749,21030
48726,21002
48720,20979
48729,20965
48748,20963
48771,20975
48792,20996
48806,21020
48810,21035
48847,21035
48847,21029
48839,21001
48826,20978
48808,20970
48808,20970
48792,20963
48773,20949
48756,20931
48748,20917
48748,20912
48771,20892
48803,20888
48844,20900
48884,20914
48909,20916
48918,20905
48910,20884
48886,20853
48881,20848
48841,20819
48804,20809
48769,20819
" /> 
<polyline style="fill-rule:evenodd;"
points="47775,20458
47755,20472
47740,20493
47734,20512
47735,20517
47742,20537
47753,20567
47757,20580
47768,20611
47777,20638
47780,20645
47785,20664
47789,20693
47792,20726
47793,20757
47792,20780
47789,20789
47789,20790
47777,20785
47754,20773
47736,20764
47700,20748
47670,20742
47649,20746
47643,20755
47650,20764
47671,20777
47699,20792
47730,20809
47754,20825
47763,20835
47763,20847
47755,20865
47737,20891
47707,20928
47671,20971
47652,20994
47642,21010
47642,21015
47656,21017
47676,21003
47699,20977
47704,20971
47728,20939
47757,20907
47764,20900
47798,20867
47803,20891
47807,20912
47813,20947
47819,20985
47826,21022
47834,21052
47841,21070
47841,21070
47847,21074
47846,21062
47844,21050
47841,21030
47839,20994
47837,20944
47836,20883
47835,20815
47834,20761
47833,20676
47832,20609
47830,20558
47826,20519
47821,20492
47814,20474
47806,20463
47794,20456
47793,20455
47775,20458
" /> 
<polyline style="fill-rule:evenodd;"
points="49160,21025
49165,21030
49170,21025
49165,21020
49160,21025
" /> 
<polyline style="fill-rule:evenodd;"
points="48210,20755
48189,20768
48174,20783
48174,20799
48179,20808
48191,20822
48212,20829
48233,20830
48272,20835
48297,20853
48311,20885
48314,20922
48313,20953
48309,20970
48297,20979
48287,20984
48249,20988
48229,20982
48207,20977
48200,20981
48209,20992
48229,21004
48272,21018
48309,21013
48334,20996
48356,20963
48367,20918
48368,20859
48368,20854
48365,20827
48359,20809
48345,20796
48319,20782
48310,20777
48266,20758
48235,20751
48210,20755
" /> 
<polyline style="fill-rule:evenodd;"
points="50070,20985
50075,20990
50080,20985
50075,20980
50070,20985
" /> 
<polyline style="fill-rule:evenodd;"
points="48390,20845
48395,20850
48400,20845
48395,20840
48390,20845
" /> 
<polyline style="fill-rule:evenodd;"
points="48897,23372
48859,23395
48836,23432
48827,23481
48828,23531
48836,23572
48853,23609
48883,23645
48927,23686
48941,23697
49015,23754
49085,23794
49152,23820
49222,23833
49225,23834
49271,23839
49319,23848
49350,23855
49393,23863
49438,23869
49456,23869
49507,23870
49514,23807
49519,23766
49526,23728
49530,23707
49535,23655
49522,23610
49492,23573
49478,23564
49407,23522
49327,23482
49244,23444
49162,23412
49086,23386
49021,23370
49014,23369
48949,23363
48897,23372
" /> 
<polyline style="fill-rule:evenodd;"
points="51109,24386
51082,24408
51074,24416
51049,24446
51041,24466
51049,24477
51068,24480
51095,24473
51122,24451
51129,24444
51150,24415
51155,24395
51143,24384
51131,24381
51109,24386
" /> 
<polyline style="fill-rule:evenodd;"
points="50739,20565
50713,20591
50701,20606
50700,20614
50708,20618
50710,20618
50725,20626
50725,20635
50716,20658
50713,20665
50711,20678
50718,20679
50729,20669
50738,20653
50748,20636
50757,20634
50770,20645
50780,20653
50786,20653
50789,20641
50789,20615
50790,20589
50790,20515
50739,20565
" /> 
</g> 
</svg>
