<?xml version="1.0" standalone="no"?>
 <!DOCTYPE svg PUBLIC "-//W3C//DTD SVG 1.1//EN" 
 "http://www.w3.org/Graphics/SVG/1.1/DTD/svg11.dtd"> 
<svg xmlns="http://www.w3.org/2000/svg" version="1.1" 
    width="29.7002cm" height="21.0007cm" viewBox="0 0 116930 82680 ">
<title>SVG Picture created as WT32-SC01-F.SilkS.svg date 2022/04/27 08:35:33 </title>
  <desc>Picture generated by PCBNEW </desc>
<g style="fill:#000000; fill-opacity:1;stroke:#000000; stroke-opacity:1;
stroke-linecap:round; stroke-linejoin:round; "
 transform="translate(0 0) scale(1 1)">
</g>
<g style="fill:#000000; fill-opacity:0.0; 
stroke:#000000; stroke-width:-0.000393701; stroke-opacity:1; 
stroke-linecap:round; stroke-linejoin:round;">
</g>
<g style="fill:#000000; fill-opacity:0.0; 
stroke:#000000; stroke-width:59.0551; stroke-opacity:1; 
stroke-linecap:round; stroke-linejoin:round;">
<path d="M56250 18750
L56250 15850
" />
<path d="M55950 19350
L55950 18850
" />
<path d="M55950 21950
L55950 21450
" />
<path d="M56250 30800
L56250 22050
" />
<path d="M56250 36950
L56250 34050
" />
<path d="M55950 33300
L55950 33900
" />
<path d="M55950 31500
L55950 30950
" />
<path d="M53200 14950
L55350 14950
" />
<path d="M51850 15650
L52800 15650
" />
<path d="M47850 15650
L47850 18550
" />
<path d="M49950 15650
L47850 15650
" />
</g>
<g style="fill:#000000; fill-opacity:0.0; 
stroke:#000000; stroke-width:118.11; stroke-opacity:1; 
stroke-linecap:round; stroke-linejoin:round;">
<path d="M42123 21257
L42207 21285
L42236 21314
L42264 21370
L42264 21454
L42236 21510
L42207 21539
L42151 21567
L41926 21567
L41926 20976
L42123 20976
L42179 21004
L42207 21032
L42236 21089
L42236 21145
L42207 21201
L42179 21229
L42123 21257
L41926 21257
" />
<path d="M42489 21398
L42770 21398
" />
<path d="M42432 21567
L42629 20976
L42826 21567
" />
<path d="M42939 20976
L43276 20976
" />
<path d="M43107 21567
L43107 20976
" />
<path d="M43923 21342
L44373 21342
" />
<path d="M42123 19757
L42207 19785
L42236 19814
L42264 19870
L42264 19954
L42236 20010
L42207 20039
L42151 20067
L41926 20067
L41926 19476
L42123 19476
L42179 19504
L42207 19532
L42236 19589
L42236 19645
L42207 19701
L42179 19729
L42123 19757
L41926 19757
" />
<path d="M42489 19898
L42770 19898
" />
<path d="M42432 20067
L42629 19476
L42826 20067
" />
<path d="M42939 19476
L43276 19476
" />
<path d="M43107 20067
L43107 19476
" />
<path d="M43923 19842
L44373 19842
" />
<path d="M44148 20067
L44148 19617
" />
<path d="M52960 31875
L52932 31959
L52932 32100
L52960 32156
L52989 32184
L53045 32212
L53101 32212
L53157 32184
L53185 32156
L53214 32100
L53242 31987
L53270 31931
L53298 31903
L53354 31875
L53410 31875
L53467 31903
L53495 31931
L53523 31987
L53523 32128
L53495 32212
" />
<path d="M53242 32465
L53242 32662
" />
<path d="M52932 32746
L52932 32465
L53523 32465
L53523 32746
" />
<path d="M52932 33281
L52932 32999
L53523 32999
" />
<path d="M52536 17217
L52536 16626
L52761 16626
L52817 16654
L52845 16682
L52873 16739
L52873 16823
L52845 16879
L52817 16907
L52761 16935
L52536 16935
" />
<path d="M53239 16626
L53351 16626
L53407 16654
L53464 16710
L53492 16823
L53492 17020
L53464 17132
L53407 17189
L53351 17217
L53239 17217
L53182 17189
L53126 17132
L53098 17020
L53098 16823
L53126 16710
L53182 16654
L53239 16626
" />
<path d="M53689 16626
L53829 17217
L53942 16795
L54054 17217
L54195 16626
" />
<path d="M54420 16907
L54617 16907
" />
<path d="M54701 17217
L54420 17217
L54420 16626
L54701 16626
" />
<path d="M55292 17217
L55095 16935
" />
<path d="M54954 17217
L54954 16626
L55179 16626
L55235 16654
L55263 16682
L55292 16739
L55292 16823
L55263 16879
L55235 16907
L55179 16935
L54954 16935
" />
</g>
<g style="fill:#000000; fill-opacity:0.0; 
stroke:#000000; stroke-width:59.0551; stroke-opacity:1; 
stroke-linecap:round; stroke-linejoin:round;">
<path d="M21200 37750
L21250 37750
" />
<path d="M21350 14950
L21300 14950
" />
<path d="M39550 15900
L39550 18550
" />
<path d="M38400 15900
L39550 15900
" />
<path d="M55950 30950
L56250 30800
" />
<path d="M55950 33900
L56250 34050
" />
<path d="M55950 31500
L55950 33300
" />
<path d="M55950 18850
L56250 18750
" />
<path d="M55950 21950
L56250 22050
" />
<path d="M55950 19350
L55950 21450
" />
<path d="M33050 14950
L21350 14950
" />
<path d="M33050 15900
L33050 14950
" />
<path d="M38400 15900
L33050 15900
" />
<path d="M47850 18550
L39550 18550
" />
<path d="M52800 15650
L53200 14950
" />
<path d="M49950 15650
L51850 15650
" />
<path d="M56250 15850 A900 900 0.0 0 0 55350 14950 " />
<path d="M20400 36950
L20400 15850
" />
<path d="M21250 37750
L55450 37750
" />
<path d="M55450 37750 A800 800 0.0 0 0 56250 36950 " />
<path d="M20400 36950 A800 800 0.0 0 0 21200 37750 " />
<path d="M21300 14950 A900 900 0.0 0 0 20400 15850 " />
<path d="M20429.5 36892.1 A885.827 885.827 0.0 0 0 21315.4 37778 " />
<path d="M55370.5 37778 A885.827 885.827 0.0 0 0 56256.3 36892.1 " />
<path d="M56256.3 15829.1 A885.827 885.827 0.0 0 0 55370.5 14943.3 " />
<path d="M21315.4 14943.3 A885.827 885.827 0.0 0 0 20429.5 15829.1 " />
<path d="M21315 14943
L55370 14943
" />
<path d="M56256 15829
L56256 36892
" />
<path d="M55370 37777
L21315 37777
" />
<path d="M20429 36892
L20429 15927
" />
<path d="M20429 15927
L20429 15829
" />
<path d="M38307 36400
L38307 34400
" />
<path d="M38207 36000
L38407 36000
" />
<path d="M51854 15648
L51854 16751
" />
<path d="M49964 15648
L51854 15648
" />
<path d="M49964 16751
L49964 15648
" />
<path d="M51854 16751
L49964 16751
" />
</g>
<g style="fill:#000000; fill-opacity:0.0; 
stroke:#000000; stroke-width:47.2441; stroke-opacity:1; 
stroke-linecap:round; stroke-linejoin:round;">
<path d="M50948 15011
L50948 15518
" />
<path d="M51381 14928
L51027 14928
" />
<path d="M51460 15518
L51460 15011
" />
<path d="M50948 15011
L51027 14928
" />
<path d="M51460 15011
L51381 14928
" />
</g>
<g style="fill:#000000; fill-opacity:0.0; 
stroke:#000000; stroke-width:59.0551; stroke-opacity:1; 
stroke-linecap:round; stroke-linejoin:round;">
<path d="M35732 20424
L38409 20424
" />
<path d="M38409 20424
L38409 15896
" />
<path d="M38409 15896
L33055 15896
" />
<path d="M33055 15896
L33055 20424
" />
<path d="M33055 20424
L35732 20424
" />
<path d="M33311 19046
L34295 19046
" />
<path d="M34295 19046
L34295 17196
" />
<path d="M34295 17196
L33311 17196
" />
<path d="M33311 17196
L33311 19066
" />
<path d="M33311 19066
L33311 19046
" />
<path d="M35831 15896
L37996 15896
" />
<path d="M37996 15896
L37996 13140
" />
<path d="M37996 13140
L33665 13140
" />
<path d="M33665 13140
L33665 15877
" />
</g>
<g style="fill:#000000; fill-opacity:1.0; 
stroke:#000000; stroke-width:59.0551; stroke-opacity:1; 
stroke-linecap:round; stroke-linejoin:round;">
<polyline style="fill-rule:evenodd;"
points="33665,13140
37996,13140
37996,15896
33665,15877
33665,13140
" /> 
</g>
<g style="fill:#000000; fill-opacity:1.0; 
stroke:#000000; stroke-width:47.2441; stroke-opacity:1; 
stroke-linecap:round; stroke-linejoin:round;">
</g>
<g style="fill:#000000; fill-opacity:0.0; 
stroke:#000000; stroke-width:47.2441; stroke-opacity:1; 
stroke-linecap:round; stroke-linejoin:round;">
<path d="M44025 22772
L44025 26014
" />
<path d="M44025 26014
L46474 26014
" />
<path d="M46474 26014
L46474 22772
" />
</g>
<g style="fill:#000000; fill-opacity:0.0; 
stroke:#000000; stroke-width:59.0551; stroke-opacity:1; 
stroke-linecap:round; stroke-linejoin:round;">
<circle cx="26372" cy="18250" r="2900" /> 
<path d="M23672 19250
L23672 21050
" />
<path d="M23672 21050
L24672 21050
" />
<path d="M24672 21050
L24672 20550
" />
<path d="M23672 17250
L23672 15450
" />
<path d="M23672 15450
L24672 15450
" />
<path d="M24672 15450
L24672 15950
" />
</g>
<g style="fill:#000000; fill-opacity:0.0; 
stroke:#000000; stroke-width:47.2441; stroke-opacity:1; 
stroke-linecap:round; stroke-linejoin:round;">
<path d="M27127 27091
L27601 27091
" />
<path d="M27127 27808
L27601 27808
" />
<path d="M39558 20251
L39558 19777
" />
<path d="M38841 20251
L38841 19777
" />
<path d="M52541 27972
L52541 27498
" />
<path d="M53258 27972
L53258 27498
" />
<path d="M33625 26838
L33625 30011
" />
<path d="M33625 30011
L36074 30011
" />
<path d="M36074 30011
L36074 26838
" />
<path d="M44701 33491
L44227 33491
" />
<path d="M44701 34208
L44227 34208
" />
<path d="M38598 28150
L38598 29449
" />
<path d="M38598 29449
L40724 29449
" />
<path d="M38598 28150
L40724 28150
" />
<path d="M35834 32779
L35834 30220
" />
<path d="M35834 32779
L39732 32779
" />
<path d="M35834 30220
L39732 30220
" />
<path d="M55253 24855
L55253 26454
" />
<path d="M55253 26454
L56146 26454
" />
<path d="M56146 26454
L56146 24855
" />
<path d="M55253 22595
L55253 24194
" />
<path d="M56146 22595
L55253 22595
" />
<path d="M56146 24194
L56146 22595
" />
<path d="M55190 28671
L54009 28671
" />
<path d="M54009 30128
L54009 28671
" />
<path d="M55190 30128
L54009 30128
" />
<path d="M55190 28671
L55190 30128
" />
<path d="M55140 26871
L55140 28328
" />
<path d="M55140 28328
L53959 28328
" />
<path d="M53959 28328
L53959 26871
" />
<path d="M55140 26871
L53959 26871
" />
<path d="M38601 32306
L38601 33093
" />
<path d="M37498 32306
L38601 32306
" />
<path d="M37498 33093
L37498 32306
" />
<path d="M38601 33093
L37498 33093
" />
<path d="M42147 30123
L42147 28863
" />
<path d="M42147 28863
L46320 28863
" />
<path d="M46320 28863
L46320 30123
" />
<path d="M46320 31776
L46320 33036
" />
<path d="M46320 33036
L42147 33036
" />
<path d="M42147 33036
L42147 31776
" />
<path d="M25401 28058
L24927 28058
" />
<path d="M25401 27341
L24927 27341
" />
<path d="M25401 26441
L24927 26441
" />
<path d="M25401 27158
L24927 27158
" />
<path d="M50872 21958
L50398 21958
" />
<path d="M50872 21241
L50398 21241
" />
</g>
<g style="fill:#000000; fill-opacity:0.0; 
stroke:#000000; stroke-width:59.0551; stroke-opacity:1; 
stroke-linecap:round; stroke-linejoin:round;">
<path d="M56226 20045
L55754 20006
" />
<path d="M56226 20754
L56226 20045
" />
<path d="M55754 20793
L56226 20754
" />
<path d="M55754 21266
L55754 20400
" />
<path d="M54848 21266
L55754 21266
" />
<path d="M54848 19533
L54848 21266
" />
<path d="M55754 19533
L54848 19533
" />
<path d="M55754 20400
L55754 19533
" />
<path d="M49807 31254
L51854 31254
" />
<path d="M51854 31254
L51854 33301
" />
<path d="M51854 33301
L49807 33301
" />
<path d="M49807 33301
L49807 31254
" />
<path d="M55754 32400
L55754 31533
" />
<path d="M55754 31533
L54848 31533
" />
<path d="M54848 31533
L54848 33266
" />
<path d="M54848 33266
L55754 33266
" />
<path d="M55754 33266
L55754 32400
" />
<path d="M55754 32793
L56226 32754
" />
<path d="M56226 32754
L56226 32045
" />
<path d="M56226 32045
L55754 32006
" />
</g>
<g style="fill:#000000; fill-opacity:0.0; 
stroke:#000000; stroke-width:47.2441; stroke-opacity:1; 
stroke-linecap:round; stroke-linejoin:round;">
<circle cx="39100" cy="26300" r="374.016" /> 
<circle cx="50800" cy="29250" r="374.016" /> 
<path d="M28270 23900
L28270 22380
" />
<path d="M28270 22380
L28170 22380
" />
<path d="M28270 23900
L28270 25419
" />
<path d="M28270 25419
L28170 25419
" />
<path d="M24129 23900
L24129 22380
" />
<path d="M24129 22380
L24229 22380
" />
<path d="M24129 23900
L24129 25419
" />
<path d="M24129 25419
L24229 25419
" />
<path d="M24229 25419
L24229 26134
" />
<path d="M51047 28640
L51362 28640
" />
<path d="M51047 28640
L50732 28640
" />
<path d="M51047 27411
L51362 27411
" />
<path d="M51047 27411
L50339 27411
" />
<path d="M50899 23130
L49511 23130
" />
<path d="M50899 23130
L51639 23130
" />
<path d="M50899 25169
L50158 25169
" />
<path d="M50899 25169
L51639 25169
" />
<path d="M43550 26492
L42782 26492
" />
<path d="M43550 26492
L44317 26492
" />
<path d="M43550 28507
L42782 28507
" />
<path d="M43550 28507
L44908 28507
" />
<path d="M48426 27232
L47560 27232
" />
<path d="M48426 27232
L49293 27232
" />
<path d="M48426 28500
L47560 28500
" />
<path d="M48426 28500
L49844 28500
" />
<path d="M52621 22909
L52621 24090
" />
<path d="M54078 24090
L52621 24090
" />
<path d="M54078 22909
L54078 24090
" />
<path d="M52621 22909
L54078 22909
" />
<path d="M52621 24859
L54078 24859
" />
<path d="M54078 24859
L54078 26040
" />
<path d="M54078 26040
L52621 26040
" />
<path d="M52621 24859
L52621 26040
" />
<path d="M31689 19601
L31217 19601
" />
<path d="M29910 19601
L30382 19601
" />
<path d="M29910 20962
L29910 19601
" />
<path d="M31689 20962
L31689 19601
" />
<path d="M31270 21381
L31217 21381
" />
<path d="M30329 21381
L30382 21381
" />
<path d="M30329 21381
L29910 20962
" />
<path d="M31270 21381
L31689 20962
" />
<path d="M30185 21672
L30185 21475
" />
<path d="M30087 21574
L30284 21574
" />
<path d="M47229 28663
L47229 29332
" />
<path d="M47229 30836
L47229 30167
" />
<path d="M48983 30836
L47229 30836
" />
<path d="M48983 28663
L47229 28663
" />
<path d="M49402 29082
L49402 29332
" />
<path d="M49402 30417
L49402 30167
" />
<path d="M49402 30417
L48983 30836
" />
<path d="M49402 29082
L48983 28663
" />
<path d="M49743 30413
L49497 30413
" />
<path d="M49620 30536
L49620 30290
" />
<path d="M41863 25487
L42109 25487
" />
<path d="M41986 25611
L41986 25364
" />
<path d="M43317 25270
L43736 24851
" />
<path d="M41982 25270
L41563 24851
" />
<path d="M41982 25270
L42232 25270
" />
<path d="M43317 25270
L43067 25270
" />
<path d="M43736 24851
L43736 23097
" />
<path d="M41563 24851
L41563 23097
" />
<path d="M41563 23097
L42232 23097
" />
<path d="M43736 23097
L43067 23097
" />
<path d="M38436 27397
L37767 27397
" />
<path d="M36263 27397
L36932 27397
" />
<path d="M36263 29151
L36263 27397
" />
<path d="M38436 29151
L38436 27397
" />
<path d="M38017 29570
L37767 29570
" />
<path d="M36682 29570
L36932 29570
" />
<path d="M36682 29570
L36263 29151
" />
<path d="M38017 29570
L38436 29151
" />
<path d="M36686 29911
L36686 29664
" />
<path d="M36563 29787
L36809 29787
" />
<path d="M49074 26262
L49074 26065
" />
<path d="M49172 26164
L48975 26164
" />
<path d="M48881 25079
L48462 24660
" />
<path d="M48881 26020
L48462 26439
" />
<path d="M48881 26020
L48881 25967
" />
<path d="M48881 25079
L48881 25132
" />
<path d="M48462 24660
L47101 24660
" />
<path d="M48462 26439
L47101 26439
" />
<path d="M47101 26439
L47101 25967
" />
<path d="M47101 24660
L47101 25132
" />
<path d="M27429 28813
L27429 29059
" />
<path d="M27306 28936
L27552 28936
" />
<path d="M27647 30267
L28066 30686
" />
<path d="M27647 28932
L28066 28513
" />
<path d="M27647 28932
L27647 29182
" />
<path d="M27647 30267
L27647 30017
" />
<path d="M28066 30686
L29820 30686
" />
<path d="M28066 28513
L29820 28513
" />
<path d="M29820 28513
L29820 29182
" />
<path d="M29820 30686
L29820 30017
" />
<path d="M27763 32063
L27763 32732
" />
<path d="M27763 34236
L27763 33567
" />
<path d="M29517 34236
L27763 34236
" />
<path d="M29517 32063
L27763 32063
" />
<path d="M29936 32482
L29936 32732
" />
<path d="M29936 33817
L29936 33567
" />
<path d="M29936 33817
L29517 34236
" />
<path d="M29936 32482
L29517 32063
" />
<path d="M30277 33813
L30031 33813
" />
<path d="M30154 33936
L30154 33690
" />
<path d="M29558 26677
L29558 27151
" />
<path d="M28841 26677
L28841 27151
" />
<path d="M29558 22887
L29558 23084
" />
<path d="M29460 22985
L29657 22985
" />
<path d="M29751 24070
L30170 24489
" />
<path d="M29751 23129
L30170 22710
" />
<path d="M29751 23129
L29751 23182
" />
<path d="M29751 24070
L29751 24017
" />
<path d="M30170 24489
L31531 24489
" />
<path d="M30170 22710
L31531 22710
" />
<path d="M31531 22710
L31531 23182
" />
<path d="M31531 24489
L31531 24017
" />
<path d="M27551 30991
L27077 30991
" />
<path d="M27551 31708
L27077 31708
" />
<path d="M32460 34031
L32932 34031
" />
<path d="M34239 34031
L33767 34031
" />
<path d="M34239 32670
L34239 34031
" />
<path d="M32460 32670
L32460 34031
" />
<path d="M32879 32251
L32932 32251
" />
<path d="M33820 32251
L33767 32251
" />
<path d="M33820 32251
L34239 32670
" />
<path d="M32879 32251
L32460 32670
" />
<path d="M33964 31960
L33964 32157
" />
<path d="M34062 32058
L33865 32058
" />
<path d="M46661 35255
L46551 35255
" />
<path d="M46551 35255
L46551 34625
" />
<path d="M46551 34625
L46188 34625
" />
<path d="M46188 34625
L46188 37703
" />
<path d="M46188 37703
L50173 37703
" />
<path d="M50173 37703
L50173 34625
" />
<path d="M50173 34625
L49811 34625
" />
<path d="M49811 34625
L49811 35255
" />
<path d="M49811 35255
L49700 35255
" />
<path d="M47196 37703
L47196 35987
" />
<path d="M47196 35987
L49165 35987
" />
<path d="M49165 35987
L49165 37703
" />
<path d="M46188 35255
L46551 35255
" />
<path d="M50173 35255
L49811 35255
" />
<path d="M46488 36184
L46488 36814
" />
<path d="M46488 36814
L46881 36814
" />
<path d="M46881 36814
L46881 36184
" />
<path d="M46881 36184
L46488 36184
" />
<path d="M49874 36184
L49874 36814
" />
<path d="M49874 36814
L49480 36814
" />
<path d="M49480 36814
L49480 36184
" />
<path d="M49480 36184
L49874 36184
" />
<path d="M46881 36814
L46881 37703
" />
<path d="M46685 36814
L46685 37703
" />
<path d="M46661 35255
L46661 34776
" />
<path d="M23094 21861
L23573 21861
" />
<path d="M21535 21885
L20646 21885
" />
<path d="M21535 22081
L20646 22081
" />
<path d="M22165 24680
L22165 25074
" />
<path d="M21535 24680
L22165 24680
" />
<path d="M21535 25074
L21535 24680
" />
<path d="M22165 25074
L21535 25074
" />
<path d="M22165 22081
L22165 21688
" />
<path d="M21535 22081
L22165 22081
" />
<path d="M21535 21688
L21535 22081
" />
<path d="M22165 21688
L21535 21688
" />
<path d="M23094 25373
L23094 25011
" />
<path d="M23094 21388
L23094 21751
" />
<path d="M22362 24365
L20646 24365
" />
<path d="M22362 22396
L22362 24365
" />
<path d="M20646 22396
L22362 22396
" />
<path d="M23094 25011
L23094 24900
" />
<path d="M23724 25011
L23094 25011
" />
<path d="M23724 25373
L23724 25011
" />
<path d="M20646 25373
L23724 25373
" />
<path d="M20646 21388
L20646 25373
" />
<path d="M23724 21388
L20646 21388
" />
<path d="M23724 21751
L23724 21388
" />
<path d="M23094 21751
L23724 21751
" />
<path d="M23094 21861
L23094 21751
" />
<path d="M50911 35255
L50801 35255
" />
<path d="M50801 35255
L50801 34625
" />
<path d="M50801 34625
L50438 34625
" />
<path d="M50438 34625
L50438 37703
" />
<path d="M50438 37703
L53635 37703
" />
<path d="M53635 37703
L53635 34625
" />
<path d="M53635 34625
L53273 34625
" />
<path d="M53273 34625
L53273 35255
" />
<path d="M53273 35255
L53163 35255
" />
<path d="M51446 37703
L51446 35987
" />
<path d="M51446 35987
L52627 35987
" />
<path d="M52627 35987
L52627 37703
" />
<path d="M50438 35255
L50801 35255
" />
<path d="M53635 35255
L53273 35255
" />
<path d="M50738 36184
L50738 36814
" />
<path d="M50738 36814
L51131 36814
" />
<path d="M51131 36814
L51131 36184
" />
<path d="M51131 36184
L50738 36184
" />
<path d="M53336 36184
L53336 36814
" />
<path d="M53336 36814
L52942 36814
" />
<path d="M52942 36814
L52942 36184
" />
<path d="M52942 36184
L53336 36184
" />
<path d="M51131 36814
L51131 37703
" />
<path d="M50935 36814
L50935 37703
" />
<path d="M50911 35255
L50911 34776
" />
<path d="M28461 35255
L28351 35255
" />
<path d="M28351 35255
L28351 34625
" />
<path d="M28351 34625
L27988 34625
" />
<path d="M27988 34625
L27988 37703
" />
<path d="M27988 37703
L30398 37703
" />
<path d="M30398 37703
L30398 34625
" />
<path d="M30398 34625
L30036 34625
" />
<path d="M30036 34625
L30036 35255
" />
<path d="M30036 35255
L29925 35255
" />
<path d="M28996 37703
L28996 35987
" />
<path d="M28996 35987
L29390 35987
" />
<path d="M29390 35987
L29390 37703
" />
<path d="M27988 35255
L28351 35255
" />
<path d="M30398 35255
L30036 35255
" />
<path d="M28288 36184
L28288 36814
" />
<path d="M28288 36814
L28681 36814
" />
<path d="M28681 36814
L28681 36184
" />
<path d="M28681 36184
L28288 36184
" />
<path d="M30099 36184
L30099 36814
" />
<path d="M30099 36814
L29705 36814
" />
<path d="M29705 36814
L29705 36184
" />
<path d="M29705 36184
L30099 36184
" />
<path d="M28681 36814
L28681 37703
" />
<path d="M28485 36814
L28485 37703
" />
<path d="M28461 35255
L28461 34776
" />
<path d="M24961 35255
L24961 34776
" />
<path d="M24985 36814
L24985 37703
" />
<path d="M25181 36814
L25181 37703
" />
<path d="M26992 36184
L27386 36184
" />
<path d="M26992 36814
L26992 36184
" />
<path d="M27386 36814
L26992 36814
" />
<path d="M27386 36184
L27386 36814
" />
<path d="M25181 36184
L24788 36184
" />
<path d="M25181 36814
L25181 36184
" />
<path d="M24788 36814
L25181 36814
" />
<path d="M24788 36184
L24788 36814
" />
<path d="M27685 35255
L27323 35255
" />
<path d="M24488 35255
L24851 35255
" />
<path d="M26677 35987
L26677 37703
" />
<path d="M25496 35987
L26677 35987
" />
<path d="M25496 37703
L25496 35987
" />
<path d="M27323 35255
L27213 35255
" />
<path d="M27323 34625
L27323 35255
" />
<path d="M27685 34625
L27323 34625
" />
<path d="M27685 37703
L27685 34625
" />
<path d="M24488 37703
L27685 37703
" />
<path d="M24488 34625
L24488 37703
" />
<path d="M24851 34625
L24488 34625
" />
<path d="M24851 35255
L24851 34625
" />
<path d="M24961 35255
L24851 35255
" />
<path d="M50063 20193
L50063 19406
" />
<path d="M51165 20193
L50063 20193
" />
<path d="M51165 19406
L51165 20193
" />
<path d="M50063 19406
L51165 19406
" />
<path d="M31184 24577
L31066 24459
" />
<path d="M31302 24459
L31066 24459
" />
<path d="M31184 24577
L31302 24459
" />
<path d="M31518 24931
L31518 25168
" />
<path d="M30160 24656
L31262 24656
" />
<path d="M29904 25168
L29904 24931
" />
<path d="M31262 25443
L30160 25443
" />
<path d="M29904.7 25168.1 A275.591 275.591 0.0 0 0 30180.3 25443.7 " />
<path d="M30180.3 24656.3 A275.591 275.591 0.0 0 0 29904.7 24931.9 " />
<path d="M31518.9 24931.9 A275.591 275.591 0.0 0 0 31243.3 24656.3 " />
<path d="M31243.3 25443.7 A275.591 275.591 0.0 0 0 31518.9 25168.1 " />
<path d="M39452 27908
L39926 27908
" />
<path d="M39452 27191
L39926 27191
" />
<path d="M52098 29608
L52572 29608
" />
<path d="M52098 28891
L52572 28891
" />
<path d="M55108 25722
L55108 25248
" />
<path d="M54391 25722
L54391 25248
" />
<path d="M55108 23312
L55108 23787
" />
<path d="M54391 23312
L54391 23787
" />
<path d="M51301 26091
L50827 26091
" />
<path d="M51301 26808
L50827 26808
" />
<path d="M40941 27197
L40941 26723
" />
<path d="M41658 27197
L41658 26723
" />
<path d="M45727 27391
L46201 27391
" />
<path d="M45727 28108
L46201 28108
" />
<path d="M48041 23651
L48041 23177
" />
<path d="M48758 23651
L48758 23177
" />
<path d="M40412 34208
L40887 34208
" />
<path d="M40412 33491
L40887 33491
" />
<path d="M47708 33027
L47708 33501
" />
<path d="M46991 33027
L46991 33501
" />
<path d="M42327 33491
L42801 33491
" />
<path d="M42327 34208
L42801 34208
" />
<path d="M32308 27022
L32308 26548
" />
<path d="M31591 27022
L31591 26548
" />
<path d="M31401 28491
L30927 28491
" />
<path d="M31401 29208
L30927 29208
" />
<path d="M29522 31708
L29048 31708
" />
<path d="M29522 30991
L29048 30991
" />
<path d="M33508 30312
L33508 30787
" />
<path d="M32791 30312
L32791 30787
" />
</g>
<g style="fill:#000000; fill-opacity:0.0; 
stroke:#000000; stroke-width:59.0551; stroke-opacity:1; 
stroke-linecap:round; stroke-linejoin:round;">
<path d="M51905 17562
L51905 19137
" />
<path d="M51905 19137
L48362 19137
" />
<path d="M48362 19137
L48362 17562
" />
<path d="M48362 17562
L51905 17562
" />
</g>
<g style="fill:#000000; fill-opacity:0.0; 
stroke:#000000; stroke-width:47.2441; stroke-opacity:1; 
stroke-linecap:round; stroke-linejoin:round;">
<path d="M53768 19716
L53768 21055
" />
<path d="M53768 19070
L53768 19283
" />
<path d="M52653 21905
L52453 21905
" />
<path d="M52453 21700
L52453 21905
" />
<path d="M52653 21700
L52453 21700
" />
<path d="M53768 21488
L53768 21700
" />
<path d="M52653 18866
L52453 18866
" />
<path d="M52653 19070
L52453 19070
" />
<path d="M53768 21700
L53677 21700
" />
<path d="M55212 18866
L53677 18866
" />
<path d="M52453 18866
L52453 19070
" />
<path d="M55212 21905
L53677 21905
" />
<path d="M55212 18866
L55212 21905
" />
<path d="M53768 19070
L53677 19070
" />
<path d="M53768 31120
L53677 31120
" />
<path d="M55212 30916
L55212 33955
" />
<path d="M55212 33955
L53677 33955
" />
<path d="M52453 30916
L52453 31120
" />
<path d="M55212 30916
L53677 30916
" />
<path d="M53768 33750
L53677 33750
" />
<path d="M52653 31120
L52453 31120
" />
<path d="M52653 30916
L52453 30916
" />
<path d="M53768 33538
L53768 33750
" />
<path d="M52653 33750
L52453 33750
" />
<path d="M52453 33750
L52453 33955
" />
<path d="M52653 33955
L52453 33955
" />
<path d="M53768 31120
L53768 31333
" />
<path d="M53768 31766
L53768 33105
" />
<path d="M29935 26650
L29935 26964
" />
<path d="M29935 26650
L29935 26335
" />
<path d="M31164 26650
L31164 26964
" />
<path d="M31164 26650
L31164 25941
" />
<path d="M30442 30925
L30442 31693
" />
<path d="M30442 30925
L30442 30157
" />
<path d="M32457 30925
L32457 31693
" />
<path d="M32457 30925
L32457 29567
" />
<circle cx="37350" cy="26250" r="374.016" /> 
<path d="M23094 26511
L23094 26401
" />
<path d="M23094 26401
L23724 26401
" />
<path d="M23724 26401
L23724 26038
" />
<path d="M23724 26038
L20646 26038
" />
<path d="M20646 26038
L20646 33172
" />
<path d="M20646 33172
L23724 33172
" />
<path d="M23724 33172
L23724 32810
" />
<path d="M23724 32810
L23094 32810
" />
<path d="M23094 32810
L23094 32700
" />
<path d="M20646 27046
L22362 27046
" />
<path d="M22362 27046
L22362 32164
" />
<path d="M22362 32164
L20646 32164
" />
<path d="M23094 26038
L23094 26401
" />
<path d="M23094 33172
L23094 32810
" />
<path d="M22165 26338
L21535 26338
" />
<path d="M21535 26338
L21535 26731
" />
<path d="M21535 26731
L22165 26731
" />
<path d="M22165 26731
L22165 26338
" />
<path d="M22165 32873
L21535 32873
" />
<path d="M21535 32873
L21535 32479
" />
<path d="M21535 32479
L22165 32479
" />
<path d="M22165 32479
L22165 32873
" />
<path d="M21535 26731
L20646 26731
" />
<path d="M21535 26535
L20646 26535
" />
<path d="M23094 26511
L23573 26511
" />
<path d="M21256 22377
L22240 22377
" />
<path d="M22240 22377
L22240 22791
" />
<path d="M22240 22791
L22630 22791
" />
<path d="M21256 24826
L22240 24826
" />
<path d="M22240 24826
L22240 24413
" />
<path d="M20481 22838
L20481 24366
" />
<path d="M47094 19911
L47094 19801
" />
<path d="M47094 19801
L47724 19801
" />
<path d="M47724 19801
L47724 19438
" />
<path d="M47724 19438
L44646 19438
" />
<path d="M44646 19438
L44646 21848
" />
<path d="M44646 21848
L47724 21848
" />
<path d="M47724 21848
L47724 21486
" />
<path d="M47724 21486
L47094 21486
" />
<path d="M47094 21486
L47094 21375
" />
<path d="M44646 20446
L46362 20446
" />
<path d="M46362 20446
L46362 20840
" />
<path d="M46362 20840
L44646 20840
" />
<path d="M47094 19438
L47094 19801
" />
<path d="M47094 21848
L47094 21486
" />
<path d="M46165 19738
L45535 19738
" />
<path d="M45535 19738
L45535 20131
" />
<path d="M45535 20131
L46165 20131
" />
<path d="M46165 20131
L46165 19738
" />
<path d="M46165 21549
L45535 21549
" />
<path d="M45535 21549
L45535 21155
" />
<path d="M45535 21155
L46165 21155
" />
<path d="M46165 21155
L46165 21549
" />
<path d="M45535 20131
L44646 20131
" />
<path d="M45535 19935
L44646 19935
" />
<path d="M47094 19911
L47573 19911
" />
</g>
<g style="fill:#000000; fill-opacity:0.0; 
stroke:#000000; stroke-width:59.0551; stroke-opacity:1; 
stroke-linecap:round; stroke-linejoin:round;">
<path d="M21550 36534
L21550 36853
L21568 36890
L21587 36909
L21625 36928
L21700 36928
L21737 36909
L21756 36890
L21775 36853
L21775 36534
" />
<path d="M21943 36571
L21962 36553
L21999 36534
L22093 36534
L22131 36553
L22149 36571
L22168 36609
L22168 36646
L22149 36703
L21924 36928
L22168 36928
" />
<path d="M48225 16309
L48281 16328
L48375 16328
L48412 16309
L48431 16290
L48450 16253
L48450 16215
L48431 16178
L48412 16159
L48375 16140
L48300 16121
L48262 16103
L48243 16084
L48225 16046
L48225 16009
L48243 15971
L48262 15953
L48300 15934
L48393 15934
L48450 15953
" />
<path d="M48581 15934
L48675 16328
L48750 16046
L48824 16328
L48918 15934
" />
<path d="M49237 16065
L49237 16328
" />
<path d="M49143 15915
L49049 16196
L49293 16196
" />
<path d="M32868 20684
L32868 20965
L32850 21021
L32812 21059
L32756 21078
L32718 21078
" />
<path d="M33262 21078
L33037 21078
" />
<path d="M33149 21078
L33149 20684
L33112 20740
L33074 20778
L33037 20796
" />
<path d="M46784 22890
L46765 22909
L46709 22928
L46671 22928
L46615 22909
L46578 22871
L46559 22834
L46540 22759
L46540 22703
L46559 22628
L46578 22590
L46615 22553
L46671 22534
L46709 22534
L46765 22553
L46784 22571
" />
<path d="M47121 22534
L47046 22534
L47009 22553
L46990 22571
L46953 22628
L46934 22703
L46934 22853
L46953 22890
L46971 22909
L47009 22928
L47084 22928
L47121 22909
L47140 22890
L47159 22853
L47159 22759
L47140 22721
L47121 22703
L47084 22684
L47009 22684
L46971 22703
L46953 22721
L46934 22759
" />
<path d="M29140 16171
L29196 16190
L29215 16209
L29234 16246
L29234 16303
L29215 16340
L29196 16359
L29159 16378
L29009 16378
L29009 15984
L29140 15984
L29178 16003
L29196 16021
L29215 16059
L29215 16096
L29196 16134
L29178 16153
L29140 16171
L29009 16171
" />
<path d="M29346 15984
L29571 15984
" />
<path d="M29459 16378
L29459 15984
" />
<path d="M29909 16378
L29684 16378
" />
<path d="M29796 16378
L29796 15984
L29759 16040
L29721 16078
L29684 16096
" />
<path d="M27284 26890
L27265 26909
L27209 26928
L27171 26928
L27115 26909
L27078 26871
L27059 26834
L27040 26759
L27040 26703
L27059 26628
L27078 26590
L27115 26553
L27171 26534
L27209 26534
L27265 26553
L27284 26571
" />
<path d="M27659 26928
L27434 26928
" />
<path d="M27546 26928
L27546 26534
L27509 26590
L27471 26628
L27434 26646
" />
<path d="M40190 20065
L40209 20084
L40228 20140
L40228 20178
L40209 20234
L40171 20271
L40134 20290
L40059 20309
L40003 20309
L39928 20290
L39890 20271
L39853 20234
L39834 20178
L39834 20140
L39853 20084
L39871 20065
" />
<path d="M39834 19934
L39834 19690
L39984 19821
L39984 19765
L40003 19728
L40021 19709
L40059 19690
L40153 19690
L40190 19709
L40209 19728
L40228 19765
L40228 19878
L40209 19915
L40190 19934
" />
<path d="M52390 27765
L52409 27784
L52428 27840
L52428 27878
L52409 27934
L52371 27971
L52334 27990
L52259 28009
L52203 28009
L52128 27990
L52090 27971
L52053 27934
L52034 27878
L52034 27840
L52053 27784
L52071 27765
" />
<path d="M52165 27428
L52428 27428
" />
<path d="M52015 27521
L52296 27615
L52296 27371
" />
<path d="M34784 26440
L34765 26459
L34709 26478
L34671 26478
L34615 26459
L34578 26421
L34559 26384
L34540 26309
L34540 26253
L34559 26178
L34578 26140
L34615 26103
L34671 26084
L34709 26084
L34765 26103
L34784 26121
" />
<path d="M34971 26478
L35046 26478
L35084 26459
L35103 26440
L35140 26384
L35159 26309
L35159 26159
L35140 26121
L35121 26103
L35084 26084
L35009 26084
L34971 26103
L34953 26121
L34934 26159
L34934 26253
L34953 26290
L34971 26309
L35009 26328
L35084 26328
L35121 26309
L35140 26290
L35159 26253
" />
<path d="M44146 34690
L44128 34709
L44071 34728
L44034 34728
L43978 34709
L43940 34671
L43921 34634
L43903 34559
L43903 34503
L43921 34428
L43940 34390
L43978 34353
L44034 34334
L44071 34334
L44128 34353
L44146 34371
" />
<path d="M44521 34728
L44296 34728
" />
<path d="M44409 34728
L44409 34334
L44371 34390
L44334 34428
L44296 34446
" />
<path d="M44896 34728
L44671 34728
" />
<path d="M44784 34728
L44784 34334
L44746 34390
L44709 34428
L44671 34446
" />
<path d="M39609 29978
L39609 29584
L39703 29584
L39759 29603
L39796 29640
L39815 29678
L39834 29753
L39834 29809
L39815 29884
L39796 29921
L39759 29959
L39703 29978
L39609 29978
" />
<path d="M40209 29978
L39984 29978
" />
<path d="M40096 29978
L40096 29584
L40059 29640
L40021 29678
L39984 29696
" />
<path d="M35859 33428
L35859 33034
L35953 33034
L36009 33053
L36046 33090
L36065 33128
L36084 33203
L36084 33259
L36065 33334
L36046 33371
L36009 33409
L35953 33428
L35859 33428
" />
<path d="M36234 33071
L36253 33053
L36290 33034
L36384 33034
L36421 33053
L36440 33071
L36459 33109
L36459 33146
L36440 33203
L36215 33428
L36459 33428
" />
<path d="M55509 26878
L55509 26484
L55603 26484
L55659 26503
L55696 26540
L55715 26578
L55734 26653
L55734 26709
L55715 26784
L55696 26821
L55659 26859
L55603 26878
L55509 26878
" />
<path d="M56071 26615
L56071 26878
" />
<path d="M55978 26465
L55884 26746
L56128 26746
" />
<path d="M55359 22478
L55359 22084
L55453 22084
L55509 22103
L55546 22140
L55565 22178
L55584 22253
L55584 22309
L55565 22384
L55546 22421
L55509 22459
L55453 22478
L55359 22478
" />
<path d="M55940 22084
L55753 22084
L55734 22271
L55753 22253
L55790 22234
L55884 22234
L55921 22253
L55940 22271
L55959 22309
L55959 22403
L55940 22440
L55921 22459
L55884 22478
L55790 22478
L55753 22459
L55734 22440
" />
<path d="M53834 29581
L54115 29581
L54171 29599
L54209 29637
L54228 29693
L54228 29731
" />
<path d="M53965 29225
L54228 29225
" />
<path d="M53815 29318
L54096 29412
L54096 29168
" />
<path d="M55571 30084
L55590 30028
L55609 30009
L55646 29990
L55703 29990
L55740 30009
L55759 30028
L55778 30065
L55778 30215
L55384 30215
L55384 30084
L55403 30046
L55421 30028
L55459 30009
L55496 30009
L55534 30028
L55553 30046
L55571 30084
L55571 30215
" />
<path d="M55665 29840
L55665 29653
" />
<path d="M55778 29878
L55384 29746
L55778 29615
" />
<path d="M55384 29540
L55384 29315
" />
<path d="M55778 29428
L55384 29428
" />
<path d="M55628 29184
L55628 28884
" />
<path d="M55778 29034
L55478 29034
" />
<path d="M53684 27781
L53965 27781
L54021 27799
L54059 27837
L54078 27893
L54078 27931
" />
<path d="M53684 27425
L53684 27500
L53703 27537
L53721 27556
L53778 27593
L53853 27612
L54003 27612
L54040 27593
L54059 27575
L54078 27537
L54078 27462
L54059 27425
L54040 27406
L54003 27387
L53909 27387
L53871 27406
L53853 27425
L53834 27462
L53834 27537
L53853 27575
L53871 27593
L53909 27612
" />
<path d="M55521 28184
L55540 28128
L55559 28109
L55596 28090
L55653 28090
L55690 28109
L55709 28128
L55728 28165
L55728 28315
L55334 28315
L55334 28184
L55353 28146
L55371 28128
L55409 28109
L55446 28109
L55484 28128
L55503 28146
L55521 28184
L55521 28315
" />
<path d="M55615 27940
L55615 27753
" />
<path d="M55728 27978
L55334 27846
L55728 27715
" />
<path d="M55334 27640
L55334 27415
" />
<path d="M55728 27528
L55334 27528
" />
<path d="M55578 27284
L55578 26984
" />
<path d="M37721 33234
L37721 33515
L37703 33571
L37665 33609
L37609 33628
L37571 33628
" />
<path d="M37909 33628
L37909 33234
L38059 33234
L38096 33253
L38115 33271
L38134 33309
L38134 33365
L38115 33403
L38096 33421
L38059 33440
L37909 33440
" />
<path d="M38509 33628
L38284 33628
" />
<path d="M38396 33628
L38396 33234
L38359 33290
L38321 33328
L38284 33346
" />
<path d="M41384 32428
L41196 32428
L41196 32034
" />
<path d="M41721 32428
L41496 32428
" />
<path d="M41609 32428
L41609 32034
L41571 32090
L41534 32128
L41496 32146
" />
<path d="M23884 28128
L23753 27940
" />
<path d="M23659 28128
L23659 27734
L23809 27734
L23846 27753
L23865 27771
L23884 27809
L23884 27865
L23865 27903
L23846 27921
L23809 27940
L23659 27940
" />
<path d="M24259 28128
L24034 28128
" />
<path d="M24146 28128
L24146 27734
L24109 27790
L24071 27828
L24034 27846
" />
<path d="M23834 27128
L23703 26940
" />
<path d="M23609 27128
L23609 26734
L23759 26734
L23796 26753
L23815 26771
L23834 26809
L23834 26865
L23815 26903
L23796 26921
L23759 26940
L23609 26940
" />
<path d="M23984 26771
L24003 26753
L24040 26734
L24134 26734
L24171 26753
L24190 26771
L24209 26809
L24209 26846
L24190 26903
L23965 27128
L24209 27128
" />
<path d="M50634 21128
L50503 20940
" />
<path d="M50409 21128
L50409 20734
L50559 20734
L50596 20753
L50615 20771
L50634 20809
L50634 20865
L50615 20903
L50596 20921
L50559 20940
L50409 20940
" />
<path d="M50765 20734
L51009 20734
L50878 20884
L50934 20884
L50971 20903
L50990 20921
L51009 20959
L51009 21053
L50990 21090
L50971 21109
L50934 21128
L50821 21128
L50784 21109
L50765 21090
" />
<path d="M54309 20874
L54328 20818
L54328 20724
L54309 20687
L54290 20668
L54253 20649
L54215 20649
L54178 20668
L54159 20687
L54140 20724
L54121 20799
L54103 20837
L54084 20856
L54046 20874
L54009 20874
L53971 20856
L53953 20837
L53934 20799
L53934 20706
L53953 20649
" />
<path d="M53934 20518
L54328 20424
L54046 20350
L54328 20275
L53934 20181
" />
<path d="M54328 19825
L54328 20050
" />
<path d="M54328 19937
L53934 19937
L53990 19975
L54028 20012
L54046 20050
" />
<path d="M50275 33709
L50331 33728
L50425 33728
L50462 33709
L50481 33690
L50500 33653
L50500 33615
L50481 33578
L50462 33559
L50425 33540
L50350 33521
L50312 33503
L50293 33484
L50275 33446
L50275 33409
L50293 33371
L50312 33353
L50350 33334
L50443 33334
L50500 33353
" />
<path d="M50631 33334
L50725 33728
L50800 33446
L50874 33728
L50968 33334
" />
<path d="M51099 33371
L51118 33353
L51156 33334
L51249 33334
L51287 33353
L51306 33371
L51324 33409
L51324 33446
L51306 33503
L51081 33728
L51324 33728
" />
<path d="M55759 34724
L55778 34668
L55778 34574
L55759 34537
L55740 34518
L55703 34499
L55665 34499
L55628 34518
L55609 34537
L55590 34574
L55571 34649
L55553 34687
L55534 34706
L55496 34724
L55459 34724
L55421 34706
L55403 34687
L55384 34649
L55384 34556
L55403 34499
" />
<path d="M55384 34368
L55778 34274
L55496 34200
L55778 34125
L55384 34031
" />
<path d="M55384 33918
L55384 33675
L55534 33806
L55534 33750
L55553 33712
L55571 33693
L55609 33675
L55703 33675
L55740 33693
L55759 33712
L55778 33750
L55778 33862
L55759 33900
L55740 33918
" />
<path d="M38603 25435
L38828 25435
" />
<path d="M38715 25829
L38715 25435
" />
<path d="M38959 25829
L38959 25435
L39109 25435
L39146 25454
L39165 25473
L39184 25510
L39184 25566
L39165 25604
L39146 25623
L39109 25641
L38959 25641
" />
<path d="M39315 25435
L39578 25435
L39409 25829
" />
<path d="M50203 29934
L50428 29934
" />
<path d="M50315 30328
L50315 29934
" />
<path d="M50559 30328
L50559 29934
L50709 29934
L50746 29953
L50765 29971
L50784 30009
L50784 30065
L50765 30103
L50746 30121
L50709 30140
L50559 30140
" />
<path d="M51009 30103
L50971 30084
L50953 30065
L50934 30028
L50934 30009
L50953 29971
L50971 29953
L51009 29934
L51084 29934
L51121 29953
L51140 29971
L51159 30009
L51159 30028
L51140 30065
L51121 30084
L51084 30103
L51009 30103
L50971 30121
L50953 30140
L50934 30178
L50934 30253
L50953 30290
L50971 30309
L51009 30328
L51084 30328
L51121 30309
L51140 30290
L51159 30253
L51159 30178
L51140 30140
L51121 30121
L51084 30103
" />
<path d="M28434 22449
L28753 22449
L28790 22431
L28809 22412
L28828 22374
L28828 22299
L28809 22262
L28790 22243
L28753 22224
L28434 22224
" />
<path d="M28828 21831
L28828 22056
" />
<path d="M28828 21943
L28434 21943
L28490 21981
L28528 22018
L28546 22056
" />
<path d="M50950 26984
L50950 27303
L50968 27340
L50987 27359
L51025 27378
L51100 27378
L51137 27359
L51156 27340
L51175 27303
L51175 26984
" />
<path d="M51324 26984
L51568 26984
L51437 27134
L51493 27134
L51531 27153
L51549 27171
L51568 27209
L51568 27303
L51549 27340
L51531 27359
L51493 27378
L51381 27378
L51343 27359
L51324 27340
" />
<path d="M50450 22634
L50450 22953
L50468 22990
L50487 23009
L50525 23028
L50600 23028
L50637 23009
L50656 22990
L50675 22953
L50675 22634
" />
<path d="M51031 22765
L51031 23028
" />
<path d="M50937 22615
L50843 22896
L51087 22896
" />
<path d="M43150 26084
L43150 26403
L43168 26440
L43187 26459
L43225 26478
L43300 26478
L43337 26459
L43356 26440
L43375 26403
L43375 26084
" />
<path d="M43749 26084
L43562 26084
L43543 26271
L43562 26253
L43599 26234
L43693 26234
L43731 26253
L43749 26271
L43768 26309
L43768 26403
L43749 26440
L43731 26459
L43693 26478
L43599 26478
L43562 26459
L43543 26440
" />
<path d="M49200 26734
L49200 27053
L49218 27090
L49237 27109
L49275 27128
L49350 27128
L49387 27109
L49406 27090
L49425 27053
L49425 26734
" />
<path d="M49781 26734
L49706 26734
L49668 26753
L49649 26771
L49612 26828
L49593 26903
L49593 27053
L49612 27090
L49631 27109
L49668 27128
L49743 27128
L49781 27109
L49799 27090
L49818 27053
L49818 26959
L49799 26921
L49781 26903
L49743 26884
L49668 26884
L49631 26903
L49612 26921
L49593 26959
" />
<path d="M52818 23034
L52818 23315
L52800 23371
L52762 23409
L52706 23428
L52668 23428
" />
<path d="M53193 23034
L53006 23034
L52987 23221
L53006 23203
L53043 23184
L53137 23184
L53174 23203
L53193 23221
L53212 23259
L53212 23353
L53193 23390
L53174 23409
L53137 23428
L53043 23428
L53006 23409
L52987 23390
" />
<path d="M52875 22740
L52856 22759
L52800 22778
L52762 22778
L52706 22759
L52668 22721
L52650 22684
L52631 22609
L52631 22553
L52650 22478
L52668 22440
L52706 22403
L52762 22384
L52800 22384
L52856 22403
L52875 22421
" />
<path d="M53043 22778
L53043 22384
" />
<path d="M53043 22571
L53268 22571
" />
<path d="M53268 22778
L53268 22384
" />
<path d="M53662 22403
L53624 22384
L53568 22384
L53512 22403
L53474 22440
L53456 22478
L53437 22553
L53437 22609
L53456 22684
L53474 22721
L53512 22759
L53568 22778
L53606 22778
L53662 22759
L53681 22740
L53681 22609
L53606 22609
" />
<path d="M53849 22628
L54149 22628
" />
<path d="M53999 22778
L53999 22478
" />
<path d="M52868 24984
L52868 25265
L52850 25321
L52812 25359
L52756 25378
L52718 25378
" />
<path d="M53018 24984
L53281 24984
L53112 25378
" />
<path d="M52925 24690
L52906 24709
L52850 24728
L52812 24728
L52756 24709
L52718 24671
L52700 24634
L52681 24559
L52681 24503
L52700 24428
L52718 24390
L52756 24353
L52812 24334
L52850 24334
L52906 24353
L52925 24371
" />
<path d="M53093 24728
L53093 24334
" />
<path d="M53093 24521
L53318 24521
" />
<path d="M53318 24728
L53318 24334
" />
<path d="M53712 24353
L53674 24334
L53618 24334
L53562 24353
L53524 24390
L53506 24428
L53487 24503
L53487 24559
L53506 24634
L53524 24671
L53562 24709
L53618 24728
L53656 24728
L53712 24709
L53731 24690
L53731 24559
L53656 24559
" />
<path d="M53899 24578
L54199 24578
" />
<path d="M29680 20556
L29699 20575
L29718 20631
L29718 20669
L29699 20725
L29662 20763
L29624 20781
L29549 20800
L29493 20800
L29418 20781
L29380 20763
L29343 20725
L29324 20669
L29324 20631
L29343 20575
L29362 20556
" />
<path d="M29362 20406
L29343 20388
L29324 20350
L29324 20256
L29343 20219
L29362 20200
L29399 20182
L29437 20182
L29493 20200
L29718 20425
L29718 20182
" />
<path d="M48250 31347
L48231 31366
L48175 31384
L48138 31384
L48081 31366
L48044 31328
L48025 31291
L48006 31216
L48006 31159
L48025 31084
L48044 31047
L48081 31009
L48138 30991
L48175 30991
L48231 31009
L48250 31028
" />
<path d="M48606 30991
L48419 30991
L48400 31178
L48419 31159
L48456 31141
L48550 31141
L48587 31159
L48606 31178
L48625 31216
L48625 31309
L48606 31347
L48587 31366
L48550 31384
L48456 31384
L48419 31366
L48400 31347
" />
<path d="M41734 22740
L41715 22759
L41659 22778
L41621 22778
L41565 22759
L41528 22721
L41509 22684
L41490 22609
L41490 22553
L41509 22478
L41528 22440
L41565 22403
L41621 22384
L41659 22384
L41715 22403
L41734 22421
" />
<path d="M41865 22384
L42128 22384
L41959 22778
" />
<path d="M36534 27190
L36515 27209
L36459 27228
L36421 27228
L36365 27209
L36328 27171
L36309 27134
L36290 27059
L36290 27003
L36309 26928
L36328 26890
L36365 26853
L36421 26834
L36459 26834
L36515 26853
L36534 26871
" />
<path d="M36759 27003
L36721 26984
L36703 26965
L36684 26928
L36684 26909
L36703 26871
L36721 26853
L36759 26834
L36834 26834
L36871 26853
L36890 26871
L36909 26909
L36909 26928
L36890 26965
L36871 26984
L36834 27003
L36759 27003
L36721 27021
L36703 27040
L36684 27078
L36684 27153
L36703 27190
L36721 27209
L36759 27228
L36834 27228
L36871 27209
L36890 27190
L36909 27153
L36909 27078
L36890 27040
L36871 27021
L36834 27003
" />
<path d="M46996 24540
L46978 24559
L46921 24578
L46884 24578
L46828 24559
L46790 24521
L46771 24484
L46753 24409
L46753 24353
L46771 24278
L46790 24240
L46828 24203
L46884 24184
L46921 24184
L46978 24203
L46996 24221
" />
<path d="M47371 24578
L47146 24578
" />
<path d="M47259 24578
L47259 24184
L47221 24240
L47184 24278
L47146 24296
" />
<path d="M47615 24184
L47653 24184
L47690 24203
L47709 24221
L47728 24259
L47746 24334
L47746 24428
L47728 24503
L47709 24540
L47690 24559
L47653 24578
L47615 24578
L47578 24559
L47559 24540
L47540 24503
L47521 24428
L47521 24334
L47540 24259
L47559 24221
L47578 24203
L47615 24184
" />
<path d="M27090 29853
L27109 29871
L27128 29928
L27128 29965
L27109 30021
L27071 30059
L27034 30078
L26959 30096
L26903 30096
L26828 30078
L26790 30059
L26753 30021
L26734 29965
L26734 29928
L26753 29871
L26771 29853
" />
<path d="M27128 29478
L27128 29703
" />
<path d="M27128 29590
L26734 29590
L26790 29628
L26828 29665
L26846 29703
" />
<path d="M26771 29328
L26753 29309
L26734 29271
L26734 29178
L26753 29140
L26771 29121
L26809 29103
L26846 29103
L26903 29121
L27128 29346
L27128 29103
" />
<path d="M27240 33503
L27259 33521
L27278 33578
L27278 33615
L27259 33671
L27221 33709
L27184 33728
L27109 33746
L27053 33746
L26978 33728
L26940 33709
L26903 33671
L26884 33615
L26884 33578
L26903 33521
L26921 33503
" />
<path d="M27278 33128
L27278 33353
" />
<path d="M27278 33240
L26884 33240
L26940 33278
L26978 33315
L26996 33353
" />
<path d="M26884 32996
L26884 32753
L27034 32884
L27034 32828
L27053 32790
L27071 32771
L27109 32753
L27203 32753
L27240 32771
L27259 32790
L27278 32828
L27278 32940
L27259 32978
L27240 32996
" />
<path d="M28946 25840
L28928 25859
L28871 25878
L28834 25878
L28778 25859
L28740 25821
L28721 25784
L28703 25709
L28703 25653
L28721 25578
L28740 25540
L28778 25503
L28834 25484
L28871 25484
L28928 25503
L28946 25521
" />
<path d="M29321 25878
L29096 25878
" />
<path d="M29209 25878
L29209 25484
L29171 25540
L29134 25578
L29096 25596
" />
<path d="M29659 25615
L29659 25878
" />
<path d="M29565 25465
L29471 25746
L29715 25746
" />
<path d="M32390 23453
L32409 23471
L32428 23528
L32428 23565
L32409 23621
L32371 23659
L32334 23678
L32259 23696
L32203 23696
L32128 23678
L32090 23659
L32053 23621
L32034 23565
L32034 23528
L32053 23471
L32071 23453
" />
<path d="M32428 23078
L32428 23303
" />
<path d="M32428 23190
L32034 23190
L32090 23228
L32128 23265
L32146 23303
" />
<path d="M32034 22721
L32034 22909
L32221 22928
L32203 22909
L32184 22871
L32184 22778
L32203 22740
L32221 22721
L32259 22703
L32353 22703
L32390 22721
L32409 22740
L32428 22778
L32428 22871
L32409 22909
L32390 22928
" />
<path d="M25646 31590
L25628 31609
L25571 31628
L25534 31628
L25478 31609
L25440 31571
L25421 31534
L25403 31459
L25403 31403
L25421 31328
L25440 31290
L25478 31253
L25534 31234
L25571 31234
L25628 31253
L25646 31271
" />
<path d="M26021 31628
L25796 31628
" />
<path d="M25909 31628
L25909 31234
L25871 31290
L25834 31328
L25796 31346
" />
<path d="M26359 31234
L26284 31234
L26246 31253
L26228 31271
L26190 31328
L26171 31403
L26171 31553
L26190 31590
L26209 31609
L26246 31628
L26321 31628
L26359 31609
L26378 31590
L26396 31553
L26396 31459
L26378 31421
L26359 31403
L26321 31384
L26246 31384
L26209 31403
L26190 31421
L26171 31459
" />
<path d="M33146 34790
L33128 34809
L33071 34828
L33034 34828
L32978 34809
L32940 34771
L32921 34734
L32903 34659
L32903 34603
L32921 34528
L32940 34490
L32978 34453
L33034 34434
L33071 34434
L33128 34453
L33146 34471
" />
<path d="M33521 34828
L33296 34828
" />
<path d="M33409 34828
L33409 34434
L33371 34490
L33334 34528
L33296 34546
" />
<path d="M33653 34434
L33915 34434
L33746 34828
" />
<path d="M46318 34084
L46318 34365
L46300 34421
L46262 34459
L46206 34478
L46168 34478
" />
<path d="M46487 34121
L46506 34103
L46543 34084
L46637 34084
L46674 34103
L46693 34121
L46712 34159
L46712 34196
L46693 34253
L46468 34478
L46712 34478
" />
<path d="M49015 34390
L48996 34409
L48940 34428
L48903 34428
L48846 34409
L48809 34371
L48790 34334
L48771 34259
L48771 34203
L48790 34128
L48809 34090
L48846 34053
L48903 34034
L48940 34034
L48996 34053
L49015 34071
" />
<path d="M49128 34034
L49353 34034
" />
<path d="M49240 34428
L49240 34034
" />
<path d="M49709 34428
L49578 34240
" />
<path d="M49484 34428
L49484 34034
L49634 34034
L49671 34053
L49690 34071
L49709 34109
L49709 34165
L49690 34203
L49671 34221
L49634 34240
L49484 34240
" />
<path d="M50065 34428
L49878 34428
L49878 34034
" />
<path d="M21834 21131
L22115 21131
L22171 21149
L22209 21187
L22228 21243
L22228 21281
" />
<path d="M21834 20981
L21834 20737
L21984 20868
L21984 20812
L22003 20775
L22021 20756
L22059 20737
L22153 20737
L22190 20756
L22209 20775
L22228 20812
L22228 20925
L22209 20962
L22190 20981
" />
<path d="M53918 34534
L53918 34815
L53900 34871
L53862 34909
L53806 34928
L53768 34928
" />
<path d="M54162 34703
L54124 34684
L54106 34665
L54087 34628
L54087 34609
L54106 34571
L54124 34553
L54162 34534
L54237 34534
L54274 34553
L54293 34571
L54312 34609
L54312 34628
L54293 34665
L54274 34684
L54237 34703
L54162 34703
L54124 34721
L54106 34740
L54087 34778
L54087 34853
L54106 34890
L54124 34909
L54162 34928
L54237 34928
L54274 34909
L54293 34890
L54312 34853
L54312 34778
L54293 34740
L54274 34721
L54237 34703
" />
<path d="M51090 34678
L51090 34284
L51240 34284
L51278 34303
L51296 34321
L51315 34359
L51315 34415
L51296 34453
L51278 34471
L51240 34490
L51090 34490
" />
<path d="M51559 34284
L51634 34284
L51671 34303
L51709 34340
L51728 34415
L51728 34546
L51709 34621
L51671 34659
L51634 34678
L51559 34678
L51521 34659
L51484 34621
L51465 34546
L51465 34415
L51484 34340
L51521 34303
L51559 34284
" />
<path d="M51859 34284
L51953 34678
L52028 34396
L52103 34678
L52196 34284
" />
<path d="M52346 34471
L52478 34471
" />
<path d="M52534 34678
L52346 34678
L52346 34284
L52534 34284
" />
<path d="M52928 34678
L52796 34490
" />
<path d="M52703 34678
L52703 34284
L52853 34284
L52890 34303
L52909 34321
L52928 34359
L52928 34415
L52909 34453
L52890 34471
L52853 34490
L52703 34490
" />
<path d="M29418 34784
L29418 35065
L29400 35121
L29362 35159
L29306 35178
L29268 35178
" />
<path d="M29624 35178
L29699 35178
L29737 35159
L29756 35140
L29793 35084
L29812 35009
L29812 34859
L29793 34821
L29774 34803
L29737 34784
L29662 34784
L29624 34803
L29606 34821
L29587 34859
L29587 34953
L29606 34990
L29624 35009
L29662 35028
L29737 35028
L29774 35009
L29793 34990
L29812 34953
" />
<path d="M30743 36559
L30800 36578
L30893 36578
L30931 36559
L30950 36540
L30968 36503
L30968 36465
L30950 36428
L30931 36409
L30893 36390
L30818 36371
L30781 36353
L30762 36334
L30743 36296
L30743 36259
L30762 36221
L30781 36203
L30818 36184
L30912 36184
L30968 36203
" />
<path d="M31137 36578
L31137 36184
L31287 36184
L31324 36203
L31343 36221
L31362 36259
L31362 36315
L31343 36353
L31324 36371
L31287 36390
L31137 36390
" />
<path d="M31531 36578
L31531 36184
" />
<path d="M31756 36578
L31587 36353
" />
<path d="M31756 36184
L31531 36409
" />
<path d="M25381 34634
L25381 34915
L25362 34971
L25325 35009
L25268 35028
L25231 35028
" />
<path d="M25774 35028
L25550 35028
" />
<path d="M25662 35028
L25662 34634
L25625 34690
L25587 34728
L25550 34746
" />
<path d="M26149 35028
L25924 35028
" />
<path d="M26037 35028
L26037 34634
L25999 34690
L25962 34728
L25924 34746
" />
<path d="M23281 36128
L23281 35734
L23375 35734
L23431 35753
L23468 35790
L23487 35828
L23506 35903
L23506 35959
L23487 36034
L23468 36071
L23431 36109
L23375 36128
L23281 36128
" />
<path d="M23656 36015
L23843 36015
" />
<path d="M23618 36128
L23750 35734
L23881 36128
" />
<path d="M24237 36090
L24218 36109
L24162 36128
L24124 36128
L24068 36109
L24031 36071
L24012 36034
L23993 35959
L23993 35903
L24012 35828
L24031 35790
L24068 35753
L24124 35734
L24162 35734
L24218 35753
L24237 35771
" />
<path d="M49071 19584
L49071 19865
L49053 19921
L49015 19959
L48959 19978
L48921 19978
" />
<path d="M49259 19978
L49259 19584
L49409 19584
L49446 19603
L49465 19621
L49484 19659
L49484 19715
L49465 19753
L49446 19771
L49409 19790
L49259 19790
" />
<path d="M49634 19621
L49653 19603
L49690 19584
L49784 19584
L49821 19603
L49840 19621
L49859 19659
L49859 19696
L49840 19753
L49615 19978
L49859 19978
" />
<path d="M31771 24784
L31771 25065
L31753 25121
L31715 25159
L31659 25178
L31621 25178
" />
<path d="M31959 25178
L31959 24784
L32109 24784
L32146 24803
L32165 24821
L32184 24859
L32184 24915
L32165 24953
L32146 24971
L32109 24990
L31959 24990
" />
<path d="M32315 24784
L32559 24784
L32428 24934
L32484 24934
L32521 24953
L32540 24971
L32559 25009
L32559 25103
L32540 25140
L32521 25159
L32484 25178
L32371 25178
L32334 25159
L32315 25140
" />
<path d="M40134 26978
L40003 26790
" />
<path d="M39909 26978
L39909 26584
L40059 26584
L40096 26603
L40115 26621
L40134 26659
L40134 26715
L40115 26753
L40096 26771
L40059 26790
L39909 26790
" />
<path d="M40471 26715
L40471 26978
" />
<path d="M40378 26565
L40284 26846
L40528 26846
" />
<path d="M52234 30128
L52103 29940
" />
<path d="M52009 30128
L52009 29734
L52159 29734
L52196 29753
L52215 29771
L52234 29809
L52234 29865
L52215 29903
L52196 29921
L52159 29940
L52009 29940
" />
<path d="M52590 29734
L52403 29734
L52384 29921
L52403 29903
L52440 29884
L52534 29884
L52571 29903
L52590 29921
L52609 29959
L52609 30053
L52590 30090
L52571 30109
L52534 30128
L52440 30128
L52403 30109
L52384 30090
" />
<path d="M54234 26778
L54103 26590
" />
<path d="M54009 26778
L54009 26384
L54159 26384
L54196 26403
L54215 26421
L54234 26459
L54234 26515
L54215 26553
L54196 26571
L54159 26590
L54009 26590
" />
<path d="M54571 26384
L54496 26384
L54459 26403
L54440 26421
L54403 26478
L54384 26553
L54384 26703
L54403 26740
L54421 26759
L54459 26778
L54534 26778
L54571 26759
L54590 26740
L54609 26703
L54609 26609
L54590 26571
L54571 26553
L54534 26534
L54459 26534
L54421 26553
L54403 26571
L54384 26609
" />
<path d="M54584 22578
L54453 22390
" />
<path d="M54359 22578
L54359 22184
L54509 22184
L54546 22203
L54565 22221
L54584 22259
L54584 22315
L54565 22353
L54546 22371
L54509 22390
L54359 22390
" />
<path d="M54715 22184
L54978 22184
L54809 22578
" />
<path d="M50984 25928
L50853 25740
" />
<path d="M50759 25928
L50759 25534
L50909 25534
L50946 25553
L50965 25571
L50984 25609
L50984 25665
L50965 25703
L50946 25721
L50909 25740
L50759 25740
" />
<path d="M51209 25703
L51171 25684
L51153 25665
L51134 25628
L51134 25609
L51153 25571
L51171 25553
L51209 25534
L51284 25534
L51321 25553
L51340 25571
L51359 25609
L51359 25628
L51340 25665
L51321 25684
L51284 25703
L51209 25703
L51171 25721
L51153 25740
L51134 25778
L51134 25853
L51153 25890
L51171 25909
L51209 25928
L51284 25928
L51321 25909
L51340 25890
L51359 25853
L51359 25778
L51340 25740
L51321 25721
L51284 25703
" />
<path d="M40934 25978
L40803 25790
" />
<path d="M40709 25978
L40709 25584
L40859 25584
L40896 25603
L40915 25621
L40934 25659
L40934 25715
L40915 25753
L40896 25771
L40859 25790
L40709 25790
" />
<path d="M41121 25978
L41196 25978
L41234 25959
L41253 25940
L41290 25884
L41309 25809
L41309 25659
L41290 25621
L41271 25603
L41234 25584
L41159 25584
L41121 25603
L41103 25621
L41084 25659
L41084 25753
L41103 25790
L41121 25809
L41159 25828
L41234 25828
L41271 25809
L41290 25790
L41309 25753
" />
<path d="M45711 27211
L45580 27024
" />
<path d="M45486 27211
L45486 26817
L45636 26817
L45673 26836
L45692 26855
L45711 26892
L45711 26949
L45692 26986
L45673 27005
L45636 27024
L45486 27024
" />
<path d="M46086 27211
L45861 27211
" />
<path d="M45973 27211
L45973 26817
L45936 26874
L45898 26911
L45861 26930
" />
<path d="M46329 26817
L46367 26817
L46404 26836
L46423 26855
L46442 26892
L46461 26967
L46461 27061
L46442 27136
L46423 27174
L46404 27192
L46367 27211
L46329 27211
L46292 27192
L46273 27174
L46254 27136
L46236 27061
L46236 26967
L46254 26892
L46273 26855
L46292 26836
L46329 26817
" />
<path d="M48346 22378
L48215 22190
" />
<path d="M48121 22378
L48121 21984
L48271 21984
L48309 22003
L48328 22021
L48346 22059
L48346 22115
L48328 22153
L48309 22171
L48271 22190
L48121 22190
" />
<path d="M48721 22378
L48496 22378
" />
<path d="M48609 22378
L48609 21984
L48571 22040
L48534 22078
L48496 22096
" />
<path d="M49096 22378
L48871 22378
" />
<path d="M48984 22378
L48984 21984
L48946 22040
L48909 22078
L48871 22096
" />
<path d="M40396 34678
L40265 34490
" />
<path d="M40171 34678
L40171 34284
L40321 34284
L40359 34303
L40378 34321
L40396 34359
L40396 34415
L40378 34453
L40359 34471
L40321 34490
L40171 34490
" />
<path d="M40771 34678
L40546 34678
" />
<path d="M40659 34678
L40659 34284
L40621 34340
L40584 34378
L40546 34396
" />
<path d="M40921 34321
L40940 34303
L40978 34284
L41071 34284
L41109 34303
L41128 34321
L41146 34359
L41146 34396
L41128 34453
L40903 34678
L41146 34678
" />
<path d="M48244 33517
L48057 33648
" />
<path d="M48244 33742
L47850 33742
L47850 33592
L47869 33554
L47888 33536
L47925 33517
L47982 33517
L48019 33536
L48038 33554
L48057 33592
L48057 33742
" />
<path d="M48244 33142
L48244 33367
" />
<path d="M48244 33254
L47850 33254
L47907 33292
L47944 33329
L47963 33367
" />
<path d="M47850 33011
L47850 32767
L48000 32898
L48000 32842
L48019 32805
L48038 32786
L48075 32767
L48169 32767
L48207 32786
L48225 32805
L48244 32842
L48244 32955
L48225 32992
L48207 33011
" />
<path d="M42196 34728
L42065 34540
" />
<path d="M41971 34728
L41971 34334
L42121 34334
L42159 34353
L42178 34371
L42196 34409
L42196 34465
L42178 34503
L42159 34521
L42121 34540
L41971 34540
" />
<path d="M42571 34728
L42346 34728
" />
<path d="M42459 34728
L42459 34334
L42421 34390
L42384 34428
L42346 34446
" />
<path d="M42909 34465
L42909 34728
" />
<path d="M42815 34315
L42721 34596
L42965 34596
" />
<path d="M32928 27038
L32740 27169
" />
<path d="M32928 27263
L32534 27263
L32534 27113
L32553 27076
L32571 27057
L32609 27038
L32665 27038
L32703 27057
L32721 27076
L32740 27113
L32740 27263
" />
<path d="M32928 26663
L32928 26888
" />
<path d="M32928 26776
L32534 26776
L32590 26813
L32628 26851
L32646 26888
" />
<path d="M32534 26307
L32534 26495
L32721 26513
L32703 26495
L32684 26457
L32684 26363
L32703 26326
L32721 26307
L32759 26288
L32853 26288
L32890 26307
L32909 26326
L32928 26363
L32928 26457
L32909 26495
L32890 26513
" />
<path d="M31746 28378
L31615 28190
" />
<path d="M31521 28378
L31521 27984
L31671 27984
L31709 28003
L31728 28021
L31746 28059
L31746 28115
L31728 28153
L31709 28171
L31671 28190
L31521 28190
" />
<path d="M32121 28378
L31896 28378
" />
<path d="M32009 28378
L32009 27984
L31971 28040
L31934 28078
L31896 28096
" />
<path d="M32459 27984
L32384 27984
L32346 28003
L32328 28021
L32290 28078
L32271 28153
L32271 28303
L32290 28340
L32309 28359
L32346 28378
L32421 28378
L32459 28359
L32478 28340
L32496 28303
L32496 28209
L32478 28171
L32459 28153
L32421 28134
L32346 28134
L32309 28153
L32290 28171
L32271 28209
" />
<path d="M29746 32228
L29615 32040
" />
<path d="M29521 32228
L29521 31834
L29671 31834
L29709 31853
L29728 31871
L29746 31909
L29746 31965
L29728 32003
L29709 32021
L29671 32040
L29521 32040
" />
<path d="M30121 32228
L29896 32228
" />
<path d="M30009 32228
L30009 31834
L29971 31890
L29934 31928
L29896 31946
" />
<path d="M30253 31834
L30515 31834
L30346 32228
" />
<path d="M34128 31103
L33940 31234
" />
<path d="M34128 31328
L33734 31328
L33734 31178
L33753 31140
L33771 31121
L33809 31103
L33865 31103
L33903 31121
L33921 31140
L33940 31178
L33940 31328
" />
<path d="M34128 30728
L34128 30953
" />
<path d="M34128 30840
L33734 30840
L33790 30878
L33828 30915
L33846 30953
" />
<path d="M33903 30503
L33884 30540
L33865 30559
L33828 30578
L33809 30578
L33771 30559
L33753 30540
L33734 30503
L33734 30428
L33753 30390
L33771 30371
L33809 30353
L33828 30353
L33865 30371
L33884 30390
L33903 30428
L33903 30503
L33921 30540
L33940 30559
L33978 30578
L34053 30578
L34090 30559
L34109 30540
L34128 30503
L34128 30428
L34109 30390
L34090 30371
L34053 30353
L33978 30353
L33940 30371
L33921 30390
L33903 30428
" />
<path d="M48575 18959
L48631 18978
L48725 18978
L48762 18959
L48781 18940
L48800 18903
L48800 18865
L48781 18828
L48762 18809
L48725 18790
L48650 18771
L48612 18753
L48593 18734
L48575 18696
L48575 18659
L48593 18621
L48612 18603
L48650 18584
L48743 18584
L48800 18603
" />
<path d="M48931 18584
L49025 18978
L49100 18696
L49174 18978
L49268 18584
" />
<path d="M49606 18584
L49418 18584
L49399 18771
L49418 18753
L49456 18734
L49549 18734
L49587 18753
L49606 18771
L49624 18809
L49624 18903
L49606 18940
L49587 18959
L49549 18978
L49456 18978
L49418 18959
L49399 18940
" />
<path d="M52909 20910
L52928 20854
L52928 20760
L52909 20723
L52890 20704
L52853 20685
L52815 20685
L52778 20704
L52759 20723
L52740 20760
L52721 20835
L52703 20873
L52684 20892
L52646 20910
L52609 20910
L52571 20892
L52553 20873
L52534 20835
L52534 20742
L52553 20685
" />
<path d="M52534 20554
L52928 20460
L52646 20385
L52928 20310
L52534 20217
" />
<path d="M52534 19898
L52534 19973
L52553 20010
L52571 20029
L52628 20067
L52703 20085
L52853 20085
L52890 20067
L52909 20048
L52928 20010
L52928 19935
L52909 19898
L52890 19879
L52853 19860
L52759 19860
L52721 19879
L52703 19898
L52684 19935
L52684 20010
L52703 20048
L52721 20067
L52759 20085
" />
<path d="M53825 30809
L53881 30828
L53975 30828
L54012 30809
L54031 30790
L54050 30753
L54050 30715
L54031 30678
L54012 30659
L53975 30640
L53900 30621
L53862 30603
L53843 30584
L53825 30546
L53825 30509
L53843 30471
L53862 30453
L53900 30434
L53993 30434
L54050 30453
" />
<path d="M54181 30434
L54275 30828
L54350 30546
L54424 30828
L54518 30434
" />
<path d="M54631 30434
L54893 30434
L54724 30828
" />
<path d="M30150 27484
L30150 27803
L30168 27840
L30187 27859
L30225 27878
L30300 27878
L30337 27859
L30356 27840
L30375 27803
L30375 27484
" />
<path d="M30524 27484
L30787 27484
L30618 27878
" />
<path d="M31250 32384
L31250 32703
L31268 32740
L31287 32759
L31325 32778
L31400 32778
L31437 32759
L31456 32740
L31475 32703
L31475 32384
" />
<path d="M31718 32553
L31681 32534
L31662 32515
L31643 32478
L31643 32459
L31662 32421
L31681 32403
L31718 32384
L31793 32384
L31831 32403
L31849 32421
L31868 32459
L31868 32478
L31849 32515
L31831 32534
L31793 32553
L31718 32553
L31681 32571
L31662 32590
L31643 32628
L31643 32703
L31662 32740
L31681 32759
L31718 32778
L31793 32778
L31831 32759
L31849 32740
L31868 32703
L31868 32628
L31849 32590
L31831 32571
L31793 32553
" />
<path d="M36853 25385
L37078 25385
" />
<path d="M36965 25779
L36965 25385
" />
<path d="M37209 25779
L37209 25385
L37359 25385
L37396 25404
L37415 25423
L37434 25460
L37434 25516
L37415 25554
L37396 25573
L37359 25591
L37209 25591
" />
<path d="M37809 25779
L37584 25779
" />
<path d="M37696 25779
L37696 25385
L37659 25441
L37621 25479
L37584 25498
" />
<path d="M21684 30368
L21965 30368
L22021 30387
L22059 30424
L22078 30481
L22078 30518
" />
<path d="M22078 29975
L22078 30199
" />
<path d="M22078 30087
L21684 30087
L21740 30124
L21778 30162
L21796 30199
" />
<path d="M21684 29731
L21684 29693
L21703 29656
L21721 29637
L21759 29618
L21834 29600
L21928 29600
L22003 29618
L22040 29637
L22059 29656
L22078 29693
L22078 29731
L22059 29768
L22040 29787
L22003 29806
L21928 29825
L21834 29825
L21759 29806
L21721 29787
L21703 29768
L21684 29731
" />
<path d="M22889 23921
L23170 23921
L23226 23939
L23264 23977
L23283 24033
L23283 24071
" />
<path d="M23283 23527
L23283 23752
" />
<path d="M23283 23639
L22889 23639
L22945 23677
L22983 23714
L23002 23752
" />
<path d="M22927 23377
L22908 23358
L22889 23321
L22889 23227
L22908 23189
L22927 23171
L22964 23152
L23002 23152
L23058 23171
L23283 23396
L23283 23152
" />
<path d="M47938 20962
L48219 20962
L48275 20981
L48313 21018
L48332 21074
L48332 21112
" />
<path d="M48332 20568
L48332 20793
" />
<path d="M48332 20681
L47938 20681
L47994 20718
L48032 20756
L48050 20793
" />
<path d="M47938 20437
L47938 20193
L48088 20324
L48088 20268
L48107 20231
L48125 20212
L48163 20193
L48257 20193
L48294 20212
L48313 20231
L48332 20268
L48332 20381
L48313 20418
L48294 20437
" />
</g> 
</svg>
