<?xml version="1.0" standalone="no"?>
 <!DOCTYPE svg PUBLIC "-//W3C//DTD SVG 1.1//EN" 
 "http://www.w3.org/Graphics/SVG/1.1/DTD/svg11.dtd"> 
<svg xmlns="http://www.w3.org/2000/svg" version="1.1" 
    width="29.7002cm" height="21.0007cm" viewBox="0 0 116930 82680 ">
<title>SVG Picture created as WT32-SC01-Edge.Cuts.svg date 2022/04/27 08:35:33 </title>
  <desc>Picture generated by PCBNEW </desc>
<g style="fill:#000000; fill-opacity:1;stroke:#000000; stroke-opacity:1;
stroke-linecap:round; stroke-linejoin:round; "
 transform="translate(0 0) scale(1 1)">
</g>
<g style="fill:#000000; fill-opacity:0.0; 
stroke:#000000; stroke-width:-0.000393701; stroke-opacity:1; 
stroke-linecap:round; stroke-linejoin:round;">
</g>
<g style="fill:#000000; fill-opacity:0.0; 
stroke:#000000; stroke-width:59.0551; stroke-opacity:1; 
stroke-linecap:round; stroke-linejoin:round;">
<path d="M56250 18750
L56250 15850
" />
<path d="M55950 19350
L55950 18850
" />
<path d="M55950 21950
L55950 21450
" />
<path d="M56250 30800
L56250 22050
" />
<path d="M56250 36950
L56250 34050
" />
<path d="M55950 33300
L55950 33900
" />
<path d="M55950 31500
L55950 30950
" />
<path d="M53200 14950
L55350 14950
" />
<path d="M51850 15650
L52800 15650
" />
<path d="M47850 15650
L47850 18550
" />
<path d="M49950 15650
L47850 15650
" />
<path d="M21200 37750
L21250 37750
" />
<path d="M21350 14950
L21300 14950
" />
<path d="M39550 15900
L39550 18550
" />
<path d="M38400 15900
L39550 15900
" />
<path d="M55950 30950
L56250 30800
" />
<path d="M55950 33900
L56250 34050
" />
<path d="M55950 31500
L55950 33300
" />
<path d="M55950 18850
L56250 18750
" />
<path d="M55950 21950
L56250 22050
" />
<path d="M55950 19350
L55950 21450
" />
<path d="M33050 14950
L21350 14950
" />
<path d="M33050 15900
L33050 14950
" />
<path d="M38400 15900
L33050 15900
" />
<path d="M47850 18550
L39550 18550
" />
<path d="M52800 15650
L53200 14950
" />
<path d="M49950 15650
L51850 15650
" />
<path d="M56250 15850 A900 900 0.0 0 0 55350 14950 " />
<path d="M20400 36950
L20400 15850
" />
<path d="M21250 37750
L55450 37750
" />
<path d="M55450 37750 A800 800 0.0 0 0 56250 36950 " />
<path d="M20400 36950 A800 800 0.0 0 0 21200 37750 " />
<path d="M21300 14950 A900 900 0.0 0 0 20400 15850 " />
</g> 
</svg>
