<?xml version="1.0" standalone="no"?>
 <!DOCTYPE svg PUBLIC "-//W3C//DTD SVG 1.1//EN" 
 "http://www.w3.org/Graphics/SVG/1.1/DTD/svg11.dtd"> 
<svg xmlns="http://www.w3.org/2000/svg" version="1.1" 
    width="9.20242cm" height="6.2865cm" viewBox="0 0 36230 24750 ">
<title>SVG Picture created as WT32-SC01-B.SilkS.svg date 2022/07/05 21:09:32 </title>
  <desc>Picture generated by PCBNEW </desc>
<g style="fill:#000000; fill-opacity:1;stroke:#000000; stroke-opacity:1;
stroke-linecap:round; stroke-linejoin:round; "
 transform="translate(0 0) scale(1 1)">
</g>
<g style="fill:#000000; fill-opacity:0.0; 
stroke:#000000; stroke-width:-0.000393701; stroke-opacity:1; 
stroke-linecap:round; stroke-linejoin:round;">
</g>
<g style="fill:#840084; fill-opacity:0.0; 
stroke:#840084; stroke-width:-0.000393701; stroke-opacity:1; 
stroke-linecap:round; stroke-linejoin:round;">
</g>
<g style="fill:#840084; fill-opacity:0.0; 
stroke:#840084; stroke-width:118.11; stroke-opacity:1; 
stroke-linecap:round; stroke-linejoin:round;">
<path d="M32386 8307
L31795 8166
L32217 8054
L31795 7941
L32386 7801
" />
<path d="M31964 7604
L31964 7322
" />
<path d="M31795 7660
L32386 7463
L31795 7266
" />
<path d="M31795 7069
L32386 7069
" />
<path d="M31795 6732
L32133 6985
" />
<path d="M32386 6732
L32048 7069
" />
<path d="M32105 6479
L32105 6282
" />
<path d="M31795 6198
L31795 6479
L32386 6479
L32386 6198
" />
<path d="M1730 9712
L1139 9712
" />
<path d="M1195 9965
L1167 9993
L1139 10049
L1139 10190
L1167 10246
L1195 10274
L1252 10302
L1308 10302
L1392 10274
L1730 9937
L1730 10302
" />
<path d="M1673 10893
L1702 10865
L1730 10780
L1730 10724
L1702 10640
L1645 10583
L1589 10555
L1477 10527
L1392 10527
L1280 10555
L1223 10583
L1167 10640
L1139 10724
L1139 10780
L1167 10865
L1195 10893
" />
<path d="M1570 15379
L1570 15576
" />
<path d="M1880 15660
L1880 15379
L1289 15379
L1289 15660
" />
<path d="M1880 15857
L1486 16166
" />
<path d="M1486 15857
L1880 16166
" />
<path d="M1486 16307
L1486 16532
" />
<path d="M1289 16391
L1795 16391
L1852 16419
L1880 16476
L1880 16532
" />
<path d="M1880 17179
L1289 17179
" />
<path d="M1289 17572
L1289 17685
L1317 17741
L1373 17797
L1486 17825
L1683 17825
L1795 17797
L1852 17741
L1880 17685
L1880 17572
L1852 17516
L1795 17460
L1683 17432
L1486 17432
L1373 17460
L1317 17516
L1289 17572
" />
<path d="M6516 23605
L6516 23015
L6375 23015
L6291 23043
L6234 23099
L6206 23155
L6178 23268
L6178 23352
L6206 23465
L6234 23521
L6291 23577
L6375 23605
L6516 23605
" />
<path d="M5953 23437
L5672 23437
" />
<path d="M6009 23605
L5812 23015
L5616 23605
" />
<path d="M5081 23549
L5109 23577
L5194 23605
L5250 23605
L5334 23577
L5391 23521
L5419 23465
L5447 23352
L5447 23268
L5419 23155
L5391 23099
L5334 23043
L5250 23015
L5194 23015
L5109 23043
L5081 23071
" />
<path d="M9722 23577
L9637 23605
L9497 23605
L9441 23577
L9412 23549
L9384 23493
L9384 23437
L9412 23380
L9441 23352
L9497 23324
L9609 23296
L9666 23268
L9694 23240
L9722 23183
L9722 23127
L9694 23071
L9666 23043
L9609 23015
L9469 23015
L9384 23043
" />
<path d="M9131 23605
L9131 23015
L8906 23015
L8850 23043
L8822 23071
L8794 23127
L8794 23212
L8822 23268
L8850 23296
L8906 23324
L9131 23324
" />
<path d="M8541 23605
L8541 23015
" />
<path d="M8203 23605
L8456 23268
" />
<path d="M8203 23015
L8541 23352
" />
<path d="M28236 23449
L28264 23477
L28348 23505
L28405 23505
L28489 23477
L28545 23421
L28573 23365
L28601 23252
L28601 23168
L28573 23055
L28545 22999
L28489 22943
L28405 22915
L28348 22915
L28264 22943
L28236 22971
" />
<path d="M28067 23112
L27842 23112
" />
<path d="M27983 22915
L27983 23421
L27955 23477
L27898 23505
L27842 23505
" />
<path d="M27645 23505
L27645 23112
" />
<path d="M27645 23224
L27617 23168
L27589 23140
L27533 23112
L27477 23112
" />
<path d="M27195 23505
L27252 23477
L27280 23421
L27280 22915
" />
<path d="M32930 23405
L32930 22815
L32705 22815
L32648 22843
L32620 22871
L32592 22927
L32592 23012
L32620 23068
L32648 23096
L32705 23124
L32930 23124
" />
<path d="M32255 23405
L32311 23377
L32339 23349
L32367 23293
L32367 23124
L32339 23068
L32311 23040
L32255 23012
L32170 23012
L32114 23040
L32086 23068
L32058 23124
L32058 23293
L32086 23349
L32114 23377
L32170 23405
L32255 23405
" />
<path d="M31861 23012
L31748 23405
L31636 23124
L31523 23405
L31411 23012
" />
<path d="M30961 23377
L31017 23405
L31130 23405
L31186 23377
L31214 23321
L31214 23096
L31186 23040
L31130 23012
L31017 23012
L30961 23040
L30933 23096
L30933 23152
L31214 23208
" />
<path d="M30680 23405
L30680 23012
" />
<path d="M30680 23124
L30652 23068
L30624 23040
L30567 23012
L30511 23012
" />
<path d="M32025 12599
L32053 12627
L32137 12655
L32194 12655
L32278 12627
L32334 12571
L32362 12515
L32390 12402
L32390 12318
L32362 12205
L32334 12149
L32278 12093
L32194 12065
L32137 12065
L32053 12093
L32025 12121
" />
<path d="M31772 12655
L31772 12065
" />
<path d="M31772 12346
L31434 12346
" />
<path d="M31434 12655
L31434 12065
" />
<path d="M30844 12093
L30900 12065
L30984 12065
L31069 12093
L31125 12149
L31153 12205
L31181 12318
L31181 12402
L31153 12515
L31125 12571
L31069 12627
L30984 12655
L30928 12655
L30844 12627
L30816 12599
L30816 12402
L30928 12402
" />
<path d="M30113 12430
L29663 12430
" />
<path d="M32025 10649
L32053 10677
L32137 10705
L32194 10705
L32278 10677
L32334 10621
L32362 10565
L32390 10452
L32390 10368
L32362 10255
L32334 10199
L32278 10143
L32194 10115
L32137 10115
L32053 10143
L32025 10171
" />
<path d="M31772 10705
L31772 10115
" />
<path d="M31772 10396
L31434 10396
" />
<path d="M31434 10705
L31434 10115
" />
<path d="M30844 10143
L30900 10115
L30984 10115
L31069 10143
L31125 10199
L31153 10255
L31181 10368
L31181 10452
L31153 10565
L31125 10621
L31069 10677
L30984 10705
L30928 10705
L30844 10677
L30816 10649
L30816 10452
L30928 10452
" />
<path d="M30113 10480
L29663 10480
" />
<path d="M29888 10705
L29888 10255
" />
<path d="M33289 14896
L33205 14924
L33176 14952
L33148 15008
L33148 15093
L33176 15149
L33205 15177
L33261 15205
L33486 15205
L33486 14615
L33289 14615
L33233 14643
L33205 14671
L33176 14727
L33176 14783
L33205 14840
L33233 14868
L33289 14896
L33486 14896
" />
<path d="M32923 15037
L32642 15037
" />
<path d="M32980 15205
L32783 14615
L32586 15205
" />
<path d="M32473 14615
L32136 14615
" />
<path d="M32305 15205
L32305 14615
" />
<path d="M31489 14980
L31039 14980
" />
<path d="M33289 16196
L33205 16224
L33176 16252
L33148 16308
L33148 16393
L33176 16449
L33205 16477
L33261 16505
L33486 16505
L33486 15915
L33289 15915
L33233 15943
L33205 15971
L33176 16027
L33176 16083
L33205 16140
L33233 16168
L33289 16196
L33486 16196
" />
<path d="M32923 16337
L32642 16337
" />
<path d="M32980 16505
L32783 15915
L32586 16505
" />
<path d="M32473 15915
L32136 15915
" />
<path d="M32305 16505
L32305 15915
" />
<path d="M31489 16280
L31039 16280
" />
<path d="M31264 16505
L31264 16055
" />
<path d="M30973 19963
L30945 19879
L30945 19738
L30973 19682
L31002 19654
L31058 19626
L31114 19626
L31170 19654
L31198 19682
L31227 19738
L31255 19851
L31283 19907
L31311 19935
L31367 19963
L31423 19963
L31480 19935
L31508 19907
L31536 19851
L31536 19710
L31508 19626
" />
<path d="M31255 19372
L31255 19176
" />
<path d="M30945 19091
L30945 19372
L31536 19372
L31536 19091
" />
<path d="M30945 18557
L30945 18838
L31536 18838
" />
<path d="M20101 12253
L19961 12843
L19848 12422
L19736 12843
L19595 12253
" />
<path d="M19455 12253
L19117 12253
" />
<path d="M19286 12843
L19286 12253
" />
<path d="M18976 12253
L18611 12253
L18808 12478
L18723 12478
L18667 12506
L18639 12534
L18611 12590
L18611 12731
L18639 12787
L18667 12815
L18723 12843
L18892 12843
L18948 12815
L18976 12787
" />
<path d="M18386 12309
L18358 12281
L18302 12253
L18161 12253
L18105 12281
L18077 12309
L18048 12365
L18048 12422
L18077 12506
L18414 12843
L18048 12843
" />
<path d="M17795 12618
L17345 12618
" />
<path d="M17092 12815
L17008 12843
L16867 12843
L16811 12815
L16783 12787
L16755 12731
L16755 12675
L16783 12618
L16811 12590
L16867 12562
L16980 12534
L17036 12506
L17064 12478
L17092 12422
L17092 12365
L17064 12309
L17036 12281
L16980 12253
L16839 12253
L16755 12281
" />
<path d="M16164 12787
L16192 12815
L16277 12843
L16333 12843
L16417 12815
L16474 12759
L16502 12703
L16530 12590
L16530 12506
L16502 12393
L16474 12337
L16417 12281
L16333 12253
L16277 12253
L16192 12281
L16164 12309
" />
<path d="M15799 12253
L15743 12253
L15686 12281
L15658 12309
L15630 12365
L15602 12478
L15602 12618
L15630 12731
L15658 12787
L15686 12815
L15743 12843
L15799 12843
L15855 12815
L15883 12787
L15911 12731
L15939 12618
L15939 12478
L15911 12365
L15883 12309
L15855 12281
L15799 12253
" />
<path d="M15039 12843
L15377 12843
" />
<path d="M15208 12843
L15208 12253
L15264 12337
L15321 12393
L15377 12422
" />
<path d="M14111 12815
L14168 12843
L14280 12843
L14336 12815
L14365 12759
L14365 12534
L14336 12478
L14280 12450
L14168 12450
L14111 12478
L14083 12534
L14083 12590
L14365 12647
" />
<path d="M13887 12843
L13577 12450
" />
<path d="M13887 12450
L13577 12843
" />
<path d="M13437 12450
L13212 12450
" />
<path d="M13352 12253
L13352 12759
L13324 12815
L13268 12843
L13212 12843
" />
<path d="M12790 12815
L12846 12843
L12958 12843
L13015 12815
L13043 12759
L13043 12534
L13015 12478
L12958 12450
L12846 12450
L12790 12478
L12762 12534
L12762 12590
L13043 12647
" />
<path d="M12509 12450
L12509 12843
" />
<path d="M12509 12506
L12480 12478
L12424 12450
L12340 12450
L12284 12478
L12255 12534
L12255 12843
" />
<path d="M12002 12815
L11946 12843
L11834 12843
L11777 12815
L11749 12759
L11749 12731
L11777 12675
L11834 12647
L11918 12647
L11974 12618
L12002 12562
L12002 12534
L11974 12478
L11918 12450
L11834 12450
L11777 12478
" />
<path d="M11496 12843
L11496 12450
" />
<path d="M11496 12253
L11524 12281
L11496 12309
L11468 12281
L11496 12253
L11496 12309
" />
<path d="M11131 12843
L11187 12815
L11215 12787
L11243 12731
L11243 12562
L11215 12506
L11187 12478
L11131 12450
L11046 12450
L10990 12478
L10962 12506
L10934 12562
L10934 12731
L10962 12787
L10990 12815
L11046 12843
L11131 12843
" />
<path d="M10681 12450
L10681 12843
" />
<path d="M10681 12506
L10653 12478
L10596 12450
L10512 12450
L10456 12478
L10428 12534
L10428 12843
" />
<path d="M9696 12843
L9696 12450
" />
<path d="M9696 12506
L9668 12478
L9612 12450
L9528 12450
L9471 12478
L9443 12534
L9443 12843
" />
<path d="M9443 12534
L9415 12478
L9359 12450
L9275 12450
L9218 12478
L9190 12534
L9190 12843
" />
<path d="M8825 12843
L8881 12815
L8909 12787
L8937 12731
L8937 12562
L8909 12506
L8881 12478
L8825 12450
L8740 12450
L8684 12478
L8656 12506
L8628 12562
L8628 12731
L8656 12787
L8684 12815
L8740 12843
L8825 12843
" />
<path d="M8122 12843
L8122 12253
" />
<path d="M8122 12815
L8178 12843
L8290 12843
L8347 12815
L8375 12787
L8403 12731
L8403 12562
L8375 12506
L8347 12478
L8290 12450
L8178 12450
L8122 12478
" />
<path d="M7587 12450
L7587 12843
" />
<path d="M7840 12450
L7840 12759
L7812 12815
L7756 12843
L7672 12843
L7615 12815
L7587 12787
" />
<path d="M7222 12843
L7278 12815
L7306 12759
L7306 12253
" />
<path d="M6772 12815
L6828 12843
L6941 12843
L6997 12815
L7025 12759
L7025 12534
L6997 12478
L6941 12450
L6828 12450
L6772 12478
L6744 12534
L6744 12590
L7025 12647
" />
<path d="M6041 12618
L5591 12618
" />
<path d="M4944 12253
L4747 12843
L4550 12253
" />
<path d="M4044 12843
L4381 12843
" />
<path d="M4213 12843
L4213 12253
L4269 12337
L4325 12393
L4381 12422
" />
<path d="M3791 12787
L3763 12815
L3791 12843
L3819 12815
L3791 12787
L3791 12843
" />
<path d="M3200 12843
L3538 12843
" />
<path d="M3369 12843
L3369 12253
L3425 12337
L3482 12393
L3538 12422
" />
<path d="M19708 13847
L19905 13566
" />
<path d="M20045 13847
L20045 13257
L19820 13257
L19764 13285
L19736 13313
L19708 13369
L19708 13454
L19736 13510
L19764 13538
L19820 13566
L20045 13566
" />
<path d="M19539 13257
L19201 13257
" />
<path d="M19370 13847
L19370 13257
" />
<path d="M18667 13791
L18695 13819
L18780 13847
L18836 13847
L18920 13819
L18976 13763
L19005 13707
L19033 13594
L19033 13510
L19005 13397
L18976 13341
L18920 13285
L18836 13257
L18780 13257
L18695 13285
L18667 13313
" />
<path d="M18386 13819
L18386 13847
L18414 13904
L18442 13932
" />
<path d="M17486 13538
L17402 13566
L17374 13594
L17345 13651
L17345 13735
L17374 13791
L17402 13819
L17458 13847
L17683 13847
L17683 13257
L17486 13257
L17430 13285
L17402 13313
L17374 13369
L17374 13426
L17402 13482
L17430 13510
L17486 13538
L17683 13538
" />
<path d="M16839 13454
L16839 13847
" />
<path d="M17092 13454
L17092 13763
L17064 13819
L17008 13847
L16924 13847
L16867 13819
L16839 13791
" />
<path d="M16642 13454
L16417 13454
" />
<path d="M16558 13257
L16558 13763
L16530 13819
L16474 13847
L16417 13847
" />
<path d="M16305 13454
L16080 13454
" />
<path d="M16221 13257
L16221 13763
L16192 13819
L16136 13847
L16080 13847
" />
<path d="M15799 13847
L15855 13819
L15883 13791
L15911 13735
L15911 13566
L15883 13510
L15855 13482
L15799 13454
L15714 13454
L15658 13482
L15630 13510
L15602 13566
L15602 13735
L15630 13791
L15658 13819
L15714 13847
L15799 13847
" />
<path d="M15349 13454
L15349 13847
" />
<path d="M15349 13510
L15321 13482
L15264 13454
L15180 13454
L15124 13482
L15096 13538
L15096 13847
" />
<path d="M14843 13819
L14786 13847
L14674 13847
L14618 13819
L14590 13763
L14590 13735
L14618 13679
L14674 13651
L14758 13651
L14815 13622
L14843 13566
L14843 13538
L14815 13482
L14758 13454
L14674 13454
L14618 13482
" />
<path d="M14308 13819
L14308 13847
L14336 13904
L14365 13932
" />
<path d="M13633 13819
L13549 13847
L13408 13847
L13352 13819
L13324 13791
L13296 13735
L13296 13679
L13324 13622
L13352 13594
L13408 13566
L13521 13538
L13577 13510
L13605 13482
L13633 13426
L13633 13369
L13605 13313
L13577 13285
L13521 13257
L13380 13257
L13296 13285
" />
<path d="M13043 13847
L13043 13257
L12902 13257
L12818 13285
L12762 13341
L12734 13397
L12705 13510
L12705 13594
L12734 13707
L12762 13763
L12818 13819
L12902 13847
L13043 13847
" />
<path d="M11665 13791
L11693 13819
L11777 13847
L11834 13847
L11918 13819
L11974 13763
L12002 13707
L12030 13594
L12030 13510
L12002 13397
L11974 13341
L11918 13285
L11834 13257
L11777 13257
L11693 13285
L11665 13313
" />
<path d="M11159 13847
L11159 13538
L11187 13482
L11243 13454
L11356 13454
L11412 13482
" />
<path d="M11159 13819
L11215 13847
L11356 13847
L11412 13819
L11440 13763
L11440 13707
L11412 13651
L11356 13622
L11215 13622
L11159 13594
" />
<path d="M10878 13847
L10878 13454
" />
<path d="M10878 13566
L10849 13510
L10821 13482
L10765 13454
L10709 13454
" />
<path d="M10259 13847
L10259 13257
" />
<path d="M10259 13819
L10315 13847
L10428 13847
L10484 13819
L10512 13791
L10540 13735
L10540 13566
L10512 13510
L10484 13482
L10428 13454
L10315 13454
L10259 13482
" />
<path d="M9950 13819
L9950 13847
L9978 13904
L10006 13932
" />
<path d="M19764 14851
L20045 14851
L20045 14261
" />
<path d="M19567 14851
L19567 14458
" />
<path d="M19567 14261
L19595 14289
L19567 14317
L19539 14289
L19567 14261
L19567 14317
" />
<path d="M19286 14851
L19286 14261
L19061 14261
L19005 14289
L18976 14317
L18948 14373
L18948 14458
L18976 14514
L19005 14542
L19061 14570
L19286 14570
" />
<path d="M18611 14851
L18667 14823
L18695 14795
L18723 14739
L18723 14570
L18695 14514
L18667 14486
L18611 14458
L18527 14458
L18470 14486
L18442 14514
L18414 14570
L18414 14739
L18442 14795
L18470 14823
L18527 14851
L18611 14851
" />
<path d="M17711 14458
L17711 15048
" />
<path d="M17711 14486
L17655 14458
L17542 14458
L17486 14486
L17458 14514
L17430 14570
L17430 14739
L17458 14795
L17486 14823
L17542 14851
L17655 14851
L17711 14823
" />
<path d="M17092 14851
L17149 14823
L17177 14795
L17205 14739
L17205 14570
L17177 14514
L17149 14486
L17092 14458
L17008 14458
L16952 14486
L16924 14514
L16896 14570
L16896 14739
L16924 14795
L16952 14823
L17008 14851
L17092 14851
" />
<path d="M16699 14458
L16586 14851
L16474 14570
L16361 14851
L16249 14458
" />
<path d="M15799 14823
L15855 14851
L15967 14851
L16024 14823
L16052 14767
L16052 14542
L16024 14486
L15967 14458
L15855 14458
L15799 14486
L15771 14542
L15771 14598
L16052 14654
" />
<path d="M15518 14851
L15518 14458
" />
<path d="M15518 14570
L15489 14514
L15461 14486
L15405 14458
L15349 14458
" />
<path d="M14730 14823
L14674 14851
L14561 14851
L14505 14823
L14477 14767
L14477 14739
L14505 14683
L14561 14654
L14646 14654
L14702 14626
L14730 14570
L14730 14542
L14702 14486
L14646 14458
L14561 14458
L14505 14486
" />
<path d="M13971 14458
L13971 14851
" />
<path d="M14224 14458
L14224 14767
L14196 14823
L14140 14851
L14055 14851
L13999 14823
L13971 14795
" />
<path d="M13690 14458
L13690 15048
" />
<path d="M13690 14486
L13633 14458
L13521 14458
L13465 14486
L13437 14514
L13408 14570
L13408 14739
L13437 14795
L13465 14823
L13521 14851
L13633 14851
L13690 14823
" />
<path d="M13155 14458
L13155 15048
" />
<path d="M13155 14486
L13099 14458
L12987 14458
L12930 14486
L12902 14514
L12874 14570
L12874 14739
L12902 14795
L12930 14823
L12987 14851
L13099 14851
L13155 14823
" />
<path d="M12537 14851
L12593 14823
L12621 14767
L12621 14261
" />
<path d="M12368 14458
L12227 14851
" />
<path d="M12087 14458
L12227 14851
L12284 14992
L12312 15020
L12368 15048
" />
<path d="M11834 14823
L11834 14851
L11862 14908
L11890 14936
" />
<path d="M11131 14851
L11131 14261
L10990 14261
L10906 14289
L10849 14345
L10821 14401
L10793 14514
L10793 14598
L10821 14711
L10849 14767
L10906 14823
L10990 14851
L11131 14851
" />
<path d="M10203 14795
L10231 14823
L10315 14851
L10371 14851
L10456 14823
L10512 14767
L10540 14711
L10568 14598
L10568 14514
L10540 14401
L10512 14345
L10456 14289
L10371 14261
L10315 14261
L10231 14289
L10203 14317
" />
<path d="M9950 14851
L9950 14261
L9809 14261
L9725 14289
L9668 14345
L9640 14401
L9612 14514
L9612 14598
L9640 14711
L9668 14767
L9725 14823
L9809 14851
L9950 14851
" />
<path d="M9021 14795
L9050 14823
L9134 14851
L9190 14851
L9275 14823
L9331 14767
L9359 14711
L9387 14598
L9387 14514
L9359 14401
L9331 14345
L9275 14289
L9190 14261
L9134 14261
L9050 14289
L9021 14317
" />
<path d="M8065 14823
L8122 14851
L8234 14851
L8290 14823
L8318 14795
L8347 14739
L8347 14570
L8318 14514
L8290 14486
L8234 14458
L8122 14458
L8065 14486
" />
<path d="M7728 14851
L7784 14823
L7812 14795
L7840 14739
L7840 14570
L7812 14514
L7784 14486
L7728 14458
L7644 14458
L7587 14486
L7559 14514
L7531 14570
L7531 14739
L7559 14795
L7587 14823
L7644 14851
L7728 14851
" />
<path d="M7278 14458
L7278 14851
" />
<path d="M7278 14514
L7250 14486
L7194 14458
L7109 14458
L7053 14486
L7025 14542
L7025 14851
" />
<path d="M6800 14458
L6659 14851
L6519 14458
" />
<path d="M6069 14823
L6125 14851
L6237 14851
L6294 14823
L6322 14767
L6322 14542
L6294 14486
L6237 14458
L6125 14458
L6069 14486
L6041 14542
L6041 14598
L6322 14654
" />
<path d="M5788 14851
L5788 14458
" />
<path d="M5788 14570
L5759 14514
L5731 14486
L5675 14458
L5619 14458
" />
<path d="M5506 14458
L5281 14458
" />
<path d="M5422 14261
L5422 14767
L5394 14823
L5338 14851
L5281 14851
" />
<path d="M4860 14823
L4916 14851
L5028 14851
L5084 14823
L5113 14767
L5113 14542
L5084 14486
L5028 14458
L4916 14458
L4860 14486
L4831 14542
L4831 14598
L5113 14654
" />
<path d="M4578 14851
L4578 14458
" />
<path d="M4578 14570
L4550 14514
L4522 14486
L4466 14458
L4410 14458
" />
<path d="M20045 15855
L20045 15265
L19905 15265
L19820 15293
L19764 15349
L19736 15405
L19708 15518
L19708 15602
L19736 15715
L19764 15771
L19820 15827
L19905 15855
L20045 15855
" />
<path d="M19483 15687
L19201 15687
" />
<path d="M19539 15855
L19342 15265
L19145 15855
" />
<path d="M18611 15799
L18639 15827
L18723 15855
L18780 15855
L18864 15827
L18920 15771
L18948 15715
L18976 15602
L18976 15518
L18948 15405
L18920 15349
L18864 15293
L18780 15265
L18723 15265
L18639 15293
L18611 15321
" />
<path d="M18330 15827
L18330 15855
L18358 15911
L18386 15940
" />
<path d="M17655 15687
L17374 15687
" />
<path d="M17711 15855
L17514 15265
L17317 15855
" />
<path d="M16867 15462
L16867 15855
" />
<path d="M17120 15462
L17120 15771
L17092 15827
L17036 15855
L16952 15855
L16896 15827
L16867 15799
" />
<path d="M16333 15855
L16333 15265
" />
<path d="M16333 15827
L16389 15855
L16502 15855
L16558 15827
L16586 15799
L16614 15743
L16614 15574
L16586 15518
L16558 15490
L16502 15462
L16389 15462
L16333 15490
" />
<path d="M16052 15855
L16052 15462
" />
<path d="M16052 15265
L16080 15293
L16052 15321
L16024 15293
L16052 15265
L16052 15321
" />
<path d="M15686 15855
L15743 15827
L15771 15799
L15799 15743
L15799 15574
L15771 15518
L15743 15490
L15686 15462
L15602 15462
L15546 15490
L15518 15518
L15489 15574
L15489 15743
L15518 15799
L15546 15827
L15602 15855
L15686 15855
" />
<path d="M14815 15687
L14533 15687
" />
<path d="M14871 15855
L14674 15265
L14477 15855
" />
<path d="M14280 15855
L14280 15462
" />
<path d="M14280 15518
L14252 15490
L14196 15462
L14111 15462
L14055 15490
L14027 15546
L14027 15855
" />
<path d="M14027 15546
L13999 15490
L13943 15462
L13858 15462
L13802 15490
L13774 15546
L13774 15855
" />
<path d="M13493 15462
L13493 16052
" />
<path d="M13493 15490
L13437 15462
L13324 15462
L13268 15490
L13240 15518
L13212 15574
L13212 15743
L13240 15799
L13268 15827
L13324 15855
L13437 15855
L13493 15827
" />
<path d="M19876 17084
L19905 17056
L19961 16972
L19989 16915
L20017 16831
L20045 16690
L20045 16578
L20017 16437
L19989 16353
L19961 16297
L19905 16212
L19876 16184
" />
<path d="M19398 16831
L19455 16859
L19567 16859
L19623 16831
L19651 16803
L19680 16747
L19680 16578
L19651 16522
L19623 16494
L19567 16465
L19455 16465
L19398 16494
" />
<path d="M19201 17084
L19173 17056
L19117 16972
L19089 16915
L19061 16831
L19033 16690
L19033 16578
L19061 16437
L19089 16353
L19117 16297
L19173 16212
L19201 16184
" />
<path d="M18105 16550
L18020 16578
L17992 16606
L17964 16662
L17964 16747
L17992 16803
L18020 16831
L18077 16859
L18302 16859
L18302 16269
L18105 16269
L18048 16297
L18020 16325
L17992 16381
L17992 16437
L18020 16494
L18048 16522
L18105 16550
L18302 16550
" />
<path d="M17739 16831
L17655 16859
L17514 16859
L17458 16831
L17430 16803
L17402 16747
L17402 16690
L17430 16634
L17458 16606
L17514 16578
L17627 16550
L17683 16522
L17711 16494
L17739 16437
L17739 16381
L17711 16325
L17683 16297
L17627 16269
L17486 16269
L17402 16297
" />
<path d="M16952 16550
L17149 16550
" />
<path d="M17149 16859
L17149 16269
L16867 16269
" />
<path d="M15855 16803
L15883 16831
L15967 16859
L16024 16859
L16108 16831
L16164 16775
L16192 16719
L16221 16606
L16221 16522
L16192 16409
L16164 16353
L16108 16297
L16024 16269
L15967 16269
L15883 16297
L15855 16325
" />
<path d="M15518 16859
L15574 16831
L15602 16803
L15630 16747
L15630 16578
L15602 16522
L15574 16494
L15518 16465
L15433 16465
L15377 16494
L15349 16522
L15321 16578
L15321 16747
L15349 16803
L15377 16831
L15433 16859
L15518 16859
" />
<path d="M15068 16465
L15068 16859
" />
<path d="M15068 16522
L15039 16494
L14983 16465
L14899 16465
L14843 16494
L14815 16550
L14815 16859
" />
<path d="M14280 16831
L14336 16859
L14449 16859
L14505 16831
L14533 16803
L14561 16747
L14561 16578
L14533 16522
L14505 16494
L14449 16465
L14336 16465
L14280 16494
" />
<path d="M13802 16831
L13858 16859
L13971 16859
L14027 16831
L14055 16775
L14055 16550
L14027 16494
L13971 16465
L13858 16465
L13802 16494
L13774 16550
L13774 16606
L14055 16662
" />
<path d="M13521 16465
L13521 17056
" />
<path d="M13521 16494
L13465 16465
L13352 16465
L13296 16494
L13268 16522
L13240 16578
L13240 16747
L13268 16803
L13296 16831
L13352 16859
L13465 16859
L13521 16831
" />
<path d="M13071 16465
L12846 16465
" />
<path d="M12987 16269
L12987 16775
L12958 16831
L12902 16859
L12846 16859
" />
<path d="M12649 16859
L12649 16465
" />
<path d="M12649 16269
L12677 16297
L12649 16325
L12621 16297
L12649 16269
L12649 16325
" />
<path d="M12284 16859
L12340 16831
L12368 16803
L12396 16747
L12396 16578
L12368 16522
L12340 16494
L12284 16465
L12199 16465
L12143 16494
L12115 16522
L12087 16578
L12087 16747
L12115 16803
L12143 16831
L12199 16859
L12284 16859
" />
<path d="M11834 16465
L11834 16859
" />
<path d="M11834 16522
L11806 16494
L11749 16465
L11665 16465
L11609 16494
L11581 16550
L11581 16859
" />
<path d="M10878 16325
L10849 16297
L10793 16269
L10653 16269
L10596 16297
L10568 16325
L10540 16381
L10540 16437
L10568 16522
L10906 16859
L10540 16859
" />
<path d="M10174 16269
L10118 16269
L10062 16297
L10034 16325
L10006 16381
L9978 16494
L9978 16634
L10006 16747
L10034 16803
L10062 16831
L10118 16859
L10174 16859
L10231 16831
L10259 16803
L10287 16747
L10315 16634
L10315 16494
L10287 16381
L10259 16325
L10231 16297
L10174 16269
" />
<path d="M9753 16325
L9725 16297
L9668 16269
L9528 16269
L9471 16297
L9443 16325
L9415 16381
L9415 16437
L9443 16522
L9781 16859
L9415 16859
" />
<path d="M9190 16325
L9162 16297
L9106 16269
L8965 16269
L8909 16297
L8881 16325
L8853 16381
L8853 16437
L8881 16522
L9218 16859
L8853 16859
" />
<path d="M20045 17863
L20045 17273
" />
<path d="M20045 17498
L19989 17469
L19876 17469
L19820 17498
L19792 17526
L19764 17582
L19764 17751
L19792 17807
L19820 17835
L19876 17863
L19989 17863
L20045 17835
" />
<path d="M19539 17835
L19483 17863
L19370 17863
L19314 17835
L19286 17779
L19286 17751
L19314 17694
L19370 17666
L19455 17666
L19511 17638
L19539 17582
L19539 17554
L19511 17498
L19455 17469
L19370 17469
L19314 17498
" />
<path d="M19117 17469
L18892 17469
" />
<path d="M19033 17863
L19033 17357
L19005 17301
L18948 17273
L18892 17273
" />
<path d="M18695 17807
L18667 17835
L18695 17863
L18723 17835
L18695 17807
L18695 17863
" />
<path d="M18161 17835
L18217 17863
L18330 17863
L18386 17835
L18414 17807
L18442 17751
L18442 17582
L18414 17526
L18386 17498
L18330 17469
L18217 17469
L18161 17498
" />
<path d="M17824 17863
L17880 17835
L17908 17807
L17936 17751
L17936 17582
L17908 17526
L17880 17498
L17824 17469
L17739 17469
L17683 17498
L17655 17526
L17627 17582
L17627 17751
L17655 17807
L17683 17835
L17739 17863
L17824 17863
" />
<path d="M17374 17469
L17374 17863
" />
<path d="M17374 17526
L17345 17498
L17289 17469
L17205 17469
L17149 17498
L17120 17554
L17120 17863
" />
<path d="M16586 17835
L16642 17863
L16755 17863
L16811 17835
L16839 17807
L16867 17751
L16867 17582
L16839 17526
L16811 17498
L16755 17469
L16642 17469
L16586 17498
" />
<path d="M16108 17835
L16164 17863
L16277 17863
L16333 17835
L16361 17779
L16361 17554
L16333 17498
L16277 17469
L16164 17469
L16108 17498
L16080 17554
L16080 17610
L16361 17666
" />
<path d="M15827 17469
L15827 18060
" />
<path d="M15827 17498
L15771 17469
L15658 17469
L15602 17498
L15574 17526
L15546 17582
L15546 17751
L15574 17807
L15602 17835
L15658 17863
L15771 17863
L15827 17835
" />
<path d="M15377 17469
L15152 17469
" />
<path d="M15293 17273
L15293 17779
L15264 17835
L15208 17863
L15152 17863
" />
<path d="M14955 17863
L14955 17469
" />
<path d="M14955 17273
L14983 17301
L14955 17329
L14927 17301
L14955 17273
L14955 17329
" />
<path d="M14590 17863
L14646 17835
L14674 17807
L14702 17751
L14702 17582
L14674 17526
L14646 17498
L14590 17469
L14505 17469
L14449 17498
L14421 17526
L14393 17582
L14393 17751
L14421 17807
L14449 17835
L14505 17863
L14590 17863
" />
<path d="M14140 17469
L14140 17863
" />
<path d="M14140 17526
L14111 17498
L14055 17469
L13971 17469
L13915 17498
L13887 17554
L13887 17863
" />
<path d="M13240 17582
L13268 17554
L13324 17526
L13380 17526
L13437 17554
L13465 17582
L13493 17638
L13493 17694
L13465 17751
L13437 17779
L13380 17807
L13324 17807
L13268 17779
L13240 17751
" />
<path d="M13240 17526
L13240 17751
L13212 17779
L13183 17779
L13127 17751
L13099 17694
L13099 17554
L13155 17469
L13240 17413
L13352 17385
L13465 17413
L13549 17469
L13605 17554
L13633 17666
L13605 17779
L13549 17863
L13465 17919
L13352 17947
L13240 17919
L13155 17863
" />
<path d="M12593 17469
L12593 17947
L12621 18004
L12649 18032
L12705 18060
L12790 18060
L12846 18032
" />
<path d="M12593 17835
L12649 17863
L12762 17863
L12818 17835
L12846 17807
L12874 17751
L12874 17582
L12846 17526
L12818 17498
L12762 17469
L12649 17469
L12593 17498
" />
<path d="M12312 17863
L12312 17469
" />
<path d="M12312 17526
L12284 17498
L12227 17469
L12143 17469
L12087 17498
L12059 17554
L12059 17863
" />
<path d="M12059 17554
L12030 17498
L11974 17469
L11890 17469
L11834 17498
L11806 17554
L11806 17863
" />
<path d="M11271 17863
L11271 17554
L11299 17498
L11356 17469
L11468 17469
L11524 17498
" />
<path d="M11271 17835
L11327 17863
L11468 17863
L11524 17835
L11552 17779
L11552 17723
L11524 17666
L11468 17638
L11327 17638
L11271 17610
" />
<path d="M10990 17863
L10990 17469
" />
<path d="M10990 17273
L11018 17301
L10990 17329
L10962 17301
L10990 17273
L10990 17329
" />
<path d="M10624 17863
L10681 17835
L10709 17779
L10709 17273
" />
<path d="M10399 17807
L10371 17835
L10399 17863
L10428 17835
L10399 17807
L10399 17863
" />
<path d="M9865 17835
L9921 17863
L10034 17863
L10090 17835
L10118 17807
L10146 17751
L10146 17582
L10118 17526
L10090 17498
L10034 17469
L9921 17469
L9865 17498
" />
<path d="M9528 17863
L9584 17835
L9612 17807
L9640 17751
L9640 17582
L9612 17526
L9584 17498
L9528 17469
L9443 17469
L9387 17498
L9359 17526
L9331 17582
L9331 17751
L9359 17807
L9387 17835
L9443 17863
L9528 17863
" />
<path d="M9078 17863
L9078 17469
" />
<path d="M9078 17526
L9050 17498
L8993 17469
L8909 17469
L8853 17498
L8825 17554
L8825 17863
" />
<path d="M8825 17554
L8797 17498
L8740 17469
L8656 17469
L8600 17498
L8572 17554
L8572 17863
" />
<path d="M20045 18867
L20045 18276
" />
<path d="M19792 18867
L19792 18558
L19820 18501
L19876 18473
L19961 18473
L20017 18501
L20045 18530
" />
<path d="M19595 18473
L19370 18473
" />
<path d="M19511 18276
L19511 18783
L19483 18839
L19426 18867
L19370 18867
" />
<path d="M19258 18473
L19033 18473
" />
<path d="M19173 18276
L19173 18783
L19145 18839
L19089 18867
L19033 18867
" />
<path d="M18836 18473
L18836 19064
" />
<path d="M18836 18501
L18780 18473
L18667 18473
L18611 18501
L18583 18530
L18555 18586
L18555 18755
L18583 18811
L18611 18839
L18667 18867
L18780 18867
L18836 18839
" />
<path d="M18302 18811
L18273 18839
L18302 18867
L18330 18839
L18302 18811
L18302 18867
" />
<path d="M18302 18501
L18273 18530
L18302 18558
L18330 18530
L18302 18501
L18302 18558
" />
<path d="M17599 18248
L18105 19008
" />
<path d="M16980 18248
L17486 19008
" />
<path d="M16783 18867
L16783 18276
" />
<path d="M16783 18501
L16727 18473
L16614 18473
L16558 18501
L16530 18530
L16502 18586
L16502 18755
L16530 18811
L16558 18839
L16614 18867
L16727 18867
L16783 18839
" />
<path d="M16277 18839
L16221 18867
L16108 18867
L16052 18839
L16024 18783
L16024 18755
L16052 18698
L16108 18670
L16192 18670
L16249 18642
L16277 18586
L16277 18558
L16249 18501
L16192 18473
L16108 18473
L16052 18501
" />
<path d="M15855 18473
L15630 18473
" />
<path d="M15771 18867
L15771 18361
L15743 18305
L15686 18276
L15630 18276
" />
<path d="M15180 18839
L15236 18867
L15349 18867
L15405 18839
L15433 18811
L15461 18755
L15461 18586
L15433 18530
L15405 18501
L15349 18473
L15236 18473
L15180 18501
" />
<path d="M14843 18867
L14899 18839
L14927 18811
L14955 18755
L14955 18586
L14927 18530
L14899 18501
L14843 18473
L14758 18473
L14702 18501
L14674 18530
L14646 18586
L14646 18755
L14674 18811
L14702 18839
L14758 18867
L14843 18867
" />
<path d="M14393 18473
L14393 18867
" />
<path d="M14393 18530
L14365 18501
L14308 18473
L14224 18473
L14168 18501
L14140 18558
L14140 18867
" />
<path d="M13605 18839
L13662 18867
L13774 18867
L13830 18839
L13858 18811
L13887 18755
L13887 18586
L13858 18530
L13830 18501
L13774 18473
L13662 18473
L13605 18501
" />
<path d="M13127 18839
L13183 18867
L13296 18867
L13352 18839
L13380 18783
L13380 18558
L13352 18501
L13296 18473
L13183 18473
L13127 18501
L13099 18558
L13099 18614
L13380 18670
" />
<path d="M12846 18473
L12846 19064
" />
<path d="M12846 18501
L12790 18473
L12677 18473
L12621 18501
L12593 18530
L12565 18586
L12565 18755
L12593 18811
L12621 18839
L12677 18867
L12790 18867
L12846 18839
" />
<path d="M12396 18473
L12171 18473
" />
<path d="M12312 18276
L12312 18783
L12284 18839
L12227 18867
L12171 18867
" />
<path d="M11974 18867
L11974 18473
" />
<path d="M11974 18276
L12002 18305
L11974 18333
L11946 18305
L11974 18276
L11974 18333
" />
<path d="M11609 18867
L11665 18839
L11693 18811
L11721 18755
L11721 18586
L11693 18530
L11665 18501
L11609 18473
L11524 18473
L11468 18501
L11440 18530
L11412 18586
L11412 18755
L11440 18811
L11468 18839
L11524 18867
L11609 18867
" />
<path d="M11159 18473
L11159 18867
" />
<path d="M11159 18530
L11131 18501
L11074 18473
L10990 18473
L10934 18501
L10906 18558
L10906 18867
" />
<path d="M10624 18811
L10596 18839
L10624 18867
L10653 18839
L10624 18811
L10624 18867
" />
<path d="M10259 18867
L10315 18839
L10343 18811
L10371 18755
L10371 18586
L10343 18530
L10315 18501
L10259 18473
L10174 18473
L10118 18501
L10090 18530
L10062 18586
L10062 18755
L10090 18811
L10118 18839
L10174 18867
L10259 18867
" />
<path d="M9865 18473
L9725 18867
L9584 18473
" />
<path d="M9359 18867
L9359 18276
" />
<path d="M9106 18867
L9106 18558
L9134 18501
L9190 18473
L9275 18473
L9331 18501
L9359 18530
" />
</g>
<g style="fill:#840084; fill-opacity:1.0; 
stroke:#840084; stroke-width:3.93701; stroke-opacity:1; 
stroke-linecap:round; stroke-linejoin:round;">
<polyline style="fill-rule:evenodd;"
points="20972,19468
27752,19468
27752,18888
25322,18888
25321,18919
25316,18931
25298,18938
25274,18936
25256,18927
25255,18926
25247,18910
25236,18882
25224,18846
25224,18846
25204,18787
25185,18744
25165,18714
25142,18694
25138,18693
24790,18693
24789,18705
24786,18736
24779,18749
24771,18751
24758,18758
24741,18783
24733,18800
24711,18848
24691,18879
24669,18900
24642,18912
24622,18917
24581,18922
24547,18915
24514,18894
24488,18869
24469,18851
24458,18845
24450,18852
24447,18856
24434,18884
24425,18925
24420,18972
24419,19019
24421,19039
24435,19098
24459,19140
24494,19166
24541,19177
24558,19178
24581,19175
24594,19164
24602,19143
24614,19118
24624,19109
24631,19117
24632,19133
24627,19165
24614,19193
24597,19211
24594,19212
24565,19215
24527,19212
24488,19204
24458,19193
24452,19190
24434,19171
24413,19141
24402,19123
24389,19093
24382,19064
24378,19029
24378,18988
24379,18946
24383,18907
24392,18866
24406,18816
24416,18783
24432,18735
24446,18691
24457,18657
24464,18637
24464,18637
24479,18610
24500,18585
24523,18567
24543,18561
24547,18561
24559,18575
24562,18596
24553,18612
24552,18613
24542,18626
24528,18652
24513,18683
24500,18713
24493,18736
24492,18742
24500,18758
24515,18769
24538,18784
24551,18795
24571,18805
24590,18806
24606,18801
24621,18786
24639,18758
24653,18733
24681,18684
24708,18654
24734,18641
24762,18644
24767,18646
24782,18655
24789,18669
24790,18693
25138,18693
25125,18685
25094,18675
25067,18670
25061,18670
25042,18668
25037,18658
25041,18650
25055,18646
25083,18644
25110,18644
25147,18645
25169,18643
25179,18638
25182,18629
25182,18624
25190,18596
25213,18581
25234,18578
25265,18584
25282,18603
25288,18636
25287,18661
25286,18707
25294,18759
25302,18788
25315,18843
25322,18888
27752,18888
27752,18538
25949,18538
25936,18585
25907,18627
25864,18660
25847,18669
25811,18683
25782,18686
25753,18680
25740,18674
25710,18657
25683,18634
25664,18599
25661,18554
25674,18501
25685,18476
25703,18443
25716,18429
25724,18433
25726,18455
25721,18495
25717,18520
25714,18565
25725,18597
25750,18617
25751,18618
25786,18623
25817,18611
25841,18586
25852,18550
25852,18541
25848,18513
25833,18489
25817,18472
25790,18449
25763,18430
25755,18426
25731,18407
25725,18384
25736,18361
25745,18354
25774,18346
25810,18352
25848,18371
25885,18400
25917,18435
25939,18476
25944,18489
25949,18538
27752,18538
27752,18244
26492,18244
26486,18278
26471,18310
26449,18335
26426,18348
26421,18348
26406,18345
26402,18341
26409,18330
26423,18312
26437,18294
26437,18278
26431,18265
26418,18248
26393,18221
26361,18189
26325,18155
26148,18155
26147,18159
26135,18167
26120,18167
26112,18159
26120,18145
26137,18141
26143,18143
26148,18155
26325,18155
26324,18154
26287,18120
26253,18091
26227,18071
26196,18049
26132,18094
26095,18117
26070,18128
26057,18127
26059,18113
26075,18087
26076,18086
26100,18058
26125,18032
26128,18029
26155,18006
26124,17986
26098,17961
26085,17931
26085,17900
26099,17874
26124,17858
26134,17856
26153,17855
26170,17861
26190,17878
26211,17899
26255,17948
26289,17927
26314,17914
26329,17913
26338,17918
26346,17934
26336,17949
26311,17961
26307,17962
26297,17966
26293,17971
26297,17981
26311,17999
26334,18026
26368,18062
26415,18115
26450,18156
26473,18188
26486,18214
26492,18236
26492,18244
27752,18244
27752,17673
26902,17673
26893,17721
26864,17765
26838,17788
26807,17807
26787,17812
26778,17805
26784,17787
26800,17764
26821,17735
26835,17705
26838,17697
26840,17672
26831,17655
26817,17642
26781,17622
26737,17613
26695,17614
26660,17627
26656,17630
26645,17646
26638,17666
26621,17702
26595,17724
26572,17728
26545,17722
26528,17702
26521,17666
26521,17635
26529,17617
26549,17590
26576,17561
26606,17532
26635,17510
26640,17507
26661,17494
26677,17490
26696,17493
26726,17503
26763,17517
26791,17531
26817,17550
26849,17579
26859,17589
26884,17614
26897,17635
26902,17658
26902,17673
27752,17673
27752,17486
26760,17486
26756,17496
26748,17498
26735,17490
26732,17482
26738,17471
26750,17473
26760,17486
27752,17486
27752,17055
27181,17055
27162,17096
27144,17119
27124,17145
27112,17166
27110,17176
27108,17187
27103,17188
27093,17180
27092,17176
27088,17170
27086,17172
27087,17182
27101,17198
27101,17199
27116,17216
27122,17228
27115,17237
27095,17237
27069,17230
27049,17219
27023,17207
27000,17206
26985,17207
26985,17197
26985,17195
26986,17181
26981,17178
26963,17173
26933,17160
26899,17143
26865,17123
26837,17105
26823,17093
26797,17053
26789,17008
26798,16963
26802,16956
25817,16956
25817,16982
25805,17002
25781,17028
25751,17055
25720,17077
25697,17088
25679,17091
25644,17094
25598,17097
25543,17098
25504,17098
25426,17099
25363,17103
25314,17109
25273,17120
25237,17135
25204,17155
25146,17187
25076,17213
25017,17228
24966,17239
24930,17245
24903,17245
24883,17240
24864,17228
24856,17223
24832,17199
24823,17177
24823,17175
24824,17165
24829,17158
24843,17155
24869,17153
24911,17152
24920,17152
24995,17147
25064,17133
25134,17110
25210,17075
25242,17056
25278,17031
25314,17002
25347,16973
25374,16946
25390,16926
25392,16918
25387,16902
25373,16881
25372,16881
25355,16851
25356,16827
25376,16808
25390,16802
25418,16792
25437,16793
25446,16798
25461,16806
25466,16806
25467,16795
25466,16770
25465,16735
25465,16733
25461,16663
25419,16646
25373,16631
25312,16616
25241,16603
25166,16592
25091,16584
25047,16581
24995,16579
24958,16579
24932,16580
24912,16585
24892,16593
24885,16597
24835,16630
24789,16675
24748,16728
24716,16783
24697,16837
24693,16871
24701,16923
24723,16979
24757,17030
24781,17056
24816,17090
24827,17064
24838,17046
24859,17018
24888,16984
24912,16957
24986,16876
24958,16854
24940,16837
24936,16823
24941,16811
24950,16797
24963,16788
24984,16782
25016,16779
25063,16777
25077,16776
25131,16777
25170,16780
25190,16786
25208,16806
25212,16836
25203,16872
25183,16913
25152,16955
25114,16996
25068,17033
25034,17055
24985,17083
24949,17102
24920,17112
24895,17117
24879,17118
24844,17126
24827,17139
24800,17156
24770,17155
24742,17138
24726,17118
24705,17088
24682,17061
24680,17058
24660,17034
24638,17002
24629,16987
24615,16960
24607,16933
24603,16899
24603,16862
24604,16808
24610,16765
24622,16726
24644,16688
24675,16643
24698,16614
24756,16550
24810,16505
24861,16478
24911,16468
24913,16468
24947,16468
24917,16443
24895,16427
24877,16419
24874,16418
24861,16411
24838,16392
24809,16365
24779,16334
24778,16333
24502,16333
24497,16392
24473,16449
24472,16450
24442,16490
24403,16525
24363,16553
24333,16565
24312,16573
24280,16589
24246,16609
24244,16610
24212,16628
24187,16642
24174,16648
24173,16648
24158,16653
24130,16666
24095,16685
24057,16706
24020,16728
23994,16746
23958,16777
23923,16818
23892,16865
23867,16913
23852,16955
23849,16978
23855,17011
23873,17058
23900,17117
23917,17149
23931,17163
23957,17180
23982,17194
24020,17209
24065,17219
24112,17226
24160,17229
24202,17228
24236,17223
24257,17213
24262,17203
24269,17193
24292,17188
24302,17188
24329,17190
24342,17198
24349,17215
24351,17240
24344,17259
24324,17273
24288,17285
24236,17294
24217,17297
24175,17303
24146,17306
24121,17305
24094,17302
24057,17295
24050,17294
23990,17281
23944,17265
23907,17245
23873,17217
23852,17197
23808,17143
23773,17087
23749,17032
23739,16983
23739,16978
23744,16941
23758,16893
23778,16842
23802,16794
23827,16755
23827,16754
23843,16732
23852,16715
23853,16712
23862,16701
23884,16682
23916,16658
23955,16632
23996,16607
24037,16584
24037,16584
24073,16565
24116,16540
24161,16514
24206,16488
24245,16463
24275,16444
24293,16431
24295,16430
24304,16415
24315,16390
24317,16382
24325,16355
24323,16334
24311,16309
24310,16308
24270,16258
24215,16222
24145,16198
24060,16188
24041,16187
23997,16187
23968,16189
23946,16194
23927,16203
23909,16216
23881,16234
23856,16248
23847,16252
23828,16265
23817,16280
23796,16306
23763,16322
23724,16325
23717,16324
23693,16317
23686,16307
23459,16307
23454,16361
23450,16405
23448,16443
23448,16471
23449,16478
23449,16498
23447,16533
23442,16580
23436,16634
23428,16690
23419,16746
23413,16783
23401,16854
23390,16941
23378,17037
23373,17086
23369,17135
23367,17169
23369,17193
23374,17211
23378,17218
23388,17246
23392,17270
23383,17302
23358,17331
23324,17353
23285,17365
23247,17366
23223,17358
23202,17338
23184,17307
23174,17273
23172,17258
23179,17230
23191,17207
23202,17182
23212,17139
23221,17078
23229,17002
23235,16910
23238,16869
23240,16821
23243,16779
23246,16748
23248,16734
23246,16716
23230,16698
23218,16689
23196,16672
23184,16657
23182,16653
23173,16645
23144,16638
23097,16633
23032,16629
22951,16628
22936,16628
22869,16626
22817,16622
22781,16614
22764,16604
22763,16599
22767,16585
22780,16574
22804,16564
22841,16557
22892,16550
22960,16545
23035,16540
23083,16537
23125,16532
23155,16528
23170,16524
23170,16523
23174,16508
23174,16479
23171,16443
23165,16397
23160,16349
23156,16317
23141,16259
23111,16213
23064,16180
23017,16163
22946,16149
22883,16148
22820,16160
22767,16179
22715,16197
22666,16210
22623,16217
22590,16217
22570,16209
22567,16205
22569,16185
22584,16159
22608,16135
22622,16125
22646,16109
22676,16089
22687,16081
22719,16059
22758,16035
22782,16022
22824,15998
22870,15973
22892,15960
22932,15940
22968,15930
23004,15928
23036,15930
23059,15933
23067,15937
23082,15946
23111,15956
23151,15965
23197,15972
23243,15978
23285,15979
23293,15979
23334,15979
23361,15982
23377,15989
23385,15995
23402,16022
23418,16060
23431,16102
23438,16138
23443,16170
23450,16208
23453,16221
23459,16259
23459,16307
23686,16307
23684,16304
23682,16288
23685,16267
23690,16258
23694,16249
23695,16227
23694,16214
23699,16163
23721,16117
23747,16089
23764,16070
23772,16054
23772,16053
23781,16034
23804,16015
23834,15998
23866,15987
23894,15983
23909,15988
23929,15997
23963,16008
24007,16018
24057,16027
24107,16034
24139,16038
24228,16052
24307,16082
24377,16128
24405,16153
24456,16212
24488,16272
24502,16333
24778,16333
24750,16302
24726,16274
24711,16253
24708,16245
24696,16185
24689,16140
24685,16106
24685,16079
24689,16055
24692,16042
24711,15987
24739,15942
24773,15910
24788,15902
24825,15894
24878,15894
24945,15900
25024,15913
25112,15931
25208,15956
25309,15986
25375,16007
25468,16040
25544,16069
25604,16095
25650,16119
25685,16142
25705,16160
25720,16180
25729,16199
25732,16227
25732,16255
25734,16292
25738,16323
25743,16339
25747,16356
25744,16381
25734,16416
25714,16465
25702,16493
25692,16521
25686,16549
25682,16585
25681,16634
25681,16653
25681,16701
25682,16734
25685,16754
25691,16767
25700,16776
25704,16780
25734,16803
25751,16821
25758,16838
25758,16861
25758,16867
25757,16894
25762,16907
25776,16914
25803,16929
25817,16956
26802,16956
26824,16919
26865,16882
26868,16880
26898,16860
26917,16851
26930,16851
26942,16859
26947,16864
26957,16880
26957,16900
26945,16929
26926,16965
26908,17002
26904,17031
26912,17056
26919,17067
26935,17090
26963,17063
26985,17037
27001,17011
27002,17008
27025,16978
27057,16960
27095,16954
27132,16962
27160,16983
27180,17018
27181,17055
27752,17055
27752,16298
27260,16298
27256,16305
27247,16314
27229,16321
27198,16326
27156,16329
27111,16333
27067,16338
27034,16344
27027,16346
26992,16354
26951,16361
26937,16363
26889,16376
26861,16394
26846,16412
26840,16428
26842,16453
26844,16466
26851,16502
26859,16536
26862,16544
26865,16571
26861,16592
26851,16603
26839,16600
26836,16596
26824,16575
26811,16544
26799,16511
26793,16485
26792,16480
26787,16457
26780,16445
26773,16438
26762,16435
26744,16438
26715,16447
26682,16458
26624,16482
26582,16508
26554,16539
26534,16578
26531,16589
26524,16621
26526,16646
26532,16661
26547,16709
26550,16744
26542,16763
26528,16775
26511,16775
26489,16760
26470,16743
26448,16720
26435,16702
26432,16695
26426,16678
26412,16663
26397,16643
26394,16618
26405,16586
26414,16568
26428,16533
26439,16491
26441,16475
26447,16423
26510,16392
26567,16370
26642,16348
26733,16329
26839,16312
26903,16303
26979,16294
27039,16286
27083,16280
27114,16274
27135,16269
27148,16264
27155,16260
27178,16249
27208,16251
27238,16263
27244,16267
27260,16284
27260,16298
27752,16298
27752,16025
25532,16025
25531,16035
25524,16037
25506,16031
25487,16024
25463,16008
25453,15991
25459,15977
25468,15972
25485,15974
25506,15987
25524,16006
25532,16024
25532,16025
27752,16025
27752,12712
27457,12712
27454,12728
27432,12768
27397,12801
27352,12826
27301,12841
27248,12847
27199,12842
27157,12825
27133,12804
27123,12795
27111,12795
27089,12805
27079,12811
27024,12848
26987,12893
26976,12916
26967,12941
26969,12958
26977,12974
26986,12985
26997,12992
27015,12996
27044,12997
27085,12997
27158,13000
27216,13011
27265,13031
27285,13043
27315,13073
27330,13113
27332,13159
27320,13206
27303,13236
27269,13269
27228,13285
27178,13283
27137,13273
27095,13256
27065,13238
27049,13221
26762,13221
26762,13267
26758,13295
26752,13306
26742,13303
26732,13292
26722,13283
26713,13289
26705,13302
26690,13324
26675,13326
26668,13318
26667,13303
26672,13288
26678,13273
26669,13268
26663,13268
26646,13265
26642,13260
26649,13250
26667,13230
26692,13203
26702,13193
26762,13134
26762,13221
27049,13221
27042,13213
27019,13176
27016,13171
26994,13135
26970,13110
26937,13089
26929,13085
26873,13055
26807,13083
26771,13098
26745,13105
26721,13106
26691,13102
26682,13100
26626,13085
26559,13057
26484,13019
26405,12973
26324,12920
26310,12910
26263,12876
26252,12904
26246,12930
26240,12972
26235,13025
26231,13086
26229,13149
26228,13212
26228,13268
26234,13415
26242,13544
26252,13658
26264,13761
26279,13855
26298,13942
26320,14025
26338,14082
26362,14151
26389,14209
26422,14266
26445,14301
26470,14341
26494,14385
26513,14426
26527,14461
26532,14484
26532,14484
26541,14515
26564,14556
26603,14605
26654,14661
26667,14673
26717,14724
26754,14766
26779,14804
26795,14843
26803,14887
26807,14941
26807,14983
26799,15108
26776,15241
26741,15376
26696,15508
26641,15634
26578,15748
26547,15794
26493,15861
26437,15908
26379,15936
26318,15947
26307,15948
26246,15939
26185,15911
26125,15865
26066,15800
26008,15715
25965,15642
25930,15573
25894,15497
25859,15418
25827,15340
25800,15268
25779,15205
25767,15162
25757,15094
25755,15022
25762,14955
25767,14929
25779,14889
25796,14852
25819,14812
25850,14765
25884,14720
25907,14687
25924,14658
25932,14637
25932,14635
25923,14599
25895,14560
25850,14521
25831,14507
25791,14479
25746,14446
25703,14412
25697,14407
25637,14363
25585,14333
25542,14319
25529,14318
25498,14326
25459,14349
25412,14386
25388,14409
25360,14433
25319,14462
25271,14494
25221,14525
25215,14529
25093,14600
25151,14642
25216,14698
25266,14758
25299,14818
25315,14879
25316,14903
25316,14936
25324,14959
25341,14981
25345,14986
25367,15006
25389,15015
25419,15018
25428,15018
25463,15021
25488,15031
25508,15052
25526,15085
25541,15130
25538,15170
25518,15202
25517,15203
25486,15221
25445,15231
25406,15230
25393,15226
25372,15211
25350,15183
25330,15148
25318,15113
25316,15108
25304,15071
25284,15046
25262,15038
25240,15046
25216,15068
25194,15096
25180,15126
25177,15137
25170,15171
25162,15202
25153,15244
25159,15275
25174,15294
25205,15334
25220,15376
25218,15418
25203,15456
25175,15487
25136,15508
25088,15515
25065,15513
25022,15499
24992,15472
24976,15437
24974,15395
24988,15350
25016,15305
25036,15283
25064,15253
25080,15227
25088,15196
25088,15192
25091,15162
25088,15144
25076,15130
25066,15121
25037,15105
25006,15098
24983,15102
24967,15116
24959,15132
24948,15160
24943,15184
24942,15186
24933,15211
24910,15232
24878,15247
24843,15255
24811,15251
24801,15247
24768,15225
24752,15198
24748,15172
24757,15134
24784,15106
24826,15087
24871,15072
24911,15054
24942,15035
24960,15017
24962,15009
24956,14993
24940,14982
24924,14980
24914,14989
24904,15004
24886,15024
24884,15026
24863,15041
24841,15047
24810,15046
24765,15033
24733,15006
24716,14970
24717,14938
24731,14904
24756,14875
24773,14863
24800,14853
24829,14852
24865,14860
24897,14871
24929,14880
24965,14888
25002,14893
25034,14895
25055,14894
25062,14890
25055,14879
25035,14861
25010,14842
24976,14816
24935,14783
24898,14750
24897,14749
24861,14715
24822,14679
24789,14650
24789,14649
24763,14624
24749,14606
24745,14590
24747,14574
24757,14547
24778,14519
24812,14491
24860,14460
24925,14425
24949,14413
25036,14367
25103,14323
25153,14280
25186,14238
25202,14200
25208,14166
25204,14138
25188,14114
25158,14091
25111,14065
25102,14060
25056,14038
25006,14016
24962,13998
24952,13994
24891,13977
24815,13964
24731,13956
24645,13953
24561,13957
24552,13957
24498,13962
24441,13967
24391,13971
24372,13973
24333,13976
24300,13980
24279,13983
24277,13983
24254,13986
24223,13987
24220,13987
24192,13991
24184,13997
24194,14005
24221,14012
24245,14018
24266,14028
24288,14047
24311,14075
24339,14116
24374,14171
24380,14183
24421,14252
24450,14308
24469,14355
24478,14396
24480,14433
24478,14453
24466,14498
24445,14527
24412,14543
24364,14548
24361,14548
24302,14552
24232,14561
24162,14575
24100,14592
24084,14598
24029,14621
23976,14648
23931,14677
23894,14705
23870,14731
23862,14751
23872,14755
23899,14756
23938,14753
24004,14750
24055,14755
24093,14767
24113,14781
24150,14823
24170,14865
24171,14905
24153,14941
24143,14953
24106,14975
24062,14983
24016,14978
23973,14961
23939,14933
23921,14905
23906,14885
23887,14879
23871,14888
23864,14905
23869,14928
23885,14961
23910,14999
23942,15039
23960,15060
23989,15102
24000,15146
23996,15189
23976,15227
23941,15256
23918,15266
23870,15274
23828,15263
23790,15234
23770,15208
23757,15177
23753,15137
23757,15096
23767,15068
23776,15043
23782,15009
23782,14995
23781,14966
23775,14949
23762,14940
23757,14938
23721,14930
23685,14929
23656,14937
23651,14941
23638,14956
23620,14982
23604,15009
23587,15043
23577,15071
23573,15104
23572,15140
23569,15193
23559,15231
23538,15258
23505,15280
23501,15282
23463,15294
23419,15297
23379,15292
23358,15282
23334,15260
23312,15230
23297,15198
23292,15177
23301,15146
23324,15111
23358,15075
23399,15044
23399,15044
23448,15013
23483,14986
23508,14960
23527,14931
23533,14920
23547,14881
23556,14835
23558,14788
23554,14746
23543,14716
23538,14709
23512,14690
23481,14690
23447,14710
23422,14732
23375,14772
23319,14805
23263,14828
23242,14833
23199,14831
23159,14813
23125,14782
23102,14741
23093,14694
23093,14689
23101,14643
23123,14610
23160,14590
23170,14587
23205,14579
23243,14569
23251,14567
23282,14561
23308,14562
23341,14572
23343,14572
23387,14584
23432,14584
23447,14583
23495,14572
23530,14553
23558,14519
23572,14495
23597,14460
23636,14424
23684,14389
23735,14359
23784,14338
23827,14327
23831,14327
23846,14326
23844,14323
23825,14316
23822,14316
23755,14295
23692,14272
23637,14249
23604,14232
23579,14215
23546,14187
23506,14151
23466,14112
23457,14103
23388,14038
23322,13988
23258,13953
23190,13931
23114,13920
23052,13918
22993,13919
22940,13927
22888,13941
22830,13964
22797,13979
22769,13993
22731,14014
22688,14038
22647,14062
22611,14084
22588,14099
22587,14100
22577,14109
22554,14128
22523,14155
22487,14186
22450,14219
22414,14251
22384,14278
22362,14298
22356,14303
22319,14340
22275,14388
22228,14442
22183,14497
22144,14547
22119,14583
22077,14647
22044,14698
22018,14742
21995,14782
21973,14822
21950,14868
21938,14891
21920,14926
21905,14954
21895,14970
21894,14971
21886,14989
21878,15015
21877,15018
21871,15043
21864,15057
21863,15058
21853,15072
21839,15102
21821,15147
21800,15202
21778,15265
21754,15334
21731,15405
21709,15477
21689,15545
21673,15603
21625,15800
21588,15984
21561,16159
21543,16330
21534,16501
21532,16602
21541,16828
21569,17046
21614,17257
21678,17461
21760,17658
21862,17851
21928,17958
21995,18055
22074,18157
22160,18259
22249,18358
22339,18450
22426,18531
22469,18567
22608,18674
22756,18775
22906,18869
23053,18949
23082,18964
23118,18981
23145,18996
23161,19006
23162,19007
23174,19013
23199,19023
23225,19031
23255,19042
23276,19052
23282,19059
23291,19066
23301,19068
23322,19072
23352,19082
23384,19095
23413,19108
23432,19120
23435,19123
23442,19128
23442,19126
23447,19125
23464,19127
23494,19134
23538,19147
23599,19165
23621,19172
23660,19183
23710,19196
23767,19210
23826,19223
23883,19236
23935,19246
23977,19254
24005,19258
24011,19258
24026,19262
24028,19268
24015,19272
23987,19274
23946,19274
23898,19271
23846,19267
23795,19261
23767,19257
23727,19251
23691,19244
23667,19238
23641,19231
23604,19223
23580,19218
23546,19209
23529,19201
23529,19196
23529,19189
23519,19191
23498,19192
23475,19186
23452,19178
23437,19173
23412,19168
23377,19158
23336,19145
23295,19131
23259,19117
23231,19105
23217,19097
23217,19097
23203,19089
23193,19088
23167,19083
23126,19069
23073,19047
23011,19018
22941,18984
22867,18945
22791,18903
22715,18860
22702,18851
22555,18756
22407,18645
22261,18522
22120,18391
21988,18254
21870,18115
21822,18053
21800,18023
21782,18000
21773,17989
21773,17988
21760,17972
21739,17941
21712,17898
21680,17848
21646,17791
21612,17733
21578,17675
21547,17620
21530,17588
21491,17512
21450,17422
21409,17325
21368,17225
21331,17126
21299,17033
21274,16952
21266,16923
21248,16849
21233,16782
21222,16717
21214,16652
21209,16581
21205,16500
21203,16407
21203,16328
21205,16159
21212,16008
21223,15875
21239,15759
21253,15688
21305,15477
21364,15281
21431,15094
21508,14913
21598,14731
21662,14614
21746,14476
21848,14330
21936,14213
22013,14118
22093,14025
22174,13936
22254,13853
22330,13781
22400,13720
22449,13682
22480,13662
22525,13636
22578,13607
22634,13578
22665,13562
22759,13516
22836,13477
22901,13443
22955,13412
23000,13384
23039,13356
23074,13328
23108,13297
23143,13261
23164,13239
23204,13197
23234,13167
23260,13145
23285,13129
23312,13116
23333,13107
23392,13079
23434,13050
23457,13021
23462,13001
23459,12984
23443,12978
23434,12978
23407,12982
23373,12993
23361,12998
23329,13008
23284,13014
23233,13018
23181,13019
23133,13016
23097,13010
23082,13005
23058,12991
23026,12975
23017,12970
22976,12948
22917,12968
22857,12997
22817,13029
22767,13066
22707,13094
22646,13107
22628,13108
22589,13106
22564,13098
22546,13081
22532,13057
22515,13006
22516,12956
22534,12912
22567,12876
22587,12864
22633,12850
22693,12845
22763,12850
22806,12858
22840,12864
22863,12864
22880,12859
22888,12854
22908,12830
22912,12799
22901,12763
22876,12723
22839,12682
22790,12643
22782,12638
22755,12618
22723,12591
22700,12571
22671,12546
22651,12532
22635,12531
22617,12538
22606,12545
22574,12557
22532,12562
22490,12559
22458,12548
22425,12521
22401,12481
22387,12435
22384,12389
22396,12350
22424,12318
22465,12297
22513,12288
22562,12292
22596,12303
22632,12326
22672,12359
22711,12398
22741,12435
22742,12437
22778,12481
22821,12517
22865,12541
22906,12551
22908,12551
22940,12543
22968,12524
22987,12498
22991,12486
22988,12469
22976,12449
22952,12423
22940,12412
22900,12374
22874,12344
22860,12317
22854,12290
22856,12258
22856,12257
22863,12217
22876,12190
22899,12171
22915,12162
22962,12146
23007,12149
23033,12159
23068,12180
23087,12204
23094,12236
23094,12256
23093,12331
23093,12396
23094,12449
23097,12487
23100,12508
23102,12512
23116,12517
23129,12504
23139,12476
23145,12436
23148,12400
23155,12377
23169,12359
23187,12342
23215,12321
23243,12306
23253,12303
23291,12304
23328,12320
23361,12348
23384,12382
23392,12416
23385,12438
23368,12462
23364,12466
23338,12490
23309,12518
23299,12527
23276,12553
23260,12578
23256,12587
23248,12613
23235,12645
23232,12652
23220,12687
23221,12709
23236,12717
23261,12711
23298,12690
23309,12682
23341,12657
23371,12633
23386,12621
23434,12591
23498,12565
23573,12545
23654,12533
23737,12528
23789,12534
23830,12554
23864,12591
23884,12625
23893,12645
23899,12663
23903,12686
23906,12715
23907,12755
23907,12810
23907,12836
23907,13000
23942,12994
23962,12992
23998,12990
24048,12988
24109,12986
24176,12983
24228,12982
24370,12980
24495,12982
24608,12988
24711,12998
24810,13014
24906,13034
24962,13049
25052,13076
25148,13111
25245,13150
25336,13192
25418,13234
25472,13266
25541,13302
25607,13324
25669,13330
25725,13321
25772,13298
25808,13260
25817,13243
25832,13198
25840,13139
25841,13073
25834,13006
25828,12974
25819,12919
25816,12859
25818,12802
25825,12758
25830,12738
25836,12711
25837,12710
25849,12668
25867,12627
25886,12593
25900,12575
25938,12551
25989,12530
26048,12516
26087,12511
26160,12505
26344,12598
26403,12628
26459,12658
26508,12685
26547,12707
26572,12723
26573,12724
26616,12752
26651,12769
26676,12773
26685,12770
26685,12756
26676,12729
26661,12699
26638,12657
26615,12614
26600,12586
26581,12538
26573,12491
26576,12449
26587,12422
26605,12405
26632,12388
26642,12383
26669,12372
26688,12370
26708,12377
26718,12381
26744,12400
26770,12428
26778,12439
26793,12467
26801,12493
26802,12526
26801,12542
26800,12576
26802,12595
26809,12604
26815,12606
26832,12603
26836,12596
26850,12541
26861,12485
26869,12436
26872,12398
26872,12396
26879,12349
26900,12310
26932,12281
26971,12266
27014,12268
27015,12269
27063,12290
27096,12323
27111,12358
27118,12385
27117,12407
27108,12432
27101,12446
27075,12485
27041,12513
27031,12518
26983,12547
26954,12574
26943,12600
26950,12628
26974,12658
26985,12669
27010,12690
27031,12705
27040,12708
27069,12701
27106,12684
27147,12657
27171,12639
27223,12604
27279,12588
27344,12588
27356,12589
27405,12604
27439,12631
27457,12668
27457,12712
27752,12712
27752,12008
20972,12008
20972,19468
" /> 
<polyline style="fill-rule:evenodd;"
points="25823,13520
25805,13529
25766,13561
25742,13603
25735,13651
25735,13658
25740,13690
25746,13716
25748,13722
25751,13736
25742,13735
25737,13734
25710,13726
25697,13723
25669,13727
25634,13740
25598,13759
25570,13781
25565,13786
25548,13810
25544,13820
25553,13816
25575,13796
25576,13795
25622,13763
25676,13749
25692,13748
25712,13755
25738,13774
25768,13800
25794,13829
25813,13857
25817,13863
25826,13884
25827,13900
25819,13918
25806,13939
25789,13963
25778,13971
25770,13968
25766,13963
25757,13954
25749,13959
25741,13974
25719,13998
25686,14010
25645,14010
25601,13999
25560,13976
25540,13965
25533,13967
25532,13970
25542,13987
25569,14004
25610,14019
25621,14022
25648,14030
25666,14042
25684,14063
25701,14091
25725,14127
25747,14145
25767,14146
25787,14132
25800,14110
25802,14094
25809,14070
25817,14058
25829,14039
25832,14021
25839,13998
25856,13966
25880,13929
25908,13894
25936,13864
25949,13853
25975,13828
26002,13796
26027,13760
26045,13728
26046,13723
25968,13723
25967,13730
25956,13750
25937,13776
25913,13802
25889,13824
25869,13838
25858,13840
25845,13829
25824,13808
25811,13793
25782,13758
25764,13729
25754,13699
25749,13668
25750,13626
25763,13589
25786,13561
25815,13545
25845,13546
25871,13560
25899,13587
25926,13622
25949,13659
25964,13695
25968,13723
26046,13723
26052,13704
26052,13702
26045,13686
26025,13662
25996,13632
25962,13601
25927,13571
25893,13546
25865,13530
25841,13520
25823,13520
" /> 
<polyline style="fill-rule:evenodd;"
points="25652,13864
25647,13875
25630,13887
25597,13901
25568,13912
25555,13919
25560,13927
25563,13928
25592,13937
25629,13937
25665,13928
25687,13917
25714,13896
25691,13872
25669,13852
25656,13850
25652,13864
" /> 
<polyline style="fill-rule:evenodd;"
points="25534,13902
25523,13912
25526,13918
25527,13918
25535,13911
25538,13907
25540,13900
25534,13902
" /> 
<polyline style="fill-rule:evenodd;"
points="25536,13846
25534,13862
25536,13865
25541,13862
25542,13852
25539,13842
25536,13846
" /> 
<polyline style="fill-rule:evenodd;"
points="25289,13307
25268,13318
25259,13326
25253,13343
25244,13377
25235,13422
25225,13477
25215,13537
25207,13585
25195,13663
25182,13724
25170,13769
25156,13799
25141,13818
25134,13823
25120,13833
25121,13837
25122,13837
25144,13833
25154,13828
25169,13810
25185,13775
25201,13726
25213,13678
25223,13641
25238,13594
25255,13541
25274,13489
25291,13444
25305,13412
25307,13409
25322,13385
25337,13369
25351,13348
25350,13327
25336,13311
25312,13303
25289,13307
" /> 
<polyline style="fill-rule:evenodd;"
points="24732,13457
24701,13486
24684,13517
24656,13582
24635,13631
24621,13665
24614,13686
24613,13696
24617,13696
24627,13688
24633,13682
24654,13661
24687,13695
24719,13718
24753,13729
24784,13726
24800,13716
24810,13695
24810,13674
24772,13674
24767,13693
24752,13697
24729,13684
24712,13669
24689,13641
24683,13618
24692,13603
24711,13602
24734,13614
24755,13634
24769,13658
24772,13674
24810,13674
24810,13667
24802,13639
24789,13617
24771,13608
24771,13608
24755,13602
24736,13587
24719,13570
24711,13555
24711,13551
24734,13530
24766,13527
24807,13539
24847,13553
24872,13554
24881,13544
24873,13523
24849,13492
24844,13487
24804,13458
24767,13448
24732,13457
" /> 
<polyline style="fill-rule:evenodd;"
points="23738,13096
23718,13111
23703,13131
23697,13151
23698,13156
23705,13176
23716,13205
23720,13218
23731,13250
23740,13276
23743,13283
23748,13302
23752,13331
23755,13364
23756,13395
23755,13419
23752,13428
23752,13428
23740,13424
23717,13412
23699,13402
23663,13386
23633,13380
23612,13385
23606,13393
23613,13402
23634,13416
23662,13431
23693,13447
23717,13463
23726,13474
23726,13486
23718,13503
23700,13530
23670,13566
23634,13609
23615,13632
23605,13649
23605,13654
23619,13655
23639,13642
23662,13615
23667,13609
23691,13578
23720,13546
23727,13539
23761,13505
23766,13529
23770,13551
23776,13585
23782,13623
23789,13660
23797,13691
23804,13708
23804,13708
23810,13713
23809,13701
23807,13688
23804,13669
23802,13632
23800,13582
23799,13522
23798,13454
23797,13400
23796,13315
23795,13248
23793,13196
23789,13158
23784,13131
23777,13113
23769,13101
23757,13094
23756,13094
23738,13096
" /> 
<polyline style="fill-rule:evenodd;"
points="25122,13663
25127,13668
25132,13663
25127,13658
25122,13663
" /> 
<polyline style="fill-rule:evenodd;"
points="24173,13394
24152,13406
24137,13422
24137,13437
24142,13446
24154,13461
24175,13467
24196,13468
24235,13474
24260,13491
24274,13523
24277,13561
24276,13592
24272,13609
24260,13618
24250,13622
24212,13626
24192,13621
24170,13615
24163,13620
24172,13631
24192,13643
24235,13657
24272,13652
24297,13634
24319,13602
24330,13557
24331,13497
24331,13493
24328,13465
24322,13448
24308,13435
24282,13421
24272,13416
24229,13397
24198,13390
24173,13394
" /> 
<polyline style="fill-rule:evenodd;"
points="26032,13623
26037,13628
26042,13623
26037,13618
26032,13623
" /> 
<polyline style="fill-rule:evenodd;"
points="24352,13483
24357,13488
24362,13483
24357,13478
24352,13483
" /> 
<polyline style="fill-rule:evenodd;"
points="24860,16011
24822,16034
24799,16070
24790,16119
24791,16170
24799,16211
24816,16247
24846,16284
24890,16324
24904,16336
24978,16392
25048,16433
25115,16459
25185,16472
25188,16472
25234,16478
25282,16486
25313,16493
25356,16502
25401,16507
25419,16508
25470,16508
25477,16446
25482,16405
25489,16366
25493,16346
25498,16294
25485,16248
25455,16212
25441,16202
25370,16161
25290,16120
25207,16083
25125,16050
25049,16025
24984,16008
24977,16007
24912,16002
24860,16011
" /> 
<polyline style="fill-rule:evenodd;"
points="27072,17025
27045,17046
27037,17054
27012,17085
27004,17105
27012,17115
27031,17118
27058,17111
27085,17089
27092,17082
27113,17053
27118,17034
27106,17023
27094,17020
27072,17025
" /> 
<polyline style="fill-rule:evenodd;"
points="26702,13203
26676,13229
26664,13245
26663,13253
26671,13256
26673,13256
26688,13264
26688,13274
26679,13296
26676,13303
26674,13317
26681,13317
26692,13308
26701,13292
26711,13274
26720,13273
26733,13283
26743,13292
26749,13292
26752,13280
26752,13254
26752,13228
26752,13154
26702,13203
" /> 
</g>
<g style="fill:#840084; fill-opacity:1.0; 
stroke:#840084; stroke-width:47.2441; stroke-opacity:1; 
stroke-linecap:round; stroke-linejoin:round;">
</g>
<g style="fill:#840084; fill-opacity:0.0; 
stroke:#840084; stroke-width:47.2441; stroke-opacity:1; 
stroke-linecap:round; stroke-linejoin:round;">
<path d="M32340 19811
L32222 19692
" />
<path d="M32222 19929
L32222 19692
" />
<path d="M32340 19811
L32222 19929
" />
<path d="M32694 20145
L32931 20145
" />
<path d="M32419 18787
L32419 19889
" />
<path d="M32931 18531
L32694 18531
" />
<path d="M33206 19889
L33206 18787
" />
<path d="M33206.7 18807.1 A275.591 275.591 0.0 0 0 32931.1 18531.5 " />
<path d="M32694.9 18531.5 A275.591 275.591 0.0 0 0 32419.3 18807.1 " />
<path d="M32419.3 19870.1 A275.591 275.591 0.0 0 0 32694.9 20145.7 " />
<path d="M32931.1 20145.7 A275.591 275.591 0.0 0 0 33206.7 19870.1 " />
</g>
<g style="fill:#840084; fill-opacity:0.0; 
stroke:#840084; stroke-width:59.0551; stroke-opacity:1; 
stroke-linecap:round; stroke-linejoin:round;">
<path d="M33306 19010
L33587 19010
L33643 18991
L33681 18954
L33699 18898
L33699 18860
" />
<path d="M33699 19197
L33306 19197
L33306 19347
L33324 19385
L33343 19404
L33381 19422
L33437 19422
L33474 19404
L33493 19385
L33512 19347
L33512 19197
" />
<path d="M33437 19760
L33699 19760
" />
<path d="M33287 19666
L33568 19572
L33568 19816
" />
</g>
<g style="fill:#000000; fill-opacity:0.0; 
stroke:#000000; stroke-width:59.0551; stroke-opacity:1; 
stroke-linecap:round; stroke-linejoin:round;">
</g>
<g style="fill:#C2C200; fill-opacity:0.0; 
stroke:#C2C200; stroke-width:59.0551; stroke-opacity:1; 
stroke-linecap:round; stroke-linejoin:round;">
<path d="M36012 5638
L36012 2738
" />
<path d="M35712 6238
L35712 5738
" />
<path d="M35712 8838
L35712 8338
" />
<path d="M36012 17688
L36012 8938
" />
<path d="M36012 23838
L36012 20938
" />
<path d="M35712 20188
L35712 20788
" />
<path d="M35712 18388
L35712 17838
" />
<path d="M32962 1838
L35112 1838
" />
<path d="M31612 2538
L32562 2538
" />
<path d="M27612 2538
L27612 5438
" />
<path d="M29712 2538
L27612 2538
" />
<path d="M962 24638
L1012 24638
" />
<path d="M1112 1838
L1062 1838
" />
<path d="M19312 2788
L19312 5438
" />
<path d="M18162 2788
L19312 2788
" />
<path d="M35712 17838
L36012 17688
" />
<path d="M35712 20788
L36012 20938
" />
<path d="M35712 18388
L35712 20188
" />
<path d="M35712 5738
L36012 5638
" />
<path d="M35712 8838
L36012 8938
" />
<path d="M35712 6238
L35712 8338
" />
<path d="M12812 1838
L1112 1838
" />
<path d="M12812 2788
L12812 1838
" />
<path d="M18162 2788
L12812 2788
" />
<path d="M27612 5438
L19312 5438
" />
<path d="M32562 2538
L32962 1838
" />
<path d="M29712 2538
L31612 2538
" />
<path d="M36013 2738.58 A900 900 0.0 0 0 35113 1838.58 " />
<path d="M162 23838
L162 2738
" />
<path d="M1012 24638
L35212 24638
" />
<path d="M35213 24638.6 A800 800 0.0 0 0 36013 23838.6 " />
<path d="M162.993 23838.6 A800 800 0.0 0 0 962.993 24638.6 " />
<path d="M1062.99 1838.58 A900 900 0.0 0 0 162.993 2738.58 " />
</g> 
</svg>
