<?xml version="1.0" standalone="no"?>
 <!DOCTYPE svg PUBLIC "-//W3C//DTD SVG 1.1//EN" 
 "http://www.w3.org/Graphics/SVG/1.1/DTD/svg11.dtd"> 
<svg xmlns="http://www.w3.org/2000/svg" version="1.1" 
    width="9.20242cm" height="6.2865cm" viewBox="0 0 36230 24750 ">
<title>SVG Picture created as WT32-SC01-F.SilkS.svg date 2022/07/05 21:09:32 </title>
  <desc>Picture generated by PCBNEW </desc>
<g style="fill:#000000; fill-opacity:1;stroke:#000000; stroke-opacity:1;
stroke-linecap:round; stroke-linejoin:round; "
 transform="translate(0 0) scale(1 1)">
</g>
<g style="fill:#000000; fill-opacity:0.0; 
stroke:#000000; stroke-width:-0.000393701; stroke-opacity:1; 
stroke-linecap:round; stroke-linejoin:round;">
</g>
<g style="fill:#008484; fill-opacity:0.0; 
stroke:#008484; stroke-width:-0.000393701; stroke-opacity:1; 
stroke-linecap:round; stroke-linejoin:round;">
</g>
<g style="fill:#008484; fill-opacity:0.0; 
stroke:#008484; stroke-width:118.11; stroke-opacity:1; 
stroke-linecap:round; stroke-linejoin:round;">
<path d="M975 2749
L947 2777
L863 2805
L806 2805
L722 2777
L666 2721
L638 2665
L610 2552
L610 2468
L638 2355
L666 2299
L722 2243
L806 2215
L863 2215
L947 2243
L975 2271
" />
<path d="M1566 2805
L1369 2524
" />
<path d="M1228 2805
L1228 2215
L1453 2215
L1509 2243
L1538 2271
L1566 2327
L1566 2412
L1538 2468
L1509 2496
L1453 2524
L1228 2524
" />
<path d="M2128 2805
L1791 2805
" />
<path d="M1959 2805
L1959 2215
L1903 2299
L1847 2355
L1791 2383
" />
<path d="M2353 2271
L2381 2243
L2437 2215
L2578 2215
L2634 2243
L2662 2271
L2691 2327
L2691 2383
L2662 2468
L2325 2805
L2691 2805
" />
<path d="M2916 2271
L2944 2243
L3000 2215
L3141 2215
L3197 2243
L3225 2271
L3253 2327
L3253 2383
L3225 2468
L2887 2805
L3253 2805
" />
<path d="M3619 2215
L3675 2215
L3731 2243
L3759 2271
L3787 2327
L3815 2440
L3815 2580
L3787 2693
L3759 2749
L3731 2777
L3675 2805
L3619 2805
L3562 2777
L3534 2749
L3506 2693
L3478 2580
L3478 2440
L3506 2327
L3534 2271
L3562 2243
L3619 2215
" />
<path d="M12858 8655
L12858 8065
L13055 8487
L13252 8065
L13252 8655
" />
<path d="M13533 8655
L13533 8262
" />
<path d="M13533 8065
L13505 8093
L13533 8121
L13561 8093
L13533 8065
L13533 8121
" />
<path d="M14067 8627
L14011 8655
L13899 8655
L13842 8627
L13814 8599
L13786 8543
L13786 8374
L13814 8318
L13842 8290
L13899 8262
L14011 8262
L14067 8290
" />
<path d="M14320 8655
L14320 8262
" />
<path d="M14320 8374
L14349 8318
L14377 8290
L14433 8262
L14489 8262
" />
<path d="M14770 8655
L14714 8627
L14686 8599
L14658 8543
L14658 8374
L14686 8318
L14714 8290
L14770 8262
L14855 8262
L14911 8290
L14939 8318
L14967 8374
L14967 8543
L14939 8599
L14911 8627
L14855 8655
L14770 8655
" />
<path d="M15642 8627
L15727 8655
L15867 8655
L15923 8627
L15952 8599
L15980 8543
L15980 8487
L15952 8430
L15923 8402
L15867 8374
L15755 8346
L15698 8318
L15670 8290
L15642 8233
L15642 8177
L15670 8121
L15698 8093
L15755 8065
L15895 8065
L15980 8093
" />
<path d="M16233 8655
L16233 8065
L16373 8065
L16458 8093
L16514 8149
L16542 8205
L16570 8318
L16570 8402
L16542 8515
L16514 8571
L16458 8627
L16373 8655
L16233 8655
" />
<path d="M17161 8599
L17133 8627
L17048 8655
L16992 8655
L16908 8627
L16851 8571
L16823 8515
L16795 8402
L16795 8318
L16823 8205
L16851 8149
L16908 8093
L16992 8065
L17048 8065
L17133 8093
L17161 8121
" />
<path d="M17667 8655
L17667 8346
L17639 8290
L17583 8262
L17470 8262
L17414 8290
" />
<path d="M17667 8627
L17611 8655
L17470 8655
L17414 8627
L17386 8571
L17386 8515
L17414 8458
L17470 8430
L17611 8430
L17667 8402
" />
<path d="M17948 8655
L17948 8262
" />
<path d="M17948 8374
L17976 8318
L18004 8290
L18061 8262
L18117 8262
" />
<path d="M18567 8655
L18567 8065
" />
<path d="M18567 8627
L18511 8655
L18398 8655
L18342 8627
L18314 8599
L18286 8543
L18286 8374
L18314 8318
L18342 8290
L18398 8262
L18511 8262
L18567 8290
" />
<path d="M21886 8146
L21970 8174
L21999 8202
L22027 8258
L22027 8343
L21999 8399
L21970 8427
L21914 8455
L21689 8455
L21689 7865
L21886 7865
L21942 7893
L21970 7921
L21999 7977
L21999 8033
L21970 8090
L21942 8118
L21886 8146
L21689 8146
" />
<path d="M22252 8287
L22533 8287
" />
<path d="M22195 8455
L22392 7865
L22589 8455
" />
<path d="M22702 7865
L23039 7865
" />
<path d="M22870 8455
L22870 7865
" />
<path d="M23686 8230
L24136 8230
" />
<path d="M21886 6646
L21970 6674
L21999 6702
L22027 6758
L22027 6843
L21999 6899
L21970 6927
L21914 6955
L21689 6955
L21689 6365
L21886 6365
L21942 6393
L21970 6421
L21999 6477
L21999 6533
L21970 6590
L21942 6618
L21886 6646
L21689 6646
" />
<path d="M22252 6787
L22533 6787
" />
<path d="M22195 6955
L22392 6365
L22589 6955
" />
<path d="M22702 6365
L23039 6365
" />
<path d="M22870 6955
L22870 6365
" />
<path d="M23686 6730
L24136 6730
" />
<path d="M23911 6955
L23911 6505
" />
<path d="M31849 4855
L31849 4265
L32074 4265
L32130 4293
L32158 4321
L32186 4377
L32186 4462
L32158 4518
L32130 4546
L32074 4574
L31849 4574
" />
<path d="M32552 4265
L32664 4265
L32720 4293
L32777 4349
L32805 4462
L32805 4658
L32777 4771
L32720 4827
L32664 4855
L32552 4855
L32495 4827
L32439 4771
L32411 4658
L32411 4462
L32439 4349
L32495 4293
L32552 4265
" />
<path d="M33002 4265
L33142 4855
L33255 4433
L33367 4855
L33508 4265
" />
<path d="M33733 4546
L33930 4546
" />
<path d="M34014 4855
L33733 4855
L33733 4265
L34014 4265
" />
<path d="M34605 4855
L34408 4574
" />
<path d="M34267 4855
L34267 4265
L34492 4265
L34548 4293
L34576 4321
L34605 4377
L34605 4462
L34576 4518
L34548 4546
L34492 4574
L34267 4574
" />
</g>
<g style="fill:#008484; fill-opacity:0.0; 
stroke:#008484; stroke-width:59.0551; stroke-opacity:1; 
stroke-linecap:round; stroke-linejoin:round;">
<path d="M17970 22888
L18170 22888
" />
<path d="M18070 23288
L18070 21288
" />
<path d="M192 2816
L192 2717
" />
<path d="M192 23780
L192 2816
" />
<path d="M35133 24666
L1078 24666
" />
<path d="M36019 2717
L36019 23780
" />
<path d="M1078 1831
L35133 1831
" />
<path d="M1078.35 1831.89 A885.827 885.827 0.0 0 0 192.52 2717.72 " />
<path d="M36019.3 2717.72 A885.827 885.827 0.0 0 0 35133.5 1831.89 " />
<path d="M35133.5 24666.5 A885.827 885.827 0.0 0 0 36019.3 23780.7 " />
<path d="M192.52 23780.7 A885.827 885.827 0.0 0 0 1078.35 24666.5 " />
</g>
<g style="fill:#008484; fill-opacity:0.0; 
stroke:#008484; stroke-width:47.2441; stroke-opacity:1; 
stroke-linecap:round; stroke-linejoin:round;">
<path d="M33531 18009
L33440 18009
" />
<path d="M34975 17804
L34975 20844
" />
<path d="M34975 20844
L33440 20844
" />
<path d="M32216 17804
L32216 18009
" />
<path d="M34975 17804
L33440 17804
" />
<path d="M33531 20639
L33440 20639
" />
<path d="M32416 18009
L32216 18009
" />
<path d="M32416 17804
L32216 17804
" />
<path d="M33531 20426
L33531 20639
" />
<path d="M32416 20639
L32216 20639
" />
<path d="M32216 20639
L32216 20844
" />
<path d="M32416 20844
L32216 20844
" />
<path d="M33531 18009
L33531 18222
" />
<path d="M33531 18655
L33531 19993
" />
</g>
<g style="fill:#008484; fill-opacity:0.0; 
stroke:#008484; stroke-width:59.0551; stroke-opacity:1; 
stroke-linecap:round; stroke-linejoin:round;">
<path d="M31617 2537
L31617 3639
" />
<path d="M29727 2537
L31617 2537
" />
<path d="M29727 3639
L29727 2537
" />
<path d="M31617 3639
L29727 3639
" />
</g>
<g style="fill:#008484; fill-opacity:0.0; 
stroke:#008484; stroke-width:47.2441; stroke-opacity:1; 
stroke-linecap:round; stroke-linejoin:round;">
<path d="M30711 1899
L30711 2407
" />
<path d="M31144 1816
L30790 1816
" />
<path d="M31223 2407
L31223 1899
" />
<path d="M30711 1899
L30790 1816
" />
<path d="M31223 1899
L31144 1816
" />
</g>
<g style="fill:#008484; fill-opacity:0.0; 
stroke:#008484; stroke-width:59.0551; stroke-opacity:1; 
stroke-linecap:round; stroke-linejoin:round;">
<path d="M15495 7312
L18172 7312
" />
<path d="M18172 7312
L18172 2785
" />
<path d="M18172 2785
L12818 2785
" />
<path d="M12818 2785
L12818 7312
" />
<path d="M12818 7312
L15495 7312
" />
<path d="M13074 5935
L14058 5935
" />
<path d="M14058 5935
L14058 4084
" />
<path d="M14058 4084
L13074 4084
" />
<path d="M13074 4084
L13074 5954
" />
<path d="M13074 5954
L13074 5935
" />
<path d="M15594 2785
L17759 2785
" />
<path d="M17759 2785
L17759 29
" />
<path d="M17759 29
L13428 29
" />
<path d="M13428 29
L13428 2765
" />
</g>
<g style="fill:#008484; fill-opacity:1.0; 
stroke:#008484; stroke-width:59.0551; stroke-opacity:1; 
stroke-linecap:round; stroke-linejoin:round;">
<polyline style="fill-rule:evenodd;"
points="13428,29
17759,29
17759,2785
13428,2765
13428,29
" /> 
</g>
<g style="fill:#008484; fill-opacity:1.0; 
stroke:#008484; stroke-width:47.2441; stroke-opacity:1; 
stroke-linecap:round; stroke-linejoin:round;">
</g>
<g style="fill:#008484; fill-opacity:0.0; 
stroke:#008484; stroke-width:47.2441; stroke-opacity:1; 
stroke-linecap:round; stroke-linejoin:round;">
<path d="M23788 9661
L23788 12903
" />
<path d="M23788 12903
L26237 12903
" />
<path d="M26237 12903
L26237 9661
" />
</g>
<g style="fill:#008484; fill-opacity:0.0; 
stroke:#008484; stroke-width:59.0551; stroke-opacity:1; 
stroke-linecap:round; stroke-linejoin:round;">
<path d="M3762 2488
L3762 2988
" />
<path d="M2762 2488
L3762 2488
" />
<path d="M2762 4288
L2762 2488
" />
<path d="M3762 8088
L3762 7588
" />
<path d="M2762 8088
L3762 8088
" />
<path d="M2762 6288
L2762 8088
" />
<circle cx="5462.99" cy="5288.58" r="2900" /> 
</g>
<g style="fill:#008484; fill-opacity:0.0; 
stroke:#008484; stroke-width:47.2441; stroke-opacity:1; 
stroke-linecap:round; stroke-linejoin:round;">
<path d="M6890 13980
L7364 13980
" />
<path d="M6890 14696
L7364 14696
" />
<path d="M19321 7139
L19321 6665
" />
<path d="M18604 7139
L18604 6665
" />
<path d="M32304 14861
L32304 14387
" />
<path d="M33021 14861
L33021 14387
" />
<path d="M13388 13726
L13388 16900
" />
<path d="M13388 16900
L15837 16900
" />
<path d="M15837 16900
L15837 13726
" />
<path d="M24464 20380
L23990 20380
" />
<path d="M24464 21096
L23990 21096
" />
<path d="M18361 15038
L18361 16338
" />
<path d="M18361 16338
L20487 16338
" />
<path d="M18361 15038
L20487 15038
" />
<path d="M15597 19668
L15597 17109
" />
<path d="M15597 19668
L19495 19668
" />
<path d="M15597 17109
L19495 17109
" />
<path d="M35016 11744
L35016 13342
" />
<path d="M35016 13342
L35909 13342
" />
<path d="M35909 13342
L35909 11744
" />
<path d="M35016 9484
L35016 11082
" />
<path d="M35909 9484
L35016 9484
" />
<path d="M35909 11082
L35909 9484
" />
<path d="M34953 15560
L33772 15560
" />
<path d="M33772 17016
L33772 15560
" />
<path d="M34953 17016
L33772 17016
" />
<path d="M34953 15560
L34953 17016
" />
<path d="M34903 13760
L34903 15216
" />
<path d="M34903 15216
L33722 15216
" />
<path d="M33722 15216
L33722 13760
" />
<path d="M34903 13760
L33722 13760
" />
<path d="M18364 19194
L18364 19982
" />
<path d="M17261 19194
L18364 19194
" />
<path d="M17261 19982
L17261 19194
" />
<path d="M18364 19982
L17261 19982
" />
<path d="M21910 17011
L21910 15751
" />
<path d="M21910 15751
L26083 15751
" />
<path d="M26083 15751
L26083 17011
" />
<path d="M26083 18665
L26083 19925
" />
<path d="M26083 19925
L21910 19925
" />
<path d="M21910 19925
L21910 18665
" />
<path d="M5164 14946
L4690 14946
" />
<path d="M5164 14230
L4690 14230
" />
<path d="M5164 13330
L4690 13330
" />
<path d="M5164 14046
L4690 14046
" />
<path d="M30635 8846
L30161 8846
" />
<path d="M30635 8130
L30161 8130
" />
</g>
<g style="fill:#008484; fill-opacity:0.0; 
stroke:#008484; stroke-width:59.0551; stroke-opacity:1; 
stroke-linecap:round; stroke-linejoin:round;">
<path d="M35989 6934
L35517 6894
" />
<path d="M35989 7642
L35989 6934
" />
<path d="M35517 7682
L35989 7642
" />
<path d="M35517 8154
L35517 7288
" />
<path d="M34611 8154
L35517 8154
" />
<path d="M34611 6422
L34611 8154
" />
<path d="M35517 6422
L34611 6422
" />
<path d="M35517 7288
L35517 6422
" />
<path d="M29570 18143
L31617 18143
" />
<path d="M31617 18143
L31617 20190
" />
<path d="M31617 20190
L29570 20190
" />
<path d="M29570 20190
L29570 18143
" />
<path d="M35517 19288
L35517 18422
" />
<path d="M35517 18422
L34611 18422
" />
<path d="M34611 18422
L34611 20154
" />
<path d="M34611 20154
L35517 20154
" />
<path d="M35517 20154
L35517 19288
" />
<path d="M35517 19682
L35989 19642
" />
<path d="M35989 19642
L35989 18934
" />
<path d="M35989 18934
L35517 18894
" />
</g>
<g style="fill:#008484; fill-opacity:0.0; 
stroke:#008484; stroke-width:47.2441; stroke-opacity:1; 
stroke-linecap:round; stroke-linejoin:round;">
<path d="M8033 10788
L8033 9268
" />
<path d="M8033 9268
L7933 9268
" />
<path d="M8033 10788
L8033 12308
" />
<path d="M8033 12308
L7933 12308
" />
<path d="M3892 10788
L3892 9268
" />
<path d="M3892 9268
L3992 9268
" />
<path d="M3892 10788
L3892 12308
" />
<path d="M3892 12308
L3992 12308
" />
<path d="M3992 12308
L3992 13022
" />
<path d="M30810 15528
L31125 15528
" />
<path d="M30810 15528
L30495 15528
" />
<path d="M30810 14300
L31125 14300
" />
<path d="M30810 14300
L30102 14300
" />
<path d="M30662 10018
L29274 10018
" />
<path d="M30662 10018
L31402 10018
" />
<path d="M30662 12058
L29921 12058
" />
<path d="M30662 12058
L31402 12058
" />
<path d="M23312 13380
L22545 13380
" />
<path d="M23312 13380
L24080 13380
" />
<path d="M23312 15396
L22545 15396
" />
<path d="M23312 15396
L24671 15396
" />
<path d="M28189 14120
L27323 14120
" />
<path d="M28189 14120
L29056 14120
" />
<path d="M28189 15388
L27323 15388
" />
<path d="M28189 15388
L29607 15388
" />
<path d="M32384 9798
L32384 10979
" />
<path d="M33841 10979
L32384 10979
" />
<path d="M33841 9798
L33841 10979
" />
<path d="M32384 9798
L33841 9798
" />
<path d="M32384 11748
L33841 11748
" />
<path d="M33841 11748
L33841 12929
" />
<path d="M33841 12929
L32384 12929
" />
<path d="M32384 11748
L32384 12929
" />
<path d="M11452 6490
L10980 6490
" />
<path d="M9673 6490
L10145 6490
" />
<path d="M9673 7850
L9673 6490
" />
<path d="M11452 7850
L11452 6490
" />
<path d="M11033 8269
L10980 8269
" />
<path d="M10092 8269
L10145 8269
" />
<path d="M10092 8269
L9673 7850
" />
<path d="M11033 8269
L11452 7850
" />
<path d="M9948 8561
L9948 8364
" />
<path d="M9850 8462
L10047 8462
" />
<path d="M26992 15551
L26992 16221
" />
<path d="M26992 17725
L26992 17055
" />
<path d="M28746 17725
L26992 17725
" />
<path d="M28746 15551
L26992 15551
" />
<path d="M29165 15971
L29165 16221
" />
<path d="M29165 17306
L29165 17055
" />
<path d="M29165 17306
L28746 17725
" />
<path d="M29165 15971
L28746 15551
" />
<path d="M29506 17301
L29260 17301
" />
<path d="M29383 17425
L29383 17178
" />
<path d="M18199 14285
L17530 14285
" />
<path d="M16026 14285
L16695 14285
" />
<path d="M16026 16039
L16026 14285
" />
<path d="M18199 16039
L18199 14285
" />
<path d="M17780 16459
L17530 16459
" />
<path d="M16445 16459
L16695 16459
" />
<path d="M16445 16459
L16026 16039
" />
<path d="M17780 16459
L18199 16039
" />
<path d="M16449 16799
L16449 16553
" />
<path d="M16326 16676
L16572 16676
" />
<path d="M28837 13151
L28837 12954
" />
<path d="M28935 13052
L28738 13052
" />
<path d="M28644 11967
L28225 11548
" />
<path d="M28644 12909
L28225 13328
" />
<path d="M28644 12909
L28644 12855
" />
<path d="M28644 11967
L28644 12021
" />
<path d="M28225 11548
L26864 11548
" />
<path d="M28225 13328
L26864 13328
" />
<path d="M26864 13328
L26864 12855
" />
<path d="M26864 11548
L26864 12021
" />
<path d="M7192 15702
L7192 15948
" />
<path d="M7069 15825
L7315 15825
" />
<path d="M7410 17156
L7829 17575
" />
<path d="M7410 15821
L7829 15401
" />
<path d="M7410 15821
L7410 16071
" />
<path d="M7410 17156
L7410 16905
" />
<path d="M7829 17575
L9583 17575
" />
<path d="M7829 15401
L9583 15401
" />
<path d="M9583 15401
L9583 16071
" />
<path d="M9583 17575
L9583 16905
" />
<path d="M7526 18951
L7526 19621
" />
<path d="M7526 21125
L7526 20455
" />
<path d="M9280 21125
L7526 21125
" />
<path d="M9280 18951
L7526 18951
" />
<path d="M9699 19371
L9699 19621
" />
<path d="M9699 20706
L9699 20455
" />
<path d="M9699 20706
L9280 21125
" />
<path d="M9699 19371
L9280 18951
" />
<path d="M10040 20701
L9794 20701
" />
<path d="M9917 20825
L9917 20578
" />
<path d="M9321 13565
L9321 14039
" />
<path d="M8604 13565
L8604 14039
" />
<path d="M7314 17880
L6840 17880
" />
<path d="M7314 18596
L6840 18596
" />
<path d="M12373 20528
L12845 20528
" />
<path d="M14152 20528
L13680 20528
" />
<path d="M14152 19167
L14152 20528
" />
<path d="M12373 19167
L12373 20528
" />
<path d="M12792 18748
L12845 18748
" />
<path d="M13733 18748
L13680 18748
" />
<path d="M13733 18748
L14152 19167
" />
<path d="M12792 18748
L12373 19167
" />
<path d="M13877 18457
L13877 18654
" />
<path d="M13975 18555
L13778 18555
" />
<path d="M26424 22143
L26314 22143
" />
<path d="M26314 22143
L26314 21513
" />
<path d="M26314 21513
L25951 21513
" />
<path d="M25951 21513
L25951 24592
" />
<path d="M25951 24592
L29936 24592
" />
<path d="M29936 24592
L29936 21513
" />
<path d="M29936 21513
L29574 21513
" />
<path d="M29574 21513
L29574 22143
" />
<path d="M29574 22143
L29463 22143
" />
<path d="M26959 24592
L26959 22875
" />
<path d="M26959 22875
L28928 22875
" />
<path d="M28928 22875
L28928 24592
" />
<path d="M25951 22143
L26314 22143
" />
<path d="M29936 22143
L29574 22143
" />
<path d="M26251 23072
L26251 23702
" />
<path d="M26251 23702
L26644 23702
" />
<path d="M26644 23702
L26644 23072
" />
<path d="M26644 23072
L26251 23072
" />
<path d="M29637 23072
L29637 23702
" />
<path d="M29637 23702
L29243 23702
" />
<path d="M29243 23702
L29243 23072
" />
<path d="M29243 23072
L29637 23072
" />
<path d="M26644 23702
L26644 24592
" />
<path d="M26448 23702
L26448 24592
" />
<path d="M26424 22143
L26424 21665
" />
<path d="M2857 8750
L3336 8750
" />
<path d="M1298 8773
L409 8773
" />
<path d="M1298 8970
L409 8970
" />
<path d="M1928 11568
L1928 11962
" />
<path d="M1298 11568
L1928 11568
" />
<path d="M1298 11962
L1298 11568
" />
<path d="M1928 11962
L1298 11962
" />
<path d="M1928 8970
L1928 8576
" />
<path d="M1298 8970
L1928 8970
" />
<path d="M1298 8576
L1298 8970
" />
<path d="M1928 8576
L1298 8576
" />
<path d="M2857 12261
L2857 11899
" />
<path d="M2857 8277
L2857 8639
" />
<path d="M2125 11253
L409 11253
" />
<path d="M2125 9285
L2125 11253
" />
<path d="M409 9285
L2125 9285
" />
<path d="M2857 11899
L2857 11789
" />
<path d="M3487 11899
L2857 11899
" />
<path d="M3487 12261
L3487 11899
" />
<path d="M409 12261
L3487 12261
" />
<path d="M409 8277
L409 12261
" />
<path d="M3487 8277
L409 8277
" />
<path d="M3487 8639
L3487 8277
" />
<path d="M2857 8639
L3487 8639
" />
<path d="M2857 8750
L2857 8639
" />
<path d="M30674 22143
L30564 22143
" />
<path d="M30564 22143
L30564 21513
" />
<path d="M30564 21513
L30201 21513
" />
<path d="M30201 21513
L30201 24592
" />
<path d="M30201 24592
L33398 24592
" />
<path d="M33398 24592
L33398 21513
" />
<path d="M33398 21513
L33036 21513
" />
<path d="M33036 21513
L33036 22143
" />
<path d="M33036 22143
L32926 22143
" />
<path d="M31209 24592
L31209 22875
" />
<path d="M31209 22875
L32390 22875
" />
<path d="M32390 22875
L32390 24592
" />
<path d="M30201 22143
L30564 22143
" />
<path d="M33398 22143
L33036 22143
" />
<path d="M30501 23072
L30501 23702
" />
<path d="M30501 23702
L30894 23702
" />
<path d="M30894 23702
L30894 23072
" />
<path d="M30894 23072
L30501 23072
" />
<path d="M33099 23072
L33099 23702
" />
<path d="M33099 23702
L32705 23702
" />
<path d="M32705 23702
L32705 23072
" />
<path d="M32705 23072
L33099 23072
" />
<path d="M30894 23702
L30894 24592
" />
<path d="M30698 23702
L30698 24592
" />
<path d="M30674 22143
L30674 21665
" />
<path d="M8224 22143
L8114 22143
" />
<path d="M8114 22143
L8114 21513
" />
<path d="M8114 21513
L7751 21513
" />
<path d="M7751 21513
L7751 24592
" />
<path d="M7751 24592
L10161 24592
" />
<path d="M10161 24592
L10161 21513
" />
<path d="M10161 21513
L9799 21513
" />
<path d="M9799 21513
L9799 22143
" />
<path d="M9799 22143
L9688 22143
" />
<path d="M8759 24592
L8759 22875
" />
<path d="M8759 22875
L9153 22875
" />
<path d="M9153 22875
L9153 24592
" />
<path d="M7751 22143
L8114 22143
" />
<path d="M10161 22143
L9799 22143
" />
<path d="M8051 23072
L8051 23702
" />
<path d="M8051 23702
L8444 23702
" />
<path d="M8444 23702
L8444 23072
" />
<path d="M8444 23072
L8051 23072
" />
<path d="M9862 23072
L9862 23702
" />
<path d="M9862 23702
L9468 23702
" />
<path d="M9468 23702
L9468 23072
" />
<path d="M9468 23072
L9862 23072
" />
<path d="M8444 23702
L8444 24592
" />
<path d="M8248 23702
L8248 24592
" />
<path d="M8224 22143
L8224 21665
" />
<path d="M4724 22143
L4724 21665
" />
<path d="M4748 23702
L4748 24592
" />
<path d="M4944 23702
L4944 24592
" />
<path d="M6755 23072
L7149 23072
" />
<path d="M6755 23702
L6755 23072
" />
<path d="M7149 23702
L6755 23702
" />
<path d="M7149 23072
L7149 23702
" />
<path d="M4944 23072
L4551 23072
" />
<path d="M4944 23702
L4944 23072
" />
<path d="M4551 23702
L4944 23702
" />
<path d="M4551 23072
L4551 23702
" />
<path d="M7448 22143
L7086 22143
" />
<path d="M4251 22143
L4614 22143
" />
<path d="M6440 22875
L6440 24592
" />
<path d="M5259 22875
L6440 22875
" />
<path d="M5259 24592
L5259 22875
" />
<path d="M7086 22143
L6976 22143
" />
<path d="M7086 21513
L7086 22143
" />
<path d="M7448 21513
L7086 21513
" />
<path d="M7448 24592
L7448 21513
" />
<path d="M4251 24592
L7448 24592
" />
<path d="M4251 21513
L4251 24592
" />
<path d="M4614 21513
L4251 21513
" />
<path d="M4614 22143
L4614 21513
" />
<path d="M4724 22143
L4614 22143
" />
<path d="M29826 7082
L29826 6294
" />
<path d="M30928 7082
L29826 7082
" />
<path d="M30928 6294
L30928 7082
" />
<path d="M29826 6294
L30928 6294
" />
<path d="M10947 11466
L10829 11348
" />
<path d="M11065 11348
L10829 11348
" />
<path d="M10947 11466
L11065 11348
" />
<path d="M11281 11820
L11281 12056
" />
<path d="M9923 11544
L11025 11544
" />
<path d="M9667 12056
L9667 11820
" />
<path d="M11025 12332
L9923 12332
" />
<path d="M9667.72 12056.7 A275.591 275.591 0.0 0 0 9943.31 12332.3 " />
<path d="M9943.31 11544.9 A275.591 275.591 0.0 0 0 9667.72 11820.5 " />
<path d="M11281.9 11820.5 A275.591 275.591 0.0 0 0 11006.3 11544.9 " />
<path d="M11006.3 12332.3 A275.591 275.591 0.0 0 0 11281.9 12056.7 " />
<path d="M19215 14796
L19689 14796
" />
<path d="M19215 14080
L19689 14080
" />
<path d="M31861 16496
L32335 16496
" />
<path d="M31861 15780
L32335 15780
" />
<path d="M34871 12611
L34871 12137
" />
<path d="M34154 12611
L34154 12137
" />
<path d="M34871 10201
L34871 10675
" />
<path d="M34154 10201
L34154 10675
" />
<path d="M31064 12980
L30590 12980
" />
<path d="M31064 13696
L30590 13696
" />
<path d="M20704 14085
L20704 13611
" />
<path d="M21421 14085
L21421 13611
" />
<path d="M25490 14280
L25964 14280
" />
<path d="M25490 14996
L25964 14996
" />
<path d="M27804 10539
L27804 10065
" />
<path d="M28521 10539
L28521 10065
" />
<path d="M20175 21096
L20650 21096
" />
<path d="M20175 20380
L20650 20380
" />
<path d="M27471 19915
L27471 20389
" />
<path d="M26754 19915
L26754 20389
" />
<path d="M22090 20380
L22564 20380
" />
<path d="M22090 21096
L22564 21096
" />
<path d="M12071 13911
L12071 13437
" />
<path d="M11354 13911
L11354 13437
" />
<path d="M11164 15380
L10690 15380
" />
<path d="M11164 16096
L10690 16096
" />
<path d="M9285 18596
L8811 18596
" />
<path d="M9285 17880
L8811 17880
" />
<path d="M13271 17201
L13271 17675
" />
<path d="M12554 17201
L12554 17675
" />
</g>
<g style="fill:#008484; fill-opacity:0.0; 
stroke:#008484; stroke-width:59.0551; stroke-opacity:1; 
stroke-linecap:round; stroke-linejoin:round;">
<path d="M31668 4451
L31668 6025
" />
<path d="M31668 6025
L28125 6025
" />
<path d="M28125 6025
L28125 4451
" />
<path d="M28125 4451
L31668 4451
" />
</g>
<g style="fill:#008484; fill-opacity:0.0; 
stroke:#008484; stroke-width:47.2441; stroke-opacity:1; 
stroke-linecap:round; stroke-linejoin:round;">
<path d="M33531 6605
L33531 7943
" />
<path d="M33531 5959
L33531 6172
" />
<path d="M32416 8794
L32216 8794
" />
<path d="M32216 8589
L32216 8794
" />
<path d="M32416 8589
L32216 8589
" />
<path d="M33531 8376
L33531 8589
" />
<path d="M32416 5754
L32216 5754
" />
<path d="M32416 5959
L32216 5959
" />
<path d="M33531 8589
L33440 8589
" />
<path d="M34975 5754
L33440 5754
" />
<path d="M32216 5754
L32216 5959
" />
<path d="M34975 8794
L33440 8794
" />
<path d="M34975 5754
L34975 8794
" />
<path d="M33531 5959
L33440 5959
" />
<path d="M9698 13538
L9698 13853
" />
<path d="M9698 13538
L9698 13223
" />
<path d="M10927 13538
L10927 13853
" />
<path d="M10927 13538
L10927 12829
" />
<path d="M10205 17814
L10205 18581
" />
<path d="M10205 17814
L10205 17046
" />
<path d="M12220 17814
L12220 18581
" />
<path d="M12220 17814
L12220 16455
" />
<path d="M2857 13400
L2857 13289
" />
<path d="M2857 13289
L3487 13289
" />
<path d="M3487 13289
L3487 12927
" />
<path d="M3487 12927
L409 12927
" />
<path d="M409 12927
L409 20061
" />
<path d="M409 20061
L3487 20061
" />
<path d="M3487 20061
L3487 19699
" />
<path d="M3487 19699
L2857 19699
" />
<path d="M2857 19699
L2857 19588
" />
<path d="M409 13935
L2125 13935
" />
<path d="M2125 13935
L2125 19053
" />
<path d="M2125 19053
L409 19053
" />
<path d="M2857 12927
L2857 13289
" />
<path d="M2857 20061
L2857 19699
" />
<path d="M1928 13226
L1298 13226
" />
<path d="M1298 13226
L1298 13620
" />
<path d="M1298 13620
L1928 13620
" />
<path d="M1928 13620
L1928 13226
" />
<path d="M1928 19762
L1298 19762
" />
<path d="M1298 19762
L1298 19368
" />
<path d="M1298 19368
L1928 19368
" />
<path d="M1928 19368
L1928 19762
" />
<path d="M1298 13620
L409 13620
" />
<path d="M1298 13423
L409 13423
" />
<path d="M2857 13400
L3336 13400
" />
<path d="M1019 9266
L2003 9266
" />
<path d="M2003 9266
L2003 9679
" />
<path d="M2003 9679
L2393 9679
" />
<path d="M1019 11715
L2003 11715
" />
<path d="M2003 11715
L2003 11301
" />
<path d="M244 9727
L244 11254
" />
<path d="M26857 6800
L26857 6689
" />
<path d="M26857 6689
L27487 6689
" />
<path d="M27487 6689
L27487 6327
" />
<path d="M27487 6327
L24409 6327
" />
<path d="M24409 6327
L24409 8737
" />
<path d="M24409 8737
L27487 8737
" />
<path d="M27487 8737
L27487 8374
" />
<path d="M27487 8374
L26857 8374
" />
<path d="M26857 8374
L26857 8264
" />
<path d="M24409 7335
L26125 7335
" />
<path d="M26125 7335
L26125 7729
" />
<path d="M26125 7729
L24409 7729
" />
<path d="M26857 6327
L26857 6689
" />
<path d="M26857 8737
L26857 8374
" />
<path d="M25928 6626
L25298 6626
" />
<path d="M25298 6626
L25298 7020
" />
<path d="M25298 7020
L25928 7020
" />
<path d="M25928 7020
L25928 6626
" />
<path d="M25928 8437
L25298 8437
" />
<path d="M25298 8437
L25298 8044
" />
<path d="M25298 8044
L25928 8044
" />
<path d="M25928 8044
L25928 8437
" />
<path d="M25298 7020
L24409 7020
" />
<path d="M25298 6823
L24409 6823
" />
<path d="M26857 6800
L27336 6800
" />
<path d="M11533 11175
L11533 10505
" />
<path d="M11533 9001
L11533 9671
" />
<path d="M9779 9001
L11533 9001
" />
<path d="M9779 11175
L11533 11175
" />
<path d="M9360 10756
L9360 10505
" />
<path d="M9360 9421
L9360 9671
" />
<path d="M9360 9421
L9779 9001
" />
<path d="M9360 10756
L9779 11175
" />
<path d="M9019 9425
L9265 9425
" />
<path d="M9142 9302
L9142 9548
" />
<path d="M15914 20896
L15440 20896
" />
<path d="M15914 20180
L15440 20180
" />
<circle cx="17113" cy="13138.6" r="472.441" /> 
<circle cx="18863" cy="10788.6" r="472.441" /> 
<circle cx="18863" cy="13188.6" r="472.441" /> 
<circle cx="30563" cy="16138.6" r="472.441" /> 
<path d="M23549 9968
L22880 9968
" />
<path d="M21376 9968
L22045 9968
" />
<path d="M21376 11722
L21376 9968
" />
<path d="M23549 11722
L23549 9968
" />
<path d="M23130 12141
L22880 12141
" />
<path d="M21795 12141
L22045 12141
" />
<path d="M21795 12141
L21376 11722
" />
<path d="M23130 12141
L23549 11722
" />
<path d="M21799 12481
L21799 12235
" />
<path d="M21676 12358
L21922 12358
" />
<path d="M11587 3047
L11587 3657
" />
<path d="M11587 3047
L11469 3047
" />
<path d="M11469 1944
L11469 3047
" />
<path d="M8320 3047
L8320 3657
" />
<path d="M8438 3047
L8320 3047
" />
<path d="M8438 1944
L8438 3047
" />
<path d="M10308 4326
L10465 4149
" />
<path d="M10623 4326
L10308 4326
" />
<path d="M10465 4149
L10623 4326
" />
</g>
<g style="fill:#008484; fill-opacity:0.0; 
stroke:#008484; stroke-width:59.0551; stroke-opacity:1; 
stroke-linecap:round; stroke-linejoin:round;">
<path d="M1313 23422
L1313 23741
L1331 23779
L1350 23797
L1388 23816
L1463 23816
L1500 23797
L1519 23779
L1538 23741
L1538 23422
" />
<path d="M1706 23460
L1725 23441
L1762 23422
L1856 23422
L1894 23441
L1912 23460
L1931 23497
L1931 23535
L1912 23591
L1687 23816
L1931 23816
" />
<path d="M33588 17697
L33644 17716
L33738 17716
L33775 17697
L33794 17679
L33813 17641
L33813 17604
L33794 17566
L33775 17547
L33738 17529
L33663 17510
L33625 17491
L33606 17472
L33588 17435
L33588 17397
L33606 17360
L33625 17341
L33663 17322
L33756 17322
L33813 17341
" />
<path d="M33944 17322
L34038 17716
L34112 17435
L34187 17716
L34281 17322
" />
<path d="M34394 17322
L34656 17322
L34487 17716
" />
<path d="M27988 3197
L28044 3216
L28138 3216
L28175 3197
L28194 3179
L28213 3141
L28213 3104
L28194 3066
L28175 3047
L28138 3029
L28063 3010
L28025 2991
L28006 2972
L27988 2935
L27988 2897
L28006 2860
L28025 2841
L28063 2822
L28156 2822
L28213 2841
" />
<path d="M28344 2822
L28438 3216
L28512 2935
L28587 3216
L28681 2822
" />
<path d="M29000 2954
L29000 3216
" />
<path d="M28906 2804
L28812 3085
L29056 3085
" />
<path d="M12631 7572
L12631 7854
L12613 7910
L12575 7947
L12519 7966
L12481 7966
" />
<path d="M13025 7966
L12800 7966
" />
<path d="M12912 7966
L12912 7572
L12875 7629
L12837 7666
L12800 7685
" />
<path d="M26547 9779
L26528 9797
L26472 9816
L26434 9816
L26378 9797
L26341 9760
L26322 9722
L26303 9647
L26303 9591
L26322 9516
L26341 9479
L26378 9441
L26434 9422
L26472 9422
L26528 9441
L26547 9460
" />
<path d="M26884 9422
L26809 9422
L26772 9441
L26753 9460
L26716 9516
L26697 9591
L26697 9741
L26716 9779
L26734 9797
L26772 9816
L26847 9816
L26884 9797
L26903 9779
L26922 9741
L26922 9647
L26903 9610
L26884 9591
L26847 9572
L26772 9572
L26734 9591
L26716 9610
L26697 9647
" />
<path d="M8231 3210
L8287 3229
L8306 3247
L8325 3285
L8325 3341
L8306 3379
L8287 3397
L8250 3416
L8100 3416
L8100 3022
L8231 3022
L8269 3041
L8287 3060
L8306 3097
L8306 3135
L8287 3172
L8269 3191
L8231 3210
L8100 3210
" />
<path d="M8437 3022
L8662 3022
" />
<path d="M8550 3416
L8550 3022
" />
<path d="M9000 3416
L8775 3416
" />
<path d="M8887 3416
L8887 3022
L8850 3079
L8812 3116
L8775 3135
" />
<path d="M7047 13779
L7028 13797
L6972 13816
L6934 13816
L6878 13797
L6841 13760
L6822 13722
L6803 13647
L6803 13591
L6822 13516
L6841 13479
L6878 13441
L6934 13422
L6972 13422
L7028 13441
L7047 13460
" />
<path d="M7422 13816
L7197 13816
" />
<path d="M7309 13816
L7309 13422
L7272 13479
L7234 13516
L7197 13535
" />
<path d="M19953 6954
L19972 6972
L19991 7029
L19991 7066
L19972 7122
L19934 7160
L19897 7179
L19822 7197
L19766 7197
L19691 7179
L19653 7160
L19616 7122
L19597 7066
L19597 7029
L19616 6972
L19634 6954
" />
<path d="M19597 6822
L19597 6579
L19747 6710
L19747 6654
L19766 6616
L19784 6597
L19822 6579
L19916 6579
L19953 6597
L19972 6616
L19991 6654
L19991 6766
L19972 6804
L19953 6822
" />
<path d="M32153 14654
L32172 14672
L32191 14729
L32191 14766
L32172 14822
L32134 14860
L32097 14879
L32022 14897
L31966 14897
L31891 14879
L31853 14860
L31816 14822
L31797 14766
L31797 14729
L31816 14672
L31834 14654
" />
<path d="M31928 14316
L32191 14316
" />
<path d="M31778 14410
L32059 14504
L32059 14260
" />
<path d="M14547 13329
L14528 13347
L14472 13366
L14434 13366
L14378 13347
L14341 13310
L14322 13272
L14303 13197
L14303 13141
L14322 13066
L14341 13029
L14378 12991
L14434 12972
L14472 12972
L14528 12991
L14547 13010
" />
<path d="M14734 13366
L14809 13366
L14847 13347
L14866 13329
L14903 13272
L14922 13197
L14922 13047
L14903 13010
L14884 12991
L14847 12972
L14772 12972
L14734 12991
L14716 13010
L14697 13047
L14697 13141
L14716 13179
L14734 13197
L14772 13216
L14847 13216
L14884 13197
L14903 13179
L14922 13141
" />
<path d="M23909 21579
L23891 21597
L23834 21616
L23797 21616
L23741 21597
L23703 21560
L23684 21522
L23666 21447
L23666 21391
L23684 21316
L23703 21279
L23741 21241
L23797 21222
L23834 21222
L23891 21241
L23909 21260
" />
<path d="M24284 21616
L24059 21616
" />
<path d="M24172 21616
L24172 21222
L24134 21279
L24097 21316
L24059 21335
" />
<path d="M24659 21616
L24434 21616
" />
<path d="M24547 21616
L24547 21222
L24509 21279
L24472 21316
L24434 21335
" />
<path d="M20172 16816
L20172 16422
L20266 16422
L20322 16441
L20359 16479
L20378 16516
L20397 16591
L20397 16647
L20378 16722
L20359 16760
L20322 16797
L20266 16816
L20172 16816
" />
<path d="M20772 16816
L20547 16816
" />
<path d="M20659 16816
L20659 16422
L20622 16479
L20584 16516
L20547 16535
" />
<path d="M17472 17566
L17472 17172
L17566 17172
L17622 17191
L17659 17229
L17678 17266
L17697 17341
L17697 17397
L17678 17472
L17659 17510
L17622 17547
L17566 17566
L17472 17566
" />
<path d="M17847 17210
L17866 17191
L17903 17172
L17997 17172
L18034 17191
L18053 17210
L18072 17247
L18072 17285
L18053 17341
L17828 17566
L18072 17566
" />
<path d="M35272 13766
L35272 13372
L35366 13372
L35422 13391
L35459 13429
L35478 13466
L35497 13541
L35497 13597
L35478 13672
L35459 13710
L35422 13747
L35366 13766
L35272 13766
" />
<path d="M35834 13504
L35834 13766
" />
<path d="M35741 13354
L35647 13635
L35891 13635
" />
<path d="M35122 9366
L35122 8972
L35216 8972
L35272 8991
L35309 9029
L35328 9066
L35347 9141
L35347 9197
L35328 9272
L35309 9310
L35272 9347
L35216 9366
L35122 9366
" />
<path d="M35703 8972
L35516 8972
L35497 9160
L35516 9141
L35553 9122
L35647 9122
L35684 9141
L35703 9160
L35722 9197
L35722 9291
L35703 9329
L35684 9347
L35647 9366
L35553 9366
L35516 9347
L35497 9329
" />
<path d="M33597 16469
L33878 16469
L33934 16488
L33972 16526
L33991 16582
L33991 16619
" />
<path d="M33728 16113
L33991 16113
" />
<path d="M33578 16207
L33859 16301
L33859 16057
" />
<path d="M35334 16972
L35353 16916
L35372 16897
L35409 16879
L35466 16879
L35503 16897
L35522 16916
L35541 16954
L35541 17104
L35147 17104
L35147 16972
L35166 16935
L35184 16916
L35222 16897
L35259 16897
L35297 16916
L35316 16935
L35334 16972
L35334 17104
" />
<path d="M35428 16729
L35428 16541
" />
<path d="M35541 16766
L35147 16635
L35541 16504
" />
<path d="M35147 16429
L35147 16204
" />
<path d="M35541 16316
L35147 16316
" />
<path d="M35391 16073
L35391 15773
" />
<path d="M35541 15923
L35241 15923
" />
<path d="M33447 14669
L33728 14669
L33784 14688
L33822 14726
L33841 14782
L33841 14819
" />
<path d="M33447 14313
L33447 14388
L33466 14426
L33484 14444
L33541 14482
L33616 14501
L33766 14501
L33803 14482
L33822 14463
L33841 14426
L33841 14351
L33822 14313
L33803 14294
L33766 14276
L33672 14276
L33634 14294
L33616 14313
L33597 14351
L33597 14426
L33616 14463
L33634 14482
L33672 14501
" />
<path d="M35284 15072
L35303 15016
L35322 14997
L35359 14979
L35416 14979
L35453 14997
L35472 15016
L35491 15054
L35491 15204
L35097 15204
L35097 15072
L35116 15035
L35134 15016
L35172 14997
L35209 14997
L35247 15016
L35266 15035
L35284 15072
L35284 15204
" />
<path d="M35378 14829
L35378 14641
" />
<path d="M35491 14866
L35097 14735
L35491 14604
" />
<path d="M35097 14529
L35097 14304
" />
<path d="M35491 14416
L35097 14416
" />
<path d="M35341 14173
L35341 13873
" />
<path d="M17484 20122
L17484 20404
L17466 20460
L17428 20497
L17372 20516
L17334 20516
" />
<path d="M17672 20516
L17672 20122
L17822 20122
L17859 20141
L17878 20160
L17897 20197
L17897 20254
L17878 20291
L17859 20310
L17822 20329
L17672 20329
" />
<path d="M18272 20516
L18047 20516
" />
<path d="M18159 20516
L18159 20122
L18122 20179
L18084 20216
L18047 20235
" />
<path d="M21147 19316
L20959 19316
L20959 18922
" />
<path d="M21484 19316
L21259 19316
" />
<path d="M21372 19316
L21372 18922
L21334 18979
L21297 19016
L21259 19035
" />
<path d="M3647 15016
L3516 14829
" />
<path d="M3422 15016
L3422 14622
L3572 14622
L3609 14641
L3628 14660
L3647 14697
L3647 14754
L3628 14791
L3609 14810
L3572 14829
L3422 14829
" />
<path d="M4022 15016
L3797 15016
" />
<path d="M3909 15016
L3909 14622
L3872 14679
L3834 14716
L3797 14735
" />
<path d="M3597 14016
L3466 13829
" />
<path d="M3372 14016
L3372 13622
L3522 13622
L3559 13641
L3578 13660
L3597 13697
L3597 13754
L3578 13791
L3559 13810
L3522 13829
L3372 13829
" />
<path d="M3747 13660
L3766 13641
L3803 13622
L3897 13622
L3934 13641
L3953 13660
L3972 13697
L3972 13735
L3953 13791
L3728 14016
L3972 14016
" />
<path d="M30397 8016
L30266 7829
" />
<path d="M30172 8016
L30172 7622
L30322 7622
L30359 7641
L30378 7660
L30397 7697
L30397 7754
L30378 7791
L30359 7810
L30322 7829
L30172 7829
" />
<path d="M30528 7622
L30772 7622
L30641 7772
L30697 7772
L30734 7791
L30753 7810
L30772 7847
L30772 7941
L30753 7979
L30734 7997
L30697 8016
L30584 8016
L30547 7997
L30528 7979
" />
<path d="M34072 7763
L34091 7707
L34091 7613
L34072 7576
L34053 7557
L34016 7538
L33978 7538
L33941 7557
L33922 7576
L33903 7613
L33884 7688
L33866 7726
L33847 7744
L33809 7763
L33772 7763
L33734 7744
L33716 7726
L33697 7688
L33697 7594
L33716 7538
" />
<path d="M33697 7407
L34091 7313
L33809 7238
L34091 7163
L33697 7069
" />
<path d="M34091 6713
L34091 6938
" />
<path d="M34091 6826
L33697 6826
L33753 6863
L33791 6901
L33809 6938
" />
<path d="M28338 19347
L28394 19366
L28488 19366
L28525 19347
L28544 19329
L28563 19291
L28563 19254
L28544 19216
L28525 19197
L28488 19179
L28413 19160
L28375 19141
L28356 19122
L28338 19085
L28338 19047
L28356 19010
L28375 18991
L28413 18972
L28506 18972
L28563 18991
" />
<path d="M28694 18972
L28788 19366
L28862 19085
L28937 19366
L29031 18972
" />
<path d="M29162 19010
L29181 18991
L29219 18972
L29312 18972
L29350 18991
L29369 19010
L29387 19047
L29387 19085
L29369 19141
L29144 19366
L29387 19366
" />
<path d="M29941 20766
L29809 20579
" />
<path d="M29716 20766
L29716 20372
L29866 20372
L29903 20391
L29922 20410
L29941 20447
L29941 20504
L29922 20541
L29903 20560
L29866 20579
L29716 20579
" />
<path d="M30109 20560
L30241 20560
" />
<path d="M30297 20766
L30109 20766
L30109 20372
L30297 20372
" />
<path d="M30447 20747
L30503 20766
L30597 20766
L30634 20747
L30653 20729
L30672 20691
L30672 20654
L30653 20616
L30634 20597
L30597 20579
L30522 20560
L30484 20541
L30466 20522
L30447 20485
L30447 20447
L30466 20410
L30484 20391
L30522 20372
L30616 20372
L30672 20391
" />
<path d="M30841 20560
L30972 20560
" />
<path d="M31028 20766
L30841 20766
L30841 20372
L31028 20372
" />
<path d="M31141 20372
L31366 20372
" />
<path d="M31253 20766
L31253 20372
" />
<path d="M35522 21613
L35541 21557
L35541 21463
L35522 21426
L35503 21407
L35466 21388
L35428 21388
L35391 21407
L35372 21426
L35353 21463
L35334 21538
L35316 21576
L35297 21594
L35259 21613
L35222 21613
L35184 21594
L35166 21576
L35147 21538
L35147 21444
L35166 21388
" />
<path d="M35147 21257
L35541 21163
L35259 21088
L35541 21013
L35147 20919
" />
<path d="M35147 20807
L35147 20563
L35297 20694
L35297 20638
L35316 20601
L35334 20582
L35372 20563
L35466 20563
L35503 20582
L35522 20601
L35541 20638
L35541 20751
L35522 20788
L35503 20807
" />
<path d="M8197 9338
L8516 9338
L8553 9319
L8572 9301
L8591 9263
L8591 9188
L8572 9151
L8553 9132
L8516 9113
L8197 9113
" />
<path d="M8591 8719
L8591 8944
" />
<path d="M8591 8832
L8197 8832
L8253 8869
L8291 8907
L8309 8944
" />
<path d="M30713 13872
L30713 14191
L30731 14229
L30750 14247
L30788 14266
L30863 14266
L30900 14247
L30919 14229
L30938 14191
L30938 13872
" />
<path d="M31087 13872
L31331 13872
L31200 14022
L31256 14022
L31294 14041
L31312 14060
L31331 14097
L31331 14191
L31312 14229
L31294 14247
L31256 14266
L31144 14266
L31106 14247
L31087 14229
" />
<path d="M30213 9522
L30213 9841
L30231 9879
L30250 9897
L30288 9916
L30363 9916
L30400 9897
L30419 9879
L30438 9841
L30438 9522
" />
<path d="M30794 9654
L30794 9916
" />
<path d="M30700 9504
L30606 9785
L30850 9785
" />
<path d="M22913 12972
L22913 13291
L22931 13329
L22950 13347
L22988 13366
L23063 13366
L23100 13347
L23119 13329
L23138 13291
L23138 12972
" />
<path d="M23512 12972
L23325 12972
L23306 13160
L23325 13141
L23362 13122
L23456 13122
L23494 13141
L23512 13160
L23531 13197
L23531 13291
L23512 13329
L23494 13347
L23456 13366
L23362 13366
L23325 13347
L23306 13329
" />
<path d="M28963 13622
L28963 13941
L28981 13979
L29000 13997
L29038 14016
L29113 14016
L29150 13997
L29169 13979
L29188 13941
L29188 13622
" />
<path d="M29544 13622
L29469 13622
L29431 13641
L29412 13660
L29375 13716
L29356 13791
L29356 13941
L29375 13979
L29394 13997
L29431 14016
L29506 14016
L29544 13997
L29562 13979
L29581 13941
L29581 13847
L29562 13810
L29544 13791
L29506 13772
L29431 13772
L29394 13791
L29375 13810
L29356 13847
" />
<path d="M32581 9922
L32581 10204
L32563 10260
L32525 10297
L32469 10316
L32431 10316
" />
<path d="M32956 9922
L32769 9922
L32750 10110
L32769 10091
L32806 10072
L32900 10072
L32937 10091
L32956 10110
L32975 10147
L32975 10241
L32956 10279
L32937 10297
L32900 10316
L32806 10316
L32769 10297
L32750 10279
" />
<path d="M32638 9629
L32619 9647
L32563 9666
L32525 9666
L32469 9647
L32431 9610
L32413 9572
L32394 9497
L32394 9441
L32413 9366
L32431 9329
L32469 9291
L32525 9272
L32563 9272
L32619 9291
L32638 9310
" />
<path d="M32806 9666
L32806 9272
" />
<path d="M32806 9460
L33031 9460
" />
<path d="M33031 9666
L33031 9272
" />
<path d="M33425 9291
L33387 9272
L33331 9272
L33275 9291
L33237 9329
L33219 9366
L33200 9441
L33200 9497
L33219 9572
L33237 9610
L33275 9647
L33331 9666
L33369 9666
L33425 9647
L33444 9629
L33444 9497
L33369 9497
" />
<path d="M33612 9516
L33912 9516
" />
<path d="M33762 9666
L33762 9366
" />
<path d="M32631 11872
L32631 12154
L32613 12210
L32575 12247
L32519 12266
L32481 12266
" />
<path d="M32781 11872
L33044 11872
L32875 12266
" />
<path d="M32688 11579
L32669 11597
L32613 11616
L32575 11616
L32519 11597
L32481 11560
L32463 11522
L32444 11447
L32444 11391
L32463 11316
L32481 11279
L32519 11241
L32575 11222
L32613 11222
L32669 11241
L32688 11260
" />
<path d="M32856 11616
L32856 11222
" />
<path d="M32856 11410
L33081 11410
" />
<path d="M33081 11616
L33081 11222
" />
<path d="M33475 11241
L33437 11222
L33381 11222
L33325 11241
L33287 11279
L33269 11316
L33250 11391
L33250 11447
L33269 11522
L33287 11560
L33325 11597
L33381 11616
L33419 11616
L33475 11597
L33494 11579
L33494 11447
L33419 11447
" />
<path d="M33662 11466
L33962 11466
" />
<path d="M9443 7445
L9462 7464
L9481 7520
L9481 7558
L9462 7614
L9425 7651
L9387 7670
L9312 7689
L9256 7689
L9181 7670
L9143 7651
L9106 7614
L9087 7558
L9087 7520
L9106 7464
L9125 7445
" />
<path d="M9125 7295
L9106 7276
L9087 7239
L9087 7145
L9106 7108
L9125 7089
L9162 7070
L9200 7070
L9256 7089
L9481 7314
L9481 7070
" />
<path d="M28013 18235
L27994 18254
L27938 18273
L27901 18273
L27844 18254
L27807 18217
L27788 18179
L27769 18104
L27769 18048
L27788 17973
L27807 17935
L27844 17898
L27901 17879
L27938 17879
L27994 17898
L28013 17917
" />
<path d="M28369 17879
L28182 17879
L28163 18067
L28182 18048
L28219 18029
L28313 18029
L28350 18048
L28369 18067
L28388 18104
L28388 18198
L28369 18235
L28350 18254
L28313 18273
L28219 18273
L28182 18254
L28163 18235
" />
<path d="M16297 14079
L16278 14097
L16222 14116
L16184 14116
L16128 14097
L16091 14060
L16072 14022
L16053 13947
L16053 13891
L16072 13816
L16091 13779
L16128 13741
L16184 13722
L16222 13722
L16278 13741
L16297 13760
" />
<path d="M16522 13891
L16484 13872
L16466 13854
L16447 13816
L16447 13797
L16466 13760
L16484 13741
L16522 13722
L16597 13722
L16634 13741
L16653 13760
L16672 13797
L16672 13816
L16653 13854
L16634 13872
L16597 13891
L16522 13891
L16484 13910
L16466 13929
L16447 13966
L16447 14041
L16466 14079
L16484 14097
L16522 14116
L16597 14116
L16634 14097
L16653 14079
L16672 14041
L16672 13966
L16653 13929
L16634 13910
L16597 13891
" />
<path d="M26759 11429
L26741 11447
L26684 11466
L26647 11466
L26591 11447
L26553 11410
L26534 11372
L26516 11297
L26516 11241
L26534 11166
L26553 11129
L26591 11091
L26647 11072
L26684 11072
L26741 11091
L26759 11110
" />
<path d="M27134 11466
L26909 11466
" />
<path d="M27022 11466
L27022 11072
L26984 11129
L26947 11166
L26909 11185
" />
<path d="M27378 11072
L27416 11072
L27453 11091
L27472 11110
L27491 11147
L27509 11222
L27509 11316
L27491 11391
L27472 11429
L27453 11447
L27416 11466
L27378 11466
L27341 11447
L27322 11429
L27303 11391
L27284 11316
L27284 11222
L27303 11147
L27322 11110
L27341 11091
L27378 11072
" />
<path d="M6853 16741
L6872 16760
L6891 16816
L6891 16854
L6872 16910
L6834 16947
L6797 16966
L6722 16985
L6666 16985
L6591 16966
L6553 16947
L6516 16910
L6497 16854
L6497 16816
L6516 16760
L6534 16741
" />
<path d="M6891 16366
L6891 16591
" />
<path d="M6891 16479
L6497 16479
L6553 16516
L6591 16554
L6609 16591
" />
<path d="M6534 16216
L6516 16197
L6497 16160
L6497 16066
L6516 16029
L6534 16010
L6572 15991
L6609 15991
L6666 16010
L6891 16235
L6891 15991
" />
<path d="M7003 20391
L7022 20410
L7041 20466
L7041 20504
L7022 20560
L6984 20597
L6947 20616
L6872 20635
L6816 20635
L6741 20616
L6703 20597
L6666 20560
L6647 20504
L6647 20466
L6666 20410
L6684 20391
" />
<path d="M7041 20016
L7041 20241
" />
<path d="M7041 20129
L6647 20129
L6703 20166
L6741 20204
L6759 20241
" />
<path d="M6647 19885
L6647 19641
L6797 19773
L6797 19716
L6816 19679
L6834 19660
L6872 19641
L6966 19641
L7003 19660
L7022 19679
L7041 19716
L7041 19829
L7022 19866
L7003 19885
" />
<path d="M8709 12729
L8691 12747
L8634 12766
L8597 12766
L8541 12747
L8503 12710
L8484 12672
L8466 12597
L8466 12541
L8484 12466
L8503 12429
L8541 12391
L8597 12372
L8634 12372
L8691 12391
L8709 12410
" />
<path d="M9084 12766
L8859 12766
" />
<path d="M8972 12766
L8972 12372
L8934 12429
L8897 12466
L8859 12485
" />
<path d="M9422 12504
L9422 12766
" />
<path d="M9328 12354
L9234 12635
L9478 12635
" />
<path d="M5409 18479
L5391 18497
L5334 18516
L5297 18516
L5241 18497
L5203 18460
L5184 18422
L5166 18347
L5166 18291
L5184 18216
L5203 18179
L5241 18141
L5297 18122
L5334 18122
L5391 18141
L5409 18160
" />
<path d="M5784 18516
L5559 18516
" />
<path d="M5672 18516
L5672 18122
L5634 18179
L5597 18216
L5559 18235
" />
<path d="M6122 18122
L6047 18122
L6009 18141
L5991 18160
L5953 18216
L5934 18291
L5934 18441
L5953 18479
L5972 18497
L6009 18516
L6084 18516
L6122 18497
L6141 18479
L6159 18441
L6159 18347
L6141 18310
L6122 18291
L6084 18272
L6009 18272
L5972 18291
L5953 18310
L5934 18347
" />
<path d="M13059 21287
L13041 21306
L12984 21325
L12947 21325
L12891 21306
L12853 21269
L12834 21231
L12816 21156
L12816 21100
L12834 21025
L12853 20987
L12891 20950
L12947 20931
L12984 20931
L13041 20950
L13059 20969
" />
<path d="M13434 21325
L13209 21325
" />
<path d="M13322 21325
L13322 20931
L13284 20987
L13247 21025
L13209 21044
" />
<path d="M13566 20931
L13828 20931
L13659 21325
" />
<path d="M26081 20972
L26081 21254
L26063 21310
L26025 21347
L25969 21366
L25931 21366
" />
<path d="M26250 21010
L26269 20991
L26306 20972
L26400 20972
L26437 20991
L26456 21010
L26475 21047
L26475 21085
L26456 21141
L26231 21366
L26475 21366
" />
<path d="M27628 21579
L27609 21597
L27553 21616
L27516 21616
L27459 21597
L27422 21560
L27403 21522
L27384 21447
L27384 21391
L27403 21316
L27422 21279
L27459 21241
L27516 21222
L27553 21222
L27609 21241
L27628 21260
" />
<path d="M27741 21222
L27966 21222
" />
<path d="M27853 21616
L27853 21222
" />
<path d="M28322 21616
L28191 21429
" />
<path d="M28097 21616
L28097 21222
L28247 21222
L28284 21241
L28303 21260
L28322 21297
L28322 21354
L28303 21391
L28284 21410
L28247 21429
L28097 21429
" />
<path d="M28678 21616
L28491 21616
L28491 21222
" />
<path d="M1597 8019
L1878 8019
L1934 8038
L1972 8076
L1991 8132
L1991 8169
" />
<path d="M1597 7869
L1597 7626
L1747 7757
L1747 7701
L1766 7663
L1784 7644
L1822 7626
L1916 7626
L1953 7644
L1972 7663
L1991 7701
L1991 7813
L1972 7851
L1953 7869
" />
<path d="M33681 21422
L33681 21704
L33663 21760
L33625 21797
L33569 21816
L33531 21816
" />
<path d="M33925 21591
L33887 21572
L33869 21554
L33850 21516
L33850 21497
L33869 21460
L33887 21441
L33925 21422
L34000 21422
L34037 21441
L34056 21460
L34075 21497
L34075 21516
L34056 21554
L34037 21572
L34000 21591
L33925 21591
L33887 21610
L33869 21629
L33850 21666
L33850 21741
L33869 21779
L33887 21797
L33925 21816
L34000 21816
L34037 21797
L34056 21779
L34075 21741
L34075 21666
L34056 21629
L34037 21610
L34000 21591
" />
<path d="M30703 21566
L30703 21172
L30853 21172
L30891 21191
L30909 21210
L30928 21247
L30928 21304
L30909 21341
L30891 21360
L30853 21379
L30703 21379
" />
<path d="M31172 21172
L31247 21172
L31284 21191
L31322 21229
L31341 21304
L31341 21435
L31322 21510
L31284 21547
L31247 21566
L31172 21566
L31134 21547
L31097 21510
L31078 21435
L31078 21304
L31097 21229
L31134 21191
L31172 21172
" />
<path d="M31472 21172
L31566 21566
L31641 21285
L31716 21566
L31809 21172
" />
<path d="M31959 21360
L32091 21360
" />
<path d="M32147 21566
L31959 21566
L31959 21172
L32147 21172
" />
<path d="M32541 21566
L32409 21379
" />
<path d="M32316 21566
L32316 21172
L32466 21172
L32503 21191
L32522 21210
L32541 21247
L32541 21304
L32522 21341
L32503 21360
L32466 21379
L32316 21379
" />
<path d="M10431 23772
L10431 24054
L10413 24110
L10375 24147
L10319 24166
L10281 24166
" />
<path d="M10637 24166
L10712 24166
L10750 24147
L10769 24129
L10806 24072
L10825 23997
L10825 23847
L10806 23810
L10787 23791
L10750 23772
L10675 23772
L10637 23791
L10619 23810
L10600 23847
L10600 23941
L10619 23979
L10637 23997
L10675 24016
L10750 24016
L10787 23997
L10806 23979
L10825 23941
" />
<path d="M9756 21297
L9813 21316
L9906 21316
L9944 21297
L9963 21279
L9981 21241
L9981 21204
L9963 21166
L9944 21147
L9906 21129
L9831 21110
L9794 21091
L9775 21072
L9756 21035
L9756 20997
L9775 20960
L9794 20941
L9831 20922
L9925 20922
L9981 20941
" />
<path d="M10150 21316
L10150 20922
L10300 20922
L10337 20941
L10356 20960
L10375 20997
L10375 21054
L10356 21091
L10337 21110
L10300 21129
L10150 21129
" />
<path d="M10544 21316
L10544 20922
" />
<path d="M10769 21316
L10600 21091
" />
<path d="M10769 20922
L10544 21147
" />
<path d="M3394 21572
L3394 21854
L3375 21910
L3338 21947
L3281 21966
L3244 21966
" />
<path d="M3787 21966
L3563 21966
" />
<path d="M3675 21966
L3675 21572
L3638 21629
L3600 21666
L3563 21685
" />
<path d="M4162 21966
L3937 21966
" />
<path d="M4050 21966
L4050 21572
L4012 21629
L3975 21666
L3937 21685
" />
<path d="M4694 21266
L4694 20872
L4788 20872
L4844 20891
L4881 20929
L4900 20966
L4919 21041
L4919 21097
L4900 21172
L4881 21210
L4844 21247
L4788 21266
L4694 21266
" />
<path d="M5069 21154
L5256 21154
" />
<path d="M5031 21266
L5162 20872
L5294 21266
" />
<path d="M5650 21229
L5631 21247
L5575 21266
L5537 21266
L5481 21247
L5444 21210
L5425 21172
L5406 21097
L5406 21041
L5425 20966
L5444 20929
L5481 20891
L5537 20872
L5575 20872
L5631 20891
L5650 20910
" />
<path d="M28834 6472
L28834 6754
L28816 6810
L28778 6847
L28722 6866
L28684 6866
" />
<path d="M29022 6866
L29022 6472
L29172 6472
L29209 6491
L29228 6510
L29247 6547
L29247 6604
L29228 6641
L29209 6660
L29172 6679
L29022 6679
" />
<path d="M29397 6510
L29416 6491
L29453 6472
L29547 6472
L29584 6491
L29603 6510
L29622 6547
L29622 6585
L29603 6641
L29378 6866
L29622 6866
" />
<path d="M11534 11672
L11534 11954
L11516 12010
L11478 12047
L11422 12066
L11384 12066
" />
<path d="M11722 12066
L11722 11672
L11872 11672
L11909 11691
L11928 11710
L11947 11747
L11947 11804
L11928 11841
L11909 11860
L11872 11879
L11722 11879
" />
<path d="M12078 11672
L12322 11672
L12191 11822
L12247 11822
L12284 11841
L12303 11860
L12322 11897
L12322 11991
L12303 12029
L12284 12047
L12247 12066
L12134 12066
L12097 12047
L12078 12029
" />
<path d="M19897 13866
L19766 13679
" />
<path d="M19672 13866
L19672 13472
L19822 13472
L19859 13491
L19878 13510
L19897 13547
L19897 13604
L19878 13641
L19859 13660
L19822 13679
L19672 13679
" />
<path d="M20234 13604
L20234 13866
" />
<path d="M20141 13454
L20047 13735
L20291 13735
" />
<path d="M31997 17016
L31866 16829
" />
<path d="M31772 17016
L31772 16622
L31922 16622
L31959 16641
L31978 16660
L31997 16697
L31997 16754
L31978 16791
L31959 16810
L31922 16829
L31772 16829
" />
<path d="M32353 16622
L32166 16622
L32147 16810
L32166 16791
L32203 16772
L32297 16772
L32334 16791
L32353 16810
L32372 16847
L32372 16941
L32353 16979
L32334 16997
L32297 17016
L32203 17016
L32166 16997
L32147 16979
" />
<path d="M33997 13666
L33866 13479
" />
<path d="M33772 13666
L33772 13272
L33922 13272
L33959 13291
L33978 13310
L33997 13347
L33997 13404
L33978 13441
L33959 13460
L33922 13479
L33772 13479
" />
<path d="M34334 13272
L34259 13272
L34222 13291
L34203 13310
L34166 13366
L34147 13441
L34147 13591
L34166 13629
L34184 13647
L34222 13666
L34297 13666
L34334 13647
L34353 13629
L34372 13591
L34372 13497
L34353 13460
L34334 13441
L34297 13422
L34222 13422
L34184 13441
L34166 13460
L34147 13497
" />
<path d="M34347 9466
L34216 9279
" />
<path d="M34122 9466
L34122 9072
L34272 9072
L34309 9091
L34328 9110
L34347 9147
L34347 9204
L34328 9241
L34309 9260
L34272 9279
L34122 9279
" />
<path d="M34478 9072
L34741 9072
L34572 9466
" />
<path d="M30747 12816
L30616 12629
" />
<path d="M30522 12816
L30522 12422
L30672 12422
L30709 12441
L30728 12460
L30747 12497
L30747 12554
L30728 12591
L30709 12610
L30672 12629
L30522 12629
" />
<path d="M30972 12591
L30934 12572
L30916 12554
L30897 12516
L30897 12497
L30916 12460
L30934 12441
L30972 12422
L31047 12422
L31084 12441
L31103 12460
L31122 12497
L31122 12516
L31103 12554
L31084 12572
L31047 12591
L30972 12591
L30934 12610
L30916 12629
L30897 12666
L30897 12741
L30916 12779
L30934 12797
L30972 12816
L31047 12816
L31084 12797
L31103 12779
L31122 12741
L31122 12666
L31103 12629
L31084 12610
L31047 12591
" />
<path d="M20697 12866
L20566 12679
" />
<path d="M20472 12866
L20472 12472
L20622 12472
L20659 12491
L20678 12510
L20697 12547
L20697 12604
L20678 12641
L20659 12660
L20622 12679
L20472 12679
" />
<path d="M20884 12866
L20959 12866
L20997 12847
L21016 12829
L21053 12772
L21072 12697
L21072 12547
L21053 12510
L21034 12491
L20997 12472
L20922 12472
L20884 12491
L20866 12510
L20847 12547
L20847 12641
L20866 12679
L20884 12697
L20922 12716
L20997 12716
L21034 12697
L21053 12679
L21072 12641
" />
<path d="M25474 14100
L25343 13912
" />
<path d="M25249 14100
L25249 13706
L25399 13706
L25436 13725
L25455 13743
L25474 13781
L25474 13837
L25455 13875
L25436 13893
L25399 13912
L25249 13912
" />
<path d="M25849 14100
L25624 14100
" />
<path d="M25736 14100
L25736 13706
L25699 13762
L25661 13800
L25624 13818
" />
<path d="M26092 13706
L26130 13706
L26167 13725
L26186 13743
L26205 13781
L26224 13856
L26224 13950
L26205 14025
L26186 14062
L26167 14081
L26130 14100
L26092 14100
L26055 14081
L26036 14062
L26017 14025
L25999 13950
L25999 13856
L26017 13781
L26036 13743
L26055 13725
L26092 13706
" />
<path d="M28109 9266
L27978 9079
" />
<path d="M27884 9266
L27884 8872
L28034 8872
L28072 8891
L28091 8910
L28109 8947
L28109 9004
L28091 9041
L28072 9060
L28034 9079
L27884 9079
" />
<path d="M28484 9266
L28259 9266
" />
<path d="M28372 9266
L28372 8872
L28334 8929
L28297 8966
L28259 8985
" />
<path d="M28859 9266
L28634 9266
" />
<path d="M28747 9266
L28747 8872
L28709 8929
L28672 8966
L28634 8985
" />
<path d="M20159 21566
L20028 21379
" />
<path d="M19934 21566
L19934 21172
L20084 21172
L20122 21191
L20141 21210
L20159 21247
L20159 21304
L20141 21341
L20122 21360
L20084 21379
L19934 21379
" />
<path d="M20534 21566
L20309 21566
" />
<path d="M20422 21566
L20422 21172
L20384 21229
L20347 21266
L20309 21285
" />
<path d="M20684 21210
L20703 21191
L20741 21172
L20834 21172
L20872 21191
L20891 21210
L20909 21247
L20909 21285
L20891 21341
L20666 21566
L20909 21566
" />
<path d="M28007 20406
L27820 20537
" />
<path d="M28007 20631
L27613 20631
L27613 20481
L27632 20443
L27651 20424
L27688 20406
L27745 20406
L27782 20424
L27801 20443
L27820 20481
L27820 20631
" />
<path d="M28007 20031
L28007 20256
" />
<path d="M28007 20143
L27613 20143
L27670 20181
L27707 20218
L27726 20256
" />
<path d="M27613 19899
L27613 19656
L27763 19787
L27763 19731
L27782 19693
L27801 19674
L27838 19656
L27932 19656
L27970 19674
L27988 19693
L28007 19731
L28007 19843
L27988 19881
L27970 19899
" />
<path d="M21959 21616
L21828 21429
" />
<path d="M21734 21616
L21734 21222
L21884 21222
L21922 21241
L21941 21260
L21959 21297
L21959 21354
L21941 21391
L21922 21410
L21884 21429
L21734 21429
" />
<path d="M22334 21616
L22109 21616
" />
<path d="M22222 21616
L22222 21222
L22184 21279
L22147 21316
L22109 21335
" />
<path d="M22672 21354
L22672 21616
" />
<path d="M22578 21204
L22484 21485
L22728 21485
" />
<path d="M12691 13927
L12503 14058
" />
<path d="M12691 14152
L12297 14152
L12297 14002
L12316 13964
L12334 13946
L12372 13927
L12428 13927
L12466 13946
L12484 13964
L12503 14002
L12503 14152
" />
<path d="M12691 13552
L12691 13777
" />
<path d="M12691 13664
L12297 13664
L12353 13702
L12391 13739
L12409 13777
" />
<path d="M12297 13196
L12297 13383
L12484 13402
L12466 13383
L12447 13346
L12447 13252
L12466 13214
L12484 13196
L12522 13177
L12616 13177
L12653 13196
L12672 13214
L12691 13252
L12691 13346
L12672 13383
L12653 13402
" />
<path d="M11509 15266
L11378 15079
" />
<path d="M11284 15266
L11284 14872
L11434 14872
L11472 14891
L11491 14910
L11509 14947
L11509 15004
L11491 15041
L11472 15060
L11434 15079
L11284 15079
" />
<path d="M11884 15266
L11659 15266
" />
<path d="M11772 15266
L11772 14872
L11734 14929
L11697 14966
L11659 14985
" />
<path d="M12222 14872
L12147 14872
L12109 14891
L12091 14910
L12053 14966
L12034 15041
L12034 15191
L12053 15229
L12072 15247
L12109 15266
L12184 15266
L12222 15247
L12241 15229
L12259 15191
L12259 15097
L12241 15060
L12222 15041
L12184 15022
L12109 15022
L12072 15041
L12053 15060
L12034 15097
" />
<path d="M9509 19116
L9378 18929
" />
<path d="M9284 19116
L9284 18722
L9434 18722
L9472 18741
L9491 18760
L9509 18797
L9509 18854
L9491 18891
L9472 18910
L9434 18929
L9284 18929
" />
<path d="M9884 19116
L9659 19116
" />
<path d="M9772 19116
L9772 18722
L9734 18779
L9697 18816
L9659 18835
" />
<path d="M10016 18722
L10278 18722
L10109 19116
" />
<path d="M13891 17991
L13703 18122
" />
<path d="M13891 18216
L13497 18216
L13497 18066
L13516 18029
L13534 18010
L13572 17991
L13628 17991
L13666 18010
L13684 18029
L13703 18066
L13703 18216
" />
<path d="M13891 17616
L13891 17841
" />
<path d="M13891 17729
L13497 17729
L13553 17766
L13591 17804
L13609 17841
" />
<path d="M13666 17391
L13647 17429
L13628 17447
L13591 17466
L13572 17466
L13534 17447
L13516 17429
L13497 17391
L13497 17316
L13516 17279
L13534 17260
L13572 17241
L13591 17241
L13628 17260
L13647 17279
L13666 17316
L13666 17391
L13684 17429
L13703 17447
L13741 17466
L13816 17466
L13853 17447
L13872 17429
L13891 17391
L13891 17316
L13872 17279
L13853 17260
L13816 17241
L13741 17241
L13703 17260
L13684 17279
L13666 17316
" />
<path d="M27888 4297
L27944 4316
L28038 4316
L28075 4297
L28094 4279
L28113 4241
L28113 4204
L28094 4166
L28075 4147
L28038 4129
L27963 4110
L27925 4091
L27906 4072
L27888 4035
L27888 3997
L27906 3960
L27925 3941
L27963 3922
L28056 3922
L28113 3941
" />
<path d="M28244 3922
L28338 4316
L28412 4035
L28487 4316
L28581 3922
" />
<path d="M28919 3922
L28731 3922
L28712 4110
L28731 4091
L28769 4072
L28862 4072
L28900 4091
L28919 4110
L28937 4147
L28937 4241
L28919 4279
L28900 4297
L28862 4316
L28769 4316
L28731 4297
L28712 4279
" />
<path d="M32672 7799
L32691 7743
L32691 7649
L32672 7611
L32653 7593
L32616 7574
L32578 7574
L32541 7593
L32522 7611
L32503 7649
L32484 7724
L32466 7761
L32447 7780
L32409 7799
L32372 7799
L32334 7780
L32316 7761
L32297 7724
L32297 7630
L32316 7574
" />
<path d="M32297 7443
L32691 7349
L32409 7274
L32691 7199
L32297 7105
" />
<path d="M32297 6786
L32297 6861
L32316 6899
L32334 6918
L32391 6955
L32466 6974
L32616 6974
L32653 6955
L32672 6936
L32691 6899
L32691 6824
L32672 6786
L32653 6768
L32616 6749
L32522 6749
L32484 6768
L32466 6786
L32447 6824
L32447 6899
L32466 6936
L32484 6955
L32522 6974
" />
<path d="M9913 14372
L9913 14691
L9931 14729
L9950 14747
L9988 14766
L10063 14766
L10100 14747
L10119 14729
L10138 14691
L10138 14372
" />
<path d="M10287 14372
L10550 14372
L10381 14766
" />
<path d="M11013 19272
L11013 19591
L11031 19629
L11050 19647
L11088 19666
L11163 19666
L11200 19647
L11219 19629
L11238 19591
L11238 19272
" />
<path d="M11481 19441
L11444 19422
L11425 19404
L11406 19366
L11406 19347
L11425 19310
L11444 19291
L11481 19272
L11556 19272
L11594 19291
L11612 19310
L11631 19347
L11631 19366
L11612 19404
L11594 19422
L11556 19441
L11481 19441
L11444 19460
L11425 19479
L11406 19516
L11406 19591
L11425 19629
L11444 19647
L11481 19666
L11556 19666
L11594 19647
L11612 19629
L11631 19591
L11631 19516
L11612 19479
L11594 19460
L11556 19441
" />
<path d="M1447 17257
L1728 17257
L1784 17276
L1822 17313
L1841 17369
L1841 17407
" />
<path d="M1841 16863
L1841 17088
" />
<path d="M1841 16976
L1447 16976
L1503 17013
L1541 17051
L1559 17088
" />
<path d="M1447 16619
L1447 16582
L1466 16544
L1484 16526
L1522 16507
L1597 16488
L1691 16488
L1766 16507
L1803 16526
L1822 16544
L1841 16582
L1841 16619
L1822 16657
L1803 16676
L1766 16694
L1691 16713
L1597 16713
L1522 16694
L1484 16676
L1466 16657
L1447 16619
" />
<path d="M2652 10809
L2933 10809
L2989 10828
L3027 10865
L3046 10922
L3046 10959
" />
<path d="M3046 10415
L3046 10640
" />
<path d="M3046 10528
L2652 10528
L2708 10565
L2746 10603
L2764 10640
" />
<path d="M2690 10265
L2671 10247
L2652 10209
L2652 10115
L2671 10078
L2690 10059
L2727 10041
L2764 10041
L2821 10059
L3046 10284
L3046 10041
" />
<path d="M27701 7850
L27982 7850
L28038 7869
L28076 7907
L28095 7963
L28095 8000
" />
<path d="M28095 7457
L28095 7682
" />
<path d="M28095 7569
L27701 7569
L27757 7607
L27795 7644
L27813 7682
" />
<path d="M27701 7326
L27701 7082
L27851 7213
L27851 7157
L27870 7119
L27888 7101
L27926 7082
L28020 7082
L28057 7101
L28076 7119
L28095 7157
L28095 7269
L28076 7307
L28057 7326
" />
<path d="M10193 8772
L10175 8791
L10118 8809
L10081 8809
L10025 8791
L9987 8753
L9968 8716
L9950 8641
L9950 8585
L9968 8510
L9987 8472
L10025 8435
L10081 8416
L10118 8416
L10175 8435
L10193 8453
" />
<path d="M10568 8809
L10343 8809
" />
<path d="M10456 8809
L10456 8416
L10418 8472
L10381 8510
L10343 8528
" />
<path d="M10924 8416
L10737 8416
L10718 8603
L10737 8585
L10774 8566
L10868 8566
L10906 8585
L10924 8603
L10943 8641
L10943 8735
L10924 8772
L10906 8791
L10868 8809
L10774 8809
L10737 8791
L10718 8772
" />
<path d="M15424 21433
L15293 21245
" />
<path d="M15199 21433
L15199 21039
L15349 21039
L15386 21058
L15405 21077
L15424 21114
L15424 21170
L15405 21208
L15386 21226
L15349 21245
L15199 21245
" />
<path d="M15799 21433
L15574 21433
" />
<path d="M15686 21433
L15686 21039
L15649 21095
L15611 21133
L15574 21152
" />
<path d="M15986 21433
L16061 21433
L16099 21414
L16117 21395
L16155 21339
L16174 21264
L16174 21114
L16155 21077
L16136 21058
L16099 21039
L16024 21039
L15986 21058
L15967 21077
L15949 21114
L15949 21208
L15967 21245
L15986 21264
L16024 21283
L16099 21283
L16136 21264
L16155 21245
L16174 21208
" />
<path d="M15566 13022
L15791 13022
" />
<path d="M15678 13416
L15678 13022
" />
<path d="M15922 13416
L15922 13022
L16072 13022
L16109 13041
L16128 13060
L16147 13097
L16147 13154
L16128 13191
L16109 13210
L16072 13229
L15922 13229
" />
<path d="M16522 13416
L16297 13416
" />
<path d="M16409 13416
L16409 13022
L16372 13079
L16334 13116
L16297 13135
" />
<path d="M16863 12091
L16825 12072
L16769 12072
L16713 12091
L16675 12129
L16656 12166
L16638 12241
L16638 12297
L16656 12372
L16675 12410
L16713 12447
L16769 12466
L16806 12466
L16863 12447
L16881 12429
L16881 12297
L16806 12297
" />
<path d="M17050 12466
L17050 12072
L17275 12466
L17275 12072
" />
<path d="M17462 12466
L17462 12072
L17556 12072
L17612 12091
L17650 12129
L17669 12166
L17687 12241
L17687 12297
L17669 12372
L17650 12410
L17612 12447
L17556 12466
L17462 12466
" />
<path d="M19116 9872
L19341 9872
" />
<path d="M19228 10266
L19228 9872
" />
<path d="M19472 10266
L19472 9872
L19622 9872
L19659 9891
L19678 9910
L19697 9947
L19697 10004
L19678 10041
L19659 10060
L19622 10079
L19472 10079
" />
<path d="M19847 9910
L19866 9891
L19903 9872
L19997 9872
L20034 9891
L20053 9910
L20072 9947
L20072 9985
L20053 10041
L19828 10266
L20072 10266
" />
<path d="M17119 10166
L17419 10166
" />
<path d="M17269 10316
L17269 10016
" />
<path d="M17569 9922
L17812 9922
L17681 10072
L17738 10072
L17775 10091
L17794 10110
L17812 10147
L17812 10241
L17794 10279
L17775 10297
L17738 10316
L17625 10316
L17588 10297
L17569 10279
" />
<path d="M17925 9922
L18056 10316
L18187 9922
" />
<path d="M18281 9922
L18525 9922
L18394 10072
L18450 10072
L18487 10091
L18506 10110
L18525 10147
L18525 10241
L18506 10279
L18487 10297
L18450 10316
L18337 10316
L18300 10297
L18281 10279
" />
<path d="M17816 13672
L18041 13672
" />
<path d="M17928 14066
L17928 13672
" />
<path d="M18172 14066
L18172 13672
L18322 13672
L18359 13691
L18378 13710
L18397 13747
L18397 13804
L18378 13841
L18359 13860
L18322 13879
L18172 13879
" />
<path d="M18528 13672
L18791 13672
L18622 14066
" />
<path d="M18159 12072
L18291 12466
L18422 12072
" />
<path d="M18778 12466
L18647 12279
" />
<path d="M18553 12466
L18553 12072
L18703 12072
L18741 12091
L18759 12110
L18778 12147
L18778 12204
L18759 12241
L18741 12260
L18703 12279
L18553 12279
" />
<path d="M18947 12260
L19078 12260
" />
<path d="M19134 12466
L18947 12466
L18947 12072
L19134 12072
" />
<path d="M19509 12091
L19472 12072
L19416 12072
L19359 12091
L19322 12129
L19303 12166
L19284 12241
L19284 12297
L19303 12372
L19322 12410
L19359 12447
L19416 12466
L19453 12466
L19509 12447
L19528 12429
L19528 12297
L19453 12297
" />
<path d="M29966 17322
L30191 17322
" />
<path d="M30078 17716
L30078 17322
" />
<path d="M30322 17716
L30322 17322
L30472 17322
L30509 17341
L30528 17360
L30547 17397
L30547 17454
L30528 17491
L30509 17510
L30472 17529
L30322 17529
" />
<path d="M30772 17491
L30734 17472
L30716 17454
L30697 17416
L30697 17397
L30716 17360
L30734 17341
L30772 17322
L30847 17322
L30884 17341
L30903 17360
L30922 17397
L30922 17416
L30903 17454
L30884 17472
L30847 17491
L30772 17491
L30734 17510
L30716 17529
L30697 17566
L30697 17641
L30716 17679
L30734 17697
L30772 17716
L30847 17716
L30884 17697
L30903 17679
L30922 17641
L30922 17566
L30903 17529
L30884 17510
L30847 17491
" />
<path d="M29916 16730
L30047 17123
L30178 16730
" />
<path d="M30441 16917
L30497 16936
L30516 16955
L30534 16992
L30534 17048
L30516 17086
L30497 17105
L30459 17123
L30309 17123
L30309 16730
L30441 16730
L30478 16748
L30497 16767
L30516 16805
L30516 16842
L30497 16880
L30478 16898
L30441 16917
L30309 16917
" />
<path d="M30684 17011
L30872 17011
" />
<path d="M30647 17123
L30778 16730
L30909 17123
" />
<path d="M30984 16730
L31209 16730
" />
<path d="M31097 17123
L31097 16730
" />
<path d="M21146 11120
L21165 11139
L21184 11195
L21184 11232
L21165 11289
L21128 11326
L21090 11345
L21015 11364
L20959 11364
L20884 11345
L20846 11326
L20809 11289
L20790 11232
L20790 11195
L20809 11139
L20828 11120
" />
<path d="M20790 10989
L20790 10726
L21184 10895
" />
<path d="M8867 4130
L8867 4412
L8848 4468
L8811 4505
L8755 4524
L8717 4524
" />
<path d="M9261 4524
L9036 4524
" />
<path d="M9148 4524
L9148 4130
L9111 4187
L9073 4224
L9036 4243
" />
<path d="M9598 4262
L9598 4524
" />
<path d="M9504 4112
L9411 4393
L9654 4393
" />
</g>
<g style="fill:#000000; fill-opacity:0.0; 
stroke:#000000; stroke-width:59.0551; stroke-opacity:1; 
stroke-linecap:round; stroke-linejoin:round;">
</g>
<g style="fill:#C2C200; fill-opacity:0.0; 
stroke:#C2C200; stroke-width:59.0551; stroke-opacity:1; 
stroke-linecap:round; stroke-linejoin:round;">
<path d="M36012 5638
L36012 2738
" />
<path d="M35712 6238
L35712 5738
" />
<path d="M35712 8838
L35712 8338
" />
<path d="M36012 17688
L36012 8938
" />
<path d="M36012 23838
L36012 20938
" />
<path d="M35712 20188
L35712 20788
" />
<path d="M35712 18388
L35712 17838
" />
<path d="M32962 1838
L35112 1838
" />
<path d="M31612 2538
L32562 2538
" />
<path d="M27612 2538
L27612 5438
" />
<path d="M29712 2538
L27612 2538
" />
<path d="M962 24638
L1012 24638
" />
<path d="M1112 1838
L1062 1838
" />
<path d="M19312 2788
L19312 5438
" />
<path d="M18162 2788
L19312 2788
" />
<path d="M35712 17838
L36012 17688
" />
<path d="M35712 20788
L36012 20938
" />
<path d="M35712 18388
L35712 20188
" />
<path d="M35712 5738
L36012 5638
" />
<path d="M35712 8838
L36012 8938
" />
<path d="M35712 6238
L35712 8338
" />
<path d="M12812 1838
L1112 1838
" />
<path d="M12812 2788
L12812 1838
" />
<path d="M18162 2788
L12812 2788
" />
<path d="M27612 5438
L19312 5438
" />
<path d="M32562 2538
L32962 1838
" />
<path d="M29712 2538
L31612 2538
" />
<path d="M36013 2738.58 A900 900 0.0 0 0 35113 1838.58 " />
<path d="M162 23838
L162 2738
" />
<path d="M1012 24638
L35212 24638
" />
<path d="M35213 24638.6 A800 800 0.0 0 0 36013 23838.6 " />
<path d="M162.993 23838.6 A800 800 0.0 0 0 962.993 24638.6 " />
<path d="M1062.99 1838.58 A900 900 0.0 0 0 162.993 2738.58 " />
</g> 
</svg>
