<?xml version="1.0" standalone="no"?>
 <!DOCTYPE svg PUBLIC "-//W3C//DTD SVG 1.1//EN" 
 "http://www.w3.org/Graphics/SVG/1.1/DTD/svg11.dtd"> 
<svg xmlns="http://www.w3.org/2000/svg" version="1.1" 
    width="9.20242cm" height="6.2865cm" viewBox="0 0 36230 24750 ">
<title>SVG Picture created as WT32-SC01-Edge.Cuts.svg date 2022/07/05 21:09:32 </title>
  <desc>Picture generated by PCBNEW </desc>
<g style="fill:#000000; fill-opacity:1;stroke:#000000; stroke-opacity:1;
stroke-linecap:round; stroke-linejoin:round; "
 transform="translate(0 0) scale(1 1)">
</g>
<g style="fill:#000000; fill-opacity:0.0; 
stroke:#000000; stroke-width:-0.000393701; stroke-opacity:1; 
stroke-linecap:round; stroke-linejoin:round;">
</g>
<g style="fill:#C2C200; fill-opacity:0.0; 
stroke:#C2C200; stroke-width:-0.000393701; stroke-opacity:1; 
stroke-linecap:round; stroke-linejoin:round;">
</g>
<g style="fill:#C2C200; fill-opacity:0.0; 
stroke:#C2C200; stroke-width:59.0551; stroke-opacity:1; 
stroke-linecap:round; stroke-linejoin:round;">
<path d="M36012 5638
L36012 2738
" />
<path d="M35712 6238
L35712 5738
" />
<path d="M35712 8838
L35712 8338
" />
<path d="M36012 17688
L36012 8938
" />
<path d="M36012 23838
L36012 20938
" />
<path d="M35712 20188
L35712 20788
" />
<path d="M35712 18388
L35712 17838
" />
<path d="M32962 1838
L35112 1838
" />
<path d="M31612 2538
L32562 2538
" />
<path d="M27612 2538
L27612 5438
" />
<path d="M29712 2538
L27612 2538
" />
<path d="M962 24638
L1012 24638
" />
<path d="M1112 1838
L1062 1838
" />
<path d="M19312 2788
L19312 5438
" />
<path d="M18162 2788
L19312 2788
" />
<path d="M35712 17838
L36012 17688
" />
<path d="M35712 20788
L36012 20938
" />
<path d="M35712 18388
L35712 20188
" />
<path d="M35712 5738
L36012 5638
" />
<path d="M35712 8838
L36012 8938
" />
<path d="M35712 6238
L35712 8338
" />
<path d="M12812 1838
L1112 1838
" />
<path d="M12812 2788
L12812 1838
" />
<path d="M18162 2788
L12812 2788
" />
<path d="M27612 5438
L19312 5438
" />
<path d="M32562 2538
L32962 1838
" />
<path d="M29712 2538
L31612 2538
" />
<path d="M36013 2738.58 A900 900 0.0 0 0 35113 1838.58 " />
<path d="M162 23838
L162 2738
" />
<path d="M1012 24638
L35212 24638
" />
<path d="M35213 24638.6 A800 800 0.0 0 0 36013 23838.6 " />
<path d="M162.993 23838.6 A800 800 0.0 0 0 962.993 24638.6 " />
<path d="M1062.99 1838.58 A900 900 0.0 0 0 162.993 2738.58 " />
</g> 
</svg>
