<?xml version="1.0" standalone="no"?>
 <!DOCTYPE svg PUBLIC "-//W3C//DTD SVG 1.1//EN" 
 "http://www.w3.org/Graphics/SVG/1.1/DTD/svg11.dtd"> 
<svg xmlns="http://www.w3.org/2000/svg" version="1.1" 
    width="9.20242cm" height="6.2865cm" viewBox="0 0 36230 24750 ">
<title>SVG Picture created as WT32-SC01-B.Mask.svg date 2022/07/05 21:09:32 </title>
  <desc>Picture generated by PCBNEW </desc>
<g style="fill:#000000; fill-opacity:1;stroke:#000000; stroke-opacity:1;
stroke-linecap:round; stroke-linejoin:round; "
 transform="translate(0 0) scale(1 1)">
</g>
<g style="fill:#000000; fill-opacity:0.0; 
stroke:#000000; stroke-width:-0.000393701; stroke-opacity:1; 
stroke-linecap:round; stroke-linejoin:round;">
</g>
<g style="fill:#848400; fill-opacity:0.0; 
stroke:#848400; stroke-width:-0.000393701; stroke-opacity:1; 
stroke-linecap:round; stroke-linejoin:round;">
</g>
<g style="fill:#848400; fill-opacity:1.0; 
stroke:#848400; stroke-width:0; stroke-opacity:1; 
stroke-linecap:round; stroke-linejoin:round;">
<polyline style="fill-rule:evenodd;"
points="34806,22512
34806,22512
34806,22512
34952,22573
34993,22599
35085,22661
35197,22773
35197,22773
35286,22906
35346,23053
35346,23053
35375,23196
35377,23209
35377,23368
35346,23524
35286,23671
35286,23671
35197,23803
35085,23915
35085,23915
34952,24004
34806,24065
34806,24065
34806,24065
34650,24096
34490,24096
34334,24065
34334,24065
34334,24065
34187,24004
34055,23915
34055,23915
33943,23803
33854,23671
33854,23671
33794,23524
33762,23368
33762,23209
33765,23196
33794,23053
33794,23053
33854,22906
33943,22773
33943,22773
34055,22661
34147,22599
34187,22573
34334,22512
34334,22512
34334,22512
34490,22481
34650,22481
34806,22512
" /> 
<polyline style="fill-rule:evenodd;"
points="1806,22512
1806,22512
1806,22512
1952,22573
1993,22599
2085,22661
2197,22773
2197,22773
2286,22906
2346,23053
2346,23053
2375,23196
2377,23209
2377,23368
2346,23524
2286,23671
2286,23671
2197,23803
2085,23915
2085,23915
1952,24004
1806,24065
1806,24065
1806,24065
1650,24096
1490,24096
1334,24065
1334,24065
1334,24065
1187,24004
1055,23915
1055,23915
943,23803
854,23671
854,23671
794,23524
762,23368
762,23209
765,23196
794,23053
794,23053
854,22906
943,22773
943,22773
1055,22661
1147,22599
1187,22573
1334,22512
1334,22512
1334,22512
1490,22481
1650,22481
1806,22512
" /> 
<polyline style="fill-rule:evenodd;"
points="23377,21733
23402,21740
23425,21752
23445,21769
23462,21789
23474,21812
23481,21837
23484,21865
23484,22343
23481,22371
23474,22396
23462,22419
23445,22439
23422,22458
23420,22460
23413,22467
23407,22475
23404,22484
23402,22493
23402,22503
23404,22512
23407,22521
23413,22529
23420,22536
23422,22538
23445,22556
23462,22576
23474,22599
23481,22624
23484,22653
23484,23131
23481,23159
23474,23184
23462,23207
23445,23227
23425,23243
23402,23256
23377,23263
23349,23266
22989,23266
22961,23263
22936,23256
22913,23243
22893,23227
22876,23207
22864,23184
22856,23159
22853,23131
22853,22653
22856,22624
22864,22599
22876,22576
22893,22556
22915,22538
22918,22536
22925,22529
22930,22521
22934,22512
22936,22503
22936,22493
22934,22484
22930,22475
22925,22467
22918,22460
22915,22458
22893,22439
22876,22419
22864,22396
22856,22371
22853,22343
22853,21865
22856,21837
22864,21812
22876,21789
22893,21769
22913,21752
22936,21740
22961,21733
22989,21730
23349,21730
23377,21733
" /> 
<polyline style="fill-rule:evenodd;"
points="13141,21733
13166,21740
13189,21752
13209,21769
13225,21789
13238,21812
13245,21837
13248,21865
13248,22343
13245,22371
13238,22396
13225,22419
13209,22439
13186,22458
13183,22460
13177,22467
13171,22475
13168,22484
13166,22493
13166,22503
13168,22512
13171,22521
13177,22529
13183,22536
13186,22538
13209,22556
13225,22576
13238,22599
13245,22624
13248,22653
13248,23131
13245,23159
13238,23184
13225,23207
13209,23227
13189,23243
13166,23256
13141,23263
13112,23266
12753,23266
12724,23263
12699,23256
12676,23243
12656,23227
12640,23207
12628,23184
12620,23159
12617,23131
12617,22653
12620,22624
12628,22599
12640,22576
12656,22556
12679,22538
12682,22536
12689,22529
12694,22521
12698,22512
12699,22503
12699,22493
12698,22484
12694,22475
12689,22467
12682,22460
12679,22458
12656,22439
12640,22419
12628,22396
12620,22371
12617,22343
12617,21865
12620,21837
12628,21812
12640,21789
12656,21769
12676,21752
12699,21740
12724,21733
12753,21730
13112,21730
13141,21733
" /> 
<polyline style="fill-rule:evenodd;"
points="13928,21733
13953,21740
13976,21752
13996,21769
14013,21789
14025,21812
14033,21837
14035,21865
14035,22343
14033,22371
14025,22396
14013,22419
13996,22439
13974,22458
13971,22460
13964,22467
13959,22475
13955,22484
13953,22493
13953,22503
13955,22512
13959,22521
13964,22529
13971,22536
13974,22538
13996,22556
14013,22576
14025,22599
14033,22624
14035,22653
14035,23131
14033,23159
14025,23184
14013,23207
13996,23227
13976,23243
13953,23256
13928,23263
13900,23266
13540,23266
13512,23263
13487,23256
13464,23243
13444,23227
13427,23207
13415,23184
13407,23159
13405,23131
13405,22653
13407,22624
13415,22599
13427,22576
13444,22556
13466,22538
13469,22536
13476,22529
13481,22521
13485,22512
13487,22503
13487,22493
13485,22484
13481,22475
13476,22467
13469,22460
13466,22458
13444,22439
13427,22419
13415,22396
13407,22371
13405,22343
13405,21865
13407,21837
13415,21812
13427,21789
13444,21769
13464,21752
13487,21740
13512,21733
13540,21730
13900,21730
13928,21733
" /> 
<polyline style="fill-rule:evenodd;"
points="14716,21733
14740,21740
14763,21752
14784,21769
14800,21789
14812,21812
14820,21837
14823,21865
14823,22343
14820,22371
14812,22396
14800,22419
14784,22439
14761,22458
14758,22460
14751,22467
14746,22475
14742,22484
14740,22493
14740,22503
14742,22512
14746,22521
14751,22529
14758,22536
14761,22538
14784,22556
14800,22576
14812,22599
14820,22624
14823,22653
14823,23131
14820,23159
14812,23184
14800,23207
14784,23227
14763,23243
14740,23256
14716,23263
14687,23266
14328,23266
14299,23263
14274,23256
14251,23243
14231,23227
14215,23207
14202,23184
14195,23159
14192,23131
14192,22653
14195,22624
14202,22599
14215,22576
14231,22556
14254,22538
14257,22536
14263,22529
14269,22521
14272,22512
14274,22503
14274,22493
14272,22484
14269,22475
14263,22467
14257,22460
14254,22458
14231,22439
14215,22419
14202,22396
14195,22371
14192,22343
14192,21865
14195,21837
14202,21812
14215,21789
14231,21769
14251,21752
14274,21740
14299,21733
14328,21730
14687,21730
14716,21733
" /> 
<polyline style="fill-rule:evenodd;"
points="15503,21733
15528,21740
15551,21752
15571,21769
15588,21789
15600,21812
15607,21837
15610,21865
15610,22343
15607,22371
15600,22396
15588,22419
15571,22439
15548,22458
15546,22460
15539,22467
15533,22475
15530,22484
15528,22493
15528,22503
15530,22512
15533,22521
15539,22529
15546,22536
15548,22538
15571,22556
15588,22576
15600,22599
15607,22624
15610,22653
15610,23131
15607,23159
15600,23184
15588,23207
15571,23227
15551,23243
15528,23256
15503,23263
15475,23266
15115,23266
15087,23263
15062,23256
15039,23243
15019,23227
15002,23207
14990,23184
14982,23159
14979,23131
14979,22653
14982,22624
14990,22599
15002,22576
15019,22556
15041,22538
15044,22536
15051,22529
15056,22521
15060,22512
15062,22503
15062,22493
15060,22484
15056,22475
15051,22467
15044,22460
15041,22458
15019,22439
15002,22419
14990,22396
14982,22371
14979,22343
14979,21865
14982,21837
14990,21812
15002,21789
15019,21769
15039,21752
15062,21740
15087,21733
15115,21730
15475,21730
15503,21733
" /> 
<polyline style="fill-rule:evenodd;"
points="16290,21733
16315,21740
16338,21752
16358,21769
16375,21789
16387,21812
16395,21837
16398,21865
16398,22343
16395,22371
16387,22396
16375,22419
16358,22439
16336,22458
16333,22460
16326,22467
16321,22475
16317,22484
16315,22493
16315,22503
16317,22512
16321,22521
16326,22529
16333,22536
16336,22538
16358,22556
16375,22576
16387,22599
16395,22624
16398,22653
16398,23131
16395,23159
16387,23184
16375,23207
16358,23227
16338,23243
16315,23256
16290,23263
16262,23266
15902,23266
15874,23263
15849,23256
15826,23243
15806,23227
15789,23207
15777,23184
15770,23159
15767,23131
15767,22653
15770,22624
15777,22599
15789,22576
15806,22556
15829,22538
15831,22536
15838,22529
15844,22521
15847,22512
15849,22503
15849,22493
15847,22484
15844,22475
15838,22467
15831,22460
15829,22458
15806,22439
15789,22419
15777,22396
15770,22371
15767,22343
15767,21865
15770,21837
15777,21812
15789,21789
15806,21769
15826,21752
15849,21740
15874,21733
15902,21730
16262,21730
16290,21733
" /> 
<polyline style="fill-rule:evenodd;"
points="17078,21733
17103,21740
17126,21752
17146,21769
17162,21789
17175,21812
17182,21837
17185,21865
17185,22343
17182,22371
17175,22396
17162,22419
17146,22439
17123,22458
17120,22460
17114,22467
17108,22475
17105,22484
17103,22493
17103,22503
17105,22512
17108,22521
17114,22529
17120,22536
17123,22538
17146,22556
17162,22576
17175,22599
17182,22624
17185,22653
17185,23131
17182,23159
17175,23184
17162,23207
17146,23227
17126,23243
17103,23256
17078,23263
17049,23266
16690,23266
16661,23263
16636,23256
16613,23243
16593,23227
16577,23207
16565,23184
16557,23159
16554,23131
16554,22653
16557,22624
16565,22599
16577,22576
16593,22556
16616,22538
16619,22536
16626,22529
16631,22521
16635,22512
16636,22503
16636,22493
16635,22484
16631,22475
16626,22467
16619,22460
16616,22458
16593,22439
16577,22419
16565,22396
16557,22371
16554,22343
16554,21865
16557,21837
16565,21812
16577,21789
16593,21769
16613,21752
16636,21740
16661,21733
16690,21730
17049,21730
17078,21733
" /> 
<polyline style="fill-rule:evenodd;"
points="17865,21733
17890,21740
17913,21752
17933,21769
17950,21789
17962,21812
17970,21837
17972,21865
17972,22343
17970,22371
17962,22396
17950,22419
17933,22439
17911,22458
17908,22460
17901,22467
17896,22475
17892,22484
17890,22493
17890,22503
17892,22512
17896,22521
17901,22529
17908,22536
17911,22538
17933,22556
17950,22576
17962,22599
17970,22624
17972,22653
17972,23131
17970,23159
17962,23184
17950,23207
17933,23227
17913,23243
17890,23256
17865,23263
17837,23266
17477,23266
17449,23263
17424,23256
17401,23243
17381,23227
17364,23207
17352,23184
17344,23159
17342,23131
17342,22653
17344,22624
17352,22599
17364,22576
17381,22556
17403,22538
17406,22536
17413,22529
17418,22521
17422,22512
17424,22503
17424,22493
17422,22484
17418,22475
17413,22467
17406,22460
17403,22458
17381,22439
17364,22419
17352,22396
17344,22371
17342,22343
17342,21865
17344,21837
17352,21812
17364,21789
17381,21769
17401,21752
17424,21740
17449,21733
17477,21730
17837,21730
17865,21733
" /> 
<polyline style="fill-rule:evenodd;"
points="18653,21733
18677,21740
18700,21752
18721,21769
18737,21789
18749,21812
18757,21837
18760,21865
18760,22343
18757,22371
18749,22396
18737,22419
18721,22439
18698,22458
18695,22460
18688,22467
18683,22475
18679,22484
18677,22493
18677,22503
18679,22512
18683,22521
18688,22529
18695,22536
18698,22538
18721,22556
18737,22576
18749,22599
18757,22624
18760,22653
18760,23131
18757,23159
18749,23184
18737,23207
18721,23227
18700,23243
18677,23256
18653,23263
18624,23266
18265,23266
18236,23263
18211,23256
18188,23243
18168,23227
18152,23207
18139,23184
18132,23159
18129,23131
18129,22653
18132,22624
18139,22599
18152,22576
18168,22556
18191,22538
18194,22536
18200,22529
18206,22521
18209,22512
18211,22503
18211,22493
18209,22484
18206,22475
18200,22467
18194,22460
18191,22458
18168,22439
18152,22419
18139,22396
18132,22371
18129,22343
18129,21865
18132,21837
18139,21812
18152,21789
18168,21769
18188,21752
18211,21740
18236,21733
18265,21730
18624,21730
18653,21733
" /> 
<polyline style="fill-rule:evenodd;"
points="19440,21733
19465,21740
19488,21752
19508,21769
19525,21789
19537,21812
19544,21837
19547,21865
19547,22343
19544,22371
19537,22396
19525,22419
19508,22439
19485,22458
19483,22460
19476,22467
19470,22475
19467,22484
19465,22493
19465,22503
19467,22512
19470,22521
19476,22529
19483,22536
19485,22538
19508,22556
19525,22576
19537,22599
19544,22624
19547,22653
19547,23131
19544,23159
19537,23184
19525,23207
19508,23227
19488,23243
19465,23256
19440,23263
19412,23266
19052,23266
19024,23263
18999,23256
18976,23243
18956,23227
18939,23207
18927,23184
18919,23159
18916,23131
18916,22653
18919,22624
18927,22599
18939,22576
18956,22556
18978,22538
18981,22536
18988,22529
18993,22521
18997,22512
18999,22503
18999,22493
18997,22484
18993,22475
18988,22467
18981,22460
18978,22458
18956,22439
18939,22419
18927,22396
18919,22371
18916,22343
18916,21865
18919,21837
18927,21812
18939,21789
18956,21769
18976,21752
18999,21740
19024,21733
19052,21730
19412,21730
19440,21733
" /> 
<polyline style="fill-rule:evenodd;"
points="21015,21733
21040,21740
21063,21752
21083,21769
21099,21789
21112,21812
21119,21837
21122,21865
21122,22343
21119,22371
21112,22396
21099,22419
21083,22439
21060,22458
21057,22460
21051,22467
21045,22475
21042,22484
21040,22493
21040,22503
21042,22512
21045,22521
21051,22529
21057,22536
21060,22538
21083,22556
21099,22576
21112,22599
21119,22624
21122,22653
21122,23131
21119,23159
21112,23184
21099,23207
21083,23227
21063,23243
21040,23256
21015,23263
20986,23266
20627,23266
20598,23263
20573,23256
20551,23243
20530,23227
20514,23207
20502,23184
20494,23159
20491,23131
20491,22653
20494,22624
20502,22599
20514,22576
20530,22556
20553,22538
20556,22536
20563,22529
20568,22521
20572,22512
20574,22503
20574,22493
20572,22484
20568,22475
20563,22467
20556,22460
20553,22458
20530,22439
20514,22419
20502,22396
20494,22371
20491,22343
20491,21865
20494,21837
20502,21812
20514,21789
20530,21769
20551,21752
20573,21740
20598,21733
20627,21730
20986,21730
21015,21733
" /> 
<polyline style="fill-rule:evenodd;"
points="21802,21733
21827,21740
21850,21752
21870,21769
21887,21789
21899,21812
21907,21837
21909,21865
21909,22343
21907,22371
21899,22396
21887,22419
21870,22439
21848,22458
21845,22460
21838,22467
21833,22475
21829,22484
21827,22493
21827,22503
21829,22512
21833,22521
21838,22529
21845,22536
21848,22538
21870,22556
21887,22576
21899,22599
21907,22624
21909,22653
21909,23131
21907,23159
21899,23184
21887,23207
21870,23227
21850,23243
21827,23256
21802,23263
21774,23266
21414,23266
21386,23263
21361,23256
21338,23243
21318,23227
21301,23207
21289,23184
21281,23159
21279,23131
21279,22653
21281,22624
21289,22599
21301,22576
21318,22556
21340,22538
21343,22536
21350,22529
21355,22521
21359,22512
21361,22503
21361,22493
21359,22484
21355,22475
21350,22467
21343,22460
21340,22458
21318,22439
21301,22419
21289,22396
21281,22371
21279,22343
21279,21865
21281,21837
21289,21812
21301,21789
21318,21769
21338,21752
21361,21740
21386,21733
21414,21730
21774,21730
21802,21733
" /> 
<polyline style="fill-rule:evenodd;"
points="22590,21733
22615,21740
22637,21752
22658,21769
22674,21789
22686,21812
22694,21837
22697,21865
22697,22343
22694,22371
22686,22396
22674,22419
22658,22439
22635,22458
22632,22460
22625,22467
22620,22475
22616,22484
22614,22493
22614,22503
22616,22512
22620,22521
22625,22529
22632,22536
22635,22538
22658,22556
22674,22576
22686,22599
22694,22624
22697,22653
22697,23131
22694,23159
22686,23184
22674,23207
22658,23227
22637,23243
22615,23256
22590,23263
22561,23266
22202,23266
22173,23263
22148,23256
22125,23243
22105,23227
22089,23207
22076,23184
22069,23159
22066,23131
22066,22653
22069,22624
22076,22599
22089,22576
22105,22556
22128,22538
22131,22536
22137,22529
22143,22521
22146,22512
22148,22503
22148,22493
22146,22484
22143,22475
22137,22467
22131,22460
22128,22458
22105,22439
22089,22419
22076,22396
22069,22371
22066,22343
22066,21865
22069,21837
22076,21812
22089,21789
22105,21769
22125,21752
22148,21740
22173,21733
22202,21730
22561,21730
22590,21733
" /> 
<polyline style="fill-rule:evenodd;"
points="11566,21733
11591,21740
11614,21752
11634,21769
11650,21789
11663,21812
11670,21837
11673,21865
11673,22343
11670,22371
11663,22396
11650,22419
11634,22439
11611,22458
11609,22460
11602,22467
11596,22475
11593,22484
11591,22493
11591,22503
11593,22512
11596,22521
11602,22529
11609,22536
11611,22538
11634,22556
11650,22576
11663,22599
11670,22624
11673,22653
11673,23131
11670,23159
11663,23184
11650,23207
11634,23227
11614,23243
11591,23256
11566,23263
11538,23266
11178,23266
11150,23263
11125,23256
11102,23243
11082,23227
11065,23207
11053,23184
11045,23159
11042,23131
11042,22653
11045,22624
11053,22599
11065,22576
11082,22556
11104,22538
11107,22536
11114,22529
11119,22521
11123,22512
11125,22503
11125,22493
11123,22484
11119,22475
11114,22467
11107,22460
11104,22458
11082,22439
11065,22419
11053,22396
11045,22371
11042,22343
11042,21865
11045,21837
11053,21812
11065,21789
11082,21769
11102,21752
11125,21740
11150,21733
11178,21730
11538,21730
11566,21733
" /> 
<polyline style="fill-rule:evenodd;"
points="24164,21733
24189,21740
24212,21752
24232,21769
24249,21789
24261,21812
24269,21837
24272,21865
24272,22343
24269,22371
24261,22396
24249,22419
24232,22439
24210,22458
24207,22460
24200,22467
24195,22475
24191,22484
24189,22493
24189,22503
24191,22512
24195,22521
24200,22529
24207,22536
24210,22538
24232,22556
24249,22576
24261,22599
24269,22624
24272,22653
24272,23131
24269,23159
24261,23184
24249,23207
24232,23227
24212,23243
24189,23256
24164,23263
24136,23266
23776,23266
23748,23263
23723,23256
23700,23243
23680,23227
23663,23207
23651,23184
23644,23159
23641,23131
23641,22653
23644,22624
23651,22599
23663,22576
23680,22556
23703,22538
23705,22536
23712,22529
23718,22521
23721,22512
23723,22503
23723,22493
23721,22484
23718,22475
23712,22467
23705,22460
23703,22458
23680,22439
23663,22419
23651,22396
23644,22371
23641,22343
23641,21865
23644,21837
23651,21812
23663,21789
23680,21769
23700,21752
23723,21740
23748,21733
23776,21730
24136,21730
24164,21733
" /> 
<polyline style="fill-rule:evenodd;"
points="24952,21733
24977,21740
25000,21752
25020,21769
25036,21789
25049,21812
25056,21837
25059,21865
25059,22343
25056,22371
25049,22396
25036,22419
25020,22439
24997,22458
24994,22460
24988,22467
24982,22475
24979,22484
24977,22493
24977,22503
24979,22512
24982,22521
24988,22529
24994,22536
24997,22538
25020,22556
25036,22576
25049,22599
25056,22624
25059,22653
25059,23131
25056,23159
25049,23184
25036,23207
25020,23227
25000,23243
24977,23256
24952,23263
24923,23266
24564,23266
24535,23263
24510,23256
24488,23243
24467,23227
24451,23207
24439,23184
24431,23159
24428,23131
24428,22653
24431,22624
24439,22599
24451,22576
24467,22556
24490,22538
24493,22536
24500,22529
24505,22521
24509,22512
24511,22503
24511,22493
24509,22484
24505,22475
24500,22467
24493,22460
24490,22458
24467,22439
24451,22419
24439,22396
24431,22371
24428,22343
24428,21865
24431,21837
24439,21812
24451,21789
24467,21769
24488,21752
24510,21740
24535,21733
24564,21730
24923,21730
24952,21733
" /> 
<polyline style="fill-rule:evenodd;"
points="25739,21733
25764,21740
25787,21752
25807,21769
25824,21789
25836,21812
25844,21837
25846,21865
25846,22343
25844,22371
25836,22396
25824,22419
25807,22439
25785,22458
25782,22460
25775,22467
25770,22475
25766,22484
25764,22493
25764,22503
25766,22512
25770,22521
25775,22529
25782,22536
25785,22538
25807,22556
25824,22576
25836,22599
25844,22624
25846,22653
25846,23131
25844,23159
25836,23184
25824,23207
25807,23227
25787,23243
25764,23256
25739,23263
25711,23266
25351,23266
25323,23263
25298,23256
25275,23243
25255,23227
25238,23207
25226,23184
25218,23159
25216,23131
25216,22653
25218,22624
25226,22599
25238,22576
25255,22556
25277,22538
25280,22536
25287,22529
25292,22521
25296,22512
25298,22503
25298,22493
25296,22484
25292,22475
25287,22467
25280,22460
25277,22458
25255,22439
25238,22419
25226,22396
25218,22371
25216,22343
25216,21865
25218,21837
25226,21812
25238,21789
25255,21769
25275,21752
25298,21740
25323,21733
25351,21730
25711,21730
25739,21733
" /> 
<polyline style="fill-rule:evenodd;"
points="10779,21733
10803,21740
10826,21752
10847,21769
10863,21789
10875,21812
10883,21837
10886,21865
10886,22343
10883,22371
10875,22396
10863,22419
10847,22439
10824,22458
10821,22460
10814,22467
10809,22475
10805,22484
10803,22493
10803,22503
10805,22512
10809,22521
10814,22529
10821,22536
10824,22538
10847,22556
10863,22576
10875,22599
10883,22624
10886,22653
10886,23131
10883,23159
10875,23184
10863,23207
10847,23227
10826,23243
10803,23256
10779,23263
10750,23266
10391,23266
10362,23263
10337,23256
10314,23243
10294,23227
10278,23207
10265,23184
10258,23159
10255,23131
10255,22653
10258,22624
10265,22599
10278,22576
10294,22556
10317,22538
10320,22536
10326,22529
10332,22521
10335,22512
10337,22503
10337,22493
10335,22484
10332,22475
10326,22467
10320,22460
10317,22458
10294,22439
10278,22419
10265,22396
10258,22371
10255,22343
10255,21865
10258,21837
10265,21812
10278,21789
10294,21769
10314,21752
10337,21740
10362,21733
10391,21730
10750,21730
10779,21733
" /> 
<polyline style="fill-rule:evenodd;"
points="20227,21733
20252,21740
20275,21752
20295,21769
20312,21789
20324,21812
20332,21837
20335,21865
20335,22343
20332,22371
20324,22396
20312,22419
20295,22439
20273,22458
20270,22460
20263,22467
20258,22475
20254,22484
20252,22493
20252,22503
20254,22512
20258,22521
20263,22529
20270,22536
20273,22538
20295,22556
20312,22576
20324,22599
20332,22624
20335,22653
20335,23131
20332,23159
20324,23184
20312,23207
20295,23227
20275,23243
20252,23256
20227,23263
20199,23266
19839,23266
19811,23263
19786,23256
19763,23243
19743,23227
19726,23207
19714,23184
19707,23159
19704,23131
19704,22653
19707,22624
19714,22599
19726,22576
19743,22556
19766,22538
19768,22536
19775,22529
19781,22521
19784,22512
19786,22503
19786,22493
19784,22484
19781,22475
19775,22467
19768,22460
19766,22458
19743,22439
19726,22419
19714,22396
19707,22371
19704,22343
19704,21865
19707,21837
19714,21812
19726,21789
19743,21769
19763,21752
19786,21740
19811,21733
19839,21730
20199,21730
20227,21733
" /> 
<polyline style="fill-rule:evenodd;"
points="12353,21733
12378,21740
12401,21752
12421,21769
12438,21789
12450,21812
12458,21837
12461,21865
12461,22343
12458,22371
12450,22396
12438,22419
12421,22439
12399,22458
12396,22460
12389,22467
12384,22475
12380,22484
12378,22493
12378,22503
12380,22512
12384,22521
12389,22529
12396,22536
12399,22538
12421,22556
12438,22576
12450,22599
12458,22624
12461,22653
12461,23131
12458,23159
12450,23184
12438,23207
12421,23227
12401,23243
12378,23256
12353,23263
12325,23266
11965,23266
11937,23263
11912,23256
11889,23243
11869,23227
11852,23207
11840,23184
11833,23159
11830,23131
11830,22653
11833,22624
11840,22599
11852,22576
11869,22556
11892,22538
11894,22536
11901,22529
11907,22521
11910,22512
11912,22503
11912,22493
11910,22484
11907,22475
11901,22467
11894,22460
11892,22458
11869,22439
11852,22419
11840,22396
11833,22371
11830,22343
11830,21865
11833,21837
11840,21812
11852,21789
11869,21769
11889,21752
11912,21740
11937,21733
11965,21730
12325,21730
12353,21733
" /> 
<polyline style="fill-rule:evenodd;"
points="28388,21727
28420,21737
28436,21742
28460,21755
28480,21766
28480,21766
28480,21766
28509,21789
28519,21798
28551,21837
28551,21837
28575,21881
28577,21887
28590,21930
28594,21967
28594,22209
28590,22247
28580,22279
28575,22295
28554,22334
28551,22339
28519,22378
28480,22410
28480,22410
28436,22434
28420,22439
28388,22449
28337,22454
28287,22449
28255,22439
28239,22434
28194,22410
28194,22410
28155,22378
28123,22339
28107,22310
28099,22295
28094,22279
28085,22247
28081,22209
28081,21967
28085,21930
28099,21881
28099,21881
28123,21837
28123,21837
28150,21804
28155,21798
28155,21798
28194,21766
28208,21758
28239,21742
28255,21737
28287,21727
28337,21722
28388,21727
" /> 
<polyline style="fill-rule:evenodd;"
points="9400,21727
9432,21737
9448,21742
9472,21755
9493,21766
9493,21766
9493,21766
9522,21789
9532,21798
9564,21837
9564,21837
9588,21881
9590,21887
9602,21930
9606,21967
9606,22209
9602,22247
9593,22279
9588,22295
9567,22334
9564,22339
9532,22378
9493,22410
9493,22410
9448,22434
9432,22439
9400,22449
9350,22454
9300,22449
9267,22439
9251,22434
9207,22410
9207,22410
9168,22378
9136,22339
9120,22310
9112,22295
9107,22279
9097,22247
9094,22209
9094,21967
9097,21930
9112,21881
9112,21881
9136,21837
9136,21837
9163,21804
9168,21798
9168,21798
9207,21766
9221,21758
9251,21742
9267,21737
9300,21727
9350,21722
9400,21727
" /> 
<polyline style="fill-rule:evenodd;"
points="32638,21727
32670,21737
32686,21742
32710,21755
32730,21766
32730,21766
32730,21766
32759,21789
32769,21798
32801,21837
32801,21837
32825,21881
32827,21887
32840,21930
32844,21967
32844,22209
32840,22247
32830,22279
32825,22295
32804,22334
32801,22339
32769,22378
32730,22410
32730,22410
32686,22434
32670,22439
32638,22449
32587,22454
32537,22449
32505,22439
32489,22434
32444,22410
32444,22410
32405,22378
32373,22339
32357,22310
32349,22295
32344,22279
32335,22247
32331,22209
32331,21967
32335,21930
32349,21881
32349,21881
32373,21837
32373,21837
32400,21804
32405,21798
32405,21798
32444,21766
32458,21758
32489,21742
32505,21737
32537,21727
32587,21722
32638,21727
" /> 
<polyline style="fill-rule:evenodd;"
points="31850,21727
31882,21737
31898,21742
31922,21755
31943,21766
31943,21766
31943,21766
31972,21789
31982,21798
32014,21837
32014,21837
32038,21881
32040,21887
32052,21930
32056,21967
32056,22209
32052,22247
32043,22279
32038,22295
32017,22334
32014,22339
31982,22378
31943,22410
31943,22410
31898,22434
31882,22439
31850,22449
31800,22454
31750,22449
31717,22439
31701,22434
31657,22410
31657,22410
31618,22378
31586,22339
31570,22310
31562,22295
31557,22279
31547,22247
31544,22209
31544,21967
31547,21930
31562,21881
31562,21881
31586,21837
31586,21837
31613,21804
31618,21798
31618,21798
31657,21766
31671,21758
31701,21742
31717,21737
31750,21727
31800,21722
31850,21727
" /> 
<polyline style="fill-rule:evenodd;"
points="29175,21727
29207,21737
29223,21742
29247,21755
29268,21766
29268,21766
29268,21766
29297,21789
29307,21798
29339,21837
29339,21837
29363,21881
29365,21887
29377,21930
29381,21967
29381,22209
29377,22247
29368,22279
29363,22295
29342,22334
29339,22339
29307,22378
29268,22410
29268,22410
29223,22434
29207,22439
29175,22449
29125,22454
29074,22449
29042,22439
29026,22434
28982,22410
28982,22410
28943,22378
28911,22339
28895,22310
28887,22295
28882,22279
28872,22247
28868,22209
28868,21967
28872,21930
28887,21881
28887,21881
28910,21837
28911,21837
28937,21804
28943,21798
28943,21798
28982,21766
28995,21758
29026,21742
29042,21737
29074,21727
29125,21722
29175,21727
" /> 
<polyline style="fill-rule:evenodd;"
points="6688,21727
6720,21737
6736,21742
6760,21755
6780,21766
6780,21766
6780,21766
6809,21789
6819,21798
6851,21837
6851,21837
6875,21881
6877,21887
6890,21930
6894,21967
6894,22209
6890,22247
6880,22279
6875,22295
6854,22334
6851,22339
6819,22378
6780,22410
6780,22410
6736,22434
6720,22439
6688,22449
6637,22454
6587,22449
6555,22439
6539,22434
6494,22410
6494,22410
6455,22378
6423,22339
6407,22310
6399,22295
6394,22279
6385,22247
6381,22209
6381,21967
6385,21930
6399,21881
6399,21881
6423,21837
6423,21837
6450,21804
6455,21798
6455,21798
6494,21766
6508,21758
6539,21742
6555,21737
6587,21727
6637,21722
6688,21727
" /> 
<polyline style="fill-rule:evenodd;"
points="27600,21727
27632,21737
27648,21742
27672,21755
27693,21766
27693,21766
27693,21766
27722,21789
27732,21798
27764,21837
27764,21837
27788,21881
27790,21887
27802,21930
27806,21967
27806,22209
27802,22247
27793,22279
27788,22295
27767,22334
27764,22339
27732,22378
27693,22410
27693,22410
27648,22434
27632,22439
27600,22449
27550,22454
27500,22449
27467,22439
27451,22434
27407,22410
27407,22410
27368,22378
27336,22339
27320,22310
27312,22295
27307,22279
27297,22247
27294,22209
27294,21967
27297,21930
27312,21881
27312,21881
27336,21837
27336,21837
27363,21804
27368,21798
27368,21798
27407,21766
27421,21758
27451,21742
27467,21737
27500,21727
27550,21722
27600,21727
" /> 
<polyline style="fill-rule:evenodd;"
points="5900,21727
5932,21737
5948,21742
5972,21755
5993,21766
5993,21766
5993,21766
6022,21789
6032,21798
6064,21837
6064,21837
6088,21881
6090,21887
6102,21930
6106,21967
6106,22209
6102,22247
6093,22279
6088,22295
6067,22334
6064,22339
6032,22378
5993,22410
5993,22410
5948,22434
5932,22439
5900,22449
5850,22454
5800,22449
5767,22439
5751,22434
5707,22410
5707,22410
5668,22378
5636,22339
5620,22310
5612,22295
5607,22279
5597,22247
5594,22209
5594,21967
5597,21930
5612,21881
5612,21881
5636,21837
5636,21837
5663,21804
5668,21798
5668,21798
5707,21766
5721,21758
5751,21742
5767,21737
5800,21727
5850,21722
5900,21727
" /> 
<polyline style="fill-rule:evenodd;"
points="5256,21725
5271,21730
5284,21737
5296,21747
5305,21758
5313,21772
5317,21786
5319,21804
5319,22372
5317,22390
5313,22404
5305,22418
5296,22430
5284,22439
5271,22446
5256,22451
5238,22453
4887,22453
4869,22451
4854,22446
4841,22439
4829,22430
4820,22418
4812,22404
4808,22390
4806,22372
4806,21804
4808,21786
4812,21772
4820,21758
4829,21747
4841,21737
4854,21730
4869,21725
4887,21724
5238,21724
5256,21725
" /> 
<polyline style="fill-rule:evenodd;"
points="26956,21725
26971,21730
26984,21737
26996,21747
27005,21758
27013,21772
27017,21786
27019,21804
27019,22372
27017,22390
27013,22404
27005,22418
26996,22430
26984,22439
26971,22446
26956,22451
26938,22453
26587,22453
26569,22451
26554,22446
26541,22439
26529,22430
26520,22418
26512,22404
26508,22390
26506,22372
26506,21804
26508,21786
26512,21772
26520,21758
26529,21747
26541,21737
26554,21730
26569,21725
26587,21724
26938,21724
26956,21725
" /> 
<polyline style="fill-rule:evenodd;"
points="8756,21725
8771,21730
8784,21737
8796,21747
8805,21758
8813,21772
8817,21786
8819,21804
8819,22372
8817,22390
8813,22404
8805,22418
8796,22430
8784,22439
8771,22446
8756,22451
8738,22453
8387,22453
8369,22451
8354,22446
8341,22439
8329,22430
8320,22418
8312,22404
8308,22390
8306,22372
8306,21804
8308,21786
8312,21772
8320,21758
8329,21747
8341,21737
8354,21730
8369,21725
8387,21724
8738,21724
8756,21725
" /> 
<polyline style="fill-rule:evenodd;"
points="31206,21725
31221,21730
31234,21737
31246,21747
31255,21758
31263,21772
31267,21786
31269,21804
31269,22372
31267,22390
31263,22404
31255,22418
31246,22430
31234,22439
31221,22446
31206,22451
31188,22453
30837,22453
30819,22451
30804,22446
30791,22439
30779,22430
30770,22418
30762,22404
30758,22390
30756,22372
30756,21804
30758,21786
30762,21772
30770,21758
30779,21747
30791,21737
30804,21730
30819,21725
30837,21724
31188,21724
31206,21725
" /> 
<polyline style="fill-rule:evenodd;"
points="33017,20281
33059,20289
33087,20301
33137,20322
33208,20369
33269,20429
33269,20429
33269,20429
33311,20493
33316,20500
33349,20579
33366,20663
33366,20748
33349,20832
33316,20911
33269,20982
33208,21042
33137,21090
33087,21111
33059,21123
33017,21131
32975,21139
32889,21139
32848,21131
32806,21123
32778,21111
32727,21090
32656,21042
32595,20982
32548,20911
32515,20832
32499,20748
32499,20663
32515,20579
32548,20500
32553,20493
32595,20429
32595,20429
32595,20429
32656,20369
32727,20322
32778,20301
32806,20289
32848,20281
32889,20272
32975,20272
33017,20281
" /> 
<polyline style="fill-rule:evenodd;"
points="34019,19859
34085,19887
34145,19927
34196,19977
34236,20037
34263,20103
34277,20174
34277,20246
34263,20316
34236,20382
34196,20442
34145,20493
34085,20533
34019,20560
33948,20574
33877,20574
33806,20560
33740,20533
33680,20493
33629,20442
33589,20382
33562,20316
33548,20246
33548,20174
33562,20103
33589,20037
33629,19977
33680,19927
33740,19887
33806,19859
33877,19845
33948,19845
34019,19859
" /> 
<polyline style="fill-rule:evenodd;"
points="35220,19945
35256,19960
35288,19981
35316,20009
35337,20041
35352,20077
35360,20115
35360,20154
35352,20192
35337,20228
35316,20260
35288,20288
35256,20309
35220,20324
35182,20332
35143,20332
35105,20324
35069,20309
35037,20288
35009,20260
34988,20228
34973,20192
34965,20154
34965,20115
34973,20077
34988,20041
35009,20009
35037,19981
35069,19960
35105,19945
35143,19937
35182,19937
35220,19945
" /> 
<polyline style="fill-rule:evenodd;"
points="32916,18610
32921,18610
32928,18610
32937,18611
32970,18617
32978,18620
33009,18633
33017,18637
33045,18656
33052,18661
33076,18685
33081,18692
33100,18720
33104,18728
33117,18759
33120,18768
33126,18801
33127,18809
33127,18817
33127,18821
33128,18829
33128,19040
33128,19047
33126,19052
33124,19058
33122,19067
33122,19077
33124,19086
33127,19095
33128,19096
33128,19581
33125,19585
33122,19595
33122,19604
33122,19614
33125,19621
33125,19621
33128,19629
33128,19636
33128,19847
33127,19855
33127,19860
33127,19867
33126,19876
33120,19909
33117,19917
33104,19948
33100,19956
33081,19984
33076,19991
33052,20015
33045,20020
33017,20039
33009,20043
32978,20056
32970,20059
32937,20065
32928,20066
32921,20066
32916,20066
32909,20067
32716,20067
32709,20066
32704,20066
32697,20066
32688,20065
32655,20059
32647,20056
32616,20043
32608,20039
32580,20020
32573,20015
32549,19991
32544,19984
32525,19956
32521,19948
32508,19917
32505,19909
32499,19876
32498,19867
32498,19860
32498,19855
32497,19847
32497,19636
32497,19629
32499,19624
32501,19619
32503,19609
32503,19599
32501,19590
32498,19581
32497,19580
32497,19096
32500,19091
32502,19082
32503,19072
32502,19062
32500,19055
32500,19055
32497,19047
32497,19040
32497,18829
32498,18821
32498,18817
32498,18809
32499,18801
32505,18768
32508,18759
32521,18728
32525,18720
32544,18692
32549,18685
32573,18661
32580,18656
32608,18637
32616,18633
32647,18620
32655,18617
32688,18611
32697,18610
32704,18610
32709,18610
32716,18609
32909,18609
32916,18610
" /> 
<polyline style="fill-rule:evenodd;"
points="3046,18995
3071,18997
3103,19007
3119,19012
3159,19033
3164,19036
3203,19068
3235,19107
3235,19107
3259,19151
3259,19151
3273,19200
3278,19250
3273,19300
3264,19332
3259,19348
3238,19388
3235,19393
3203,19432
3164,19464
3164,19464
3119,19488
3103,19493
3071,19502
3046,19505
3033,19506
2792,19506
2779,19505
2754,19502
2722,19493
2706,19488
2661,19464
2661,19464
2622,19432
2590,19393
2587,19388
2566,19348
2561,19332
2552,19300
2547,19250
2552,19200
2566,19151
2566,19151
2590,19107
2590,19107
2622,19068
2661,19036
2666,19033
2706,19012
2722,19007
2754,18997
2779,18995
2792,18994
3033,18994
3046,18995
" /> 
<polyline style="fill-rule:evenodd;"
points="34019,18088
34085,18115
34145,18155
34196,18206
34236,18265
34263,18332
34277,18402
34277,18474
34263,18544
34236,18611
34196,18670
34145,18721
34085,18761
34019,18789
33948,18803
33877,18803
33806,18789
33740,18761
33680,18721
33629,18670
33589,18611
33562,18544
33548,18474
33548,18402
33562,18332
33589,18265
33629,18206
33680,18155
33740,18115
33806,18088
33877,18074
33948,18074
34019,18088
" /> 
<polyline style="fill-rule:evenodd;"
points="3046,18207
3071,18210
3103,18220
3119,18225
3156,18244
3164,18248
3203,18280
3235,18319
3235,18319
3259,18364
3259,18364
3273,18412
3278,18462
3273,18513
3267,18535
3259,18561
3241,18595
3235,18606
3203,18645
3164,18677
3164,18677
3119,18700
3103,18705
3071,18715
3046,18718
3033,18719
2792,18719
2779,18718
2754,18715
2722,18705
2706,18700
2661,18677
2661,18677
2622,18645
2590,18606
2584,18595
2566,18561
2558,18535
2552,18513
2547,18462
2552,18412
2566,18364
2566,18364
2590,18319
2590,18319
2622,18280
2661,18248
2669,18244
2706,18225
2722,18220
2754,18210
2779,18207
2792,18206
3033,18206
3046,18207
" /> 
<polyline style="fill-rule:evenodd;"
points="35220,18252
35256,18267
35288,18288
35316,18316
35337,18348
35352,18384
35360,18422
35360,18461
35352,18499
35337,18535
35316,18567
35288,18595
35256,18616
35220,18631
35182,18639
35143,18639
35105,18631
35069,18616
35037,18595
35009,18567
34988,18535
34973,18499
34965,18461
34965,18422
34973,18384
34988,18348
35009,18316
35037,18288
35069,18267
35105,18252
35143,18244
35182,18244
35220,18252
" /> 
<polyline style="fill-rule:evenodd;"
points="33017,17521
33059,17529
33087,17541
33137,17562
33138,17562
33160,17577
33208,17609
33269,17670
33269,17670
33269,17670
33306,17725
33316,17741
33330,17774
33349,17820
33366,17903
33366,17989
33349,18072
33343,18088
33316,18151
33316,18151
33280,18206
33269,18222
33208,18283
33208,18283
33208,18283
33159,18316
33137,18330
33094,18348
33059,18363
33017,18371
32975,18379
32889,18379
32848,18371
32806,18363
32771,18348
32727,18330
32706,18316
32656,18283
32656,18283
32656,18283
32595,18222
32585,18206
32548,18151
32548,18151
32522,18088
32515,18072
32499,17989
32499,17903
32515,17820
32534,17774
32548,17741
32558,17725
32595,17670
32595,17670
32595,17670
32656,17609
32705,17577
32727,17562
32727,17562
32778,17541
32806,17529
32848,17521
32889,17512
32975,17512
33017,17521
" /> 
<polyline style="fill-rule:evenodd;"
points="3046,17420
3071,17423
3103,17432
3119,17437
3159,17458
3164,17461
3203,17493
3235,17532
3235,17532
3259,17577
3259,17577
3273,17625
3278,17675
3273,17725
3269,17741
3259,17774
3238,17813
3235,17818
3203,17857
3164,17889
3164,17889
3119,17913
3103,17918
3071,17928
3046,17930
3033,17931
2792,17931
2779,17930
2754,17928
2722,17918
2706,17913
2661,17889
2661,17889
2622,17857
2590,17818
2587,17813
2566,17774
2556,17741
2552,17725
2547,17675
2552,17625
2566,17577
2566,17577
2590,17532
2590,17532
2622,17493
2661,17461
2666,17458
2706,17437
2722,17432
2754,17423
2779,17420
2792,17419
3033,17419
3046,17420
" /> 
<polyline style="fill-rule:evenodd;"
points="3046,16633
3071,16635
3103,16645
3119,16650
3159,16671
3164,16674
3203,16706
3235,16745
3235,16745
3259,16789
3259,16789
3273,16837
3278,16888
3273,16938
3264,16970
3259,16986
3238,17026
3235,17031
3203,17070
3164,17102
3164,17102
3119,17126
3103,17131
3071,17140
3046,17143
3033,17144
2792,17144
2779,17143
2754,17140
2722,17131
2706,17126
2661,17102
2661,17102
2622,17070
2590,17031
2587,17026
2566,16986
2561,16970
2552,16938
2547,16888
2552,16837
2566,16789
2566,16789
2590,16745
2590,16745
2622,16706
2661,16674
2666,16671
2706,16650
2722,16645
2754,16635
2779,16633
2792,16631
3033,16631
3046,16633
" /> 
<polyline style="fill-rule:evenodd;"
points="34466,15766
34518,15777
34614,15817
34683,15862
34702,15875
34776,15949
34776,15949
34834,16036
34874,16133
34894,16236
34894,16340
34874,16443
34834,16540
34776,16627
34776,16627
34702,16701
34702,16701
34614,16759
34518,16800
34466,16810
34415,16820
34310,16820
34259,16810
34207,16800
34111,16759
34023,16701
34023,16701
33949,16627
33949,16627
33891,16540
33851,16443
33831,16340
33831,16236
33851,16133
33891,16036
33949,15949
33949,15949
34023,15875
34042,15862
34111,15817
34207,15777
34259,15766
34310,15756
34415,15756
34466,15766
" /> 
<polyline style="fill-rule:evenodd;"
points="3046,15845
3071,15848
3103,15857
3119,15862
3143,15875
3164,15886
3203,15918
3235,15957
3235,15957
3259,16002
3259,16002
3273,16050
3278,16100
3273,16151
3264,16183
3259,16199
3239,16236
3235,16243
3203,16282
3164,16314
3164,16314
3119,16338
3103,16343
3071,16353
3046,16355
3033,16357
2792,16357
2779,16355
2754,16353
2722,16343
2706,16338
2661,16314
2661,16314
2622,16282
2590,16243
2586,16236
2566,16199
2561,16183
2552,16151
2547,16100
2552,16050
2566,16002
2566,16002
2590,15957
2590,15957
2622,15918
2661,15886
2682,15875
2706,15862
2722,15857
2754,15848
2779,15845
2792,15844
3033,15844
3046,15845
" /> 
<polyline style="fill-rule:evenodd;"
points="3046,15058
3071,15060
3103,15070
3119,15075
3159,15096
3164,15099
3203,15131
3235,15170
3235,15170
3259,15214
3259,15214
3273,15263
3278,15313
3273,15363
3264,15395
3259,15411
3238,15451
3235,15456
3203,15495
3164,15527
3164,15527
3119,15551
3103,15556
3071,15565
3046,15568
3033,15569
2792,15569
2779,15568
2754,15565
2722,15556
2706,15551
2661,15527
2661,15527
2622,15495
2590,15456
2587,15451
2566,15411
2561,15395
2552,15363
2547,15313
2552,15263
2566,15214
2566,15214
2590,15170
2590,15170
2622,15131
2661,15099
2666,15096
2706,15075
2722,15070
2754,15060
2779,15058
2792,15057
3033,15057
3046,15058
" /> 
<polyline style="fill-rule:evenodd;"
points="34400,13963
34468,13977
34564,14017
34651,14075
34652,14075
34726,14149
34726,14149
34784,14236
34824,14333
34844,14436
34844,14540
34824,14643
34784,14740
34726,14827
34726,14827
34652,14901
34652,14901
34564,14959
34468,15000
34416,15010
34365,15020
34260,15020
34209,15010
34157,15000
34061,14959
33973,14901
33973,14901
33899,14827
33899,14827
33841,14740
33801,14643
33781,14540
33781,14436
33801,14333
33841,14236
33899,14149
33899,14149
33973,14075
33974,14075
34061,14017
34157,13977
34225,13963
34260,13956
34365,13956
34400,13963
" /> 
<polyline style="fill-rule:evenodd;"
points="3046,14270
3071,14273
3103,14283
3119,14288
3159,14309
3164,14311
3203,14343
3235,14382
3235,14382
3259,14427
3259,14427
3273,14475
3278,14525
3273,14576
3264,14608
3259,14624
3248,14643
3235,14669
3203,14708
3164,14740
3159,14742
3119,14763
3103,14768
3071,14778
3046,14781
3033,14782
2792,14782
2779,14781
2754,14778
2722,14768
2706,14763
2666,14742
2661,14740
2622,14708
2590,14669
2577,14643
2566,14624
2561,14608
2552,14576
2547,14525
2552,14475
2566,14427
2566,14427
2590,14382
2590,14382
2622,14343
2661,14311
2666,14309
2706,14288
2722,14283
2754,14273
2779,14270
2792,14269
3033,14269
3046,14270
" /> 
<polyline style="fill-rule:evenodd;"
points="3214,13484
3229,13488
3242,13495
3254,13505
3264,13517
3271,13530
3275,13545
3277,13562
3277,13914
3275,13931
3271,13946
3264,13960
3254,13971
3242,13981
3229,13988
3214,13993
3197,13994
2628,13994
2611,13993
2596,13988
2583,13981
2571,13971
2561,13960
2554,13946
2550,13931
2548,13914
2548,13562
2550,13545
2554,13530
2561,13517
2571,13505
2583,13495
2596,13488
2611,13484
2628,13482
3197,13482
3214,13484
" /> 
<polyline style="fill-rule:evenodd;"
points="33216,11816
33268,11827
33364,11867
33451,11925
33452,11925
33526,11999
33526,11999
33584,12086
33624,12183
33644,12286
33644,12390
33624,12493
33584,12590
33526,12677
33526,12677
33452,12751
33452,12751
33364,12809
33268,12850
33216,12860
33165,12870
33060,12870
33009,12860
32957,12850
32861,12809
32773,12751
32773,12751
32699,12677
32699,12677
32641,12590
32601,12493
32581,12390
32581,12286
32601,12183
32641,12086
32699,11999
32699,11999
32773,11925
32774,11925
32861,11867
32957,11827
33009,11816
33060,11806
33165,11806
33216,11816
" /> 
<polyline style="fill-rule:evenodd;"
points="3046,11195
3071,11198
3103,11207
3119,11212
3159,11233
3164,11236
3203,11268
3235,11307
3235,11307
3259,11352
3259,11352
3273,11400
3278,11450
3273,11501
3264,11533
3259,11549
3238,11588
3235,11593
3203,11632
3164,11664
3164,11664
3119,11688
3103,11693
3071,11703
3046,11705
3033,11707
2792,11707
2779,11705
2754,11703
2722,11693
2706,11688
2661,11664
2661,11664
2622,11632
2590,11593
2587,11588
2566,11549
2561,11533
2552,11501
2547,11450
2552,11400
2566,11352
2566,11352
2590,11307
2590,11307
2622,11268
2661,11236
2666,11233
2706,11212
2722,11207
2754,11198
2779,11195
2792,11194
3033,11194
3046,11195
" /> 
<polyline style="fill-rule:evenodd;"
points="33216,9866
33268,9877
33364,9917
33450,9974
33452,9975
33526,10049
33526,10049
33584,10136
33624,10233
33624,10233
33644,10336
33644,10440
33643,10449
33624,10543
33584,10640
33535,10713
33526,10727
33452,10801
33452,10801
33364,10859
33268,10900
33261,10901
33165,10920
33060,10920
32964,10901
32957,10900
32861,10859
32773,10801
32773,10801
32699,10727
32690,10713
32641,10640
32601,10543
32582,10449
32581,10440
32581,10336
32601,10233
32601,10233
32641,10136
32699,10049
32699,10049
32773,9975
32775,9974
32861,9917
32957,9877
33009,9866
33060,9856
33165,9856
33216,9866
" /> 
<polyline style="fill-rule:evenodd;"
points="3046,10408
3071,10410
3103,10420
3119,10425
3148,10440
3164,10449
3203,10481
3235,10520
3235,10520
3259,10564
3259,10564
3273,10613
3278,10663
3273,10713
3264,10745
3259,10761
3238,10801
3235,10806
3203,10845
3164,10877
3164,10877
3119,10901
3103,10906
3071,10915
3046,10918
3033,10919
2792,10919
2779,10918
2754,10915
2722,10906
2706,10901
2661,10877
2661,10877
2622,10845
2590,10806
2587,10801
2566,10761
2561,10745
2552,10713
2547,10663
2552,10613
2566,10564
2566,10564
2590,10520
2590,10520
2622,10481
2661,10449
2677,10440
2706,10425
2722,10420
2754,10410
2779,10408
2792,10407
3033,10407
3046,10408
" /> 
<polyline style="fill-rule:evenodd;"
points="3046,9620
3071,9623
3103,9633
3119,9638
3159,9659
3164,9661
3203,9693
3235,9732
3235,9732
3259,9777
3259,9777
3273,9825
3278,9875
3273,9926
3264,9958
3259,9974
3238,10013
3235,10019
3203,10058
3164,10090
3164,10090
3119,10113
3103,10118
3071,10128
3046,10131
3033,10132
2792,10132
2779,10131
2754,10128
2722,10118
2706,10113
2661,10090
2661,10090
2622,10058
2590,10019
2587,10013
2566,9974
2561,9958
2552,9926
2547,9875
2552,9825
2566,9777
2566,9777
2590,9732
2590,9732
2622,9693
2661,9661
2666,9659
2706,9638
2722,9633
2754,9623
2779,9620
2792,9619
3033,9619
3046,9620
" /> 
<polyline style="fill-rule:evenodd;"
points="3214,8834
3229,8838
3242,8845
3254,8855
3264,8867
3271,8880
3275,8895
3277,8912
3277,9264
3275,9281
3271,9296
3264,9310
3254,9321
3242,9331
3229,9338
3214,9343
3197,9344
2628,9344
2611,9343
2596,9338
2583,9331
2571,9321
2561,9310
2554,9296
2550,9281
2548,9264
2548,8912
2550,8895
2554,8880
2561,8867
2571,8855
2583,8845
2596,8838
2611,8834
2628,8832
3197,8832
3214,8834
" /> 
<polyline style="fill-rule:evenodd;"
points="33003,8228
33059,8239
33087,8251
33137,8272
33138,8272
33194,8309
33208,8319
33269,8379
33269,8379
33269,8379
33311,8443
33316,8450
33349,8529
33366,8613
33366,8698
33349,8782
33316,8861
33316,8861
33278,8918
33269,8932
33208,8992
33137,9040
33087,9061
33059,9073
33017,9081
32975,9089
32889,9089
32848,9081
32806,9073
32778,9061
32727,9040
32656,8992
32595,8932
32586,8918
32548,8861
32548,8861
32515,8782
32499,8698
32499,8613
32515,8529
32548,8450
32553,8443
32595,8379
32595,8379
32595,8379
32656,8319
32670,8309
32727,8272
32727,8272
32778,8251
32806,8239
32861,8228
32889,8222
32975,8222
33003,8228
" /> 
<polyline style="fill-rule:evenodd;"
points="34019,7809
34085,7837
34145,7877
34196,7927
34236,7987
34263,8053
34277,8124
34277,8196
34263,8266
34236,8332
34196,8392
34145,8443
34085,8483
34019,8510
33948,8524
33877,8524
33806,8510
33740,8483
33680,8443
33629,8392
33589,8332
33562,8266
33548,8196
33548,8124
33562,8053
33589,7987
33629,7927
33680,7877
33740,7837
33806,7809
33877,7795
33948,7795
34019,7809
" /> 
<polyline style="fill-rule:evenodd;"
points="35220,7945
35256,7960
35288,7981
35316,8009
35337,8041
35352,8077
35360,8115
35360,8154
35352,8192
35337,8228
35316,8260
35288,8288
35256,8309
35220,8324
35182,8332
35143,8332
35105,8324
35069,8309
35037,8288
35009,8260
34988,8228
34973,8192
34965,8154
34965,8115
34973,8077
34988,8041
35009,8009
35037,7981
35069,7960
35105,7945
35143,7937
35182,7937
35220,7945
" /> 
<polyline style="fill-rule:evenodd;"
points="27046,7670
27071,7673
27103,7683
27119,7688
27159,7709
27164,7711
27203,7743
27235,7782
27235,7782
27259,7827
27259,7827
27273,7875
27278,7925
27273,7976
27264,8008
27259,8024
27250,8041
27235,8069
27203,8108
27164,8140
27164,8140
27119,8163
27103,8168
27071,8178
27046,8181
27033,8182
26792,8182
26779,8181
26754,8178
26722,8168
26706,8163
26661,8140
26661,8140
26622,8108
26590,8069
26575,8041
26566,8024
26561,8008
26552,7976
26547,7925
26552,7875
26566,7827
26566,7827
26590,7782
26590,7782
26622,7743
26661,7711
26666,7709
26706,7688
26722,7683
26754,7673
26779,7670
26792,7669
27033,7669
27046,7670
" /> 
<polyline style="fill-rule:evenodd;"
points="27214,6884
27229,6888
27242,6895
27254,6905
27264,6917
27271,6930
27275,6945
27277,6962
27277,7314
27275,7331
27271,7346
27264,7360
27254,7371
27242,7381
27229,7388
27214,7393
27197,7394
26628,7394
26611,7393
26596,7388
26583,7381
26571,7371
26561,7360
26554,7346
26550,7331
26548,7314
26548,6962
26550,6945
26554,6930
26561,6917
26571,6905
26583,6895
26596,6888
26611,6884
26628,6882
27197,6882
27214,6884
" /> 
<polyline style="fill-rule:evenodd;"
points="34019,6038
34085,6065
34145,6105
34196,6156
34236,6215
34263,6282
34277,6352
34277,6424
34263,6494
34236,6561
34196,6620
34145,6671
34085,6711
34019,6739
33948,6753
33877,6753
33806,6739
33740,6711
33680,6671
33629,6620
33589,6561
33562,6494
33548,6424
33548,6352
33562,6282
33589,6215
33629,6156
33680,6105
33740,6065
33806,6038
33877,6024
33948,6024
34019,6038
" /> 
<polyline style="fill-rule:evenodd;"
points="17593,5988
17661,6016
17722,6057
17774,6109
17815,6171
17843,6239
17858,6311
17858,6385
17843,6457
17815,6525
17774,6587
17722,6639
17661,6680
17593,6708
17520,6722
17446,6722
17374,6708
17306,6680
17245,6639
17193,6587
17152,6525
17123,6457
17109,6385
17109,6311
17123,6239
17152,6171
17193,6109
17245,6057
17306,6016
17374,5988
17446,5974
17520,5974
17593,5988
" /> 
<polyline style="fill-rule:evenodd;"
points="13656,5988
13724,6016
13785,6057
13837,6109
13878,6171
13906,6239
13921,6311
13921,6385
13906,6457
13878,6525
13837,6587
13785,6639
13724,6680
13656,6708
13583,6722
13509,6722
13437,6708
13369,6680
13308,6639
13256,6587
13215,6525
13186,6457
13172,6385
13172,6311
13186,6239
13215,6171
13256,6109
13308,6057
13369,6016
13437,5988
13509,5974
13583,5974
13656,5988
" /> 
<polyline style="fill-rule:evenodd;"
points="35220,6252
35256,6267
35288,6288
35316,6316
35337,6348
35352,6384
35360,6422
35360,6461
35352,6499
35337,6535
35316,6567
35288,6595
35256,6616
35220,6631
35182,6639
35143,6639
35105,6631
35069,6616
35037,6595
35009,6567
34988,6535
34973,6499
34965,6461
34965,6422
34973,6384
34988,6348
35009,6316
35037,6288
35069,6267
35105,6252
35143,6244
35182,6244
35220,6252
" /> 
<polyline style="fill-rule:evenodd;"
points="33017,5471
33059,5479
33087,5491
33137,5512
33208,5559
33269,5620
33316,5691
33349,5770
33365,5849
33366,5853
33366,5939
33349,6022
33343,6038
33316,6101
33269,6172
33208,6233
33208,6233
33208,6233
33157,6267
33137,6280
33087,6301
33059,6313
33017,6321
32975,6329
32889,6329
32848,6321
32806,6313
32778,6301
32727,6280
32707,6267
32656,6233
32656,6233
32656,6233
32595,6172
32548,6101
32522,6038
32515,6022
32499,5939
32499,5853
32500,5849
32515,5770
32548,5691
32595,5620
32656,5559
32727,5512
32778,5491
32806,5479
32848,5471
32889,5462
32975,5462
33017,5471
" /> 
<polyline style="fill-rule:evenodd;"
points="31326,5849
28467,5849
28467,4627
31326,4627
31326,5849
" /> 
<polyline style="fill-rule:evenodd;"
points="4136,4796
4136,4796
4136,4796
4156,4804
4229,4834
4313,4890
4384,4962
4384,4962
4440,5045
4479,5139
4498,5238
4498,5339
4479,5437
4448,5512
4440,5531
4384,5615
4313,5686
4313,5686
4229,5742
4136,5781
4136,5781
4136,5781
4037,5800
3936,5800
3837,5781
3837,5781
3837,5781
3743,5742
3660,5686
3660,5686
3588,5615
3532,5531
3524,5512
3494,5437
3474,5339
3474,5238
3494,5139
3532,5045
3588,4962
3588,4962
3660,4890
3743,4834
3816,4804
3837,4796
3837,4796
3837,4796
3936,4776
4037,4776
4136,4796
" /> 
<polyline style="fill-rule:evenodd;"
points="6990,4796
6990,4796
6990,4796
7011,4804
7083,4834
7167,4890
7238,4962
7238,4962
7294,5045
7333,5139
7353,5238
7353,5339
7333,5437
7302,5512
7294,5531
7238,5615
7167,5686
7167,5686
7083,5742
6990,5781
6990,5781
6990,5781
6891,5800
6790,5800
6691,5781
6691,5781
6691,5781
6598,5742
6514,5686
6514,5686
6443,5615
6387,5531
6379,5512
6348,5437
6328,5339
6328,5238
6348,5139
6387,5045
6443,4962
6443,4962
6514,4890
6598,4834
6670,4804
6691,4796
6691,4796
6691,4796
6790,4776
6891,4776
6990,4796
" /> 
<polyline style="fill-rule:evenodd;"
points="6415,3993
6490,4024
6558,4069
6616,4127
6661,4194
6692,4270
6708,4350
6708,4431
6692,4511
6661,4586
6616,4654
6558,4712
6490,4757
6415,4788
6335,4804
6254,4804
6174,4788
6098,4757
6031,4712
5973,4654
5928,4586
5897,4511
5881,4431
5881,4350
5897,4270
5928,4194
5973,4127
6031,4069
6098,4024
6174,3993
6254,3977
6335,3977
6415,3993
" /> 
<polyline style="fill-rule:evenodd;"
points="1806,2512
1806,2512
1806,2512
1952,2573
1952,2573
2085,2661
2197,2773
2197,2773
2286,2906
2298,2935
2346,3053
2377,3209
2377,3368
2346,3524
2286,3671
2286,3671
2197,3803
2085,3915
2085,3915
1952,4004
1806,4065
1806,4065
1806,4065
1650,4096
1490,4096
1334,4065
1334,4065
1334,4065
1187,4004
1055,3915
1055,3915
943,3803
854,3671
854,3671
794,3524
762,3368
762,3209
794,3053
842,2935
854,2906
943,2773
943,2773
1055,2661
1187,2573
1187,2573
1334,2512
1334,2512
1334,2512
1490,2481
1650,2481
1806,2512
" /> 
<polyline style="fill-rule:evenodd;"
points="34806,2512
34806,2512
34806,2512
34952,2573
34952,2573
35085,2661
35197,2773
35197,2773
35286,2906
35298,2935
35346,3053
35377,3209
35377,3368
35346,3524
35286,3671
35286,3671
35197,3803
35085,3915
35085,3915
34952,4004
34806,4065
34806,4065
34806,4065
34650,4096
34490,4096
34334,4065
34334,4065
34334,4065
34187,4004
34055,3915
34055,3915
33943,3803
33854,3671
33854,3671
33794,3524
33762,3368
33762,3209
33794,3053
33842,2935
33854,2906
33943,2773
33943,2773
34055,2661
34187,2573
34187,2573
34334,2512
34334,2512
34334,2512
34490,2481
34650,2481
34806,2512
" /> 
<polyline style="fill-rule:evenodd;"
points="30139,2898
30175,2913
30207,2935
30235,2962
30256,2995
30271,3031
30279,3069
30279,3108
30271,3146
30256,3182
30235,3214
30207,3241
30175,3263
30139,3278
30101,3285
30062,3285
30024,3278
29988,3263
29956,3241
29928,3214
29907,3182
29892,3146
29884,3108
29884,3069
29892,3031
29907,2995
29928,2962
29956,2935
29988,2913
30024,2898
30062,2891
30101,2891
30139,2898
" /> 
<polyline style="fill-rule:evenodd;"
points="31320,2898
31356,2913
31388,2935
31416,2962
31437,2995
31452,3031
31460,3069
31460,3108
31452,3146
31437,3182
31416,3214
31388,3241
31356,3263
31320,3278
31282,3285
31243,3285
31205,3278
31169,3263
31137,3241
31109,3214
31088,3182
31073,3146
31065,3108
31065,3069
31073,3031
31088,2995
31109,2962
31137,2935
31169,2913
31205,2898
31243,2891
31282,2891
31320,2898
" /> 
</g>
<g style="fill:#000000; fill-opacity:1.0; 
stroke:#000000; stroke-width:0; stroke-opacity:1; 
stroke-linecap:round; stroke-linejoin:round;">
</g>
<g style="fill:#C2C200; fill-opacity:1.0; 
stroke:#C2C200; stroke-width:0; stroke-opacity:1; 
stroke-linecap:round; stroke-linejoin:round;">
</g>
<g style="fill:#C2C200; fill-opacity:1.0; 
stroke:#C2C200; stroke-width:59.0551; stroke-opacity:1; 
stroke-linecap:round; stroke-linejoin:round;">
</g>
<g style="fill:#C2C200; fill-opacity:0.0; 
stroke:#C2C200; stroke-width:59.0551; stroke-opacity:1; 
stroke-linecap:round; stroke-linejoin:round;">
<path d="M36012 5638
L36012 2738
" />
<path d="M35712 6238
L35712 5738
" />
<path d="M35712 8838
L35712 8338
" />
<path d="M36012 17688
L36012 8938
" />
<path d="M36012 23838
L36012 20938
" />
<path d="M35712 20188
L35712 20788
" />
<path d="M35712 18388
L35712 17838
" />
<path d="M32962 1838
L35112 1838
" />
<path d="M31612 2538
L32562 2538
" />
<path d="M27612 2538
L27612 5438
" />
<path d="M29712 2538
L27612 2538
" />
<path d="M962 24638
L1012 24638
" />
<path d="M1112 1838
L1062 1838
" />
<path d="M19312 2788
L19312 5438
" />
<path d="M18162 2788
L19312 2788
" />
<path d="M35712 17838
L36012 17688
" />
<path d="M35712 20788
L36012 20938
" />
<path d="M35712 18388
L35712 20188
" />
<path d="M35712 5738
L36012 5638
" />
<path d="M35712 8838
L36012 8938
" />
<path d="M35712 6238
L35712 8338
" />
<path d="M12812 1838
L1112 1838
" />
<path d="M12812 2788
L12812 1838
" />
<path d="M18162 2788
L12812 2788
" />
<path d="M27612 5438
L19312 5438
" />
<path d="M32562 2538
L32962 1838
" />
<path d="M29712 2538
L31612 2538
" />
<path d="M36013 2738.58 A900 900 0.0 0 0 35113 1838.58 " />
<path d="M162 23838
L162 2738
" />
<path d="M1012 24638
L35212 24638
" />
<path d="M35213 24638.6 A800 800 0.0 0 0 36013 23838.6 " />
<path d="M162.993 23838.6 A800 800 0.0 0 0 962.993 24638.6 " />
<path d="M1062.99 1838.58 A900 900 0.0 0 0 162.993 2738.58 " />
</g> 
</svg>
