<?xml version="1.0" standalone="no"?>
 <!DOCTYPE svg PUBLIC "-//W3C//DTD SVG 1.1//EN" 
 "http://www.w3.org/Graphics/SVG/1.1/DTD/svg11.dtd"> 
<svg xmlns="http://www.w3.org/2000/svg" version="1.1" 
    width="29.7002cm" height="21.0007cm" viewBox="0 0 116930 82680 ">
<title>SVG Picture created as WT32-SC01-B.SilkS.svg date 2023/02/01 14:16:31 </title>
  <desc>Picture generated by PCBNEW </desc>
<g style="fill:#000000; fill-opacity:1;stroke:#000000; stroke-opacity:1;
stroke-linecap:round; stroke-linejoin:round; "
 transform="translate(0 0) scale(1 1)">
</g>
<g style="fill:#000000; fill-opacity:0.0; 
stroke:#000000; stroke-width:-0.000393701; stroke-opacity:1; 
stroke-linecap:round; stroke-linejoin:round;">
</g>
<g style="fill:#000000; fill-opacity:0.0; 
stroke:#000000; stroke-width:59.0551; stroke-opacity:1; 
stroke-linecap:round; stroke-linejoin:round;">
<path d="M56250 18750
L56250 15850
" />
<path d="M55950 19350
L55950 18850
" />
<path d="M55950 21950
L55950 21450
" />
<path d="M56250 30550
L56250 21800
" />
<path d="M56250 36950
L56250 34050
" />
<path d="M55950 33300
L55950 33900
" />
<path d="M55950 31500
L55950 30950
" />
<path d="M53200 14950
L55350 14950
" />
<path d="M51850 15650
L52800 15650
" />
<path d="M47850 15650
L47850 18550
" />
<path d="M49950 15650
L47850 15650
" />
</g>
<g style="fill:#000000; fill-opacity:0.0; 
stroke:#000000; stroke-width:118.11; stroke-opacity:1; 
stroke-linecap:round; stroke-linejoin:round;">
<path d="M21967 22823
L21376 22823
" />
<path d="M21432 23076
L21404 23104
L21376 23160
L21376 23301
L21404 23357
L21432 23385
L21489 23414
L21545 23414
L21629 23385
L21967 23048
L21967 23414
" />
<path d="M21910 24004
L21939 23976
L21967 23892
L21967 23835
L21939 23751
L21882 23695
L21826 23667
L21714 23639
L21629 23639
L21517 23667
L21460 23695
L21404 23751
L21376 23835
L21376 23892
L21404 23976
L21432 24004
" />
<path d="M21807 28490
L21807 28687
" />
<path d="M22117 28771
L22117 28490
L21526 28490
L21526 28771
" />
<path d="M22117 28968
L21723 29278
" />
<path d="M21723 28968
L22117 29278
" />
<path d="M21723 29418
L21723 29643
" />
<path d="M21526 29503
L22032 29503
L22089 29531
L22117 29587
L22117 29643
" />
<path d="M22117 30290
L21526 30290
" />
<path d="M21526 30684
L21526 30796
L21554 30852
L21610 30909
L21723 30937
L21920 30937
L22032 30909
L22089 30852
L22117 30796
L22117 30684
L22089 30628
L22032 30571
L21920 30543
L21723 30543
L21610 30571
L21554 30628
L21526 30684
" />
<path d="M28209 36639
L28124 36667
L27984 36667
L27928 36639
L27899 36610
L27871 36554
L27871 36498
L27899 36442
L27928 36414
L27984 36385
L28096 36357
L28153 36329
L28181 36301
L28209 36245
L28209 36189
L28181 36132
L28153 36104
L28096 36076
L27956 36076
L27871 36104
" />
<path d="M27618 36667
L27618 36076
L27393 36076
L27337 36104
L27309 36132
L27281 36189
L27281 36273
L27309 36329
L27337 36357
L27393 36385
L27618 36385
" />
<path d="M27028 36667
L27028 36076
" />
<path d="M26690 36667
L26943 36329
" />
<path d="M26690 36076
L27028 36414
" />
<path d="M48473 36560
L48501 36589
L48585 36617
L48642 36617
L48726 36589
L48782 36532
L48810 36476
L48838 36364
L48838 36279
L48810 36167
L48782 36110
L48726 36054
L48642 36026
L48585 36026
L48501 36054
L48473 36082
" />
<path d="M48304 36223
L48079 36223
" />
<path d="M48220 36026
L48220 36532
L48192 36589
L48135 36617
L48079 36617
" />
<path d="M47882 36617
L47882 36223
" />
<path d="M47882 36335
L47854 36279
L47826 36251
L47770 36223
L47714 36223
" />
<path d="M47432 36617
L47489 36589
L47517 36532
L47517 36026
" />
<path d="M53167 36517
L53167 35926
L52942 35926
L52885 35954
L52857 35982
L52829 36039
L52829 36123
L52857 36179
L52885 36207
L52942 36235
L53167 36235
" />
<path d="M52492 36517
L52548 36489
L52576 36460
L52604 36404
L52604 36235
L52576 36179
L52548 36151
L52492 36123
L52407 36123
L52351 36151
L52323 36179
L52295 36235
L52295 36404
L52323 36460
L52351 36489
L52407 36517
L52492 36517
" />
<path d="M52098 36123
L51985 36517
L51873 36235
L51760 36517
L51648 36123
" />
<path d="M51198 36489
L51254 36517
L51367 36517
L51423 36489
L51451 36432
L51451 36207
L51423 36151
L51367 36123
L51254 36123
L51198 36151
L51170 36207
L51170 36264
L51451 36320
" />
<path d="M50917 36517
L50917 36123
" />
<path d="M50917 36235
L50889 36179
L50861 36151
L50804 36123
L50748 36123
" />
<path d="M43062 25010
L43090 25039
L43174 25067
L43231 25067
L43315 25039
L43371 24982
L43399 24926
L43427 24814
L43427 24729
L43399 24617
L43371 24560
L43315 24504
L43231 24476
L43174 24476
L43090 24504
L43062 24532
" />
<path d="M42809 25067
L42809 24476
" />
<path d="M42809 24757
L42471 24757
" />
<path d="M42471 25067
L42471 24476
" />
<path d="M41881 24504
L41937 24476
L42021 24476
L42106 24504
L42162 24560
L42190 24617
L42218 24729
L42218 24814
L42190 24926
L42162 24982
L42106 25039
L42021 25067
L41965 25067
L41881 25039
L41853 25010
L41853 24814
L41965 24814
" />
<path d="M41150 24842
L40700 24842
" />
<path d="M43162 23360
L43190 23389
L43274 23417
L43331 23417
L43415 23389
L43471 23332
L43499 23276
L43527 23164
L43527 23079
L43499 22967
L43471 22910
L43415 22854
L43331 22826
L43274 22826
L43190 22854
L43162 22882
" />
<path d="M42909 23417
L42909 22826
" />
<path d="M42909 23107
L42571 23107
" />
<path d="M42571 23417
L42571 22826
" />
<path d="M41981 22854
L42037 22826
L42121 22826
L42206 22854
L42262 22910
L42290 22967
L42318 23079
L42318 23164
L42290 23276
L42262 23332
L42206 23389
L42121 23417
L42065 23417
L41981 23389
L41953 23360
L41953 23164
L42065 23164
" />
<path d="M41250 23192
L40800 23192
" />
<path d="M41025 23417
L41025 22967
" />
<path d="M52524 33789
L52440 33817
L52299 33817
L52243 33789
L52215 33760
L52187 33704
L52187 33648
L52215 33592
L52243 33564
L52299 33535
L52412 33507
L52468 33479
L52496 33451
L52524 33395
L52524 33339
L52496 33282
L52468 33254
L52412 33226
L52271 33226
L52187 33254
" />
<path d="M51934 33507
L51737 33507
" />
<path d="M51653 33817
L51934 33817
L51934 33226
L51653 33226
" />
<path d="M51118 33817
L51400 33817
L51400 33226
" />
</g>
<g style="fill:#000000; fill-opacity:0.0; 
stroke:#000000; stroke-width:59.0551; stroke-opacity:1; 
stroke-linecap:round; stroke-linejoin:round;">
<path d="M21200 37750
L21250 37750
" />
<path d="M21350 14950
L21300 14950
" />
</g>
<g style="fill:#000000; fill-opacity:0.0; 
stroke:#000000; stroke-width:118.11; stroke-opacity:1; 
stroke-linecap:round; stroke-linejoin:round;">
<path d="M40338 25866
L40198 26457
L40085 26035
L39973 26457
L39832 25866
" />
<path d="M39692 25866
L39354 25866
" />
<path d="M39523 26457
L39523 25866
" />
<path d="M39214 25866
L38848 25866
L39045 26091
L38960 26091
L38904 26119
L38876 26147
L38848 26204
L38848 26344
L38876 26401
L38904 26429
L38960 26457
L39129 26457
L39185 26429
L39214 26401
" />
<path d="M38623 25923
L38595 25894
L38539 25866
L38398 25866
L38342 25894
L38314 25923
L38285 25979
L38285 26035
L38314 26119
L38651 26457
L38285 26457
" />
<path d="M38032 26232
L37582 26232
" />
<path d="M37329 26429
L37245 26457
L37104 26457
L37048 26429
L37020 26401
L36992 26344
L36992 26288
L37020 26232
L37048 26204
L37104 26176
L37217 26147
L37273 26119
L37301 26091
L37329 26035
L37329 25979
L37301 25923
L37273 25894
L37217 25866
L37076 25866
L36992 25894
" />
<path d="M36401 26401
L36429 26429
L36514 26457
L36570 26457
L36654 26429
L36711 26372
L36739 26316
L36767 26204
L36767 26119
L36739 26007
L36711 25951
L36654 25894
L36570 25866
L36514 25866
L36429 25894
L36401 25923
" />
<path d="M36036 25866
L35980 25866
L35923 25894
L35895 25923
L35867 25979
L35839 26091
L35839 26232
L35867 26344
L35895 26401
L35923 26429
L35980 26457
L36036 26457
L36092 26429
L36120 26401
L36148 26344
L36176 26232
L36176 26091
L36148 25979
L36120 25923
L36092 25894
L36036 25866
" />
<path d="M35276 26457
L35614 26457
" />
<path d="M35445 26457
L35445 25866
L35501 25951
L35558 26007
L35614 26035
" />
<path d="M34348 26429
L34405 26457
L34517 26457
L34573 26429
L34602 26372
L34602 26147
L34573 26091
L34517 26063
L34405 26063
L34348 26091
L34320 26147
L34320 26204
L34602 26260
" />
<path d="M34124 26457
L33814 26063
" />
<path d="M34124 26063
L33814 26457
" />
<path d="M33674 26063
L33449 26063
" />
<path d="M33589 25866
L33589 26372
L33561 26429
L33505 26457
L33449 26457
" />
<path d="M33027 26429
L33083 26457
L33196 26457
L33252 26429
L33280 26372
L33280 26147
L33252 26091
L33196 26063
L33083 26063
L33027 26091
L32999 26147
L32999 26204
L33280 26260
" />
<path d="M32746 26063
L32746 26457
" />
<path d="M32746 26119
L32717 26091
L32661 26063
L32577 26063
L32521 26091
L32492 26147
L32492 26457
" />
<path d="M32239 26429
L32183 26457
L32071 26457
L32014 26429
L31986 26372
L31986 26344
L32014 26288
L32071 26260
L32155 26260
L32211 26232
L32239 26176
L32239 26147
L32211 26091
L32155 26063
L32071 26063
L32014 26091
" />
<path d="M31733 26457
L31733 26063
" />
<path d="M31733 25866
L31761 25894
L31733 25923
L31705 25894
L31733 25866
L31733 25923
" />
<path d="M31368 26457
L31424 26429
L31452 26401
L31480 26344
L31480 26176
L31452 26119
L31424 26091
L31368 26063
L31283 26063
L31227 26091
L31199 26119
L31171 26176
L31171 26344
L31199 26401
L31227 26429
L31283 26457
L31368 26457
" />
<path d="M30918 26063
L30918 26457
" />
<path d="M30918 26119
L30890 26091
L30833 26063
L30749 26063
L30693 26091
L30665 26147
L30665 26457
" />
<path d="M29933 26457
L29933 26063
" />
<path d="M29933 26119
L29905 26091
L29849 26063
L29765 26063
L29708 26091
L29680 26147
L29680 26457
" />
<path d="M29680 26147
L29652 26091
L29596 26063
L29512 26063
L29455 26091
L29427 26147
L29427 26457
" />
<path d="M29062 26457
L29118 26429
L29146 26401
L29174 26344
L29174 26176
L29146 26119
L29118 26091
L29062 26063
L28977 26063
L28921 26091
L28893 26119
L28865 26176
L28865 26344
L28893 26401
L28921 26429
L28977 26457
L29062 26457
" />
<path d="M28359 26457
L28359 25866
" />
<path d="M28359 26429
L28415 26457
L28527 26457
L28584 26429
L28612 26401
L28640 26344
L28640 26176
L28612 26119
L28584 26091
L28527 26063
L28415 26063
L28359 26091
" />
<path d="M27824 26063
L27824 26457
" />
<path d="M28077 26063
L28077 26372
L28049 26429
L27993 26457
L27909 26457
L27852 26429
L27824 26401
" />
<path d="M27459 26457
L27515 26429
L27543 26372
L27543 25866
" />
<path d="M27009 26429
L27065 26457
L27178 26457
L27234 26429
L27262 26372
L27262 26147
L27234 26091
L27178 26063
L27065 26063
L27009 26091
L26981 26147
L26981 26204
L27262 26260
" />
<path d="M26278 26232
L25828 26232
" />
<path d="M25181 25866
L24984 26457
L24787 25866
" />
<path d="M24618 25923
L24590 25894
L24534 25866
L24393 25866
L24337 25894
L24309 25923
L24281 25979
L24281 26035
L24309 26119
L24647 26457
L24281 26457
" />
<path d="M24028 26401
L24000 26429
L24028 26457
L24056 26429
L24028 26401
L24028 26457
" />
<path d="M23634 25866
L23578 25866
L23522 25894
L23494 25923
L23465 25979
L23437 26091
L23437 26232
L23465 26344
L23494 26401
L23522 26429
L23578 26457
L23634 26457
L23690 26429
L23719 26401
L23747 26344
L23775 26232
L23775 26091
L23747 25979
L23719 25923
L23690 25894
L23634 25866
" />
<path d="M40001 27461
L40282 27461
L40282 26870
" />
<path d="M39804 27461
L39804 27067
" />
<path d="M39804 26870
L39832 26898
L39804 26926
L39776 26898
L39804 26870
L39804 26926
" />
<path d="M39523 27236
L39073 27236
" />
<path d="M38792 27461
L38792 26870
" />
<path d="M38426 27461
L38482 27433
L38510 27405
L38539 27348
L38539 27180
L38510 27123
L38482 27095
L38426 27067
L38342 27067
L38285 27095
L38257 27123
L38229 27180
L38229 27348
L38257 27405
L38285 27433
L38342 27461
L38426 27461
" />
<path d="M37976 27067
L37976 27461
" />
<path d="M37976 27123
L37948 27095
L37892 27067
L37807 27067
L37751 27095
L37723 27151
L37723 27461
" />
<path d="M36992 27067
L36992 27658
" />
<path d="M36992 27095
L36936 27067
L36823 27067
L36767 27095
L36739 27123
L36711 27180
L36711 27348
L36739 27405
L36767 27433
L36823 27461
L36936 27461
L36992 27433
" />
<path d="M36373 27461
L36429 27433
L36458 27405
L36486 27348
L36486 27180
L36458 27123
L36429 27095
L36373 27067
L36289 27067
L36233 27095
L36205 27123
L36176 27180
L36176 27348
L36205 27405
L36233 27433
L36289 27461
L36373 27461
" />
<path d="M35980 27067
L35867 27461
L35755 27180
L35642 27461
L35530 27067
" />
<path d="M35080 27433
L35136 27461
L35248 27461
L35305 27433
L35333 27376
L35333 27151
L35305 27095
L35248 27067
L35136 27067
L35080 27095
L35052 27151
L35052 27208
L35333 27264
" />
<path d="M34798 27461
L34798 27067
" />
<path d="M34798 27180
L34770 27123
L34742 27095
L34686 27067
L34630 27067
" />
<path d="M34011 27433
L33955 27461
L33842 27461
L33786 27433
L33758 27376
L33758 27348
L33786 27292
L33842 27264
L33927 27264
L33983 27236
L34011 27180
L34011 27151
L33983 27095
L33927 27067
L33842 27067
L33786 27095
" />
<path d="M33252 27067
L33252 27461
" />
<path d="M33505 27067
L33505 27376
L33477 27433
L33420 27461
L33336 27461
L33280 27433
L33252 27405
" />
<path d="M32971 27067
L32971 27658
" />
<path d="M32971 27095
L32914 27067
L32802 27067
L32746 27095
L32717 27123
L32689 27180
L32689 27348
L32717 27405
L32746 27433
L32802 27461
L32914 27461
L32971 27433
" />
<path d="M32436 27067
L32436 27658
" />
<path d="M32436 27095
L32380 27067
L32267 27067
L32211 27095
L32183 27123
L32155 27180
L32155 27348
L32183 27405
L32211 27433
L32267 27461
L32380 27461
L32436 27433
" />
<path d="M31818 27461
L31874 27433
L31902 27376
L31902 26870
" />
<path d="M31649 27067
L31508 27461
" />
<path d="M31368 27067
L31508 27461
L31564 27601
L31593 27629
L31649 27658
" />
<path d="M31115 27433
L31115 27461
L31143 27517
L31171 27545
" />
<path d="M30411 27461
L30411 26870
L30271 26870
L30187 26898
L30130 26955
L30102 27011
L30074 27123
L30074 27208
L30102 27320
L30130 27376
L30187 27433
L30271 27461
L30411 27461
" />
<path d="M29483 27405
L29512 27433
L29596 27461
L29652 27461
L29737 27433
L29793 27376
L29821 27320
L29849 27208
L29849 27123
L29821 27011
L29793 26955
L29737 26898
L29652 26870
L29596 26870
L29512 26898
L29483 26926
" />
<path d="M29230 27461
L29230 26870
L29090 26870
L29005 26898
L28949 26955
L28921 27011
L28893 27123
L28893 27208
L28921 27320
L28949 27376
L29005 27433
L29090 27461
L29230 27461
" />
<path d="M28302 27405
L28330 27433
L28415 27461
L28471 27461
L28555 27433
L28612 27376
L28640 27320
L28668 27208
L28668 27123
L28640 27011
L28612 26955
L28555 26898
L28471 26870
L28415 26870
L28330 26898
L28302 26926
" />
<path d="M27346 27433
L27402 27461
L27515 27461
L27571 27433
L27599 27405
L27627 27348
L27627 27180
L27599 27123
L27571 27095
L27515 27067
L27402 27067
L27346 27095
" />
<path d="M27009 27461
L27065 27433
L27093 27405
L27121 27348
L27121 27180
L27093 27123
L27065 27095
L27009 27067
L26924 27067
L26868 27095
L26840 27123
L26812 27180
L26812 27348
L26840 27405
L26868 27433
L26924 27461
L27009 27461
" />
<path d="M26559 27067
L26559 27461
" />
<path d="M26559 27123
L26531 27095
L26474 27067
L26390 27067
L26334 27095
L26306 27151
L26306 27461
" />
<path d="M26081 27067
L25940 27461
L25800 27067
" />
<path d="M25350 27433
L25406 27461
L25518 27461
L25575 27433
L25603 27376
L25603 27151
L25575 27095
L25518 27067
L25406 27067
L25350 27095
L25321 27151
L25321 27208
L25603 27264
" />
<path d="M25068 27461
L25068 27067
" />
<path d="M25068 27180
L25040 27123
L25012 27095
L24956 27067
L24900 27067
" />
<path d="M24787 27067
L24562 27067
" />
<path d="M24703 26870
L24703 27376
L24675 27433
L24618 27461
L24562 27461
" />
<path d="M24140 27433
L24197 27461
L24309 27461
L24365 27433
L24393 27376
L24393 27151
L24365 27095
L24309 27067
L24197 27067
L24140 27095
L24112 27151
L24112 27208
L24393 27264
" />
<path d="M23859 27461
L23859 27067
" />
<path d="M23859 27180
L23831 27123
L23803 27095
L23747 27067
L23690 27067
" />
<path d="M40282 28465
L40282 27874
L40142 27874
L40057 27902
L40001 27958
L39973 28015
L39945 28127
L39945 28212
L39973 28324
L40001 28380
L40057 28437
L40142 28465
L40282 28465
" />
<path d="M39720 28296
L39438 28296
" />
<path d="M39776 28465
L39579 27874
L39382 28465
" />
<path d="M38848 28408
L38876 28437
L38960 28465
L39017 28465
L39101 28437
L39157 28380
L39185 28324
L39214 28212
L39214 28127
L39185 28015
L39157 27958
L39101 27902
L39017 27874
L38960 27874
L38876 27902
L38848 27930
" />
<path d="M38567 28437
L38567 28465
L38595 28521
L38623 28549
" />
<path d="M37892 28296
L37611 28296
" />
<path d="M37948 28465
L37751 27874
L37554 28465
" />
<path d="M37104 28071
L37104 28465
" />
<path d="M37357 28071
L37357 28380
L37329 28437
L37273 28465
L37189 28465
L37133 28437
L37104 28408
" />
<path d="M36570 28465
L36570 27874
" />
<path d="M36570 28437
L36626 28465
L36739 28465
L36795 28437
L36823 28408
L36851 28352
L36851 28183
L36823 28127
L36795 28099
L36739 28071
L36626 28071
L36570 28099
" />
<path d="M36289 28465
L36289 28071
" />
<path d="M36289 27874
L36317 27902
L36289 27930
L36261 27902
L36289 27874
L36289 27930
" />
<path d="M35923 28465
L35980 28437
L36008 28408
L36036 28352
L36036 28183
L36008 28127
L35980 28099
L35923 28071
L35839 28071
L35783 28099
L35755 28127
L35726 28183
L35726 28352
L35755 28408
L35783 28437
L35839 28465
L35923 28465
" />
<path d="M35052 28296
L34770 28296
" />
<path d="M35108 28465
L34911 27874
L34714 28465
" />
<path d="M34517 28465
L34517 28071
" />
<path d="M34517 28127
L34489 28099
L34433 28071
L34348 28071
L34292 28099
L34264 28155
L34264 28465
" />
<path d="M34264 28155
L34236 28099
L34180 28071
L34095 28071
L34039 28099
L34011 28155
L34011 28465
" />
<path d="M33730 28071
L33730 28662
" />
<path d="M33730 28099
L33674 28071
L33561 28071
L33505 28099
L33477 28127
L33449 28183
L33449 28352
L33477 28408
L33505 28437
L33561 28465
L33674 28465
L33730 28437
" />
<path d="M33167 28437
L33167 28465
L33196 28521
L33224 28549
" />
<path d="M32127 28465
L32324 28183
" />
<path d="M32464 28465
L32464 27874
L32239 27874
L32183 27902
L32155 27930
L32127 27987
L32127 28071
L32155 28127
L32183 28155
L32239 28183
L32464 28183
" />
<path d="M31958 27874
L31621 27874
" />
<path d="M31789 28465
L31789 27874
" />
<path d="M31086 28408
L31115 28437
L31199 28465
L31255 28465
L31339 28437
L31396 28380
L31424 28324
L31452 28212
L31452 28127
L31424 28015
L31396 27958
L31339 27902
L31255 27874
L31199 27874
L31115 27902
L31086 27930
" />
<path d="M30805 28437
L30805 28465
L30833 28521
L30861 28549
" />
<path d="M30130 28437
L30046 28465
L29905 28465
L29849 28437
L29821 28408
L29793 28352
L29793 28296
L29821 28240
L29849 28212
L29905 28183
L30018 28155
L30074 28127
L30102 28099
L30130 28043
L30130 27987
L30102 27930
L30074 27902
L30018 27874
L29877 27874
L29793 27902
" />
<path d="M29540 28465
L29540 27874
L29399 27874
L29315 27902
L29258 27958
L29230 28015
L29202 28127
L29202 28212
L29230 28324
L29258 28380
L29315 28437
L29399 28465
L29540 28465
" />
<path d="M28162 28408
L28190 28437
L28274 28465
L28330 28465
L28415 28437
L28471 28380
L28499 28324
L28527 28212
L28527 28127
L28499 28015
L28471 27958
L28415 27902
L28330 27874
L28274 27874
L28190 27902
L28162 27930
" />
<path d="M27656 28465
L27656 28155
L27684 28099
L27740 28071
L27852 28071
L27909 28099
" />
<path d="M27656 28437
L27712 28465
L27852 28465
L27909 28437
L27937 28380
L27937 28324
L27909 28268
L27852 28240
L27712 28240
L27656 28212
" />
<path d="M27374 28465
L27374 28071
" />
<path d="M27374 28183
L27346 28127
L27318 28099
L27262 28071
L27206 28071
" />
<path d="M26756 28465
L26756 27874
" />
<path d="M26756 28437
L26812 28465
L26924 28465
L26981 28437
L27009 28408
L27037 28352
L27037 28183
L27009 28127
L26981 28099
L26924 28071
L26812 28071
L26756 28099
" />
<path d="M26446 28437
L26446 28465
L26474 28521
L26503 28549
" />
<path d="M25743 28465
L25743 27874
" />
<path d="M25350 27874
L25237 27874
L25181 27902
L25125 27958
L25097 28071
L25097 28268
L25125 28380
L25181 28437
L25237 28465
L25350 28465
L25406 28437
L25462 28380
L25490 28268
L25490 28071
L25462 27958
L25406 27902
L25350 27874
" />
<path d="M24872 28437
L24815 28465
L24703 28465
L24647 28437
L24618 28380
L24618 28352
L24647 28296
L24703 28268
L24787 28268
L24843 28240
L24872 28183
L24872 28155
L24843 28099
L24787 28071
L24703 28071
L24647 28099
" />
<path d="M40113 29694
L40142 29665
L40198 29581
L40226 29525
L40254 29441
L40282 29300
L40282 29187
L40254 29047
L40226 28962
L40198 28906
L40142 28822
L40113 28794
" />
<path d="M39635 29441
L39692 29469
L39804 29469
L39860 29441
L39888 29412
L39917 29356
L39917 29187
L39888 29131
L39860 29103
L39804 29075
L39692 29075
L39635 29103
" />
<path d="M39438 29694
L39410 29665
L39354 29581
L39326 29525
L39298 29441
L39270 29300
L39270 29187
L39298 29047
L39326 28962
L39354 28906
L39410 28822
L39438 28794
" />
<path d="M38342 29159
L38257 29187
L38229 29216
L38201 29272
L38201 29356
L38229 29412
L38257 29441
L38314 29469
L38539 29469
L38539 28878
L38342 28878
L38285 28906
L38257 28934
L38229 28991
L38229 29047
L38257 29103
L38285 29131
L38342 29159
L38539 29159
" />
<path d="M37976 29441
L37892 29469
L37751 29469
L37695 29441
L37667 29412
L37639 29356
L37639 29300
L37667 29244
L37695 29216
L37751 29187
L37864 29159
L37920 29131
L37948 29103
L37976 29047
L37976 28991
L37948 28934
L37920 28906
L37864 28878
L37723 28878
L37639 28906
" />
<path d="M37189 29159
L37386 29159
" />
<path d="M37386 29469
L37386 28878
L37104 28878
" />
<path d="M36092 29412
L36120 29441
L36205 29469
L36261 29469
L36345 29441
L36401 29384
L36429 29328
L36458 29216
L36458 29131
L36429 29019
L36401 28962
L36345 28906
L36261 28878
L36205 28878
L36120 28906
L36092 28934
" />
<path d="M35755 29469
L35811 29441
L35839 29412
L35867 29356
L35867 29187
L35839 29131
L35811 29103
L35755 29075
L35670 29075
L35614 29103
L35586 29131
L35558 29187
L35558 29356
L35586 29412
L35614 29441
L35670 29469
L35755 29469
" />
<path d="M35305 29075
L35305 29469
" />
<path d="M35305 29131
L35276 29103
L35220 29075
L35136 29075
L35080 29103
L35052 29159
L35052 29469
" />
<path d="M34517 29441
L34573 29469
L34686 29469
L34742 29441
L34770 29412
L34798 29356
L34798 29187
L34770 29131
L34742 29103
L34686 29075
L34573 29075
L34517 29103
" />
<path d="M34039 29441
L34095 29469
L34208 29469
L34264 29441
L34292 29384
L34292 29159
L34264 29103
L34208 29075
L34095 29075
L34039 29103
L34011 29159
L34011 29216
L34292 29272
" />
<path d="M33758 29075
L33758 29665
" />
<path d="M33758 29103
L33702 29075
L33589 29075
L33533 29103
L33505 29131
L33477 29187
L33477 29356
L33505 29412
L33533 29441
L33589 29469
L33702 29469
L33758 29441
" />
<path d="M33308 29075
L33083 29075
" />
<path d="M33224 28878
L33224 29384
L33196 29441
L33139 29469
L33083 29469
" />
<path d="M32886 29469
L32886 29075
" />
<path d="M32886 28878
L32914 28906
L32886 28934
L32858 28906
L32886 28878
L32886 28934
" />
<path d="M32521 29469
L32577 29441
L32605 29412
L32633 29356
L32633 29187
L32605 29131
L32577 29103
L32521 29075
L32436 29075
L32380 29103
L32352 29131
L32324 29187
L32324 29356
L32352 29412
L32380 29441
L32436 29469
L32521 29469
" />
<path d="M32071 29075
L32071 29469
" />
<path d="M32071 29131
L32043 29103
L31986 29075
L31902 29075
L31846 29103
L31818 29159
L31818 29469
" />
<path d="M31115 28934
L31086 28906
L31030 28878
L30890 28878
L30833 28906
L30805 28934
L30777 28991
L30777 29047
L30805 29131
L31143 29469
L30777 29469
" />
<path d="M30411 28878
L30355 28878
L30299 28906
L30271 28934
L30243 28991
L30215 29103
L30215 29244
L30243 29356
L30271 29412
L30299 29441
L30355 29469
L30411 29469
L30468 29441
L30496 29412
L30524 29356
L30552 29244
L30552 29103
L30524 28991
L30496 28934
L30468 28906
L30411 28878
" />
<path d="M29990 28934
L29962 28906
L29905 28878
L29765 28878
L29708 28906
L29680 28934
L29652 28991
L29652 29047
L29680 29131
L30018 29469
L29652 29469
" />
<path d="M29455 28878
L29090 28878
L29287 29103
L29202 29103
L29146 29131
L29118 29159
L29090 29216
L29090 29356
L29118 29412
L29146 29441
L29202 29469
L29371 29469
L29427 29441
L29455 29412
" />
<path d="M40282 30473
L40282 29882
" />
<path d="M40282 30107
L40226 30079
L40113 30079
L40057 30107
L40029 30135
L40001 30191
L40001 30360
L40029 30416
L40057 30444
L40113 30473
L40226 30473
L40282 30444
" />
<path d="M39776 30444
L39720 30473
L39607 30473
L39551 30444
L39523 30388
L39523 30360
L39551 30304
L39607 30276
L39692 30276
L39748 30248
L39776 30191
L39776 30163
L39748 30107
L39692 30079
L39607 30079
L39551 30107
" />
<path d="M39354 30079
L39129 30079
" />
<path d="M39270 30473
L39270 29966
L39242 29910
L39185 29882
L39129 29882
" />
<path d="M38932 30416
L38904 30444
L38932 30473
L38960 30444
L38932 30416
L38932 30473
" />
<path d="M38398 30444
L38454 30473
L38567 30473
L38623 30444
L38651 30416
L38679 30360
L38679 30191
L38651 30135
L38623 30107
L38567 30079
L38454 30079
L38398 30107
" />
<path d="M38061 30473
L38117 30444
L38145 30416
L38173 30360
L38173 30191
L38145 30135
L38117 30107
L38061 30079
L37976 30079
L37920 30107
L37892 30135
L37864 30191
L37864 30360
L37892 30416
L37920 30444
L37976 30473
L38061 30473
" />
<path d="M37611 30079
L37611 30473
" />
<path d="M37611 30135
L37582 30107
L37526 30079
L37442 30079
L37386 30107
L37357 30163
L37357 30473
" />
<path d="M36823 30444
L36879 30473
L36992 30473
L37048 30444
L37076 30416
L37104 30360
L37104 30191
L37076 30135
L37048 30107
L36992 30079
L36879 30079
L36823 30107
" />
<path d="M36345 30444
L36401 30473
L36514 30473
L36570 30444
L36598 30388
L36598 30163
L36570 30107
L36514 30079
L36401 30079
L36345 30107
L36317 30163
L36317 30219
L36598 30276
" />
<path d="M36064 30079
L36064 30669
" />
<path d="M36064 30107
L36008 30079
L35895 30079
L35839 30107
L35811 30135
L35783 30191
L35783 30360
L35811 30416
L35839 30444
L35895 30473
L36008 30473
L36064 30444
" />
<path d="M35614 30079
L35389 30079
" />
<path d="M35530 29882
L35530 30388
L35501 30444
L35445 30473
L35389 30473
" />
<path d="M35192 30473
L35192 30079
" />
<path d="M35192 29882
L35220 29910
L35192 29938
L35164 29910
L35192 29882
L35192 29938
" />
<path d="M34827 30473
L34883 30444
L34911 30416
L34939 30360
L34939 30191
L34911 30135
L34883 30107
L34827 30079
L34742 30079
L34686 30107
L34658 30135
L34630 30191
L34630 30360
L34658 30416
L34686 30444
L34742 30473
L34827 30473
" />
<path d="M34377 30079
L34377 30473
" />
<path d="M34377 30135
L34348 30107
L34292 30079
L34208 30079
L34152 30107
L34124 30163
L34124 30473
" />
<path d="M33477 30191
L33505 30163
L33561 30135
L33617 30135
L33674 30163
L33702 30191
L33730 30248
L33730 30304
L33702 30360
L33674 30388
L33617 30416
L33561 30416
L33505 30388
L33477 30360
" />
<path d="M33477 30135
L33477 30360
L33449 30388
L33420 30388
L33364 30360
L33336 30304
L33336 30163
L33392 30079
L33477 30023
L33589 29994
L33702 30023
L33786 30079
L33842 30163
L33870 30276
L33842 30388
L33786 30473
L33702 30529
L33589 30557
L33477 30529
L33392 30473
" />
<path d="M32830 30079
L32830 30557
L32858 30613
L32886 30641
L32942 30669
L33027 30669
L33083 30641
" />
<path d="M32830 30444
L32886 30473
L32999 30473
L33055 30444
L33083 30416
L33111 30360
L33111 30191
L33083 30135
L33055 30107
L32999 30079
L32886 30079
L32830 30107
" />
<path d="M32549 30473
L32549 30079
" />
<path d="M32549 30135
L32521 30107
L32464 30079
L32380 30079
L32324 30107
L32296 30163
L32296 30473
" />
<path d="M32296 30163
L32267 30107
L32211 30079
L32127 30079
L32071 30107
L32043 30163
L32043 30473
" />
<path d="M31508 30473
L31508 30163
L31536 30107
L31593 30079
L31705 30079
L31761 30107
" />
<path d="M31508 30444
L31564 30473
L31705 30473
L31761 30444
L31789 30388
L31789 30332
L31761 30276
L31705 30248
L31564 30248
L31508 30219
" />
<path d="M31227 30473
L31227 30079
" />
<path d="M31227 29882
L31255 29910
L31227 29938
L31199 29910
L31227 29882
L31227 29938
" />
<path d="M30861 30473
L30918 30444
L30946 30388
L30946 29882
" />
<path d="M30636 30416
L30608 30444
L30636 30473
L30665 30444
L30636 30416
L30636 30473
" />
<path d="M30102 30444
L30158 30473
L30271 30473
L30327 30444
L30355 30416
L30383 30360
L30383 30191
L30355 30135
L30327 30107
L30271 30079
L30158 30079
L30102 30107
" />
<path d="M29765 30473
L29821 30444
L29849 30416
L29877 30360
L29877 30191
L29849 30135
L29821 30107
L29765 30079
L29680 30079
L29624 30107
L29596 30135
L29568 30191
L29568 30360
L29596 30416
L29624 30444
L29680 30473
L29765 30473
" />
<path d="M29315 30473
L29315 30079
" />
<path d="M29315 30135
L29287 30107
L29230 30079
L29146 30079
L29090 30107
L29062 30163
L29062 30473
" />
<path d="M29062 30163
L29034 30107
L28977 30079
L28893 30079
L28837 30107
L28809 30163
L28809 30473
" />
<path d="M40282 31476
L40282 30886
" />
<path d="M40029 31476
L40029 31167
L40057 31111
L40113 31083
L40198 31083
L40254 31111
L40282 31139
" />
<path d="M39832 31083
L39607 31083
" />
<path d="M39748 30886
L39748 31392
L39720 31448
L39663 31476
L39607 31476
" />
<path d="M39495 31083
L39270 31083
" />
<path d="M39410 30886
L39410 31392
L39382 31448
L39326 31476
L39270 31476
" />
<path d="M39073 31083
L39073 31673
" />
<path d="M39073 31111
L39017 31083
L38904 31083
L38848 31111
L38820 31139
L38792 31195
L38792 31364
L38820 31420
L38848 31448
L38904 31476
L39017 31476
L39073 31448
" />
<path d="M38539 31420
L38510 31448
L38539 31476
L38567 31448
L38539 31420
L38539 31476
" />
<path d="M38539 31111
L38510 31139
L38539 31167
L38567 31139
L38539 31111
L38539 31167
" />
<path d="M37836 30858
L38342 31617
" />
<path d="M37217 30858
L37723 31617
" />
<path d="M37020 31476
L37020 30886
" />
<path d="M37020 31111
L36964 31083
L36851 31083
L36795 31111
L36767 31139
L36739 31195
L36739 31364
L36767 31420
L36795 31448
L36851 31476
L36964 31476
L37020 31448
" />
<path d="M36514 31448
L36458 31476
L36345 31476
L36289 31448
L36261 31392
L36261 31364
L36289 31308
L36345 31280
L36429 31280
L36486 31252
L36514 31195
L36514 31167
L36486 31111
L36429 31083
L36345 31083
L36289 31111
" />
<path d="M36092 31083
L35867 31083
" />
<path d="M36008 31476
L36008 30970
L35980 30914
L35923 30886
L35867 30886
" />
<path d="M35417 31448
L35473 31476
L35586 31476
L35642 31448
L35670 31420
L35698 31364
L35698 31195
L35670 31139
L35642 31111
L35586 31083
L35473 31083
L35417 31111
" />
<path d="M35080 31476
L35136 31448
L35164 31420
L35192 31364
L35192 31195
L35164 31139
L35136 31111
L35080 31083
L34995 31083
L34939 31111
L34911 31139
L34883 31195
L34883 31364
L34911 31420
L34939 31448
L34995 31476
L35080 31476
" />
<path d="M34630 31083
L34630 31476
" />
<path d="M34630 31139
L34602 31111
L34545 31083
L34461 31083
L34405 31111
L34377 31167
L34377 31476
" />
<path d="M33842 31448
L33899 31476
L34011 31476
L34067 31448
L34095 31420
L34124 31364
L34124 31195
L34095 31139
L34067 31111
L34011 31083
L33899 31083
L33842 31111
" />
<path d="M33364 31448
L33420 31476
L33533 31476
L33589 31448
L33617 31392
L33617 31167
L33589 31111
L33533 31083
L33420 31083
L33364 31111
L33336 31167
L33336 31223
L33617 31280
" />
<path d="M33083 31083
L33083 31673
" />
<path d="M33083 31111
L33027 31083
L32914 31083
L32858 31111
L32830 31139
L32802 31195
L32802 31364
L32830 31420
L32858 31448
L32914 31476
L33027 31476
L33083 31448
" />
<path d="M32633 31083
L32408 31083
" />
<path d="M32549 30886
L32549 31392
L32521 31448
L32464 31476
L32408 31476
" />
<path d="M32211 31476
L32211 31083
" />
<path d="M32211 30886
L32239 30914
L32211 30942
L32183 30914
L32211 30886
L32211 30942
" />
<path d="M31846 31476
L31902 31448
L31930 31420
L31958 31364
L31958 31195
L31930 31139
L31902 31111
L31846 31083
L31761 31083
L31705 31111
L31677 31139
L31649 31195
L31649 31364
L31677 31420
L31705 31448
L31761 31476
L31846 31476
" />
<path d="M31396 31083
L31396 31476
" />
<path d="M31396 31139
L31368 31111
L31311 31083
L31227 31083
L31171 31111
L31143 31167
L31143 31476
" />
<path d="M30861 31420
L30833 31448
L30861 31476
L30890 31448
L30861 31420
L30861 31476
" />
<path d="M30496 31476
L30552 31448
L30580 31420
L30608 31364
L30608 31195
L30580 31139
L30552 31111
L30496 31083
L30411 31083
L30355 31111
L30327 31139
L30299 31195
L30299 31364
L30327 31420
L30355 31448
L30411 31476
L30496 31476
" />
<path d="M30102 31083
L29962 31476
L29821 31083
" />
<path d="M29596 31476
L29596 30886
" />
<path d="M29343 31476
L29343 31167
L29371 31111
L29427 31083
L29512 31083
L29568 31111
L29596 31139
" />
</g>
<g style="fill:#000000; fill-opacity:0.0; 
stroke:#000000; stroke-width:59.0551; stroke-opacity:1; 
stroke-linecap:round; stroke-linejoin:round;">
<path d="M39550 15900
L39550 18550
" />
<path d="M38400 15900
L39550 15900
" />
<path d="M55950 30950
L56250 30800
" />
<path d="M55950 33900
L56250 34050
" />
<path d="M55950 31500
L55950 33300
" />
<path d="M55950 18850
L56250 18750
" />
<path d="M55950 21950
L56250 22050
" />
<path d="M55950 19350
L55950 21450
" />
<path d="M33050 14950
L21350 14950
" />
<path d="M33050 15900
L33050 14950
" />
<path d="M38400 15900
L33050 15900
" />
<path d="M47850 18550
L39550 18550
" />
<path d="M52800 15650
L53200 14950
" />
<path d="M49950 15650
L51850 15650
" />
<path d="M56250 15850 A900 900 0.0 0 0 55350 14950 " />
<path d="M20400 36950
L20400 15850
" />
<path d="M21250 37750
L55450 37750
" />
<path d="M55450 37750 A800 800 0.0 0 0 56250 36950 " />
<path d="M20400 36950 A800 800 0.0 0 0 21200 37750 " />
<path d="M21300 14950 A900 900 0.0 0 0 20400 15850 " />
</g>
<g style="fill:#000000; fill-opacity:0.0; 
stroke:#000000; stroke-width:47.2441; stroke-opacity:1; 
stroke-linecap:round; stroke-linejoin:round;">
<path d="M52472 32872
L52354 32990
" />
<path d="M52590 32990
L52354 32990
" />
<path d="M52472 32872
L52590 32990
" />
<path d="M52807 32518
L52807 32281
" />
<path d="M51448 32793
L52551 32793
" />
<path d="M51192 32281
L51192 32518
" />
<path d="M52551 32006
L51448 32006
" />
<path d="M51468.5 32006.3 A275.591 275.591 0.0 0 0 51192.9 32281.9 " />
<path d="M51192.9 32518.1 A275.591 275.591 0.0 0 0 51468.5 32793.7 " />
<path d="M52531.5 32793.7 A275.591 275.591 0.0 0 0 52807.1 32518.1 " />
<path d="M52807.1 32281.9 A275.591 275.591 0.0 0 0 52531.5 32006.3 " />
</g>
<g style="fill:#000000; fill-opacity:0.0; 
stroke:#000000; stroke-width:59.0551; stroke-opacity:1; 
stroke-linecap:round; stroke-linejoin:round;">
<path d="M52328 31475
L52328 31756
L52346 31813
L52384 31850
L52440 31869
L52478 31869
" />
<path d="M52140 31869
L52140 31475
L51990 31475
L51953 31494
L51934 31513
L51915 31550
L51915 31606
L51934 31644
L51953 31663
L51990 31681
L52140 31681
" />
<path d="M51578 31606
L51578 31869
" />
<path d="M51671 31456
L51765 31738
L51521 31738
" />
</g> 
</svg>
