<?xml version="1.0" standalone="no"?>
 <!DOCTYPE svg PUBLIC "-//W3C//DTD SVG 1.1//EN" 
 "http://www.w3.org/Graphics/SVG/1.1/DTD/svg11.dtd"> 
<svg xmlns="http://www.w3.org/2000/svg" version="1.1" 
    width="29.7002cm" height="21.0007cm" viewBox="0 0 116930 82680 ">
<title>SVG Picture created as WT32-SC01-F.SilkS.svg date 2023/02/01 14:16:31 </title>
  <desc>Picture generated by PCBNEW </desc>
<g style="fill:#000000; fill-opacity:1;stroke:#000000; stroke-opacity:1;
stroke-linecap:round; stroke-linejoin:round; "
 transform="translate(0 0) scale(1 1)">
</g>
<g style="fill:#000000; fill-opacity:0.0; 
stroke:#000000; stroke-width:-0.000393701; stroke-opacity:1; 
stroke-linecap:round; stroke-linejoin:round;">
</g>
<g style="fill:#000000; fill-opacity:0.0; 
stroke:#000000; stroke-width:118.11; stroke-opacity:1; 
stroke-linecap:round; stroke-linejoin:round;">
<path d="M24362 20010
L24334 20039
L24250 20067
L24193 20067
L24109 20039
L24053 19982
L24025 19926
L23997 19814
L23997 19729
L24025 19617
L24053 19560
L24109 19504
L24193 19476
L24250 19476
L24334 19504
L24362 19532
" />
<path d="M24953 20067
L24756 19785
" />
<path d="M24615 20067
L24615 19476
L24840 19476
L24896 19504
L24925 19532
L24953 19589
L24953 19673
L24925 19729
L24896 19757
L24840 19785
L24615 19785
" />
<path d="M25515 20067
L25178 20067
" />
<path d="M25346 20067
L25346 19476
L25290 19560
L25234 19617
L25178 19645
" />
<path d="M25740 19532
L25768 19504
L25824 19476
L25965 19476
L26021 19504
L26049 19532
L26078 19589
L26078 19645
L26049 19729
L25712 20067
L26078 20067
" />
<path d="M26303 19532
L26331 19504
L26387 19476
L26528 19476
L26584 19504
L26612 19532
L26640 19589
L26640 19645
L26612 19729
L26274 20067
L26640 20067
" />
<path d="M27006 19476
L27062 19476
L27118 19504
L27146 19532
L27174 19589
L27202 19701
L27202 19842
L27174 19954
L27146 20010
L27118 20039
L27062 20067
L27006 20067
L26949 20039
L26921 20010
L26893 19954
L26865 19842
L26865 19701
L26893 19589
L26921 19532
L26949 19504
L27006 19476
" />
<path d="M32839 18676
L32867 18592
L32867 18451
L32839 18395
L32810 18367
L32754 18338
L32698 18338
L32642 18367
L32614 18395
L32585 18451
L32557 18563
L32529 18620
L32501 18648
L32445 18676
L32389 18676
L32332 18648
L32304 18620
L32276 18563
L32276 18423
L32304 18338
" />
<path d="M32867 18085
L32276 18085
L32276 17945
L32304 17860
L32360 17804
L32417 17776
L32529 17748
L32614 17748
L32726 17776
L32782 17804
L32839 17860
L32867 17945
L32867 18085
" />
<path d="M32810 17157
L32839 17185
L32867 17270
L32867 17326
L32839 17410
L32782 17467
L32726 17495
L32614 17523
L32529 17523
L32417 17495
L32360 17467
L32304 17410
L32276 17326
L32276 17270
L32304 17185
L32332 17157
" />
<path d="M32867 16651
L32557 16651
L32501 16679
L32473 16735
L32473 16848
L32501 16904
" />
<path d="M32839 16651
L32867 16707
L32867 16848
L32839 16904
L32782 16932
L32726 16932
L32670 16904
L32642 16848
L32642 16707
L32614 16651
" />
<path d="M32867 16370
L32473 16370
" />
<path d="M32585 16370
L32529 16342
L32501 16314
L32473 16257
L32473 16201
" />
<path d="M32867 15751
L32276 15751
" />
<path d="M32839 15751
L32867 15807
L32867 15920
L32839 15976
L32810 16004
L32754 16032
L32585 16032
L32529 16004
L32501 15976
L32473 15920
L32473 15807
L32501 15751
" />
</g>
<g style="fill:#000000; fill-opacity:0.0; 
stroke:#000000; stroke-width:59.0551; stroke-opacity:1; 
stroke-linecap:round; stroke-linejoin:round;">
<path d="M56250 18750
L56250 15850
" />
<path d="M55950 19350
L55950 18850
" />
<path d="M55950 21950
L55950 21450
" />
<path d="M56250 30550
L56250 21800
" />
<path d="M56250 36950
L56250 34050
" />
<path d="M55950 33300
L55950 33900
" />
<path d="M55950 31500
L55950 30950
" />
<path d="M53200 14950
L55350 14950
" />
<path d="M51850 15650
L52800 15650
" />
<path d="M47850 15650
L47850 18550
" />
<path d="M49950 15650
L47850 15650
" />
</g>
<g style="fill:#000000; fill-opacity:0.0; 
stroke:#000000; stroke-width:118.11; stroke-opacity:1; 
stroke-linecap:round; stroke-linejoin:round;">
<path d="M42123 21257
L42207 21285
L42236 21314
L42264 21370
L42264 21454
L42236 21510
L42207 21539
L42151 21567
L41926 21567
L41926 20976
L42123 20976
L42179 21004
L42207 21032
L42236 21089
L42236 21145
L42207 21201
L42179 21229
L42123 21257
L41926 21257
" />
<path d="M42489 21398
L42770 21398
" />
<path d="M42432 21567
L42629 20976
L42826 21567
" />
<path d="M42939 20976
L43276 20976
" />
<path d="M43107 21567
L43107 20976
" />
<path d="M43923 21342
L44373 21342
" />
<path d="M42123 19757
L42207 19785
L42236 19814
L42264 19870
L42264 19954
L42236 20010
L42207 20039
L42151 20067
L41926 20067
L41926 19476
L42123 19476
L42179 19504
L42207 19532
L42236 19589
L42236 19645
L42207 19701
L42179 19729
L42123 19757
L41926 19757
" />
<path d="M42489 19898
L42770 19898
" />
<path d="M42432 20067
L42629 19476
L42826 20067
" />
<path d="M42939 19476
L43276 19476
" />
<path d="M43107 20067
L43107 19476
" />
<path d="M43923 19842
L44373 19842
" />
<path d="M44148 20067
L44148 19617
" />
<path d="M52686 17867
L52686 17276
L52911 17276
L52967 17304
L52995 17332
L53023 17389
L53023 17473
L52995 17529
L52967 17557
L52911 17585
L52686 17585
" />
<path d="M53389 17276
L53501 17276
L53557 17304
L53614 17360
L53642 17473
L53642 17670
L53614 17782
L53557 17839
L53501 17867
L53389 17867
L53332 17839
L53276 17782
L53248 17670
L53248 17473
L53276 17360
L53332 17304
L53389 17276
" />
<path d="M53839 17276
L53979 17867
L54092 17445
L54204 17867
L54345 17276
" />
<path d="M54570 17557
L54767 17557
" />
<path d="M54851 17867
L54570 17867
L54570 17276
L54851 17276
" />
<path d="M55442 17867
L55245 17585
" />
<path d="M55104 17867
L55104 17276
L55329 17276
L55385 17304
L55413 17332
L55442 17389
L55442 17473
L55413 17529
L55385 17557
L55329 17585
L55104 17585
" />
</g>
<g style="fill:#000000; fill-opacity:0.0; 
stroke:#000000; stroke-width:59.0551; stroke-opacity:1; 
stroke-linecap:round; stroke-linejoin:round;">
<path d="M21200 37750
L21250 37750
" />
<path d="M21350 14950
L21300 14950
" />
<path d="M39550 15900
L39550 18550
" />
<path d="M38400 15900
L39550 15900
" />
<path d="M55950 30950
L56250 30800
" />
<path d="M55950 33900
L56250 34050
" />
<path d="M55950 31500
L55950 33300
" />
<path d="M55950 18850
L56250 18750
" />
<path d="M55950 21950
L56250 22050
" />
<path d="M55950 19350
L55950 21450
" />
<path d="M33050 14950
L21350 14950
" />
<path d="M33050 15900
L33050 14950
" />
<path d="M38400 15900
L33050 15900
" />
<path d="M47850 18550
L39550 18550
" />
<path d="M52800 15650
L53200 14950
" />
<path d="M49950 15650
L51850 15650
" />
<path d="M56250 15850 A900 900 0.0 0 0 55350 14950 " />
<path d="M20400 36950
L20400 15850
" />
<path d="M21250 37750
L55450 37750
" />
<path d="M55450 37750 A800 800 0.0 0 0 56250 36950 " />
<path d="M20400 36950 A800 800 0.0 0 0 21200 37750 " />
<path d="M21300 14950 A900 900 0.0 0 0 20400 15850 " />
</g>
<g style="fill:#000000; fill-opacity:0.0; 
stroke:#000000; stroke-width:47.2441; stroke-opacity:1; 
stroke-linecap:round; stroke-linejoin:round;">
<path d="M53108 25237
L53108 24762
" />
<path d="M52391 25237
L52391 24762
" />
</g>
<g style="fill:#000000; fill-opacity:0.0; 
stroke:#000000; stroke-width:59.0551; stroke-opacity:1; 
stroke-linecap:round; stroke-linejoin:round;">
<path d="M39457 14700
L21307 14700
" />
<path d="M47857 14700
L55357 14700
" />
<path d="M39457 18300
L39457 14700
" />
<path d="M47857 18300
L39457 18300
" />
<path d="M47857 14700
L47857 18300
" />
<path d="M38207 35750
L38407 35750
" />
<path d="M38307 36150
L38307 34150
" />
<path d="M20429 15677
L20429 15579
" />
<path d="M20429 36642
L20429 15677
" />
<path d="M55370 37527
L21315 37527
" />
<path d="M56256 15579
L56256 36642
" />
<path d="M21315.4 14693.3 A885.827 885.827 0.0 0 0 20429.5 15579.1 " />
<path d="M56256.3 15579.1 A885.827 885.827 0.0 0 0 55370.5 14693.3 " />
<path d="M55370.5 37528 A885.827 885.827 0.0 0 0 56256.3 36642.1 " />
<path d="M20429.5 36642.1 A885.827 885.827 0.0 0 0 21315.4 37528 " />
</g>
<g style="fill:#000000; fill-opacity:0.0; 
stroke:#000000; stroke-width:47.2441; stroke-opacity:1; 
stroke-linecap:round; stroke-linejoin:round;">
<path d="M54320 25696
L55918 25696
" />
<path d="M55918 25696
L55918 24803
" />
<path d="M55918 24803
L54320 24803
" />
</g>
<g style="fill:#000000; fill-opacity:1.0; 
stroke:#000000; stroke-width:59.0551; stroke-opacity:1; 
stroke-linecap:round; stroke-linejoin:round;">
<polyline style="fill-rule:evenodd;"
points="33665,13140
37996,13140
37996,15896
33665,15877
33665,13140
" /> 
</g>
<g style="fill:#000000; fill-opacity:0.0; 
stroke:#000000; stroke-width:59.0551; stroke-opacity:1; 
stroke-linecap:round; stroke-linejoin:round;">
<path d="M33665 13140
L33665 15877
" />
<path d="M37996 13140
L33665 13140
" />
<path d="M37996 15896
L37996 13140
" />
<path d="M35831 15896
L37996 15896
" />
<path d="M33311 19066
L33311 19046
" />
<path d="M33311 17196
L33311 19066
" />
<path d="M34295 17196
L33311 17196
" />
<path d="M34295 19046
L34295 17196
" />
<path d="M33311 19046
L34295 19046
" />
<path d="M33055 20424
L35732 20424
" />
<path d="M33055 15896
L33055 20424
" />
<path d="M38409 15896
L33055 15896
" />
<path d="M38409 20424
L38409 15896
" />
<path d="M35732 20424
L38409 20424
" />
<circle cx="25700" cy="18400" r="2900" /> 
<path d="M23000 19400
L23000 21200
" />
<path d="M23000 21200
L24000 21200
" />
<path d="M24000 21200
L24000 20700
" />
<path d="M23000 17400
L23000 15600
" />
<path d="M23000 15600
L24000 15600
" />
<path d="M24000 15600
L24000 16100
" />
</g>
<g style="fill:#000000; fill-opacity:0.0; 
stroke:#000000; stroke-width:47.2441; stroke-opacity:1; 
stroke-linecap:round; stroke-linejoin:round;">
<path d="M54320 27663
L55918 27663
" />
<path d="M55918 27663
L55918 26769
" />
<path d="M55918 26769
L54320 26769
" />
</g>
<g style="fill:#000000; fill-opacity:0.0; 
stroke:#000000; stroke-width:59.0551; stroke-opacity:1; 
stroke-linecap:round; stroke-linejoin:round;">
<path d="M39562 21756
L33262 21756
" />
<path d="M39562 21756
L39562 25792
" />
<path d="M39562 25792
L37888 25792
" />
<path d="M33262 21756
L33262 25792
" />
<path d="M33262 25792
L37888 25792
" />
</g>
<g style="fill:#000000; fill-opacity:0.0; 
stroke:#000000; stroke-width:47.2441; stroke-opacity:1; 
stroke-linecap:round; stroke-linejoin:round;">
<path d="M30702 17261
L30860 17438
" />
<path d="M30860 17438
L30545 17438
" />
<path d="M30545 17438
L30702 17261
" />
<path d="M28675 15056
L28675 16158
" />
<path d="M28675 16158
L28557 16158
" />
<path d="M28557 16158
L28557 16768
" />
<path d="M31706 15056
L31706 16158
" />
<path d="M31824 16158
L31706 16158
" />
<path d="M31824 16158
L31824 16768
" />
<path d="M53768 31120
L53677 31120
" />
<path d="M55212 30916
L55212 33955
" />
<path d="M55212 33955
L53677 33955
" />
<path d="M52453 30916
L52453 31120
" />
<path d="M55212 30916
L53677 30916
" />
<path d="M53768 33750
L53677 33750
" />
<path d="M52653 31120
L52453 31120
" />
<path d="M52653 30916
L52453 30916
" />
<path d="M53768 33538
L53768 33750
" />
<path d="M52653 33750
L52453 33750
" />
<path d="M52453 33750
L52453 33955
" />
<path d="M52653 33955
L52453 33955
" />
<path d="M53768 31120
L53768 31333
" />
<path d="M53768 31766
L53768 33105
" />
<path d="M25427 26541
L25901 26541
" />
<path d="M25427 27258
L25901 27258
" />
<path d="M39558 20251
L39558 19777
" />
<path d="M38841 20251
L38841 19777
" />
<path d="M49712 23991
L50187 23991
" />
<path d="M49712 24708
L50187 24708
" />
<path d="M43325 26038
L43325 29211
" />
<path d="M43325 29211
L45774 29211
" />
<path d="M45774 29211
L45774 26038
" />
<path d="M47772 22891
L47298 22891
" />
<path d="M47772 23608
L47298 23608
" />
<path d="M53999 26680
L55597 26680
" />
<path d="M53999 25786
L53999 26680
" />
<path d="M55597 25786
L53999 25786
" />
<path d="M25006 31134
L25793 31134
" />
<path d="M25006 32236
L25006 31134
" />
<path d="M25793 32236
L25006 32236
" />
<path d="M25793 31134
L25793 32236
" />
<path d="M47751 24708
L47277 24708
" />
<path d="M47751 23991
L47277 23991
" />
<path d="M51958 20177
L51958 20651
" />
<path d="M51241 20177
L51241 20651
" />
</g>
<g style="fill:#000000; fill-opacity:0.0; 
stroke:#000000; stroke-width:59.0551; stroke-opacity:1; 
stroke-linecap:round; stroke-linejoin:round;">
<path d="M56226 20045
L55754 20006
" />
<path d="M56226 20754
L56226 20045
" />
<path d="M55754 20793
L56226 20754
" />
<path d="M55754 21266
L55754 20400
" />
<path d="M54848 21266
L55754 21266
" />
<path d="M54848 19533
L54848 21266
" />
<path d="M55754 19533
L54848 19533
" />
<path d="M55754 20400
L55754 19533
" />
<path d="M49126 33423
L49126 31376
" />
<path d="M49126 31376
L51173 31376
" />
<path d="M51173 31376
L51173 33423
" />
<path d="M51173 33423
L49126 33423
" />
<path d="M55754 32400
L55754 31533
" />
<path d="M55754 31533
L54848 31533
" />
<path d="M54848 31533
L54848 33266
" />
<path d="M54848 33266
L55754 33266
" />
<path d="M55754 33266
L55754 32400
" />
<path d="M55754 32793
L56226 32754
" />
<path d="M56226 32754
L56226 32045
" />
<path d="M56226 32045
L55754 32006
" />
</g>
<g style="fill:#000000; fill-opacity:0.0; 
stroke:#000000; stroke-width:47.2441; stroke-opacity:1; 
stroke-linecap:round; stroke-linejoin:round;">
<path d="M28270 23900
L28270 22380
" />
<path d="M28270 22380
L28170 22380
" />
<path d="M28270 23900
L28270 25419
" />
<path d="M28270 25419
L28170 25419
" />
<path d="M24129 23900
L24129 22380
" />
<path d="M24129 22380
L24229 22380
" />
<path d="M24129 23900
L24129 25419
" />
<path d="M24129 25419
L24229 25419
" />
<path d="M24229 25419
L24229 26134
" />
<path d="M43821 22559
L43821 23740
" />
<path d="M45278 23740
L43821 23740
" />
<path d="M45278 22559
L45278 23740
" />
<path d="M43821 22559
L45278 22559
" />
<path d="M43821 24159
L45278 24159
" />
<path d="M45278 24159
L45278 25340
" />
<path d="M45278 25340
L43821 25340
" />
<path d="M43821 24159
L43821 25340
" />
<path d="M31939 18910
L31467 18910
" />
<path d="M30160 18910
L30632 18910
" />
<path d="M30160 20270
L30160 18910
" />
<path d="M31939 20270
L31939 18910
" />
<path d="M31520 20689
L31467 20689
" />
<path d="M30579 20689
L30632 20689
" />
<path d="M30579 20689
L30160 20270
" />
<path d="M31520 20689
L31939 20270
" />
<path d="M30435 20981
L30435 20784
" />
<path d="M30337 20882
L30534 20882
" />
<path d="M52574 30512
L52574 30315
" />
<path d="M52672 30414
L52475 30414
" />
<path d="M52381 29329
L51962 28910
" />
<path d="M52381 30270
L51962 30689
" />
<path d="M52381 30270
L52381 30217
" />
<path d="M52381 29329
L52381 29382
" />
<path d="M51962 28910
L50601 28910
" />
<path d="M51962 30689
L50601 30689
" />
<path d="M50601 30689
L50601 30217
" />
<path d="M50601 28910
L50601 29382
" />
<path d="M27429 28813
L27429 29059
" />
<path d="M27306 28936
L27552 28936
" />
<path d="M27647 30267
L28066 30686
" />
<path d="M27647 28932
L28066 28513
" />
<path d="M27647 28932
L27647 29182
" />
<path d="M27647 30267
L27647 30017
" />
<path d="M28066 30686
L29820 30686
" />
<path d="M28066 28513
L29820 28513
" />
<path d="M29820 28513
L29820 29182
" />
<path d="M29820 30686
L29820 30017
" />
<path d="M27763 32063
L27763 32732
" />
<path d="M27763 34236
L27763 33567
" />
<path d="M29517 34236
L27763 34236
" />
<path d="M29517 32063
L27763 32063
" />
<path d="M29936 32482
L29936 32732
" />
<path d="M29936 33817
L29936 33567
" />
<path d="M29936 33817
L29517 34236
" />
<path d="M29936 32482
L29517 32063
" />
<path d="M30277 33813
L30031 33813
" />
<path d="M30154 33936
L30154 33690
" />
<path d="M29558 26677
L29558 27151
" />
<path d="M28841 26677
L28841 27151
" />
<path d="M27551 30991
L27077 30991
" />
<path d="M27551 31708
L27077 31708
" />
<path d="M32560 32539
L33032 32539
" />
<path d="M34339 32539
L33867 32539
" />
<path d="M34339 31179
L34339 32539
" />
<path d="M32560 31179
L32560 32539
" />
<path d="M32979 30760
L33032 30760
" />
<path d="M33920 30760
L33867 30760
" />
<path d="M33920 30760
L34339 31179
" />
<path d="M32979 30760
L32560 31179
" />
<path d="M34064 30468
L34064 30665
" />
<path d="M34162 30567
L33965 30567
" />
<path d="M46661 35255
L46551 35255
" />
<path d="M46551 35255
L46551 34625
" />
<path d="M46551 34625
L46188 34625
" />
<path d="M46188 34625
L46188 37703
" />
<path d="M46188 37703
L50173 37703
" />
<path d="M50173 37703
L50173 34625
" />
<path d="M50173 34625
L49811 34625
" />
<path d="M49811 34625
L49811 35255
" />
<path d="M49811 35255
L49700 35255
" />
<path d="M47196 37703
L47196 35987
" />
<path d="M47196 35987
L49165 35987
" />
<path d="M49165 35987
L49165 37703
" />
<path d="M46188 35255
L46551 35255
" />
<path d="M50173 35255
L49811 35255
" />
<path d="M46488 36184
L46488 36814
" />
<path d="M46488 36814
L46881 36814
" />
<path d="M46881 36814
L46881 36184
" />
<path d="M46881 36184
L46488 36184
" />
<path d="M49874 36184
L49874 36814
" />
<path d="M49874 36814
L49480 36814
" />
<path d="M49480 36814
L49480 36184
" />
<path d="M49480 36184
L49874 36184
" />
<path d="M46881 36814
L46881 37703
" />
<path d="M46685 36814
L46685 37703
" />
<path d="M46661 35255
L46661 34776
" />
<path d="M23094 21861
L23573 21861
" />
<path d="M21535 21885
L20646 21885
" />
<path d="M21535 22081
L20646 22081
" />
<path d="M22165 24680
L22165 25074
" />
<path d="M21535 24680
L22165 24680
" />
<path d="M21535 25074
L21535 24680
" />
<path d="M22165 25074
L21535 25074
" />
<path d="M22165 22081
L22165 21688
" />
<path d="M21535 22081
L22165 22081
" />
<path d="M21535 21688
L21535 22081
" />
<path d="M22165 21688
L21535 21688
" />
<path d="M23094 25373
L23094 25011
" />
<path d="M23094 21388
L23094 21751
" />
<path d="M22362 24365
L20646 24365
" />
<path d="M22362 22396
L22362 24365
" />
<path d="M20646 22396
L22362 22396
" />
<path d="M23094 25011
L23094 24900
" />
<path d="M23724 25011
L23094 25011
" />
<path d="M23724 25373
L23724 25011
" />
<path d="M20646 25373
L23724 25373
" />
<path d="M20646 21388
L20646 25373
" />
<path d="M23724 21388
L20646 21388
" />
<path d="M23724 21751
L23724 21388
" />
<path d="M23094 21751
L23724 21751
" />
<path d="M23094 21861
L23094 21751
" />
<path d="M50911 35255
L50801 35255
" />
<path d="M50801 35255
L50801 34625
" />
<path d="M50801 34625
L50438 34625
" />
<path d="M50438 34625
L50438 37703
" />
<path d="M50438 37703
L53635 37703
" />
<path d="M53635 37703
L53635 34625
" />
<path d="M53635 34625
L53273 34625
" />
<path d="M53273 34625
L53273 35255
" />
<path d="M53273 35255
L53163 35255
" />
<path d="M51446 37703
L51446 35987
" />
<path d="M51446 35987
L52627 35987
" />
<path d="M52627 35987
L52627 37703
" />
<path d="M50438 35255
L50801 35255
" />
<path d="M53635 35255
L53273 35255
" />
<path d="M50738 36184
L50738 36814
" />
<path d="M50738 36814
L51131 36814
" />
<path d="M51131 36814
L51131 36184
" />
<path d="M51131 36184
L50738 36184
" />
<path d="M53336 36184
L53336 36814
" />
<path d="M53336 36814
L52942 36814
" />
<path d="M52942 36814
L52942 36184
" />
<path d="M52942 36184
L53336 36184
" />
<path d="M51131 36814
L51131 37703
" />
<path d="M50935 36814
L50935 37703
" />
<path d="M50911 35255
L50911 34776
" />
<path d="M31184 24577
L31066 24459
" />
<path d="M31302 24459
L31066 24459
" />
<path d="M31184 24577
L31302 24459
" />
<path d="M31518 24931
L31518 25168
" />
<path d="M30160 24656
L31262 24656
" />
<path d="M29904 25168
L29904 24931
" />
<path d="M31262 25443
L30160 25443
" />
<path d="M29904.7 25168.1 A275.591 275.591 0.0 0 0 30180.3 25443.7 " />
<path d="M30180.3 24656.3 A275.591 275.591 0.0 0 0 29904.7 24931.9 " />
<path d="M31518.9 24931.9 A275.591 275.591 0.0 0 0 31243.3 24656.3 " />
<path d="M31243.3 25443.7 A275.591 275.591 0.0 0 0 31518.9 25168.1 " />
<path d="M52158 25237
L52158 24762
" />
<path d="M51441 25237
L51441 24762
" />
<path d="M28727 21158
L29201 21158
" />
<path d="M28727 20441
L29201 20441
" />
<path d="M32308 27022
L32308 26548
" />
<path d="M31591 27022
L31591 26548
" />
<path d="M31401 28491
L30927 28491
" />
<path d="M31401 29208
L30927 29208
" />
<path d="M29522 31708
L29048 31708
" />
<path d="M29522 30991
L29048 30991
" />
<path d="M33508 28662
L33508 29137
" />
<path d="M32791 28662
L32791 29137
" />
<path d="M53768 19716
L53768 21055
" />
<path d="M53768 19070
L53768 19283
" />
<path d="M52653 21905
L52453 21905
" />
<path d="M52453 21700
L52453 21905
" />
<path d="M52653 21700
L52453 21700
" />
<path d="M53768 21488
L53768 21700
" />
<path d="M52653 18866
L52453 18866
" />
<path d="M52653 19070
L52453 19070
" />
<path d="M53768 21700
L53677 21700
" />
<path d="M55212 18866
L53677 18866
" />
<path d="M52453 18866
L52453 19070
" />
<path d="M55212 21905
L53677 21905
" />
<path d="M55212 18866
L55212 21905
" />
<path d="M53768 19070
L53677 19070
" />
<path d="M29935 26650
L29935 26964
" />
<path d="M29935 26650
L29935 26335
" />
<path d="M31164 26650
L31164 26964
" />
<path d="M31164 26650
L31164 25941
" />
<path d="M23094 26511
L23094 26401
" />
<path d="M23094 26401
L23724 26401
" />
<path d="M23724 26401
L23724 26038
" />
<path d="M23724 26038
L20646 26038
" />
<path d="M20646 26038
L20646 33172
" />
<path d="M20646 33172
L23724 33172
" />
<path d="M23724 33172
L23724 32810
" />
<path d="M23724 32810
L23094 32810
" />
<path d="M23094 32810
L23094 32700
" />
<path d="M20646 27046
L22362 27046
" />
<path d="M22362 27046
L22362 32164
" />
<path d="M22362 32164
L20646 32164
" />
<path d="M23094 26038
L23094 26401
" />
<path d="M23094 33172
L23094 32810
" />
<path d="M22165 26338
L21535 26338
" />
<path d="M21535 26338
L21535 26731
" />
<path d="M21535 26731
L22165 26731
" />
<path d="M22165 26731
L22165 26338
" />
<path d="M22165 32873
L21535 32873
" />
<path d="M21535 32873
L21535 32479
" />
<path d="M21535 32479
L22165 32479
" />
<path d="M22165 32479
L22165 32873
" />
<path d="M21535 26731
L20646 26731
" />
<path d="M21535 26535
L20646 26535
" />
<path d="M23094 26511
L23573 26511
" />
<path d="M21256 22377
L22240 22377
" />
<path d="M22240 22377
L22240 22791
" />
<path d="M22240 22791
L22630 22791
" />
<path d="M21256 24826
L22240 24826
" />
<path d="M22240 24826
L22240 24413
" />
<path d="M20481 22838
L20481 24366
" />
<path d="M47094 19911
L47094 19801
" />
<path d="M47094 19801
L47724 19801
" />
<path d="M47724 19801
L47724 19438
" />
<path d="M47724 19438
L44646 19438
" />
<path d="M44646 19438
L44646 21848
" />
<path d="M44646 21848
L47724 21848
" />
<path d="M47724 21848
L47724 21486
" />
<path d="M47724 21486
L47094 21486
" />
<path d="M47094 21486
L47094 21375
" />
<path d="M44646 20446
L46362 20446
" />
<path d="M46362 20446
L46362 20840
" />
<path d="M46362 20840
L44646 20840
" />
<path d="M47094 19438
L47094 19801
" />
<path d="M47094 21848
L47094 21486
" />
<path d="M46165 19738
L45535 19738
" />
<path d="M45535 19738
L45535 20131
" />
<path d="M45535 20131
L46165 20131
" />
<path d="M46165 20131
L46165 19738
" />
<path d="M46165 21549
L45535 21549
" />
<path d="M45535 21549
L45535 21155
" />
<path d="M45535 21155
L46165 21155
" />
<path d="M46165 21155
L46165 21549
" />
<path d="M45535 20131
L44646 20131
" />
<path d="M45535 19935
L44646 19935
" />
<path d="M47094 19911
L47573 19911
" />
<path d="M32686 23886
L32686 23217
" />
<path d="M32686 21713
L32686 22382
" />
<path d="M30932 21713
L32686 21713
" />
<path d="M30932 23886
L32686 23886
" />
<path d="M30513 23467
L30513 23217
" />
<path d="M30513 22132
L30513 22382
" />
<path d="M30513 22132
L30932 21713
" />
<path d="M30513 23467
L30932 23886
" />
<path d="M30172 22136
L30418 22136
" />
<path d="M30295 22013
L30295 22259
" />
<path d="M36151 34008
L35677 34008
" />
<path d="M36151 33291
L35677 33291
" />
<circle cx="48850" cy="21500" r="472.441" /> 
<circle cx="32150" cy="21050" r="472.441" /> 
<circle cx="44650" cy="30150" r="472.441" /> 
<circle cx="48850" cy="20250" r="472.441" /> 
<path d="M36162 23941
L36637 23941
" />
<path d="M36162 24658
L36637 24658
" />
<path d="M45550 33201
L46849 33201
" />
<path d="M46849 33201
L46849 31075
" />
<path d="M45550 33201
L45550 31075
" />
<circle cx="47500" cy="32850" r="472.441" /> 
<path d="M43048 32687
L41808 32687
" />
<path d="M41808 32687
L41808 31664
" />
<path d="M41808 31664
L43048 31664
" />
<path d="M41808 32313
L41454 32550
" />
<path d="M41454 32550
L41375 32550
" />
<path d="M41808 32038
L41454 31801
" />
<path d="M41454 31801
L41375 31801
" />
<path d="M30442 30925
L30442 31693
" />
<path d="M30442 30925
L30442 30157
" />
<path d="M32457 30925
L32457 31693
" />
<path d="M32457 30925
L32457 29567
" />
<path d="M46958 28912
L46958 29387
" />
<path d="M46241 28912
L46241 29387
" />
<path d="M48141 28912
L48141 29387
" />
<path d="M48858 28912
L48858 29387
" />
<path d="M49808 28912
L49808 29387
" />
<path d="M49091 28912
L49091 29387
" />
<path d="M37837 21475
L34663 21475
" />
<path d="M34663 21475
L34663 23924
" />
<path d="M34663 23924
L37837 23924
" />
<path d="M38912 32891
L39387 32891
" />
<path d="M38912 33608
L39387 33608
" />
</g>
<g style="fill:#000000; fill-opacity:0.0; 
stroke:#000000; stroke-width:59.0551; stroke-opacity:1; 
stroke-linecap:round; stroke-linejoin:round;">
<circle cx="25650" cy="18384.3" r="2559.06" /> 
</g>
<g style="fill:#000000; fill-opacity:0.0; 
stroke:#000000; stroke-width:47.2441; stroke-opacity:1; 
stroke-linecap:round; stroke-linejoin:round;">
<path d="M55597 27753
L53999 27753
" />
<path d="M53999 27753
L53999 28646
" />
<path d="M53999 28646
L55597 28646
" />
<path d="M54776 24114
L56296 24114
" />
<path d="M54776 22885
L56296 22885
" />
<path d="M54776 24114
L54776 22885
" />
<path d="M54776 22728
L55217 22728
" />
<path d="M55217 22728
L55217 22885
" />
<path d="M55217 22885
L54776 22885
" />
<path d="M54776 22885
L54776 22728
" />
<path d="M54725 24000
L54776 24000
" />
<path d="M54776 24000
L54776 24000
" />
<path d="M54776 24000
L54725 24000
" />
<path d="M54725 24000
L54725 24000
" />
<path d="M54725 23000
L54776 23000
" />
<path d="M54776 23000
L54776 23000
" />
<path d="M54776 23000
L54725 23000
" />
<path d="M54725 23000
L54725 23000
" />
<path d="M56296.1 24114.2 A614.173 614.173 0.0 0 0 56296.1 22885.8 " />
<path d="M48890 25268
L49559 25268
" />
<path d="M49559 25268
L49559 27866
" />
<path d="M49559 27866
L48890 27866
" />
<path d="M47709 27866
L47040 27866
" />
<path d="M47040 27866
L47040 25268
" />
<path d="M47040 25268
L47709 25268
" />
</g>
<g style="fill:#000000; fill-opacity:0.0; 
stroke:#000000; stroke-width:59.0551; stroke-opacity:1; 
stroke-linecap:round; stroke-linejoin:round;">
<path d="M50909 15845
L50043 15845
" />
<path d="M50043 15845
L50043 16751
" />
<path d="M50043 16751
L51775 16751
" />
<path d="M51775 16751
L51775 15845
" />
<path d="M51775 15845
L50909 15845
" />
<path d="M51303 15845
L51263 15373
" />
<path d="M51263 15373
L50555 15373
" />
<path d="M50555 15373
L50515 15845
" />
</g>
<g style="fill:#000000; fill-opacity:0.0; 
stroke:#000000; stroke-width:47.2441; stroke-opacity:1; 
stroke-linecap:round; stroke-linejoin:round;">
<path d="M49599 17781
L49599 17872
" />
<path d="M49394 16337
L52433 16337
" />
<path d="M52433 16337
L52433 17872
" />
<path d="M49394 19096
L49599 19096
" />
<path d="M49394 16337
L49394 17872
" />
<path d="M52229 17781
L52229 17872
" />
<path d="M49599 18896
L49599 19096
" />
<path d="M49394 18896
L49394 19096
" />
<path d="M52016 17781
L52229 17781
" />
<path d="M52229 18896
L52229 19096
" />
<path d="M52229 19096
L52433 19096
" />
<path d="M52433 18896
L52433 19096
" />
<path d="M49599 17781
L49811 17781
" />
<path d="M50244 17781
L51583 17781
" />
<path d="M51550 26580
L50809 26580
" />
<path d="M51550 26580
L52290 26580
" />
<path d="M51550 28619
L50809 28619
" />
<path d="M51550 28619
L52937 28619
" />
<path d="M39175 30792
L38407 30792
" />
<path d="M39175 30792
L39943 30792
" />
<path d="M39175 32807
L38407 32807
" />
<path d="M39175 32807
L40533 32807
" />
<path d="M24192 23900
L24192 25258
" />
<path d="M24192 23900
L24192 23132
" />
<path d="M26207 23900
L26207 24667
" />
<path d="M26207 23900
L26207 23132
" />
<path d="M28756 23098
L29543 23098
" />
<path d="M28756 24201
L28756 23098
" />
<path d="M29543 24201
L28756 24201
" />
<path d="M29543 23098
L29543 24201
" />
<path d="M34064 26888
L37686 26888
" />
<path d="M37686 26888
L37686 27755
" />
<path d="M37686 30511
L34064 30511
" />
<path d="M37686 29644
L37686 30511
" />
<path d="M34064 29644
L34064 30511
" />
<path d="M34064 26888
L34064 27755
" />
<path d="M34064 27755
L33906 27755
" />
<path d="M47908 28898
L47908 29372
" />
<path d="M47191 28898
L47191 29372
" />
<path d="M25899 35155
L25788 35155
" />
<path d="M25788 35155
L25788 34525
" />
<path d="M25788 34525
L25426 34525
" />
<path d="M25426 34525
L25426 37603
" />
<path d="M25426 37603
L29411 37603
" />
<path d="M29411 37603
L29411 34525
" />
<path d="M29411 34525
L29048 34525
" />
<path d="M29048 34525
L29048 35155
" />
<path d="M29048 35155
L28938 35155
" />
<path d="M26434 37603
L26434 35887
" />
<path d="M26434 35887
L28403 35887
" />
<path d="M28403 35887
L28403 37603
" />
<path d="M25426 35155
L25788 35155
" />
<path d="M29411 35155
L29048 35155
" />
<path d="M25725 36084
L25725 36714
" />
<path d="M25725 36714
L26119 36714
" />
<path d="M26119 36714
L26119 36084
" />
<path d="M26119 36084
L25725 36084
" />
<path d="M29111 36084
L29111 36714
" />
<path d="M29111 36714
L28718 36714
" />
<path d="M28718 36714
L28718 36084
" />
<path d="M28718 36084
L29111 36084
" />
<path d="M26119 36714
L26119 37603
" />
<path d="M25922 36714
L25922 37603
" />
<path d="M25899 35155
L25899 34676
" />
<path d="M38277 27705
L38644 27705
" />
<path d="M39522 27705
L39155 27705
" />
<path d="M39522 27705
L39522 26855
" />
<path d="M38277 27705
L38277 27130
" />
<path d="M39772 29408
L39298 29408
" />
<path d="M39772 28691
L39298 28691
" />
<path d="M37238 32299
L35112 32299
" />
<path d="M37238 31000
L35112 31000
" />
<path d="M37238 32299
L37238 31000
" />
<path d="M29799 22411
L28500 22411
" />
<path d="M28500 22411
L28500 24537
" />
<path d="M29799 22411
L29799 24537
" />
</g>
<g style="fill:#000000; fill-opacity:0.0; 
stroke:#000000; stroke-width:59.0551; stroke-opacity:1; 
stroke-linecap:round; stroke-linejoin:round;">
<path d="M52928 25101
L52740 25232
" />
<path d="M52928 25326
L52534 25326
L52534 25176
L52553 25138
L52571 25119
L52609 25101
L52665 25101
L52703 25119
L52721 25138
L52740 25176
L52740 25326
" />
<path d="M52571 24951
L52553 24932
L52534 24895
L52534 24801
L52553 24763
L52571 24745
L52609 24726
L52646 24726
L52703 24745
L52928 24970
L52928 24726
" />
<path d="M53359 25428
L53359 25034
L53453 25034
L53509 25053
L53546 25090
L53565 25128
L53584 25203
L53584 25259
L53565 25334
L53546 25371
L53509 25409
L53453 25428
L53359 25428
" />
<path d="M53921 25165
L53921 25428
" />
<path d="M53828 25015
L53734 25296
L53978 25296
" />
<path d="M38768 18684
L38768 18965
L38750 19021
L38712 19059
L38656 19078
L38618 19078
" />
<path d="M39162 19078
L38937 19078
" />
<path d="M39049 19078
L39049 18684
L39012 18740
L38974 18778
L38937 18796
" />
<path d="M25290 16121
L25346 16140
L25365 16159
L25384 16196
L25384 16253
L25365 16290
L25346 16309
L25309 16328
L25159 16328
L25159 15934
L25290 15934
L25328 15953
L25346 15971
L25365 16009
L25365 16046
L25346 16084
L25328 16103
L25290 16121
L25159 16121
" />
<path d="M25496 15934
L25721 15934
" />
<path d="M25609 16328
L25609 15934
" />
<path d="M26059 16328
L25834 16328
" />
<path d="M25946 16328
L25946 15934
L25909 15990
L25871 16028
L25834 16046
" />
<path d="M53309 27428
L53309 27034
L53403 27034
L53459 27053
L53496 27090
L53515 27128
L53534 27203
L53534 27259
L53515 27334
L53496 27371
L53459 27409
L53403 27428
L53309 27428
" />
<path d="M53665 27034
L53909 27034
L53778 27184
L53834 27184
L53871 27203
L53890 27221
L53909 27259
L53909 27353
L53890 27390
L53871 27409
L53834 27428
L53721 27428
L53684 27409
L53665 27390
" />
</g>
<g style="fill:#000000; fill-opacity:0.0; 
stroke:#000000; stroke-width:60; stroke-opacity:1; 
stroke-linecap:round; stroke-linejoin:round;">
<path d="M33395 25180
L33395 25504
L33414 25542
L33433 25561
L33471 25580
L33547 25580
L33585 25561
L33604 25542
L33623 25504
L33623 25180
" />
<path d="M33833 25580
L33909 25580
L33947 25561
L33966 25542
L34004 25485
L34023 25409
L34023 25257
L34004 25219
L33985 25200
L33947 25180
L33871 25180
L33833 25200
L33814 25219
L33795 25257
L33795 25352
L33814 25390
L33833 25409
L33871 25428
L33947 25428
L33985 25409
L34004 25390
L34023 25352
" />
<path d="M38695 25230
L38923 25230
" />
<path d="M38809 25630
L38809 25230
" />
<path d="M39019 25230
L39285 25630
" />
<path d="M39285 25230
L39019 25630
" />
</g>
<g style="fill:#000000; fill-opacity:0.0; 
stroke:#000000; stroke-width:59.0551; stroke-opacity:1; 
stroke-linecap:round; stroke-linejoin:round;">
<path d="M29881 15534
L29881 15815
L29862 15871
L29825 15909
L29768 15928
L29731 15928
" />
<path d="M30274 15928
L30050 15928
" />
<path d="M30162 15928
L30162 15534
L30125 15590
L30087 15628
L30050 15646
" />
<path d="M30612 15665
L30612 15928
" />
<path d="M30518 15515
L30424 15796
L30668 15796
" />
<path d="M53825 30809
L53881 30828
L53975 30828
L54012 30809
L54031 30790
L54050 30753
L54050 30715
L54031 30678
L54012 30659
L53975 30640
L53900 30621
L53862 30603
L53843 30584
L53825 30546
L53825 30509
L53843 30471
L53862 30453
L53900 30434
L53993 30434
L54050 30453
" />
<path d="M54181 30434
L54275 30828
L54350 30546
L54424 30828
L54518 30434
" />
<path d="M54631 30434
L54893 30434
L54724 30828
" />
<path d="M25634 26940
L25615 26959
L25559 26978
L25521 26978
L25465 26959
L25428 26921
L25409 26884
L25390 26809
L25390 26753
L25409 26678
L25428 26640
L25465 26603
L25521 26584
L25559 26584
L25615 26603
L25634 26621
" />
<path d="M26009 26978
L25784 26978
" />
<path d="M25896 26978
L25896 26584
L25859 26640
L25821 26678
L25784 26696
" />
<path d="M39340 20015
L39359 20034
L39378 20090
L39378 20128
L39359 20184
L39321 20221
L39284 20240
L39209 20259
L39153 20259
L39078 20240
L39040 20221
L39003 20184
L38984 20128
L38984 20090
L39003 20034
L39021 20015
" />
<path d="M38984 19884
L38984 19640
L39134 19771
L39134 19715
L39153 19678
L39171 19659
L39209 19640
L39303 19640
L39340 19659
L39359 19678
L39378 19715
L39378 19828
L39359 19865
L39340 19884
" />
<path d="M49884 24490
L49865 24509
L49809 24528
L49771 24528
L49715 24509
L49678 24471
L49659 24434
L49640 24359
L49640 24303
L49659 24228
L49678 24190
L49715 24153
L49771 24134
L49809 24134
L49865 24153
L49884 24171
" />
<path d="M50221 24265
L50221 24528
" />
<path d="M50128 24115
L50034 24396
L50278 24396
" />
<path d="M43834 26440
L43815 26459
L43759 26478
L43721 26478
L43665 26459
L43628 26421
L43609 26384
L43590 26309
L43590 26253
L43609 26178
L43628 26140
L43665 26103
L43721 26084
L43759 26084
L43815 26103
L43834 26121
" />
<path d="M44021 26478
L44096 26478
L44134 26459
L44153 26440
L44190 26384
L44209 26309
L44209 26159
L44190 26121
L44171 26103
L44134 26084
L44059 26084
L44021 26103
L44003 26121
L43984 26159
L43984 26253
L44003 26290
L44021 26309
L44059 26328
L44134 26328
L44171 26309
L44190 26290
L44209 26253
" />
<path d="M47346 23390
L47328 23409
L47271 23428
L47234 23428
L47178 23409
L47140 23371
L47121 23334
L47103 23259
L47103 23203
L47121 23128
L47140 23090
L47178 23053
L47234 23034
L47271 23034
L47328 23053
L47346 23071
" />
<path d="M47721 23428
L47496 23428
" />
<path d="M47609 23428
L47609 23034
L47571 23090
L47534 23128
L47496 23146
" />
<path d="M48096 23428
L47871 23428
" />
<path d="M47984 23428
L47984 23034
L47946 23090
L47909 23128
L47871 23146
" />
<path d="M53309 26478
L53309 26084
L53403 26084
L53459 26103
L53496 26140
L53515 26178
L53534 26253
L53534 26309
L53515 26384
L53496 26421
L53459 26459
L53403 26478
L53309 26478
" />
<path d="M53890 26084
L53703 26084
L53684 26271
L53703 26253
L53740 26234
L53834 26234
L53871 26253
L53890 26271
L53909 26309
L53909 26403
L53890 26440
L53871 26459
L53834 26478
L53740 26478
L53703 26459
L53684 26440
" />
<path d="M25934 32013
L26215 32013
L26271 32032
L26309 32069
L26328 32126
L26328 32163
" />
<path d="M26328 31826
L25934 31826
L25934 31676
L25953 31638
L25971 31619
L26009 31601
L26065 31601
L26103 31619
L26121 31638
L26140 31676
L26140 31826
" />
<path d="M26328 31226
L26328 31451
" />
<path d="M26328 31338
L25934 31338
L25990 31376
L26028 31413
L26046 31451
" />
<path d="M47434 24528
L47303 24340
" />
<path d="M47209 24528
L47209 24134
L47359 24134
L47396 24153
L47415 24171
L47434 24209
L47434 24265
L47415 24303
L47396 24321
L47359 24340
L47209 24340
" />
<path d="M47809 24528
L47584 24528
" />
<path d="M47696 24528
L47696 24134
L47659 24190
L47621 24228
L47584 24246
" />
<path d="M51128 20415
L50940 20546
" />
<path d="M51128 20640
L50734 20640
L50734 20490
L50753 20453
L50771 20434
L50809 20415
L50865 20415
L50903 20434
L50921 20453
L50940 20490
L50940 20640
" />
<path d="M50734 20284
L50734 20040
L50884 20171
L50884 20115
L50903 20078
L50921 20059
L50959 20040
L51053 20040
L51090 20059
L51109 20078
L51128 20115
L51128 20228
L51109 20265
L51090 20284
" />
<path d="M54309 20874
L54328 20818
L54328 20724
L54309 20687
L54290 20668
L54253 20649
L54215 20649
L54178 20668
L54159 20687
L54140 20724
L54121 20799
L54103 20837
L54084 20856
L54046 20874
L54009 20874
L53971 20856
L53953 20837
L53934 20799
L53934 20706
L53953 20649
" />
<path d="M53934 20518
L54328 20424
L54046 20350
L54328 20275
L53934 20181
" />
<path d="M54328 19825
L54328 20050
" />
<path d="M54328 19937
L53934 19937
L53990 19975
L54028 20012
L54046 20050
" />
<path d="M49809 33074
L49828 33018
L49828 32924
L49809 32887
L49790 32868
L49753 32849
L49715 32849
L49678 32868
L49659 32887
L49640 32924
L49621 32999
L49603 33037
L49584 33056
L49546 33074
L49509 33074
L49471 33056
L49453 33037
L49434 32999
L49434 32906
L49453 32849
" />
<path d="M49434 32718
L49828 32624
L49546 32550
L49828 32475
L49434 32381
" />
<path d="M49471 32250
L49453 32231
L49434 32193
L49434 32100
L49453 32062
L49471 32043
L49509 32025
L49546 32025
L49603 32043
L49828 32268
L49828 32025
" />
<path d="M51749 33052
L51562 33184
" />
<path d="M51749 33277
L51356 33277
L51356 33127
L51374 33090
L51393 33071
L51431 33052
L51487 33052
L51524 33071
L51543 33090
L51562 33127
L51562 33277
" />
<path d="M51543 32884
L51543 32752
" />
<path d="M51749 32696
L51749 32884
L51356 32884
L51356 32696
" />
<path d="M51731 32546
L51749 32490
L51749 32396
L51731 32359
L51712 32340
L51674 32321
L51637 32321
L51599 32340
L51581 32359
L51562 32396
L51543 32471
L51524 32509
L51506 32527
L51468 32546
L51431 32546
L51393 32527
L51374 32509
L51356 32471
L51356 32377
L51374 32321
" />
<path d="M51543 32153
L51543 32021
" />
<path d="M51749 31965
L51749 32153
L51356 32153
L51356 31965
" />
<path d="M51356 31853
L51356 31628
" />
<path d="M51749 31740
L51356 31740
" />
<path d="M55759 34724
L55778 34668
L55778 34574
L55759 34537
L55740 34518
L55703 34499
L55665 34499
L55628 34518
L55609 34537
L55590 34574
L55571 34649
L55553 34687
L55534 34706
L55496 34724
L55459 34724
L55421 34706
L55403 34687
L55384 34649
L55384 34556
L55403 34499
" />
<path d="M55384 34368
L55778 34274
L55496 34200
L55778 34125
L55384 34031
" />
<path d="M55384 33918
L55384 33675
L55534 33806
L55534 33750
L55553 33712
L55571 33693
L55609 33675
L55703 33675
L55740 33693
L55759 33712
L55778 33750
L55778 33862
L55759 33900
L55740 33918
" />
<path d="M26384 24249
L26703 24249
L26740 24231
L26759 24212
L26778 24174
L26778 24099
L26759 24062
L26740 24043
L26703 24024
L26384 24024
" />
<path d="M26778 23631
L26778 23856
" />
<path d="M26778 23743
L26384 23743
L26440 23781
L26478 23818
L26496 23856
" />
<path d="M45568 23034
L45568 23315
L45550 23371
L45512 23409
L45456 23428
L45418 23428
" />
<path d="M45943 23034
L45756 23034
L45737 23221
L45756 23203
L45793 23184
L45887 23184
L45924 23203
L45943 23221
L45962 23259
L45962 23353
L45943 23390
L45924 23409
L45887 23428
L45793 23428
L45756 23409
L45737 23390
" />
<path d="M42375 23240
L42356 23259
L42300 23278
L42262 23278
L42206 23259
L42168 23221
L42150 23184
L42131 23109
L42131 23053
L42150 22978
L42168 22940
L42206 22903
L42262 22884
L42300 22884
L42356 22903
L42375 22921
" />
<path d="M42543 23278
L42543 22884
" />
<path d="M42543 23071
L42768 23071
" />
<path d="M42768 23278
L42768 22884
" />
<path d="M43162 22903
L43124 22884
L43068 22884
L43012 22903
L42974 22940
L42956 22978
L42937 23053
L42937 23109
L42956 23184
L42974 23221
L43012 23259
L43068 23278
L43106 23278
L43162 23259
L43181 23240
L43181 23109
L43106 23109
" />
<path d="M43349 23128
L43649 23128
" />
<path d="M43499 23278
L43499 22978
" />
<path d="M45568 24534
L45568 24815
L45550 24871
L45512 24909
L45456 24928
L45418 24928
" />
<path d="M45718 24534
L45981 24534
L45812 24928
" />
<path d="M42375 24840
L42356 24859
L42300 24878
L42262 24878
L42206 24859
L42168 24821
L42150 24784
L42131 24709
L42131 24653
L42150 24578
L42168 24540
L42206 24503
L42262 24484
L42300 24484
L42356 24503
L42375 24521
" />
<path d="M42543 24878
L42543 24484
" />
<path d="M42543 24671
L42768 24671
" />
<path d="M42768 24878
L42768 24484
" />
<path d="M43162 24503
L43124 24484
L43068 24484
L43012 24503
L42974 24540
L42956 24578
L42937 24653
L42937 24709
L42956 24784
L42974 24821
L43012 24859
L43068 24878
L43106 24878
L43162 24859
L43181 24840
L43181 24709
L43106 24709
" />
<path d="M43349 24728
L43649 24728
" />
<path d="M31240 19765
L31259 19784
L31278 19840
L31278 19878
L31259 19934
L31221 19971
L31184 19990
L31109 20009
L31053 20009
L30978 19990
L30940 19971
L30903 19934
L30884 19878
L30884 19840
L30903 19784
L30921 19765
" />
<path d="M30921 19615
L30903 19596
L30884 19559
L30884 19465
L30903 19428
L30921 19409
L30959 19390
L30996 19390
L31053 19409
L31278 19634
L31278 19390
" />
<path d="M50996 29490
L50978 29509
L50921 29528
L50884 29528
L50828 29509
L50790 29471
L50771 29434
L50753 29359
L50753 29303
L50771 29228
L50790 29190
L50828 29153
L50884 29134
L50921 29134
L50978 29153
L50996 29171
" />
<path d="M51371 29528
L51146 29528
" />
<path d="M51259 29528
L51259 29134
L51221 29190
L51184 29228
L51146 29246
" />
<path d="M51615 29134
L51653 29134
L51690 29153
L51709 29171
L51728 29209
L51746 29284
L51746 29378
L51728 29453
L51709 29490
L51690 29509
L51653 29528
L51615 29528
L51578 29509
L51559 29490
L51540 29453
L51521 29378
L51521 29284
L51540 29209
L51559 29171
L51578 29153
L51615 29134
" />
<path d="M27090 29853
L27109 29871
L27128 29928
L27128 29965
L27109 30021
L27071 30059
L27034 30078
L26959 30096
L26903 30096
L26828 30078
L26790 30059
L26753 30021
L26734 29965
L26734 29928
L26753 29871
L26771 29853
" />
<path d="M27128 29478
L27128 29703
" />
<path d="M27128 29590
L26734 29590
L26790 29628
L26828 29665
L26846 29703
" />
<path d="M26771 29328
L26753 29309
L26734 29271
L26734 29178
L26753 29140
L26771 29121
L26809 29103
L26846 29103
L26903 29121
L27128 29346
L27128 29103
" />
<path d="M28646 33190
L28628 33209
L28571 33228
L28534 33228
L28478 33209
L28440 33171
L28421 33134
L28403 33059
L28403 33003
L28421 32928
L28440 32890
L28478 32853
L28534 32834
L28571 32834
L28628 32853
L28646 32871
" />
<path d="M29021 33228
L28796 33228
" />
<path d="M28909 33228
L28909 32834
L28871 32890
L28834 32928
L28796 32946
" />
<path d="M29153 32834
L29396 32834
L29265 32984
L29321 32984
L29359 33003
L29378 33021
L29396 33059
L29396 33153
L29378 33190
L29359 33209
L29321 33228
L29209 33228
L29171 33209
L29153 33190
" />
<path d="M29390 27203
L29409 27221
L29428 27278
L29428 27315
L29409 27371
L29371 27409
L29334 27428
L29259 27446
L29203 27446
L29128 27428
L29090 27409
L29053 27371
L29034 27315
L29034 27278
L29053 27221
L29071 27203
" />
<path d="M29428 26828
L29428 27053
" />
<path d="M29428 26940
L29034 26940
L29090 26978
L29128 27015
L29146 27053
" />
<path d="M29165 26490
L29428 26490
" />
<path d="M29015 26584
L29296 26678
L29296 26434
" />
<path d="M26946 31490
L26928 31509
L26871 31528
L26834 31528
L26778 31509
L26740 31471
L26721 31434
L26703 31359
L26703 31303
L26721 31228
L26740 31190
L26778 31153
L26834 31134
L26871 31134
L26928 31153
L26946 31171
" />
<path d="M27321 31528
L27096 31528
" />
<path d="M27209 31528
L27209 31134
L27171 31190
L27134 31228
L27096 31246
" />
<path d="M27659 31134
L27584 31134
L27546 31153
L27528 31171
L27490 31228
L27471 31303
L27471 31453
L27490 31490
L27509 31509
L27546 31528
L27621 31528
L27659 31509
L27678 31490
L27696 31453
L27696 31359
L27678 31321
L27659 31303
L27621 31284
L27546 31284
L27509 31303
L27490 31321
L27471 31359
" />
<path d="M33246 33299
L33228 33318
L33171 33336
L33134 33336
L33078 33318
L33040 33280
L33021 33243
L33003 33168
L33003 33111
L33021 33036
L33040 32999
L33078 32961
L33134 32943
L33171 32943
L33228 32961
L33246 32980
" />
<path d="M33621 33336
L33396 33336
" />
<path d="M33509 33336
L33509 32943
L33471 32999
L33434 33036
L33396 33055
" />
<path d="M33753 32943
L34015 32943
L33846 33336
" />
<path d="M46318 34084
L46318 34365
L46300 34421
L46262 34459
L46206 34478
L46168 34478
" />
<path d="M46487 34121
L46506 34103
L46543 34084
L46637 34084
L46674 34103
L46693 34121
L46712 34159
L46712 34196
L46693 34253
L46468 34478
L46712 34478
" />
<path d="M47865 34690
L47846 34709
L47790 34728
L47753 34728
L47696 34709
L47659 34671
L47640 34634
L47621 34559
L47621 34503
L47640 34428
L47659 34390
L47696 34353
L47753 34334
L47790 34334
L47846 34353
L47865 34371
" />
<path d="M47978 34334
L48203 34334
" />
<path d="M48090 34728
L48090 34334
" />
<path d="M48559 34728
L48428 34540
" />
<path d="M48334 34728
L48334 34334
L48484 34334
L48521 34353
L48540 34371
L48559 34409
L48559 34465
L48540 34503
L48521 34521
L48484 34540
L48334 34540
" />
<path d="M48915 34728
L48728 34728
L48728 34334
" />
<path d="M22884 22681
L23165 22681
L23221 22699
L23259 22737
L23278 22793
L23278 22831
" />
<path d="M22884 22531
L22884 22287
L23034 22418
L23034 22362
L23053 22325
L23071 22306
L23109 22287
L23203 22287
L23240 22306
L23259 22325
L23278 22362
L23278 22475
L23259 22512
L23240 22531
" />
<path d="M53918 34534
L53918 34815
L53900 34871
L53862 34909
L53806 34928
L53768 34928
" />
<path d="M54162 34703
L54124 34684
L54106 34665
L54087 34628
L54087 34609
L54106 34571
L54124 34553
L54162 34534
L54237 34534
L54274 34553
L54293 34571
L54312 34609
L54312 34628
L54293 34665
L54274 34684
L54237 34703
L54162 34703
L54124 34721
L54106 34740
L54087 34778
L54087 34853
L54106 34890
L54124 34909
L54162 34928
L54237 34928
L54274 34909
L54293 34890
L54312 34853
L54312 34778
L54293 34740
L54274 34721
L54237 34703
" />
<path d="M50940 34678
L50940 34284
L51090 34284
L51128 34303
L51146 34321
L51165 34359
L51165 34415
L51146 34453
L51128 34471
L51090 34490
L50940 34490
" />
<path d="M51409 34284
L51484 34284
L51521 34303
L51559 34340
L51578 34415
L51578 34546
L51559 34621
L51521 34659
L51484 34678
L51409 34678
L51371 34659
L51334 34621
L51315 34546
L51315 34415
L51334 34340
L51371 34303
L51409 34284
" />
<path d="M51709 34284
L51803 34678
L51878 34396
L51953 34678
L52046 34284
" />
<path d="M52196 34471
L52328 34471
" />
<path d="M52384 34678
L52196 34678
L52196 34284
L52384 34284
" />
<path d="M52778 34678
L52646 34490
" />
<path d="M52553 34678
L52553 34284
L52703 34284
L52740 34303
L52759 34321
L52778 34359
L52778 34415
L52759 34453
L52740 34471
L52703 34490
L52553 34490
" />
<path d="M31821 24834
L31821 25115
L31803 25171
L31765 25209
L31709 25228
L31671 25228
" />
<path d="M32009 25228
L32009 24834
L32159 24834
L32196 24853
L32215 24871
L32234 24909
L32234 24965
L32215 25003
L32196 25021
L32159 25040
L32009 25040
" />
<path d="M32365 24834
L32609 24834
L32478 24984
L32534 24984
L32571 25003
L32590 25021
L32609 25059
L32609 25153
L32590 25190
L32571 25209
L32534 25228
L32421 25228
L32384 25209
L32365 25190
" />
<path d="M51928 25055
L51740 25186
" />
<path d="M51928 25280
L51534 25280
L51534 25130
L51553 25092
L51571 25074
L51609 25055
L51665 25055
L51703 25074
L51721 25092
L51740 25130
L51740 25280
" />
<path d="M51665 24717
L51928 24717
" />
<path d="M51515 24811
L51796 24905
L51796 24661
" />
<path d="M28884 21028
L28753 20840
" />
<path d="M28659 21028
L28659 20634
L28809 20634
L28846 20653
L28865 20671
L28884 20709
L28884 20765
L28865 20803
L28846 20821
L28809 20840
L28659 20840
" />
<path d="M29240 20634
L29053 20634
L29034 20821
L29053 20803
L29090 20784
L29184 20784
L29221 20803
L29240 20821
L29259 20859
L29259 20953
L29240 20990
L29221 21009
L29184 21028
L29090 21028
L29053 21009
L29034 20990
" />
<path d="M32128 27003
L31940 27134
" />
<path d="M32128 27228
L31734 27228
L31734 27078
L31753 27040
L31771 27021
L31809 27003
L31865 27003
L31903 27021
L31921 27040
L31940 27078
L31940 27228
" />
<path d="M32128 26628
L32128 26853
" />
<path d="M32128 26740
L31734 26740
L31790 26778
L31828 26815
L31846 26853
" />
<path d="M31734 26271
L31734 26459
L31921 26478
L31903 26459
L31884 26421
L31884 26328
L31903 26290
L31921 26271
L31959 26253
L32053 26253
L32090 26271
L32109 26290
L32128 26328
L32128 26421
L32109 26459
L32090 26478
" />
<path d="M30846 29028
L30715 28840
" />
<path d="M30621 29028
L30621 28634
L30771 28634
L30809 28653
L30828 28671
L30846 28709
L30846 28765
L30828 28803
L30809 28821
L30771 28840
L30621 28840
" />
<path d="M31221 29028
L30996 29028
" />
<path d="M31109 29028
L31109 28634
L31071 28690
L31034 28728
L30996 28746
" />
<path d="M31559 28634
L31484 28634
L31446 28653
L31428 28671
L31390 28728
L31371 28803
L31371 28953
L31390 28990
L31409 29009
L31446 29028
L31521 29028
L31559 29009
L31578 28990
L31596 28953
L31596 28859
L31578 28821
L31559 28803
L31521 28784
L31446 28784
L31409 28803
L31390 28821
L31371 28859
" />
<path d="M28996 31528
L28865 31340
" />
<path d="M28771 31528
L28771 31134
L28921 31134
L28959 31153
L28978 31171
L28996 31209
L28996 31265
L28978 31303
L28959 31321
L28921 31340
L28771 31340
" />
<path d="M29371 31528
L29146 31528
" />
<path d="M29259 31528
L29259 31134
L29221 31190
L29184 31228
L29146 31246
" />
<path d="M29503 31134
L29765 31134
L29596 31528
" />
<path d="M33328 29203
L33140 29334
" />
<path d="M33328 29428
L32934 29428
L32934 29278
L32953 29240
L32971 29221
L33009 29203
L33065 29203
L33103 29221
L33121 29240
L33140 29278
L33140 29428
" />
<path d="M33328 28828
L33328 29053
" />
<path d="M33328 28940
L32934 28940
L32990 28978
L33028 29015
L33046 29053
" />
<path d="M33103 28603
L33084 28640
L33065 28659
L33028 28678
L33009 28678
L32971 28659
L32953 28640
L32934 28603
L32934 28528
L32953 28490
L32971 28471
L33009 28453
L33028 28453
L33065 28471
L33084 28490
L33103 28528
L33103 28603
L33121 28640
L33140 28659
L33178 28678
L33253 28678
L33290 28659
L33309 28640
L33328 28603
L33328 28528
L33309 28490
L33290 28471
L33253 28453
L33178 28453
L33140 28471
L33121 28490
L33103 28528
" />
<path d="M52909 20910
L52928 20854
L52928 20760
L52909 20723
L52890 20704
L52853 20685
L52815 20685
L52778 20704
L52759 20723
L52740 20760
L52721 20835
L52703 20873
L52684 20892
L52646 20910
L52609 20910
L52571 20892
L52553 20873
L52534 20835
L52534 20742
L52553 20685
" />
<path d="M52534 20554
L52928 20460
L52646 20385
L52928 20310
L52534 20217
" />
<path d="M52534 19898
L52534 19973
L52553 20010
L52571 20029
L52628 20067
L52703 20085
L52853 20085
L52890 20067
L52909 20048
L52928 20010
L52928 19935
L52909 19898
L52890 19879
L52853 19860
L52759 19860
L52721 19879
L52703 19898
L52684 19935
L52684 20010
L52703 20048
L52721 20067
L52759 20085
" />
<path d="M30300 26434
L30300 26753
L30318 26790
L30337 26809
L30375 26828
L30450 26828
L30487 26809
L30506 26790
L30525 26753
L30525 26434
" />
<path d="M30674 26434
L30937 26434
L30768 26828
" />
<path d="M21684 30368
L21965 30368
L22021 30387
L22059 30424
L22078 30481
L22078 30518
" />
<path d="M22078 29975
L22078 30199
" />
<path d="M22078 30087
L21684 30087
L21740 30124
L21778 30162
L21796 30199
" />
<path d="M21684 29731
L21684 29693
L21703 29656
L21721 29637
L21759 29618
L21834 29600
L21928 29600
L22003 29618
L22040 29637
L22059 29656
L22078 29693
L22078 29731
L22059 29768
L22040 29787
L22003 29806
L21928 29825
L21834 29825
L21759 29806
L21721 29787
L21703 29768
L21684 29731
" />
<path d="M22889 23921
L23170 23921
L23226 23939
L23264 23977
L23283 24033
L23283 24071
" />
<path d="M23283 23527
L23283 23752
" />
<path d="M23283 23639
L22889 23639
L22945 23677
L22983 23714
L23002 23752
" />
<path d="M22927 23377
L22908 23358
L22889 23321
L22889 23227
L22908 23189
L22927 23171
L22964 23152
L23002 23152
L23058 23171
L23283 23396
L23283 23152
" />
<path d="M46531 18884
L46531 19165
L46512 19221
L46475 19259
L46418 19278
L46381 19278
" />
<path d="M46924 19278
L46700 19278
" />
<path d="M46812 19278
L46812 18884
L46775 18940
L46737 18978
L46700 18996
" />
<path d="M47056 18884
L47299 18884
L47168 19034
L47224 19034
L47262 19053
L47281 19071
L47299 19109
L47299 19203
L47281 19240
L47262 19259
L47224 19278
L47112 19278
L47074 19259
L47056 19240
" />
<path d="M31196 22890
L31178 22909
L31121 22928
L31084 22928
L31028 22909
L30990 22871
L30971 22834
L30953 22759
L30953 22703
L30971 22628
L30990 22590
L31028 22553
L31084 22534
L31121 22534
L31178 22553
L31196 22571
" />
<path d="M31571 22928
L31346 22928
" />
<path d="M31459 22928
L31459 22534
L31421 22590
L31384 22628
L31346 22646
" />
<path d="M31928 22534
L31740 22534
L31721 22721
L31740 22703
L31778 22684
L31871 22684
L31909 22703
L31928 22721
L31946 22759
L31946 22853
L31928 22890
L31909 22909
L31871 22928
L31778 22928
L31740 22909
L31721 22890
" />
<path d="M35646 33878
L35515 33690
" />
<path d="M35421 33878
L35421 33484
L35571 33484
L35609 33503
L35628 33521
L35646 33559
L35646 33615
L35628 33653
L35609 33671
L35571 33690
L35421 33690
" />
<path d="M36021 33878
L35796 33878
" />
<path d="M35909 33878
L35909 33484
L35871 33540
L35834 33578
L35796 33596
" />
<path d="M36209 33878
L36284 33878
L36321 33859
L36340 33840
L36378 33784
L36396 33709
L36396 33559
L36378 33521
L36359 33503
L36321 33484
L36246 33484
L36209 33503
L36190 33521
L36171 33559
L36171 33653
L36190 33690
L36209 33709
L36246 33728
L36321 33728
L36359 33709
L36378 33690
L36396 33653
" />
<path d="M49353 21584
L49578 21584
" />
<path d="M49465 21978
L49465 21584
" />
<path d="M49709 21978
L49709 21584
L49859 21584
L49896 21603
L49915 21621
L49934 21659
L49934 21715
L49915 21753
L49896 21771
L49859 21790
L49709 21790
" />
<path d="M50309 21978
L50084 21978
" />
<path d="M50196 21978
L50196 21584
L50159 21640
L50121 21678
L50084 21696
" />
<path d="M48500 22203
L48462 22184
L48406 22184
L48350 22203
L48312 22240
L48293 22278
L48275 22353
L48275 22409
L48293 22484
L48312 22521
L48350 22559
L48406 22578
L48443 22578
L48500 22559
L48518 22540
L48518 22409
L48443 22409
" />
<path d="M48687 22578
L48687 22184
L48912 22578
L48912 22184
" />
<path d="M49099 22578
L49099 22184
L49193 22184
L49249 22203
L49287 22240
L49306 22278
L49324 22353
L49324 22409
L49306 22484
L49287 22521
L49249 22559
L49193 22578
L49099 22578
" />
<path d="M32703 20834
L32928 20834
" />
<path d="M32815 21228
L32815 20834
" />
<path d="M33059 21228
L33059 20834
L33209 20834
L33246 20853
L33265 20871
L33284 20909
L33284 20965
L33265 21003
L33246 21021
L33209 21040
L33059 21040
" />
<path d="M33434 20871
L33453 20853
L33490 20834
L33584 20834
L33621 20853
L33640 20871
L33659 20909
L33659 20946
L33640 21003
L33415 21228
L33659 21228
" />
<path d="M30256 21428
L30556 21428
" />
<path d="M30406 21578
L30406 21278
" />
<path d="M30706 21184
L30950 21184
L30818 21334
L30875 21334
L30912 21353
L30931 21371
L30950 21409
L30950 21503
L30931 21540
L30912 21559
L30875 21578
L30762 21578
L30725 21559
L30706 21540
" />
<path d="M31062 21184
L31193 21578
L31324 21184
" />
<path d="M31418 21184
L31662 21184
L31531 21334
L31587 21334
L31624 21353
L31643 21371
L31662 21409
L31662 21503
L31643 21540
L31624 21559
L31587 21578
L31474 21578
L31437 21559
L31418 21540
" />
<path d="M43053 29534
L43278 29534
" />
<path d="M43165 29928
L43165 29534
" />
<path d="M43409 29928
L43409 29534
L43559 29534
L43596 29553
L43615 29571
L43634 29609
L43634 29665
L43615 29703
L43596 29721
L43559 29740
L43409 29740
" />
<path d="M43765 29534
L44028 29534
L43859 29928
" />
<path d="M42596 30534
L42728 30928
L42859 30534
" />
<path d="M43215 30928
L43084 30740
" />
<path d="M42990 30928
L42990 30534
L43140 30534
L43178 30553
L43196 30571
L43215 30609
L43215 30665
L43196 30703
L43178 30721
L43140 30740
L42990 30740
" />
<path d="M43384 30721
L43515 30721
" />
<path d="M43571 30928
L43384 30928
L43384 30534
L43571 30534
" />
<path d="M43946 30553
L43909 30534
L43853 30534
L43796 30553
L43759 30590
L43740 30628
L43721 30703
L43721 30759
L43740 30834
L43759 30871
L43796 30909
L43853 30928
L43890 30928
L43946 30909
L43965 30890
L43965 30759
L43890 30759
" />
<path d="M49353 19784
L49578 19784
" />
<path d="M49465 20178
L49465 19784
" />
<path d="M49709 20178
L49709 19784
L49859 19784
L49896 19803
L49915 19821
L49934 19859
L49934 19915
L49915 19953
L49896 19971
L49859 19990
L49709 19990
" />
<path d="M50159 19953
L50121 19934
L50103 19915
L50084 19878
L50084 19859
L50103 19821
L50121 19803
L50159 19784
L50234 19784
L50271 19803
L50290 19821
L50309 19859
L50309 19878
L50290 19915
L50271 19934
L50234 19953
L50159 19953
L50121 19971
L50103 19990
L50084 20028
L50084 20103
L50103 20140
L50121 20159
L50159 20178
L50234 20178
L50271 20159
L50290 20140
L50309 20103
L50309 20028
L50290 19990
L50271 19971
L50234 19953
" />
<path d="M48153 19234
L48284 19628
L48415 19234
" />
<path d="M48678 19421
L48734 19440
L48753 19459
L48771 19496
L48771 19553
L48753 19590
L48734 19609
L48696 19628
L48546 19628
L48546 19234
L48678 19234
L48715 19253
L48734 19271
L48753 19309
L48753 19346
L48734 19384
L48715 19403
L48678 19421
L48546 19421
" />
<path d="M48921 19515
L49109 19515
" />
<path d="M48884 19628
L49015 19234
L49146 19628
" />
<path d="M49221 19234
L49446 19234
" />
<path d="M49334 19628
L49334 19234
" />
<path d="M36196 24490
L36178 24509
L36121 24528
L36084 24528
L36028 24509
L35990 24471
L35971 24434
L35953 24359
L35953 24303
L35971 24228
L35990 24190
L36028 24153
L36084 24134
L36121 24134
L36178 24153
L36196 24171
" />
<path d="M36571 24528
L36346 24528
" />
<path d="M36459 24528
L36459 24134
L36421 24190
L36384 24228
L36346 24246
" />
<path d="M36759 24528
L36834 24528
L36871 24509
L36890 24490
L36928 24434
L36946 24359
L36946 24209
L36928 24171
L36909 24153
L36871 24134
L36796 24134
L36759 24153
L36740 24171
L36721 24209
L36721 24303
L36740 24340
L36759 24359
L36796 24378
L36871 24378
L36909 24359
L36928 24340
L36946 24303
" />
<path d="M45393 32153
L45000 32153
L45000 32059
L45018 32003
L45056 31965
L45093 31946
L45168 31928
L45225 31928
L45300 31946
L45337 31965
L45375 32003
L45393 32059
L45393 32153
" />
<path d="M45037 31778
L45018 31759
L45000 31721
L45000 31628
L45018 31590
L45037 31572
L45075 31553
L45112 31553
L45168 31572
L45393 31796
L45393 31553
" />
<path d="M47103 31834
L47328 31834
" />
<path d="M47215 32228
L47215 31834
" />
<path d="M47459 32228
L47459 31834
L47609 31834
L47646 31853
L47665 31871
L47684 31909
L47684 31965
L47665 32003
L47646 32021
L47609 32040
L47459 32040
" />
<path d="M47815 31834
L48059 31834
L47928 31984
L47984 31984
L48021 32003
L48040 32021
L48059 32059
L48059 32153
L48040 32190
L48021 32209
L47984 32228
L47871 32228
L47834 32209
L47815 32190
" />
<path d="M43176 32157
L43176 32344
" />
<path d="M43045 31950
L43176 32157
L43307 31950
" />
<path d="M43644 32344
L43420 32344
" />
<path d="M43532 32344
L43532 31950
L43495 32007
L43457 32044
L43420 32063
" />
<path d="M32572 31225
L32891 31225
L32929 31206
L32947 31188
L32966 31150
L32966 31075
L32947 31038
L32929 31019
L32891 31000
L32572 31000
" />
<path d="M32741 30756
L32722 30794
L32704 30813
L32666 30831
L32647 30831
L32610 30813
L32591 30794
L32572 30756
L32572 30681
L32591 30644
L32610 30625
L32647 30606
L32666 30606
L32704 30625
L32722 30644
L32741 30681
L32741 30756
L32760 30794
L32779 30813
L32816 30831
L32891 30831
L32929 30813
L32947 30794
L32966 30756
L32966 30681
L32947 30644
L32929 30625
L32891 30606
L32816 30606
L32779 30625
L32760 30644
L32741 30681
" />
<path d="M46840 29215
L46859 29234
L46878 29290
L46878 29328
L46859 29384
L46821 29421
L46784 29440
L46709 29459
L46653 29459
L46578 29440
L46540 29421
L46503 29384
L46484 29328
L46484 29290
L46503 29234
L46521 29215
" />
<path d="M46484 28878
L46484 28953
L46503 28990
L46521 29009
L46578 29046
L46653 29065
L46803 29065
L46840 29046
L46859 29028
L46878 28990
L46878 28915
L46859 28878
L46840 28859
L46803 28840
L46709 28840
L46671 28859
L46653 28878
L46634 28915
L46634 28990
L46653 29028
L46671 29046
L46709 29065
" />
<path d="M48690 29215
L48709 29234
L48728 29290
L48728 29328
L48709 29384
L48671 29421
L48634 29440
L48559 29459
L48503 29459
L48428 29440
L48390 29421
L48353 29384
L48334 29328
L48334 29290
L48353 29234
L48371 29215
" />
<path d="M48334 29084
L48334 28821
L48728 28990
" />
<path d="M49590 29215
L49609 29234
L49628 29290
L49628 29328
L49609 29384
L49571 29421
L49534 29440
L49459 29459
L49403 29459
L49328 29440
L49290 29421
L49253 29384
L49234 29328
L49234 29290
L49253 29234
L49271 29215
" />
<path d="M49403 28990
L49384 29028
L49365 29046
L49328 29065
L49309 29065
L49271 29046
L49253 29028
L49234 28990
L49234 28915
L49253 28878
L49271 28859
L49309 28840
L49328 28840
L49365 28859
L49384 28878
L49403 28915
L49403 28990
L49421 29028
L49440 29046
L49478 29065
L49553 29065
L49590 29046
L49609 29028
L49628 28990
L49628 28915
L49609 28878
L49590 28859
L49553 28840
L49478 28840
L49440 28859
L49421 28878
L49403 28915
" />
<path d="M36146 21285
L36128 21304
L36071 21322
L36034 21322
L35978 21304
L35940 21266
L35921 21229
L35903 21154
L35903 21098
L35921 21023
L35940 20985
L35978 20948
L36034 20929
L36071 20929
L36128 20948
L36146 20966
" />
<path d="M36521 21322
L36296 21322
" />
<path d="M36409 21322
L36409 20929
L36371 20985
L36334 21023
L36296 21041
" />
<path d="M36746 21098
L36709 21079
L36690 21060
L36671 21023
L36671 21004
L36690 20966
L36709 20948
L36746 20929
L36821 20929
L36859 20948
L36878 20966
L36896 21004
L36896 21023
L36878 21060
L36859 21079
L36821 21098
L36746 21098
L36709 21116
L36690 21135
L36671 21173
L36671 21247
L36690 21285
L36709 21304
L36746 21322
L36821 21322
L36859 21304
L36878 21285
L36896 21247
L36896 21173
L36878 21135
L36859 21116
L36821 21098
" />
<path d="M38846 33340
L38828 33359
L38771 33378
L38734 33378
L38678 33359
L38640 33321
L38621 33284
L38603 33209
L38603 33153
L38621 33078
L38640 33040
L38678 33003
L38734 32984
L38771 32984
L38828 33003
L38846 33021
" />
<path d="M38996 33021
L39015 33003
L39053 32984
L39146 32984
L39184 33003
L39203 33021
L39221 33059
L39221 33096
L39203 33153
L38978 33378
L39221 33378
" />
<path d="M39465 32984
L39503 32984
L39540 33003
L39559 33021
L39578 33059
L39596 33134
L39596 33228
L39578 33303
L39559 33340
L39540 33359
L39503 33378
L39465 33378
L39428 33359
L39409 33340
L39390 33303
L39371 33228
L39371 33134
L39390 33059
L39409 33021
L39428 33003
L39465 32984
" />
<path d="M20967 18637
L20986 18656
L21005 18712
L21005 18749
L20986 18806
L20949 18843
L20911 18862
L20836 18881
L20780 18881
L20705 18862
L20667 18843
L20630 18806
L20611 18749
L20611 18712
L20630 18656
L20649 18637
" />
<path d="M20649 18487
L20630 18468
L20611 18431
L20611 18337
L20630 18299
L20649 18281
L20686 18262
L20724 18262
L20780 18281
L21005 18506
L21005 18262
" />
<path d="M21005 17887
L21005 18112
" />
<path d="M21005 17999
L20611 17999
L20667 18037
L20705 18074
L20724 18112
" />
<path d="M53309 28378
L53309 27984
L53403 27984
L53459 28003
L53496 28040
L53515 28078
L53534 28153
L53534 28209
L53515 28284
L53496 28321
L53459 28359
L53403 28378
L53309 28378
" />
<path d="M53909 28378
L53684 28378
" />
<path d="M53796 28378
L53796 27984
L53759 28040
L53721 28078
L53684 28096
" />
<path d="M54378 23840
L53984 23840
L53984 23746
L54003 23690
L54040 23653
L54078 23634
L54153 23615
L54209 23615
L54284 23634
L54321 23653
L54359 23690
L54378 23746
L54378 23840
" />
<path d="M53984 23278
L53984 23353
L54003 23390
L54021 23409
L54078 23446
L54153 23465
L54303 23465
L54340 23446
L54359 23428
L54378 23390
L54378 23315
L54359 23278
L54340 23259
L54303 23240
L54209 23240
L54171 23259
L54153 23278
L54134 23315
L54134 23390
L54153 23428
L54171 23446
L54209 23465
" />
<path d="M46726 26632
L46726 26820
L46332 26820
" />
<path d="M46726 26295
L46726 26520
" />
<path d="M46726 26407
L46332 26407
L46388 26445
L46426 26482
L46444 26520
" />
<path d="M50384 17619
L50440 17637
L50534 17637
L50571 17619
L50590 17600
L50609 17562
L50609 17525
L50590 17487
L50571 17469
L50534 17450
L50459 17431
L50422 17412
L50403 17394
L50384 17356
L50384 17319
L50403 17281
L50422 17262
L50459 17244
L50553 17244
L50609 17262
" />
<path d="M50740 17244
L50834 17637
L50909 17356
L50984 17637
L51078 17244
" />
<path d="M51396 17375
L51396 17637
" />
<path d="M51303 17225
L51209 17506
L51453 17506
" />
<path d="M50389 18220
L50445 18239
L50539 18239
L50576 18220
L50595 18202
L50614 18164
L50614 18127
L50595 18089
L50576 18070
L50539 18052
L50464 18033
L50426 18014
L50407 17995
L50389 17958
L50389 17920
L50407 17883
L50426 17864
L50464 17845
L50557 17845
L50614 17864
" />
<path d="M50745 17845
L50839 18239
L50914 17958
L50989 18239
L51082 17845
" />
<path d="M51420 17845
L51232 17845
L51214 18033
L51232 18014
L51270 17995
L51364 17995
L51401 18014
L51420 18033
L51439 18070
L51439 18164
L51420 18202
L51401 18220
L51364 18239
L51270 18239
L51232 18220
L51214 18202
" />
<path d="M51300 27384
L51300 27703
L51318 27740
L51337 27759
L51375 27778
L51450 27778
L51487 27759
L51506 27740
L51525 27703
L51525 27384
" />
<path d="M51674 27384
L51918 27384
L51787 27534
L51843 27534
L51881 27553
L51899 27571
L51918 27609
L51918 27703
L51899 27740
L51881 27759
L51843 27778
L51731 27778
L51693 27759
L51674 27740
" />
<path d="M38800 31534
L38800 31853
L38818 31890
L38837 31909
L38875 31928
L38950 31928
L38987 31909
L39006 31890
L39025 31853
L39025 31534
" />
<path d="M39381 31665
L39381 31928
" />
<path d="M39287 31515
L39193 31796
L39437 31796
" />
<path d="M23645 24199
L23964 24199
L24002 24181
L24020 24162
L24039 24124
L24039 24049
L24020 24012
L24002 23993
L23964 23974
L23645 23974
" />
<path d="M23645 23600
L23645 23787
L23833 23806
L23814 23787
L23795 23750
L23795 23656
L23814 23618
L23833 23600
L23870 23581
L23964 23581
L24002 23600
L24020 23618
L24039 23656
L24039 23750
L24020 23787
L24002 23806
" />
<path d="M29884 24078
L30165 24078
L30221 24096
L30259 24134
L30278 24190
L30278 24228
" />
<path d="M30278 23890
L29884 23890
L29884 23740
L29903 23703
L29921 23684
L29959 23665
L30015 23665
L30053 23684
L30071 23703
L30090 23740
L30090 23890
" />
<path d="M29921 23515
L29903 23496
L29884 23459
L29884 23365
L29903 23328
L29921 23309
L29959 23290
L29996 23290
L30053 23309
L30278 23534
L30278 23290
" />
<path d="M35553 27321
L35609 27340
L35628 27359
L35646 27396
L35646 27453
L35628 27490
L35609 27509
L35571 27528
L35421 27528
L35421 27134
L35553 27134
L35590 27153
L35609 27171
L35628 27209
L35628 27246
L35609 27284
L35590 27303
L35553 27321
L35421 27321
" />
<path d="M35778 27134
L36040 27134
L35778 27528
L36040 27528
" />
<path d="M36396 27528
L36171 27528
" />
<path d="M36284 27528
L36284 27134
L36246 27190
L36209 27228
L36171 27246
" />
<path d="M47740 29215
L47759 29234
L47778 29290
L47778 29328
L47759 29384
L47721 29421
L47684 29440
L47609 29459
L47553 29459
L47478 29440
L47440 29421
L47403 29384
L47384 29328
L47384 29290
L47403 29234
L47421 29215
" />
<path d="M47384 28859
L47384 29046
L47571 29065
L47553 29046
L47534 29009
L47534 28915
L47553 28878
L47571 28859
L47609 28840
L47703 28840
L47740 28859
L47759 28878
L47778 28915
L47778 29009
L47759 29046
L47740 29065
" />
<path d="M26268 34684
L26268 34965
L26250 35021
L26212 35059
L26156 35078
L26118 35078
" />
<path d="M26624 34815
L26624 35078
" />
<path d="M26531 34665
L26437 34946
L26681 34946
" />
<path d="M39115 27137
L39096 27174
L39059 27212
L39003 27268
L38984 27306
L38984 27343
" />
<path d="M39078 27324
L39059 27362
L39021 27399
L38946 27418
L38815 27418
L38740 27399
L38703 27362
L38684 27324
L38684 27249
L38703 27212
L38740 27174
L38815 27156
L38946 27156
L39021 27174
L39059 27212
L39078 27249
L39078 27324
" />
<path d="M39078 26781
L39078 27006
" />
<path d="M39078 26893
L38684 26893
L38740 26931
L38778 26968
L38796 27006
" />
<path d="M39434 29228
L39303 29040
" />
<path d="M39209 29228
L39209 28834
L39359 28834
L39396 28853
L39415 28871
L39434 28909
L39434 28965
L39415 29003
L39396 29021
L39359 29040
L39209 29040
" />
<path d="M39771 28834
L39696 28834
L39659 28853
L39640 28871
L39603 28928
L39584 29003
L39584 29153
L39603 29190
L39621 29209
L39659 29228
L39734 29228
L39771 29209
L39790 29190
L39809 29153
L39809 29059
L39790 29021
L39771 29003
L39734 28984
L39659 28984
L39621 29003
L39603 29021
L39584 29059
" />
<path d="M35759 32028
L35759 31634
L35853 31634
L35909 31653
L35946 31690
L35965 31728
L35984 31803
L35984 31859
L35965 31934
L35946 31971
L35909 32009
L35853 32028
L35759 32028
" />
<path d="M36115 31634
L36378 31634
L36209 32028
" />
<path d="M29378 25090
L28984 25090
L28984 24996
L29003 24940
L29040 24903
L29078 24884
L29153 24865
L29209 24865
L29284 24884
L29321 24903
L29359 24940
L29378 24996
L29378 25090
" />
<path d="M29153 24640
L29134 24678
L29115 24696
L29078 24715
L29059 24715
L29021 24696
L29003 24678
L28984 24640
L28984 24565
L29003 24528
L29021 24509
L29059 24490
L29078 24490
L29115 24509
L29134 24528
L29153 24565
L29153 24640
L29171 24678
L29190 24696
L29228 24715
L29303 24715
L29340 24696
L29359 24678
L29378 24640
L29378 24565
L29359 24528
L29340 24509
L29303 24490
L29228 24490
L29190 24509
L29171 24528
L29153 24565
" />
</g> 
</svg>
