<?xml version="1.0" standalone="no"?>
 <!DOCTYPE svg PUBLIC "-//W3C//DTD SVG 1.1//EN" 
 "http://www.w3.org/Graphics/SVG/1.1/DTD/svg11.dtd"> 
<svg xmlns="http://www.w3.org/2000/svg" version="1.1" 
    width="29.7002cm" height="21.0007cm" viewBox="0 0 116930 82680 ">
<title>SVG Picture created as WT32-SC01-B.Mask.svg date 2023/02/01 14:16:31 </title>
  <desc>Picture generated by PCBNEW </desc>
<g style="fill:#000000; fill-opacity:1;stroke:#000000; stroke-opacity:1;
stroke-linecap:round; stroke-linejoin:round; "
 transform="translate(0 0) scale(1 1)">
</g>
<g style="fill:#000000; fill-opacity:0.0; 
stroke:#000000; stroke-width:-0.000393701; stroke-opacity:1; 
stroke-linecap:round; stroke-linejoin:round;">
</g>
<g style="fill:#000000; fill-opacity:0.0; 
stroke:#000000; stroke-width:59.0551; stroke-opacity:1; 
stroke-linecap:round; stroke-linejoin:round;">
<path d="M56250 18750
L56250 15850
" />
<path d="M55950 19350
L55950 18850
" />
<path d="M55950 21950
L55950 21450
" />
<path d="M56250 30550
L56250 21800
" />
<path d="M56250 36950
L56250 34050
" />
<path d="M55950 33300
L55950 33900
" />
<path d="M55950 31500
L55950 30950
" />
<path d="M53200 14950
L55350 14950
" />
<path d="M51850 15650
L52800 15650
" />
<path d="M47850 15650
L47850 18550
" />
<path d="M49950 15650
L47850 15650
" />
<path d="M21200 37750
L21250 37750
" />
<path d="M21350 14950
L21300 14950
" />
<path d="M39550 15900
L39550 18550
" />
<path d="M38400 15900
L39550 15900
" />
<path d="M55950 30950
L56250 30800
" />
<path d="M55950 33900
L56250 34050
" />
<path d="M55950 31500
L55950 33300
" />
<path d="M55950 18850
L56250 18750
" />
<path d="M55950 21950
L56250 22050
" />
<path d="M55950 19350
L55950 21450
" />
<path d="M33050 14950
L21350 14950
" />
<path d="M33050 15900
L33050 14950
" />
<path d="M38400 15900
L33050 15900
" />
<path d="M47850 18550
L39550 18550
" />
<path d="M52800 15650
L53200 14950
" />
<path d="M49950 15650
L51850 15650
" />
<path d="M56250 15850 A900 900 0.0 0 0 55350 14950 " />
<path d="M20400 36950
L20400 15850
" />
<path d="M21250 37750
L55450 37750
" />
<path d="M55450 37750 A800 800 0.0 0 0 56250 36950 " />
<path d="M20400 36950 A800 800 0.0 0 0 21200 37750 " />
<path d="M21300 14950 A900 900 0.0 0 0 20400 15850 " />
</g>
<g style="fill:#000000; fill-opacity:1.0; 
stroke:#000000; stroke-width:0; stroke-opacity:1; 
stroke-linecap:round; stroke-linejoin:round;">
<polyline style="fill-rule:evenodd;"
points="55043,35373
55043,35373
55043,35373
55189,35434
55267,35486
55322,35522
55434,35635
55434,35635
55523,35767
55583,35914
55583,35914
55612,36057
55614,36070
55614,36229
55583,36385
55523,36532
55523,36532
55434,36664
55322,36777
55322,36777
55189,36865
55043,36926
55043,36926
55043,36926
54887,36957
54727,36957
54571,36926
54571,36926
54571,36926
54424,36865
54292,36777
54292,36777
54180,36664
54091,36532
54091,36532
54031,36385
54000,36229
54000,36070
54002,36057
54031,35914
54031,35914
54091,35767
54180,35635
54180,35635
54292,35522
54347,35486
54424,35434
54571,35373
54571,35373
54571,35373
54727,35342
54887,35342
55043,35373
" /> 
<polyline style="fill-rule:evenodd;"
points="22043,35373
22043,35373
22043,35373
22189,35434
22267,35486
22322,35522
22434,35635
22434,35635
22523,35767
22583,35914
22583,35914
22612,36057
22614,36070
22614,36229
22583,36385
22523,36532
22523,36532
22434,36664
22322,36777
22322,36777
22189,36865
22043,36926
22043,36926
22043,36926
21887,36957
21727,36957
21571,36926
21571,36926
21571,36926
21424,36865
21292,36777
21292,36777
21180,36664
21091,36532
21091,36532
21031,36385
21000,36229
21000,36070
21002,36057
21031,35914
21031,35914
21091,35767
21180,35635
21180,35635
21292,35522
21347,35486
21424,35434
21571,35373
21571,35373
21571,35373
21727,35342
21887,35342
22043,35373
" /> 
<polyline style="fill-rule:evenodd;"
points="39677,34594
39702,34602
39725,34614
39745,34630
39762,34651
39774,34673
39781,34698
39784,34727
39784,35205
39781,35233
39774,35258
39762,35281
39745,35301
39722,35319
39720,35321
39713,35328
39707,35336
39704,35345
39702,35355
39702,35364
39704,35374
39707,35383
39713,35391
39720,35397
39722,35399
39745,35418
39762,35438
39774,35461
39781,35486
39784,35514
39784,35992
39781,36020
39774,36045
39762,36068
39745,36088
39725,36105
39702,36117
39677,36125
39649,36127
39289,36127
39261,36125
39236,36117
39213,36105
39193,36088
39176,36068
39164,36045
39156,36020
39153,35992
39153,35514
39156,35486
39164,35461
39176,35438
39193,35418
39215,35399
39218,35397
39225,35391
39230,35383
39234,35374
39236,35364
39236,35355
39234,35345
39230,35336
39225,35328
39218,35321
39215,35319
39193,35301
39176,35281
39164,35258
39156,35233
39153,35205
39153,34727
39156,34698
39164,34673
39176,34651
39193,34630
39213,34614
39236,34602
39261,34594
39289,34591
39649,34591
39677,34594
" /> 
<polyline style="fill-rule:evenodd;"
points="40464,34594
40489,34602
40512,34614
40532,34630
40549,34651
40561,34673
40569,34698
40572,34727
40572,35205
40569,35233
40561,35258
40549,35281
40532,35301
40510,35319
40507,35321
40500,35328
40495,35336
40491,35345
40489,35355
40489,35364
40491,35374
40495,35383
40500,35391
40507,35397
40510,35399
40532,35418
40549,35438
40561,35461
40569,35486
40572,35514
40572,35992
40569,36020
40561,36045
40549,36068
40532,36088
40512,36105
40489,36117
40464,36125
40436,36127
40076,36127
40048,36125
40023,36117
40000,36105
39980,36088
39963,36068
39951,36045
39944,36020
39941,35992
39941,35514
39944,35486
39951,35461
39963,35438
39980,35418
40003,35399
40005,35397
40012,35391
40018,35383
40021,35374
40023,35364
40023,35355
40021,35345
40018,35336
40012,35328
40005,35321
40003,35319
39980,35301
39963,35281
39951,35258
39944,35233
39941,35205
39941,34727
39944,34698
39951,34673
39963,34651
39980,34630
40000,34614
40023,34602
40048,34594
40076,34591
40436,34591
40464,34594
" /> 
<polyline style="fill-rule:evenodd;"
points="33378,34594
33403,34602
33426,34614
33446,34630
33462,34651
33475,34673
33482,34698
33485,34727
33485,35205
33482,35233
33475,35258
33462,35281
33446,35301
33423,35319
33420,35321
33414,35328
33408,35336
33405,35345
33403,35355
33403,35364
33405,35374
33408,35383
33414,35391
33420,35397
33423,35399
33446,35418
33462,35438
33475,35461
33482,35486
33485,35514
33485,35992
33482,36020
33475,36045
33462,36068
33446,36088
33426,36105
33403,36117
33378,36125
33349,36127
32990,36127
32961,36125
32936,36117
32913,36105
32893,36088
32877,36068
32865,36045
32857,36020
32854,35992
32854,35514
32857,35486
32865,35461
32877,35438
32893,35418
32916,35399
32919,35397
32926,35391
32931,35383
32935,35374
32936,35364
32936,35355
32935,35345
32931,35336
32926,35328
32919,35321
32916,35319
32893,35301
32877,35281
32865,35258
32857,35233
32854,35205
32854,34727
32857,34698
32865,34673
32877,34651
32893,34630
32913,34614
32936,34602
32961,34594
32990,34591
33349,34591
33378,34594
" /> 
<polyline style="fill-rule:evenodd;"
points="34165,34594
34190,34602
34213,34614
34233,34630
34250,34651
34262,34673
34270,34698
34272,34727
34272,35205
34270,35233
34262,35258
34250,35281
34233,35301
34211,35319
34208,35321
34201,35328
34196,35336
34192,35345
34190,35355
34190,35364
34192,35374
34196,35383
34201,35391
34208,35397
34211,35399
34233,35418
34250,35438
34262,35461
34270,35486
34272,35514
34272,35992
34270,36020
34262,36045
34250,36068
34233,36088
34213,36105
34190,36117
34165,36125
34137,36127
33777,36127
33749,36125
33724,36117
33701,36105
33681,36088
33664,36068
33652,36045
33644,36020
33642,35992
33642,35514
33644,35486
33652,35461
33664,35438
33681,35418
33703,35399
33706,35397
33713,35391
33718,35383
33722,35374
33724,35364
33724,35355
33722,35345
33718,35336
33713,35328
33706,35321
33703,35319
33681,35301
33664,35281
33652,35258
33644,35233
33642,35205
33642,34727
33644,34698
33652,34673
33664,34651
33681,34630
33701,34614
33724,34602
33749,34594
33777,34591
34137,34591
34165,34594
" /> 
<polyline style="fill-rule:evenodd;"
points="34953,34594
34977,34602
35000,34614
35021,34630
35037,34651
35049,34673
35057,34698
35060,34727
35060,35205
35057,35233
35049,35258
35037,35281
35021,35301
34998,35319
34995,35321
34988,35328
34983,35336
34979,35345
34977,35355
34977,35364
34979,35374
34983,35383
34988,35391
34995,35397
34998,35399
35021,35418
35037,35438
35049,35461
35057,35486
35060,35514
35060,35992
35057,36020
35049,36045
35037,36068
35021,36088
35000,36105
34977,36117
34953,36125
34924,36127
34565,36127
34536,36125
34511,36117
34488,36105
34468,36088
34452,36068
34439,36045
34432,36020
34429,35992
34429,35514
34432,35486
34439,35461
34452,35438
34468,35418
34491,35399
34494,35397
34500,35391
34506,35383
34509,35374
34511,35364
34511,35355
34509,35345
34506,35336
34500,35328
34494,35321
34491,35319
34468,35301
34452,35281
34439,35258
34432,35233
34429,35205
34429,34727
34432,34698
34439,34673
34452,34651
34468,34630
34488,34614
34511,34602
34536,34594
34565,34591
34924,34591
34953,34594
" /> 
<polyline style="fill-rule:evenodd;"
points="35740,34594
35765,34602
35788,34614
35808,34630
35825,34651
35837,34673
35844,34698
35847,34727
35847,35205
35844,35233
35837,35258
35825,35281
35808,35301
35785,35319
35783,35321
35776,35328
35770,35336
35767,35345
35765,35355
35765,35364
35767,35374
35770,35383
35776,35391
35783,35397
35785,35399
35808,35418
35825,35438
35837,35461
35844,35486
35847,35514
35847,35992
35844,36020
35837,36045
35825,36068
35808,36088
35788,36105
35765,36117
35740,36125
35712,36127
35352,36127
35324,36125
35299,36117
35276,36105
35256,36088
35239,36068
35227,36045
35219,36020
35216,35992
35216,35514
35219,35486
35227,35461
35239,35438
35256,35418
35278,35399
35281,35397
35288,35391
35293,35383
35297,35374
35299,35364
35299,35355
35297,35345
35293,35336
35288,35328
35281,35321
35278,35319
35256,35301
35239,35281
35227,35258
35219,35233
35216,35205
35216,34727
35219,34698
35227,34673
35239,34651
35256,34630
35276,34614
35299,34602
35324,34594
35352,34591
35712,34591
35740,34594
" /> 
<polyline style="fill-rule:evenodd;"
points="36527,34594
36552,34602
36575,34614
36595,34630
36612,34651
36624,34673
36632,34698
36635,34727
36635,35205
36632,35233
36624,35258
36612,35281
36595,35301
36573,35319
36570,35321
36563,35328
36558,35336
36554,35345
36552,35355
36552,35364
36554,35374
36558,35383
36563,35391
36570,35397
36573,35399
36595,35418
36612,35438
36624,35461
36632,35486
36635,35514
36635,35992
36632,36020
36624,36045
36612,36068
36595,36088
36575,36105
36552,36117
36527,36125
36499,36127
36139,36127
36111,36125
36086,36117
36063,36105
36043,36088
36026,36068
36014,36045
36007,36020
36004,35992
36004,35514
36007,35486
36014,35461
36026,35438
36043,35418
36066,35399
36068,35397
36075,35391
36081,35383
36084,35374
36086,35364
36086,35355
36084,35345
36081,35336
36075,35328
36068,35321
36066,35319
36043,35301
36026,35281
36014,35258
36007,35233
36004,35205
36004,34727
36007,34698
36014,34673
36026,34651
36043,34630
36063,34614
36086,34602
36111,34594
36139,34591
36499,34591
36527,34594
" /> 
<polyline style="fill-rule:evenodd;"
points="37315,34594
37340,34602
37363,34614
37383,34630
37399,34651
37412,34673
37419,34698
37422,34727
37422,35205
37419,35233
37412,35258
37399,35281
37383,35301
37360,35319
37357,35321
37351,35328
37345,35336
37342,35345
37340,35355
37340,35364
37342,35374
37345,35383
37351,35391
37357,35397
37360,35399
37383,35418
37399,35438
37412,35461
37419,35486
37422,35514
37422,35992
37419,36020
37412,36045
37399,36068
37383,36088
37363,36105
37340,36117
37315,36125
37286,36127
36927,36127
36898,36125
36873,36117
36851,36105
36830,36088
36814,36068
36802,36045
36794,36020
36791,35992
36791,35514
36794,35486
36802,35461
36814,35438
36830,35418
36853,35399
36856,35397
36863,35391
36868,35383
36872,35374
36874,35364
36874,35355
36872,35345
36868,35336
36863,35328
36856,35321
36853,35319
36830,35301
36814,35281
36802,35258
36794,35233
36791,35205
36791,34727
36794,34698
36802,34673
36814,34651
36830,34630
36851,34614
36873,34602
36898,34594
36927,34591
37286,34591
37315,34594
" /> 
<polyline style="fill-rule:evenodd;"
points="38102,34594
38127,34602
38150,34614
38170,34630
38187,34651
38199,34673
38207,34698
38209,34727
38209,35205
38207,35233
38199,35258
38187,35281
38170,35301
38148,35319
38145,35321
38138,35328
38133,35336
38129,35345
38127,35355
38127,35364
38129,35374
38133,35383
38138,35391
38145,35397
38148,35399
38170,35418
38187,35438
38199,35461
38207,35486
38209,35514
38209,35992
38207,36020
38199,36045
38187,36068
38170,36088
38150,36105
38127,36117
38102,36125
38074,36127
37714,36127
37686,36125
37661,36117
37638,36105
37618,36088
37601,36068
37589,36045
37581,36020
37579,35992
37579,35514
37581,35486
37589,35461
37601,35438
37618,35418
37640,35399
37643,35397
37650,35391
37655,35383
37659,35374
37661,35364
37661,35355
37659,35345
37655,35336
37650,35328
37643,35321
37640,35319
37618,35301
37601,35281
37589,35258
37581,35233
37579,35205
37579,34727
37581,34698
37589,34673
37601,34651
37618,34630
37638,34614
37661,34602
37686,34594
37714,34591
38074,34591
38102,34594
" /> 
<polyline style="fill-rule:evenodd;"
points="38890,34594
38915,34602
38937,34614
38958,34630
38974,34651
38986,34673
38994,34698
38997,34727
38997,35205
38994,35233
38986,35258
38974,35281
38958,35301
38935,35319
38932,35321
38925,35328
38920,35336
38916,35345
38914,35355
38914,35364
38916,35374
38920,35383
38925,35391
38932,35397
38935,35399
38958,35418
38974,35438
38986,35461
38994,35486
38997,35514
38997,35992
38994,36020
38986,36045
38974,36068
38958,36088
38937,36105
38915,36117
38890,36125
38861,36127
38502,36127
38473,36125
38448,36117
38425,36105
38405,36088
38389,36068
38376,36045
38369,36020
38366,35992
38366,35514
38369,35486
38376,35461
38389,35438
38405,35418
38428,35399
38431,35397
38437,35391
38443,35383
38446,35374
38448,35364
38448,35355
38446,35345
38443,35336
38437,35328
38431,35321
38428,35319
38405,35301
38389,35281
38376,35258
38369,35233
38366,35205
38366,34727
38369,34698
38376,34673
38389,34651
38405,34630
38425,34614
38448,34602
38473,34594
38502,34591
38861,34591
38890,34594
" /> 
<polyline style="fill-rule:evenodd;"
points="32590,34594
32615,34602
32638,34614
32658,34630
32675,34651
32687,34673
32695,34698
32698,34727
32698,35205
32695,35233
32687,35258
32675,35281
32658,35301
32636,35319
32633,35321
32626,35328
32621,35336
32617,35345
32615,35355
32615,35364
32617,35374
32621,35383
32626,35391
32633,35397
32636,35399
32658,35418
32675,35438
32687,35461
32695,35486
32698,35514
32698,35992
32695,36020
32687,36045
32675,36068
32658,36088
32638,36105
32615,36117
32590,36125
32562,36127
32202,36127
32174,36125
32149,36117
32126,36105
32106,36088
32089,36068
32077,36045
32070,36020
32067,35992
32067,35514
32070,35486
32077,35461
32089,35438
32106,35418
32129,35399
32131,35397
32138,35391
32144,35383
32147,35374
32149,35364
32149,35355
32147,35345
32144,35336
32138,35328
32131,35321
32129,35319
32106,35301
32089,35281
32077,35258
32070,35233
32067,35205
32067,34727
32070,34698
32077,34673
32089,34651
32106,34630
32126,34614
32149,34602
32174,34594
32202,34591
32562,34591
32590,34594
" /> 
<polyline style="fill-rule:evenodd;"
points="41252,34594
41277,34602
41300,34614
41320,34630
41336,34651
41349,34673
41356,34698
41359,34727
41359,35205
41356,35233
41349,35258
41336,35281
41320,35301
41297,35319
41294,35321
41288,35328
41282,35336
41279,35345
41277,35355
41277,35364
41279,35374
41282,35383
41288,35391
41294,35397
41297,35399
41320,35418
41336,35438
41349,35461
41356,35486
41359,35514
41359,35992
41356,36020
41349,36045
41336,36068
41320,36088
41300,36105
41277,36117
41252,36125
41223,36127
40864,36127
40835,36125
40810,36117
40788,36105
40767,36088
40751,36068
40739,36045
40731,36020
40728,35992
40728,35514
40731,35486
40739,35461
40751,35438
40767,35418
40790,35399
40793,35397
40800,35391
40805,35383
40809,35374
40811,35364
40811,35355
40809,35345
40805,35336
40800,35328
40793,35321
40790,35319
40767,35301
40751,35281
40739,35258
40731,35233
40728,35205
40728,34727
40731,34698
40739,34673
40751,34651
40767,34630
40788,34614
40810,34602
40835,34594
40864,34591
41223,34591
41252,34594
" /> 
<polyline style="fill-rule:evenodd;"
points="42039,34594
42064,34602
42087,34614
42107,34630
42124,34651
42136,34673
42144,34698
42146,34727
42146,35205
42144,35233
42136,35258
42124,35281
42107,35301
42085,35319
42082,35321
42075,35328
42070,35336
42066,35345
42064,35355
42064,35364
42066,35374
42070,35383
42075,35391
42082,35397
42085,35399
42107,35418
42124,35438
42136,35461
42144,35486
42146,35514
42146,35992
42144,36020
42136,36045
42124,36068
42107,36088
42087,36105
42064,36117
42039,36125
42011,36127
41651,36127
41623,36125
41598,36117
41575,36105
41555,36088
41538,36068
41526,36045
41518,36020
41516,35992
41516,35514
41518,35486
41526,35461
41538,35438
41555,35418
41577,35399
41580,35397
41587,35391
41592,35383
41596,35374
41598,35364
41598,35355
41596,35345
41592,35336
41587,35328
41580,35321
41577,35319
41555,35301
41538,35281
41526,35258
41518,35233
41516,35205
41516,34727
41518,34698
41526,34673
41538,34651
41555,34630
41575,34614
41598,34602
41623,34594
41651,34591
42011,34591
42039,34594
" /> 
<polyline style="fill-rule:evenodd;"
points="42827,34594
42852,34602
42874,34614
42895,34630
42911,34651
42923,34673
42931,34698
42934,34727
42934,35205
42931,35233
42923,35258
42911,35281
42895,35301
42872,35319
42869,35321
42862,35328
42857,35336
42853,35345
42851,35355
42851,35364
42853,35374
42857,35383
42862,35391
42869,35397
42872,35399
42895,35418
42911,35438
42923,35461
42931,35486
42934,35514
42934,35992
42931,36020
42923,36045
42911,36068
42895,36088
42874,36105
42852,36117
42827,36125
42798,36127
42439,36127
42410,36125
42385,36117
42362,36105
42342,36088
42326,36068
42313,36045
42306,36020
42303,35992
42303,35514
42306,35486
42313,35461
42326,35438
42342,35418
42365,35399
42368,35397
42374,35391
42380,35383
42383,35374
42385,35364
42385,35355
42383,35345
42380,35336
42374,35328
42368,35321
42365,35319
42342,35301
42326,35281
42313,35258
42306,35233
42303,35205
42303,34727
42306,34698
42313,34673
42326,34651
42342,34630
42362,34614
42385,34602
42410,34594
42439,34591
42798,34591
42827,34594
" /> 
<polyline style="fill-rule:evenodd;"
points="43614,34594
43639,34602
43662,34614
43682,34630
43699,34651
43711,34673
43718,34698
43721,34727
43721,35205
43718,35233
43711,35258
43699,35281
43682,35301
43659,35319
43657,35321
43650,35328
43644,35336
43641,35345
43639,35355
43639,35364
43641,35374
43644,35383
43650,35391
43657,35397
43659,35399
43682,35418
43699,35438
43711,35461
43718,35486
43721,35514
43721,35992
43718,36020
43711,36045
43699,36068
43682,36088
43662,36105
43639,36117
43614,36125
43586,36127
43226,36127
43198,36125
43173,36117
43150,36105
43130,36088
43113,36068
43101,36045
43093,36020
43090,35992
43090,35514
43093,35486
43101,35461
43113,35438
43130,35418
43152,35399
43155,35397
43162,35391
43167,35383
43171,35374
43173,35364
43173,35355
43171,35345
43167,35336
43162,35328
43155,35321
43152,35319
43130,35301
43113,35281
43101,35258
43093,35233
43090,35205
43090,34727
43093,34698
43101,34673
43113,34651
43130,34630
43150,34614
43173,34602
43198,34594
43226,34591
43586,34591
43614,34594
" /> 
<polyline style="fill-rule:evenodd;"
points="44401,34594
44426,34602
44449,34614
44469,34630
44486,34651
44498,34673
44506,34698
44509,34727
44509,35205
44506,35233
44498,35258
44486,35281
44469,35301
44447,35319
44444,35321
44437,35328
44432,35336
44428,35345
44426,35355
44426,35364
44428,35374
44432,35383
44437,35391
44444,35397
44447,35399
44469,35418
44486,35438
44498,35461
44506,35486
44509,35514
44509,35992
44506,36020
44498,36045
44486,36068
44469,36088
44449,36105
44426,36117
44401,36125
44373,36127
44013,36127
43985,36125
43960,36117
43937,36105
43917,36088
43900,36068
43888,36045
43881,36020
43878,35992
43878,35514
43881,35486
43888,35461
43900,35438
43917,35418
43940,35399
43942,35397
43949,35391
43955,35383
43958,35374
43960,35364
43960,35355
43958,35345
43955,35336
43949,35328
43942,35321
43940,35319
43917,35301
43900,35281
43888,35258
43881,35233
43878,35205
43878,34727
43881,34698
43888,34673
43900,34651
43917,34630
43937,34614
43960,34602
43985,34594
44013,34591
44373,34591
44401,34594
" /> 
<polyline style="fill-rule:evenodd;"
points="31803,34594
31828,34602
31851,34614
31871,34630
31888,34651
31900,34673
31907,34698
31910,34727
31910,35205
31907,35233
31900,35258
31888,35281
31871,35301
31848,35319
31846,35321
31839,35328
31833,35336
31830,35345
31828,35355
31828,35364
31830,35374
31833,35383
31839,35391
31846,35397
31848,35399
31871,35418
31888,35438
31900,35461
31907,35486
31910,35514
31910,35992
31907,36020
31900,36045
31888,36068
31871,36088
31851,36105
31828,36117
31803,36125
31775,36127
31415,36127
31387,36125
31362,36117
31339,36105
31319,36088
31302,36068
31290,36045
31282,36020
31279,35992
31279,35514
31282,35486
31290,35461
31302,35438
31319,35418
31341,35399
31344,35397
31351,35391
31356,35383
31360,35374
31362,35364
31362,35355
31360,35345
31356,35336
31351,35328
31344,35321
31341,35319
31319,35301
31302,35281
31290,35258
31282,35233
31279,35205
31279,34727
31282,34698
31290,34673
31302,34651
31319,34630
31339,34614
31362,34602
31387,34594
31415,34591
31775,34591
31803,34594
" /> 
<polyline style="fill-rule:evenodd;"
points="45976,34594
46001,34602
46024,34614
46044,34630
46061,34651
46073,34673
46081,34698
46083,34727
46083,35205
46081,35233
46073,35258
46061,35281
46044,35301
46022,35319
46019,35321
46012,35328
46007,35336
46003,35345
46001,35355
46001,35364
46003,35374
46007,35383
46012,35391
46019,35397
46022,35399
46044,35418
46061,35438
46073,35461
46081,35486
46083,35514
46083,35992
46081,36020
46073,36045
46061,36068
46044,36088
46024,36105
46001,36117
45976,36125
45948,36127
45588,36127
45560,36125
45535,36117
45512,36105
45492,36088
45475,36068
45463,36045
45455,36020
45453,35992
45453,35514
45455,35486
45463,35461
45475,35438
45492,35418
45514,35399
45517,35397
45524,35391
45529,35383
45533,35374
45535,35364
45535,35355
45533,35345
45529,35336
45524,35328
45517,35321
45514,35319
45492,35301
45475,35281
45463,35258
45455,35233
45453,35205
45453,34727
45455,34698
45463,34673
45475,34651
45492,34630
45512,34614
45535,34602
45560,34594
45588,34591
45948,34591
45976,34594
" /> 
<polyline style="fill-rule:evenodd;"
points="31016,34594
31040,34602
31063,34614
31084,34630
31100,34651
31112,34673
31120,34698
31123,34727
31123,35205
31120,35233
31112,35258
31100,35281
31084,35301
31061,35319
31058,35321
31051,35328
31046,35336
31042,35345
31040,35355
31040,35364
31042,35374
31046,35383
31051,35391
31058,35397
31061,35399
31084,35418
31100,35438
31112,35461
31120,35486
31123,35514
31123,35992
31120,36020
31112,36045
31100,36068
31084,36088
31063,36105
31040,36117
31016,36125
30987,36127
30628,36127
30599,36125
30574,36117
30551,36105
30531,36088
30515,36068
30502,36045
30495,36020
30492,35992
30492,35514
30495,35486
30502,35461
30515,35438
30531,35418
30554,35399
30557,35397
30563,35391
30569,35383
30572,35374
30574,35364
30574,35355
30572,35345
30569,35336
30563,35328
30557,35321
30554,35319
30531,35301
30515,35281
30502,35258
30495,35233
30492,35205
30492,34727
30495,34698
30502,34673
30515,34651
30531,34630
30551,34614
30574,34602
30599,34594
30628,34591
30987,34591
31016,34594
" /> 
<polyline style="fill-rule:evenodd;"
points="45189,34594
45214,34602
45237,34614
45257,34630
45273,34651
45286,34673
45293,34698
45296,34727
45296,35205
45293,35233
45286,35258
45273,35281
45257,35301
45234,35319
45231,35321
45225,35328
45219,35336
45216,35345
45214,35355
45214,35364
45216,35374
45219,35383
45225,35391
45231,35397
45234,35399
45257,35418
45273,35438
45286,35461
45293,35486
45296,35514
45296,35992
45293,36020
45286,36045
45273,36068
45257,36088
45237,36105
45214,36117
45189,36125
45160,36127
44801,36127
44772,36125
44747,36117
44725,36105
44704,36088
44688,36068
44676,36045
44668,36020
44665,35992
44665,35514
44668,35486
44676,35461
44688,35438
44704,35418
44727,35399
44730,35397
44737,35391
44742,35383
44746,35374
44748,35364
44748,35355
44746,35345
44742,35336
44737,35328
44730,35321
44727,35319
44704,35301
44688,35281
44676,35258
44668,35233
44665,35205
44665,34727
44668,34698
44676,34673
44688,34651
44704,34630
44725,34614
44747,34602
44772,34594
44801,34591
45160,34591
45189,34594
" /> 
<polyline style="fill-rule:evenodd;"
points="49412,34839
49444,34848
49460,34853
49469,34858
49505,34877
49505,34877
49505,34877
49534,34901
49544,34909
49576,34948
49576,34948
49600,34993
49605,35009
49614,35041
49614,35041
49618,35079
49618,35320
49617,35328
49614,35358
49608,35378
49600,35406
49585,35434
49576,35451
49544,35490
49505,35522
49505,35522
49460,35546
49444,35551
49412,35560
49362,35565
49311,35560
49279,35551
49263,35546
49219,35522
49219,35522
49180,35490
49148,35451
49129,35416
49124,35406
49115,35378
49109,35358
49106,35328
49105,35320
49105,35079
49109,35041
49109,35041
49124,34993
49124,34993
49136,34969
49148,34948
49180,34909
49219,34877
49232,34870
49263,34853
49279,34848
49311,34839
49362,34834
49412,34839
" /> 
<polyline style="fill-rule:evenodd;"
points="52875,34839
52907,34848
52923,34853
52932,34858
52967,34877
52967,34877
52967,34877
52996,34901
53006,34909
53038,34948
53038,34948
53062,34993
53067,35009
53077,35041
53077,35041
53081,35079
53081,35320
53080,35328
53077,35358
53071,35378
53062,35406
53047,35434
53038,35451
53006,35490
52967,35522
52967,35522
52923,35546
52907,35551
52875,35560
52824,35565
52774,35560
52742,35551
52726,35546
52681,35522
52681,35522
52642,35490
52610,35451
52591,35416
52586,35406
52578,35378
52572,35358
52569,35328
52568,35320
52568,35079
52572,35041
52572,35041
52586,34993
52586,34993
52599,34969
52610,34948
52642,34909
52681,34877
52695,34870
52726,34853
52742,34848
52774,34839
52824,34834
52875,34839
" /> 
<polyline style="fill-rule:evenodd;"
points="47837,34839
47869,34848
47885,34853
47894,34858
47930,34877
47930,34877
47930,34877
47959,34901
47969,34909
48001,34948
48001,34948
48025,34993
48030,35009
48039,35041
48039,35041
48043,35079
48043,35320
48042,35328
48039,35358
48033,35378
48025,35406
48010,35434
48001,35451
47969,35490
47930,35522
47930,35522
47885,35546
47869,35551
47837,35560
47787,35565
47737,35560
47704,35551
47688,35546
47644,35522
47644,35522
47605,35490
47573,35451
47554,35416
47549,35406
47540,35378
47534,35358
47531,35328
47531,35320
47531,35079
47534,35041
47534,35041
47549,34993
47549,34993
47562,34969
47573,34948
47605,34909
47644,34877
47658,34870
47688,34853
47704,34848
47737,34839
47787,34834
47837,34839
" /> 
<polyline style="fill-rule:evenodd;"
points="48625,34839
48657,34848
48673,34853
48682,34858
48717,34877
48717,34877
48717,34877
48746,34901
48756,34909
48788,34948
48788,34948
48812,34993
48817,35009
48827,35041
48827,35041
48831,35079
48831,35320
48830,35328
48827,35358
48821,35378
48812,35406
48797,35434
48788,35451
48756,35490
48717,35522
48717,35522
48673,35546
48657,35551
48625,35560
48574,35565
48524,35560
48492,35551
48476,35546
48431,35522
48431,35522
48392,35490
48360,35451
48341,35416
48336,35406
48328,35378
48322,35358
48319,35328
48318,35320
48318,35079
48322,35041
48322,35041
48336,34993
48336,34993
48349,34969
48360,34948
48392,34909
48431,34877
48445,34870
48476,34853
48492,34848
48524,34839
48574,34834
48625,34839
" /> 
<polyline style="fill-rule:evenodd;"
points="52087,34839
52119,34848
52135,34853
52144,34858
52180,34877
52180,34877
52180,34877
52209,34901
52219,34909
52251,34948
52251,34948
52275,34993
52280,35009
52289,35041
52289,35041
52293,35079
52293,35320
52292,35328
52289,35358
52283,35378
52275,35406
52260,35434
52251,35451
52219,35490
52180,35522
52180,35522
52135,35546
52119,35551
52087,35560
52037,35565
51987,35560
51954,35551
51938,35546
51894,35522
51894,35522
51855,35490
51823,35451
51804,35416
51799,35406
51790,35378
51784,35358
51781,35328
51781,35320
51781,35079
51784,35041
51784,35041
51799,34993
51799,34993
51812,34969
51823,34948
51855,34909
51894,34877
51908,34870
51938,34853
51954,34848
51987,34839
52037,34834
52087,34839
" /> 
<polyline style="fill-rule:evenodd;"
points="47193,34837
47208,34841
47221,34848
47233,34858
47242,34870
47250,34883
47254,34898
47256,34915
47256,35484
47254,35501
47250,35516
47242,35529
47233,35541
47221,35551
47208,35558
47193,35562
47175,35564
46824,35564
46806,35562
46791,35558
46778,35551
46766,35541
46757,35529
46749,35516
46745,35501
46743,35484
46743,34915
46745,34898
46749,34883
46757,34870
46766,34858
46778,34848
46791,34841
46806,34837
46824,34835
47175,34835
47193,34837
" /> 
<polyline style="fill-rule:evenodd;"
points="51443,34837
51458,34841
51471,34848
51483,34858
51492,34870
51500,34883
51504,34898
51506,34915
51506,35484
51504,35501
51500,35516
51492,35529
51483,35541
51471,35551
51458,35558
51443,35562
51425,35564
51074,35564
51056,35562
51041,35558
51028,35551
51016,35541
51007,35529
50999,35516
50995,35501
50993,35484
50993,34915
50995,34898
50999,34883
51007,34870
51016,34858
51028,34848
51041,34841
51056,34837
51074,34835
51425,34835
51443,34837
" /> 
<polyline style="fill-rule:evenodd;"
points="28650,34739
28682,34748
28698,34753
28707,34758
28743,34777
28743,34777
28743,34777
28772,34801
28782,34809
28814,34848
28814,34848
28837,34893
28839,34898
28852,34941
28856,34979
28856,35220
28852,35258
28845,35281
28837,35306
28821,35337
28814,35351
28782,35390
28743,35422
28743,35422
28698,35446
28688,35449
28650,35460
28600,35465
28549,35460
28511,35449
28501,35446
28456,35422
28456,35422
28417,35390
28385,35351
28369,35320
28362,35306
28354,35281
28347,35258
28343,35220
28343,34979
28347,34941
28362,34893
28362,34893
28385,34848
28385,34848
28396,34835
28417,34809
28417,34809
28456,34777
28470,34770
28501,34753
28517,34748
28549,34739
28600,34734
28650,34739
" /> 
<polyline style="fill-rule:evenodd;"
points="27862,34739
27895,34748
27911,34753
27919,34758
27955,34777
27955,34777
27955,34777
27984,34801
27994,34809
28026,34848
28026,34848
28050,34893
28052,34898
28065,34941
28068,34979
28068,35220
28065,35258
28058,35281
28050,35306
28034,35337
28026,35351
27994,35390
27955,35422
27955,35422
27911,35446
27901,35449
27862,35460
27812,35465
27762,35460
27723,35449
27714,35446
27669,35422
27669,35422
27630,35390
27598,35351
27582,35320
27574,35306
27566,35281
27560,35258
27556,35220
27556,34979
27560,34941
27574,34893
27574,34893
27598,34848
27598,34848
27609,34835
27630,34809
27630,34809
27669,34777
27683,34770
27714,34753
27730,34748
27762,34739
27812,34734
27862,34739
" /> 
<polyline style="fill-rule:evenodd;"
points="27075,34739
27107,34748
27123,34753
27132,34758
27168,34777
27168,34777
27168,34777
27197,34801
27207,34809
27239,34848
27239,34848
27263,34893
27264,34898
27277,34941
27281,34979
27281,35220
27277,35258
27270,35281
27263,35306
27246,35337
27239,35351
27207,35390
27168,35422
27168,35422
27123,35446
27113,35449
27075,35460
27025,35465
26974,35460
26936,35449
26926,35446
26882,35422
26882,35422
26843,35390
26811,35351
26794,35320
26787,35306
26779,35281
26772,35258
26768,35220
26768,34979
26772,34941
26787,34893
26787,34893
26810,34848
26811,34848
26821,34835
26843,34809
26843,34809
26882,34777
26895,34770
26926,34753
26942,34748
26974,34739
27025,34734
27075,34739
" /> 
<polyline style="fill-rule:evenodd;"
points="26431,34737
26445,34741
26459,34748
26471,34758
26480,34770
26487,34783
26492,34798
26494,34815
26494,35384
26492,35401
26487,35416
26480,35429
26471,35441
26459,35451
26445,35458
26431,35462
26413,35464
26061,35464
26044,35462
26029,35458
26016,35451
26004,35441
25994,35429
25987,35416
25983,35401
25981,35384
25981,34815
25983,34798
25987,34783
25994,34770
26004,34758
26016,34748
26029,34741
26044,34737
26061,34735
26413,34735
26431,34737
" /> 
<polyline style="fill-rule:evenodd;"
points="53254,33392
53296,33400
53324,33412
53375,33433
53446,33481
53506,33541
53506,33541
53506,33541
53548,33604
53553,33612
53586,33691
53603,33775
53603,33860
53586,33944
53553,34023
53506,34094
53446,34154
53375,34201
53324,34222
53296,34234
53254,34242
53212,34251
53126,34251
53085,34242
53043,34234
53015,34222
52964,34201
52893,34154
52832,34094
52785,34023
52752,33944
52736,33860
52736,33775
52752,33691
52785,33612
52790,33604
52832,33541
52832,33541
52832,33541
52893,33481
52964,33433
53015,33412
53043,33400
53085,33392
53126,33384
53212,33384
53254,33392
" /> 
<polyline style="fill-rule:evenodd;"
points="54256,32971
54322,32998
54382,33038
54433,33089
54473,33148
54500,33215
54514,33285
54514,33357
54500,33427
54473,33494
54433,33554
54382,33604
54322,33644
54256,33672
54185,33686
54114,33686
54043,33672
53977,33644
53917,33604
53866,33554
53826,33494
53799,33427
53785,33357
53785,33285
53799,33215
53826,33148
53866,33089
53917,33038
53977,32998
54043,32971
54114,32957
54185,32957
54256,32971
" /> 
<polyline style="fill-rule:evenodd;"
points="55457,33056
55493,33071
55525,33093
55553,33120
55574,33153
55589,33188
55597,33227
55597,33265
55589,33303
55574,33339
55553,33372
55525,33399
55493,33421
55457,33436
55419,33443
55380,33443
55342,33436
55306,33421
55274,33399
55246,33372
55225,33339
55210,33303
55202,33265
55202,33227
55210,33188
55225,33153
55246,33120
55274,33093
55306,33071
55342,33056
55380,33049
55419,33049
55457,33056
" /> 
<polyline style="fill-rule:evenodd;"
points="43620,33022
43107,33022
43107,32510
43620,32510
43620,33022
" /> 
<polyline style="fill-rule:evenodd;"
points="41163,32341
41202,32357
41238,32381
41268,32411
41292,32447
41308,32486
41316,32528
41316,32571
41308,32613
41292,32652
41268,32688
41238,32718
41202,32742
41163,32758
41121,32766
41078,32766
41036,32758
40997,32742
40961,32718
40931,32688
40907,32652
40891,32613
40883,32571
40883,32528
40891,32486
40907,32447
40931,32411
40961,32381
40997,32357
41036,32341
41078,32333
41121,32333
41163,32341
" /> 
<polyline style="fill-rule:evenodd;"
points="51708,32084
51714,32086
51719,32088
51729,32090
51738,32090
51748,32088
51757,32085
51757,32084
52242,32084
52247,32087
52256,32089
52266,32090
52275,32089
52282,32087
52282,32087
52291,32084
52297,32084
52509,32084
52516,32085
52521,32085
52528,32085
52537,32086
52570,32092
52578,32095
52610,32108
52617,32112
52646,32131
52652,32136
52676,32160
52682,32167
52701,32195
52705,32203
52718,32234
52720,32242
52727,32275
52728,32284
52728,32291
52728,32296
52729,32303
52729,32496
52728,32503
52728,32508
52728,32515
52727,32524
52720,32557
52718,32565
52705,32596
52701,32604
52682,32632
52676,32639
52652,32663
52646,32668
52617,32687
52610,32691
52578,32704
52570,32707
52537,32713
52528,32714
52521,32714
52516,32714
52509,32715
52297,32715
52291,32715
52285,32713
52280,32711
52270,32709
52261,32709
52251,32711
52242,32714
52242,32715
51757,32715
51752,32712
51743,32710
51733,32709
51724,32710
51717,32712
51717,32712
51708,32715
51702,32715
51490,32715
51483,32714
51478,32714
51471,32714
51462,32713
51429,32707
51421,32704
51389,32691
51382,32687
51353,32668
51347,32663
51323,32639
51317,32632
51298,32604
51294,32596
51281,32565
51279,32557
51272,32524
51271,32515
51271,32508
51271,32503
51270,32496
51270,32303
51271,32296
51271,32291
51271,32284
51272,32275
51279,32242
51281,32234
51294,32203
51298,32195
51317,32167
51323,32160
51347,32136
51353,32131
51382,32112
51389,32108
51421,32095
51429,32092
51462,32086
51471,32085
51478,32085
51483,32085
51490,32084
51702,32084
51708,32084
" /> 
<polyline style="fill-rule:evenodd;"
points="23283,32106
23308,32109
23340,32118
23356,32123
23396,32144
23401,32147
23440,32179
23472,32218
23472,32218
23496,32263
23496,32263
23510,32311
23515,32361
23510,32412
23501,32444
23496,32460
23482,32486
23472,32504
23440,32543
23401,32575
23401,32575
23356,32599
23340,32604
23308,32614
23283,32616
23270,32618
23029,32618
23016,32616
22991,32614
22959,32604
22943,32599
22898,32575
22898,32575
22859,32543
22827,32504
22817,32486
22803,32460
22798,32444
22789,32412
22784,32361
22789,32311
22803,32263
22803,32263
22827,32218
22827,32218
22859,32179
22898,32147
22903,32144
22943,32123
22959,32118
22991,32109
23016,32106
23029,32105
23270,32105
23283,32106
" /> 
<polyline style="fill-rule:evenodd;"
points="41163,31593
41202,31609
41238,31633
41268,31663
41292,31699
41308,31738
41316,31780
41316,31823
41308,31865
41292,31904
41268,31940
41238,31970
41202,31994
41163,32010
41121,32018
41078,32018
41036,32010
40997,31994
40961,31970
40931,31940
40907,31904
40891,31865
40883,31823
40883,31780
40891,31738
40907,31699
40931,31663
40961,31633
40997,31609
41036,31593
41078,31585
41121,31585
41163,31593
" /> 
<polyline style="fill-rule:evenodd;"
points="54256,31199
54322,31226
54382,31266
54433,31317
54473,31377
54500,31443
54514,31514
54514,31585
54500,31656
54473,31722
54433,31782
54382,31833
54322,31873
54256,31900
54185,31914
54114,31914
54043,31900
53977,31873
53917,31833
53866,31782
53826,31722
53799,31656
53785,31585
53785,31514
53799,31443
53826,31377
53866,31317
53917,31266
53977,31226
54043,31199
54114,31185
54185,31185
54256,31199
" /> 
<polyline style="fill-rule:evenodd;"
points="43620,31841
43107,31841
43107,31329
43620,31329
43620,31841
" /> 
<polyline style="fill-rule:evenodd;"
points="23283,31319
23308,31321
23340,31331
23356,31336
23393,31356
23401,31360
23440,31392
23472,31431
23472,31431
23496,31475
23496,31475
23510,31524
23515,31574
23510,31624
23504,31646
23496,31672
23482,31699
23472,31717
23440,31756
23401,31788
23401,31788
23356,31812
23340,31817
23308,31827
23283,31829
23270,31830
23029,31830
23016,31829
22991,31827
22959,31817
22943,31812
22898,31788
22898,31788
22859,31756
22827,31717
22817,31699
22803,31672
22795,31646
22789,31624
22784,31574
22789,31524
22803,31475
22803,31475
22827,31431
22827,31431
22859,31392
22898,31360
22906,31356
22943,31336
22959,31331
22991,31321
23016,31319
23029,31318
23270,31318
23283,31319
" /> 
<polyline style="fill-rule:evenodd;"
points="55457,31363
55493,31378
55525,31400
55553,31427
55574,31460
55589,31496
55597,31534
55597,31572
55589,31611
55574,31646
55553,31679
55525,31706
55493,31728
55457,31743
55419,31750
55380,31750
55342,31743
55306,31728
55274,31706
55246,31679
55225,31646
55210,31611
55202,31572
55202,31534
55210,31496
55225,31460
55246,31427
55274,31400
55306,31378
55342,31363
55380,31356
55419,31356
55457,31363
" /> 
<polyline style="fill-rule:evenodd;"
points="53254,30632
53296,30641
53324,30652
53375,30673
53375,30673
53397,30688
53446,30721
53506,30781
53506,30781
53506,30781
53543,30837
53553,30852
53567,30885
53586,30931
53603,31015
53603,31100
53586,31184
53580,31199
53553,31263
53553,31263
53517,31318
53506,31334
53446,31394
53446,31394
53446,31394
53396,31427
53375,31442
53331,31460
53296,31474
53254,31483
53212,31491
53126,31491
53085,31483
53043,31474
53008,31460
52964,31442
52943,31427
52893,31394
52893,31394
52893,31394
52832,31334
52822,31318
52785,31263
52785,31263
52759,31199
52752,31184
52736,31100
52736,31015
52752,30931
52771,30885
52785,30852
52795,30837
52832,30781
52832,30781
52832,30781
52893,30721
52942,30688
52964,30673
52964,30673
53015,30652
53043,30641
53085,30632
53126,30624
53212,30624
53254,30632
" /> 
<polyline style="fill-rule:evenodd;"
points="23283,30531
23308,30534
23340,30544
23356,30549
23396,30570
23401,30572
23440,30604
23472,30643
23472,30643
23496,30688
23496,30688
23510,30736
23515,30787
23510,30837
23506,30852
23496,30885
23475,30924
23472,30930
23440,30969
23401,31001
23401,31001
23356,31024
23340,31029
23308,31039
23283,31042
23270,31043
23029,31043
23016,31042
22991,31039
22959,31029
22943,31024
22898,31001
22898,31001
22859,30969
22827,30930
22824,30924
22803,30885
22793,30852
22789,30837
22784,30787
22789,30736
22803,30688
22803,30688
22827,30643
22827,30643
22859,30604
22898,30572
22903,30570
22943,30549
22959,30544
22991,30534
23016,30531
23029,30530
23270,30530
23283,30531
" /> 
<polyline style="fill-rule:evenodd;"
points="23283,29744
23308,29747
23340,29756
23356,29761
23396,29782
23401,29785
23440,29817
23472,29856
23472,29856
23496,29901
23496,29901
23510,29949
23515,29999
23510,30049
23501,30082
23496,30098
23475,30137
23472,30142
23440,30181
23401,30213
23401,30213
23356,30237
23340,30242
23308,30252
23283,30254
23270,30255
23029,30255
23016,30254
22991,30252
22959,30242
22943,30237
22898,30213
22898,30213
22859,30181
22827,30142
22824,30137
22803,30098
22798,30082
22789,30049
22784,29999
22789,29949
22803,29901
22803,29901
22827,29856
22827,29856
22859,29817
22898,29785
22903,29782
22943,29761
22959,29756
22991,29747
23016,29744
23029,29743
23270,29743
23283,29744
" /> 
<polyline style="fill-rule:evenodd;"
points="23283,28957
23308,28959
23340,28969
23356,28974
23396,28995
23401,28998
23440,29030
23472,29069
23472,29069
23496,29113
23496,29113
23510,29161
23515,29212
23510,29262
23501,29294
23496,29310
23475,29350
23472,29355
23440,29394
23401,29426
23401,29426
23356,29450
23340,29455
23308,29464
23283,29467
23270,29468
23029,29468
23016,29467
22991,29464
22959,29455
22943,29450
22898,29426
22898,29426
22859,29394
22827,29355
22824,29350
22803,29310
22798,29294
22789,29262
22784,29212
22789,29161
22803,29113
22803,29113
22827,29069
22827,29069
22859,29030
22898,28998
22903,28995
22943,28974
22959,28969
22991,28959
23016,28957
23029,28955
23270,28955
23283,28957
" /> 
<polyline style="fill-rule:evenodd;"
points="23283,28169
23308,28172
23340,28181
23356,28186
23396,28207
23401,28210
23440,28242
23472,28281
23472,28281
23496,28326
23496,28326
23510,28374
23515,28424
23510,28475
23501,28507
23496,28523
23475,28562
23472,28567
23440,28606
23401,28638
23401,28638
23356,28662
23340,28667
23308,28677
23283,28679
23270,28681
23029,28681
23016,28679
22991,28677
22959,28667
22943,28662
22898,28638
22898,28638
22859,28606
22827,28567
22824,28562
22803,28523
22798,28507
22789,28475
22784,28424
22789,28374
22803,28326
22803,28326
22827,28281
22827,28281
22859,28242
22898,28210
22903,28207
22943,28186
22959,28181
22991,28172
23016,28169
23029,28168
23270,28168
23283,28169
" /> 
<polyline style="fill-rule:evenodd;"
points="23283,27382
23308,27384
23340,27394
23356,27399
23396,27420
23401,27423
23440,27455
23472,27494
23472,27494
23496,27538
23496,27538
23510,27587
23515,27637
23510,27687
23501,27719
23496,27735
23475,27775
23472,27780
23440,27819
23401,27851
23401,27851
23356,27875
23340,27880
23308,27889
23283,27892
23270,27893
23029,27893
23016,27892
22991,27889
22959,27880
22943,27875
22898,27851
22898,27851
22859,27819
22827,27780
22824,27775
22803,27735
22798,27719
22789,27687
22784,27637
22789,27587
22803,27538
22803,27538
22827,27494
22827,27494
22859,27455
22898,27423
22903,27420
22943,27399
22959,27394
22991,27384
23016,27382
23029,27381
23270,27381
23283,27382
" /> 
<polyline style="fill-rule:evenodd;"
points="23451,26595
23466,26599
23479,26607
23491,26616
23501,26628
23508,26641
23512,26656
23514,26674
23514,27025
23512,27043
23508,27058
23501,27071
23491,27083
23479,27092
23466,27100
23451,27104
23434,27106
22865,27106
22848,27104
22833,27100
22820,27092
22808,27083
22798,27071
22791,27058
22787,27043
22785,27025
22785,26674
22787,26656
22791,26641
22798,26628
22808,26616
22820,26607
22833,26599
22848,26595
22865,26593
23434,26593
23451,26595
" /> 
<polyline style="fill-rule:evenodd;"
points="36480,24834
36545,24854
36605,24886
36657,24929
36700,24982
36732,25042
36752,25107
36756,25148
36758,25157
36762,25166
36767,25174
36774,25181
36782,25187
36791,25190
36800,25192
36810,25192
36819,25190
36828,25187
36836,25181
36843,25174
36849,25166
36852,25157
36854,25143
36854,24829
37545,24829
37545,25770
36854,25770
36854,25456
36853,25446
36851,25437
36846,25429
36840,25421
36833,25415
36824,25410
36815,25408
36805,25407
36796,25408
36786,25410
36778,25415
36770,25421
36764,25429
36760,25437
36756,25451
36752,25492
36732,25557
36700,25617
36657,25670
36618,25702
36605,25713
36605,25713
36545,25745
36480,25765
36412,25771
36344,25765
36279,25745
36219,25713
36167,25670
36135,25631
36124,25617
36120,25609
36092,25557
36072,25492
36067,25445
36065,25436
36062,25427
36056,25419
36050,25412
36042,25406
36033,25403
36023,25401
36014,25401
36004,25403
35995,25406
35987,25412
35980,25419
35975,25427
35971,25436
35969,25445
35965,25492
35945,25557
35913,25617
35870,25670
35831,25702
35817,25713
35817,25713
35757,25745
35692,25765
35625,25771
35557,25765
35492,25745
35432,25713
35380,25670
35348,25631
35336,25617
35332,25609
35304,25557
35285,25492
35280,25441
35280,25158
35285,25107
35304,25042
35336,24982
35380,24929
35432,24886
35492,24854
35557,24834
35625,24828
35692,24834
35757,24854
35817,24886
35870,24929
35913,24982
35945,25042
35965,25107
35969,25154
35971,25163
35975,25172
35980,25180
35987,25187
35995,25193
36004,25196
36014,25198
36023,25198
36033,25196
36042,25193
36050,25187
36056,25180
36062,25172
36065,25163
36067,25154
36072,25107
36092,25042
36124,24982
36167,24929
36219,24886
36279,24854
36344,24834
36412,24828
36480,24834
" /> 
<polyline style="fill-rule:evenodd;"
points="44653,24228
44705,24238
44801,24278
44870,24324
44889,24336
44963,24410
44963,24410
45021,24498
45047,24562
45061,24594
45081,24697
45081,24802
45075,24834
45061,24905
45021,25001
44994,25042
44963,25089
44889,25163
44889,25163
44801,25221
44705,25261
44653,25271
44602,25281
44497,25281
44446,25271
44394,25261
44298,25221
44210,25163
44210,25163
44136,25089
44105,25042
44078,25001
44038,24905
44024,24834
44018,24802
44018,24697
44038,24594
44052,24562
44078,24498
44136,24410
44136,24410
44210,24336
44229,24324
44298,24278
44394,24238
44446,24228
44497,24218
44602,24218
44653,24228
" /> 
<polyline style="fill-rule:evenodd;"
points="23283,24307
23308,24309
23340,24319
23356,24324
23380,24336
23401,24348
23440,24380
23472,24419
23472,24419
23496,24463
23496,24463
23510,24511
23515,24562
23510,24612
23501,24644
23496,24660
23476,24697
23472,24705
23440,24744
23401,24776
23401,24776
23356,24800
23340,24805
23308,24814
23283,24817
23270,24818
23029,24818
23016,24817
22991,24814
22959,24805
22943,24800
22898,24776
22898,24776
22859,24744
22827,24705
22823,24697
22803,24660
22798,24644
22789,24612
22784,24562
22789,24511
22803,24463
22803,24463
22827,24419
22827,24419
22859,24380
22898,24348
22919,24336
22943,24324
22959,24319
22991,24309
23016,24307
23029,24305
23270,24305
23283,24307
" /> 
<polyline style="fill-rule:evenodd;"
points="54674,24374
53925,24374
53925,23625
54674,23625
54674,24374
" /> 
<polyline style="fill-rule:evenodd;"
points="23283,23519
23308,23522
23340,23531
23356,23536
23396,23557
23401,23560
23440,23592
23472,23631
23472,23631
23496,23676
23496,23676
23510,23724
23515,23774
23510,23825
23501,23857
23496,23873
23475,23912
23472,23917
23440,23956
23401,23988
23401,23988
23356,24012
23340,24017
23308,24027
23283,24029
23270,24031
23029,24031
23016,24029
22991,24027
22959,24017
22943,24012
22898,23988
22898,23988
22859,23956
22827,23917
22824,23912
22803,23873
22798,23857
22789,23825
22784,23774
22789,23724
22803,23676
22803,23676
22827,23631
22827,23631
22859,23592
22898,23560
22903,23557
22943,23536
22959,23531
22991,23522
23016,23519
23029,23518
23270,23518
23283,23519
" /> 
<polyline style="fill-rule:evenodd;"
points="44639,22625
44705,22638
44801,22678
44880,22731
44889,22736
44963,22810
44963,22810
45021,22898
45061,22994
45081,23097
45081,23202
45061,23305
45021,23401
44963,23488
44963,23489
44889,23563
44889,23563
44801,23621
44705,23661
44653,23671
44602,23681
44497,23681
44446,23671
44394,23661
44298,23621
44210,23563
44210,23563
44136,23489
44136,23488
44078,23401
44038,23305
44018,23202
44018,23097
44038,22994
44078,22898
44136,22810
44136,22810
44210,22736
44219,22731
44298,22678
44394,22638
44460,22625
44497,22618
44602,22618
44639,22625
" /> 
<polyline style="fill-rule:evenodd;"
points="54409,22639
54477,22668
54538,22709
54590,22761
54631,22822
54660,22890
54674,22963
54674,23036
54660,23109
54631,23177
54590,23238
54538,23290
54477,23331
54409,23360
54336,23374
54263,23374
54190,23360
54122,23331
54061,23290
54009,23238
53968,23177
53939,23109
53925,23036
53925,22963
53939,22890
53968,22822
54009,22761
54061,22709
54122,22668
54190,22639
54263,22625
54336,22625
54409,22639
" /> 
<polyline style="fill-rule:evenodd;"
points="23283,22732
23308,22734
23340,22744
23356,22749
23379,22761
23401,22773
23440,22805
23472,22844
23472,22844
23496,22888
23498,22898
23510,22937
23515,22987
23510,23037
23501,23069
23496,23085
23483,23109
23472,23130
23440,23169
23401,23201
23399,23202
23356,23225
23340,23230
23308,23239
23283,23242
23270,23243
23029,23243
23016,23242
22991,23239
22959,23230
22943,23225
22900,23202
22898,23201
22859,23169
22827,23130
22816,23109
22803,23085
22798,23069
22789,23037
22784,22987
22789,22937
22801,22898
22803,22888
22827,22844
22827,22844
22859,22805
22898,22773
22920,22761
22943,22749
22959,22744
22991,22734
23016,22732
23029,22731
23270,22731
23283,22732
" /> 
<polyline style="fill-rule:evenodd;"
points="23451,21945
23466,21949
23479,21957
23491,21966
23501,21978
23508,21991
23512,22006
23514,22024
23514,22375
23512,22393
23508,22408
23501,22421
23491,22433
23479,22442
23466,22450
23451,22454
23434,22456
22865,22456
22848,22454
22833,22450
22820,22442
22808,22433
22798,22421
22791,22408
22787,22393
22785,22375
22785,22024
22787,22006
22791,21991
22798,21978
22808,21966
22820,21957
22833,21949
22848,21945
22865,21943
23434,21943
23451,21945
" /> 
<polyline style="fill-rule:evenodd;"
points="53240,21339
53296,21350
53324,21362
53375,21383
53375,21383
53431,21421
53446,21431
53506,21491
53506,21491
53506,21491
53548,21554
53553,21562
53586,21641
53603,21725
53603,21810
53586,21894
53553,21973
53553,21973
53515,22029
53506,22044
53446,22104
53375,22151
53324,22172
53296,22184
53254,22192
53212,22201
53126,22201
53085,22192
53043,22184
53015,22172
52964,22151
52893,22104
52832,22044
52823,22029
52785,21973
52785,21973
52752,21894
52736,21810
52736,21725
52752,21641
52785,21562
52790,21554
52832,21491
52832,21491
52832,21491
52893,21431
52907,21421
52964,21383
52964,21383
53015,21362
53043,21350
53098,21339
53126,21334
53212,21334
53240,21339
" /> 
<polyline style="fill-rule:evenodd;"
points="54256,20921
54322,20948
54382,20988
54433,21039
54473,21098
54500,21165
54514,21235
54514,21307
54500,21377
54473,21444
54433,21504
54382,21554
54322,21594
54256,21622
54185,21636
54114,21636
54043,21622
53977,21594
53917,21554
53866,21504
53826,21444
53799,21377
53785,21307
53785,21235
53799,21165
53826,21098
53866,21039
53917,20988
53977,20948
54043,20921
54114,20907
54185,20907
54256,20921
" /> 
<polyline style="fill-rule:evenodd;"
points="55457,21056
55493,21071
55525,21093
55553,21120
55574,21153
55589,21188
55597,21227
55597,21265
55589,21303
55574,21339
55553,21372
55525,21399
55493,21421
55457,21436
55419,21443
55380,21443
55342,21436
55306,21421
55274,21399
55246,21372
55225,21339
55210,21303
55202,21265
55202,21227
55210,21188
55225,21153
55246,21120
55274,21093
55306,21071
55342,21056
55380,21049
55419,21049
55457,21056
" /> 
<polyline style="fill-rule:evenodd;"
points="47283,20782
47308,20784
47340,20794
47356,20799
47396,20820
47401,20823
47440,20855
47472,20894
47472,20894
47496,20938
47496,20938
47510,20987
47515,21037
47510,21087
47501,21119
47496,21135
47487,21153
47472,21180
47440,21219
47401,21251
47401,21251
47356,21275
47340,21280
47308,21289
47283,21292
47270,21293
47029,21293
47016,21292
46991,21289
46959,21280
46943,21275
46898,21251
46898,21251
46859,21219
46827,21180
46812,21153
46803,21135
46798,21119
46789,21087
46784,21037
46789,20987
46803,20938
46803,20938
46827,20894
46827,20894
46859,20855
46898,20823
46903,20820
46943,20799
46959,20794
46991,20784
47016,20782
47029,20781
47270,20781
47283,20782
" /> 
<polyline style="fill-rule:evenodd;"
points="47451,19995
47466,19999
47479,20007
47491,20016
47501,20028
47508,20041
47512,20056
47514,20074
47514,20425
47512,20443
47508,20458
47501,20471
47491,20483
47479,20492
47466,20500
47451,20504
47434,20506
46865,20506
46848,20504
46833,20500
46820,20492
46808,20483
46798,20471
46791,20458
46787,20443
46785,20425
46785,20074
46787,20056
46791,20041
46798,20028
46808,20016
46820,20007
46833,19999
46848,19995
46865,19993
47434,19993
47451,19995
" /> 
<polyline style="fill-rule:evenodd;"
points="26260,19979
25039,19979
25039,18757
26260,18757
26260,19979
" /> 
<polyline style="fill-rule:evenodd;"
points="54256,19149
54322,19176
54382,19216
54433,19267
54473,19327
54500,19393
54514,19464
54514,19535
54500,19606
54473,19672
54433,19732
54382,19783
54322,19823
54256,19850
54185,19864
54114,19864
54043,19850
53977,19823
53917,19783
53866,19732
53826,19672
53799,19606
53785,19535
53785,19464
53799,19393
53826,19327
53866,19267
53917,19216
53977,19176
54043,19149
54114,19135
54185,19135
54256,19149
" /> 
<polyline style="fill-rule:evenodd;"
points="33893,19099
33961,19128
34022,19169
34074,19221
34115,19282
34143,19350
34158,19422
34158,19496
34143,19569
34115,19637
34074,19698
34022,19750
33961,19791
33893,19819
33820,19834
33746,19834
33674,19819
33606,19791
33545,19750
33493,19698
33452,19637
33423,19569
33409,19496
33409,19422
33423,19350
33452,19282
33493,19221
33545,19169
33606,19128
33674,19099
33746,19085
33820,19085
33893,19099
" /> 
<polyline style="fill-rule:evenodd;"
points="37830,19099
37898,19128
37959,19169
38011,19221
38052,19282
38080,19350
38095,19422
38095,19496
38080,19569
38052,19637
38011,19698
37959,19750
37898,19791
37830,19819
37757,19834
37683,19834
37611,19819
37543,19791
37482,19750
37430,19698
37389,19637
37360,19569
37346,19496
37346,19422
37360,19350
37389,19282
37430,19221
37482,19169
37543,19128
37611,19099
37683,19085
37757,19085
37830,19099
" /> 
<polyline style="fill-rule:evenodd;"
points="55457,19363
55493,19378
55525,19400
55553,19427
55574,19460
55589,19496
55597,19534
55597,19572
55589,19611
55574,19646
55553,19679
55525,19706
55493,19728
55457,19743
55419,19750
55380,19750
55342,19743
55306,19728
55274,19706
55246,19679
55225,19646
55210,19611
55202,19572
55202,19534
55210,19496
55225,19460
55246,19427
55274,19400
55306,19378
55342,19363
55380,19356
55419,19356
55457,19363
" /> 
<polyline style="fill-rule:evenodd;"
points="53254,18582
53296,18591
53324,18602
53375,18623
53375,18623
53424,18656
53446,18671
53506,18731
53553,18802
53574,18853
53586,18881
53603,18965
53603,19050
53586,19134
53580,19149
53553,19213
53506,19284
53446,19344
53446,19344
53446,19344
53394,19378
53375,19392
53324,19413
53296,19424
53254,19433
53212,19441
53126,19441
53085,19433
53043,19424
53015,19413
52964,19392
52944,19378
52893,19344
52893,19344
52893,19344
52832,19284
52785,19213
52759,19149
52752,19134
52736,19050
52736,18965
52752,18881
52764,18853
52785,18802
52832,18731
52893,18671
52915,18656
52964,18623
52964,18623
53015,18602
53043,18591
53085,18582
53126,18574
53212,18574
53254,18582
" /> 
<polyline style="fill-rule:evenodd;"
points="24373,17907
24373,17907
24373,17907
24454,17941
24466,17946
24550,18002
24621,18073
24677,18157
24716,18250
24733,18337
24735,18349
24735,18450
24716,18549
24685,18623
24677,18642
24621,18726
24550,18797
24550,18797
24466,18853
24373,18892
24373,18892
24373,18892
24274,18912
24173,18912
24074,18892
24074,18892
24074,18892
23981,18853
23897,18797
23897,18797
23825,18726
23769,18642
23761,18623
23731,18549
23711,18450
23711,18349
23713,18337
23731,18250
23769,18157
23825,18073
23897,18002
23981,17946
23992,17941
24074,17907
24074,17907
24074,17907
24173,17887
24274,17887
24373,17907
" /> 
<polyline style="fill-rule:evenodd;"
points="27227,17907
27227,17907
27227,17907
27308,17941
27320,17946
27404,18002
27475,18073
27531,18157
27570,18250
27587,18337
27590,18349
27590,18450
27570,18549
27539,18623
27531,18642
27475,18726
27404,18797
27404,18797
27320,18853
27227,18892
27227,18892
27227,18892
27128,18912
27027,18912
26928,18892
26928,18892
26928,18892
26835,18853
26751,18797
26751,18797
26680,18726
26624,18642
26616,18623
26585,18549
26565,18450
26565,18349
26568,18337
26585,18250
26624,18157
26680,18073
26751,18002
26835,17946
26847,17941
26928,17907
26928,17907
26928,17907
27027,17887
27128,17887
27227,17907
" /> 
<polyline style="fill-rule:evenodd;"
points="49620,17955
49662,17963
49690,17975
49741,17996
49741,17996
49750,18002
49812,18043
49872,18103
49920,18174
49941,18225
49951,18250
49953,18253
49969,18337
49969,18423
49953,18506
49920,18585
49872,18656
49812,18717
49812,18717
49812,18717
49751,18757
49741,18764
49690,18785
49662,18797
49635,18802
49578,18813
49493,18813
49437,18802
49409,18797
49381,18785
49330,18764
49321,18757
49259,18717
49259,18717
49259,18717
49199,18656
49152,18585
49119,18506
49102,18423
49102,18337
49119,18253
49120,18250
49130,18225
49152,18174
49199,18103
49259,18043
49321,18002
49330,17996
49330,17996
49381,17975
49409,17963
49451,17955
49493,17946
49578,17946
49620,17955
" /> 
<polyline style="fill-rule:evenodd;"
points="52380,17955
52422,17963
52450,17975
52501,17996
52501,17996
52510,18002
52572,18043
52632,18103
52680,18174
52701,18225
52711,18250
52712,18253
52729,18337
52729,18423
52712,18506
52680,18585
52632,18656
52572,18717
52572,18717
52572,18717
52511,18757
52501,18764
52450,18785
52422,18797
52395,18802
52338,18813
52253,18813
52196,18802
52169,18797
52141,18785
52090,18764
52080,18757
52019,18717
52019,18717
52019,18717
51959,18656
51911,18585
51879,18506
51862,18423
51862,18337
51879,18253
51880,18250
51890,18225
51911,18174
51959,18103
52019,18043
52081,18002
52090,17996
52090,17996
52141,17975
52169,17963
52211,17955
52253,17946
52338,17946
52380,17955
" /> 
<polyline style="fill-rule:evenodd;"
points="25782,16803
25828,16812
25939,16858
26039,16925
26124,17010
26191,17110
26237,17221
26260,17339
26260,17460
26237,17578
26191,17689
26124,17789
26039,17874
25939,17941
25828,17987
25788,17994
25710,18010
25589,18010
25511,17994
25471,17987
25360,17941
25260,17874
25175,17789
25108,17689
25062,17578
25039,17460
25039,17339
25062,17221
25108,17110
25175,17010
25260,16925
25360,16858
25471,16812
25517,16803
25589,16789
25710,16789
25782,16803
" /> 
<polyline style="fill-rule:evenodd;"
points="51906,17049
51972,17076
52032,17116
52083,17167
52123,17227
52150,17293
52164,17364
52164,17435
52150,17506
52123,17572
52083,17632
52032,17683
51972,17723
51906,17750
51835,17764
51764,17764
51693,17750
51627,17723
51567,17683
51516,17632
51476,17572
51449,17506
51435,17435
51435,17364
51449,17293
51476,17227
51516,17167
51567,17116
51627,17076
51693,17049
51764,17035
51835,17035
51906,17049
" /> 
<polyline style="fill-rule:evenodd;"
points="50134,17049
50201,17076
50260,17116
50311,17167
50351,17227
50378,17293
50392,17364
50392,17435
50378,17506
50351,17572
50311,17632
50260,17683
50201,17723
50134,17750
50064,17764
49992,17764
49922,17750
49855,17723
49795,17683
49745,17632
49705,17572
49677,17506
49663,17435
49663,17364
49677,17293
49705,17227
49745,17167
49795,17116
49855,17076
49922,17049
49992,17035
50064,17035
50134,17049
" /> 
<polyline style="fill-rule:evenodd;"
points="55043,15373
55043,15373
55043,15373
55189,15434
55189,15434
55322,15522
55434,15635
55434,15635
55523,15767
55583,15914
55583,15914
55614,16070
55614,16229
55586,16374
55583,16385
55523,16532
55490,16581
55434,16664
55322,16777
55322,16777
55189,16865
55043,16926
55043,16926
55043,16926
54887,16957
54727,16957
54571,16926
54571,16926
54571,16926
54424,16865
54292,16777
54292,16777
54180,16664
54124,16581
54091,16532
54031,16385
54028,16374
54000,16229
54000,16070
54031,15914
54031,15914
54091,15767
54180,15635
54180,15635
54292,15522
54424,15434
54424,15434
54571,15373
54571,15373
54571,15373
54727,15342
54887,15342
55043,15373
" /> 
<polyline style="fill-rule:evenodd;"
points="22043,15373
22043,15373
22043,15373
22189,15434
22189,15434
22322,15522
22434,15635
22434,15635
22523,15767
22583,15914
22583,15914
22614,16070
22614,16229
22586,16374
22583,16385
22523,16532
22490,16581
22434,16664
22322,16777
22322,16777
22189,16865
22043,16926
22043,16926
22043,16926
21887,16957
21727,16957
21571,16926
21571,16926
21571,16926
21424,16865
21292,16777
21292,16777
21180,16664
21124,16581
21091,16532
21031,16385
21028,16374
21000,16229
21000,16070
21031,15914
21031,15914
21091,15767
21180,15635
21180,15635
21292,15522
21424,15434
21424,15434
21571,15373
21571,15373
21571,15373
21727,15342
21887,15342
22043,15373
" /> 
<polyline style="fill-rule:evenodd;"
points="29445,16462
29477,16475
29477,16475
29477,16475
29506,16495
29506,16495
29531,16519
29531,16519
29531,16519
29551,16548
29551,16548
29551,16548
29564,16581
29571,16615
29571,16650
29564,16684
29551,16717
29551,16717
29531,16746
29531,16746
29506,16770
29506,16770
29506,16770
29477,16790
29477,16790
29477,16790
29445,16803
29411,16810
29376,16810
29341,16803
29309,16790
29309,16790
29309,16790
29280,16770
29280,16770
29280,16770
29255,16746
29255,16746
29236,16717
29236,16717
29222,16684
29216,16650
29216,16615
29222,16581
29236,16548
29236,16548
29236,16548
29255,16519
29255,16519
29255,16519
29280,16495
29280,16495
29309,16475
29309,16475
29309,16475
29341,16462
29376,16455
29411,16455
29445,16462
" /> 
<polyline style="fill-rule:evenodd;"
points="31020,16462
31052,16475
31052,16475
31052,16475
31081,16495
31081,16495
31106,16519
31106,16519
31106,16519
31125,16548
31125,16548
31125,16548
31139,16581
31146,16615
31146,16650
31139,16684
31125,16717
31125,16717
31106,16746
31106,16746
31081,16770
31081,16770
31081,16770
31052,16790
31052,16790
31052,16790
31020,16803
30985,16810
30951,16810
30916,16803
30884,16790
30884,16790
30884,16790
30855,16770
30855,16770
30855,16770
30830,16746
30830,16746
30811,16717
30811,16717
30797,16684
30790,16650
30790,16615
30797,16581
30811,16548
30811,16548
30811,16548
30830,16519
30830,16519
30830,16519
30855,16495
30855,16495
30884,16475
30884,16475
30884,16475
30916,16462
30951,16455
30985,16455
31020,16462
" /> 
<polyline style="fill-rule:evenodd;"
points="50120,16010
50156,16025
50188,16046
50216,16074
50237,16106
50252,16142
50260,16180
50260,16219
50252,16257
50237,16293
50216,16325
50188,16353
50156,16374
50120,16389
50082,16397
50043,16397
50005,16389
49969,16374
49937,16353
49909,16325
49888,16293
49873,16257
49865,16219
49865,16180
49873,16142
49888,16106
49909,16074
49937,16046
49969,16025
50005,16010
50043,16002
50082,16002
50120,16010
" /> 
<polyline style="fill-rule:evenodd;"
points="51813,16010
51849,16025
51881,16046
51909,16074
51930,16106
51945,16142
51953,16180
51953,16219
51945,16257
51930,16293
51909,16325
51881,16353
51849,16374
51813,16389
51775,16397
51736,16397
51698,16389
51662,16374
51630,16353
51602,16325
51581,16293
51566,16257
51558,16219
51558,16180
51566,16142
51581,16106
51602,16074
51630,16046
51662,16025
51698,16010
51736,16002
51775,16002
51813,16010
" /> 
</g> 
</svg>
