  0
SECTION
  2
HEADER
  9
$ANGBASE
  50
0.0
  9
$ANGDIR
  70
  1
  9
$MEASUREMENT
  70
0
  0
ENDSEC
  0
SECTION
  2
TABLES
  0
TABLE
  2
LTYPE
  70
4
  0
LTYPE
  5
40F
  2
CONTINUOUS
  70
0
  3
Solid line
  72
65
  73
0
  40
0.0
  0
LTYPE
  5
410
  2
DASHDOT
 70
0
  3
Dash Dot ____ _ ____ _
 72
65
 73
4
 40
2.0
 49
1.25
 49
-0.25
 49
0.25
 49
-0.25
  0
LTYPE
  5
411
  2
DASHED
 70
0
  3
Dashed __ __ __ __ __
 72
65
 73
2
 40
0.75
 49
0.5
 49
-0.25
  0
LTYPE
  5
43B
  2
DOTTED
 70
0
  3
Dotted .  .  .  .
 72
65
 73
2
 40
0.2
 49
0.0
 49
-0.2
  0
ENDTAB
  0
TABLE
  2
STYLE
  70
4
  0
STYLE
  2
KICAD
  70
0
  40
0
  41
1
  42
1
  50
0
  71
0
  3
isocp.shx
  0
STYLE
  2
KICADB
  70
0
  40
0
  41
1
  42
1
  50
0
  71
0
  3
isocp.shx
  0
STYLE
  2
KICADI
  70
0
  40
0
  41
1
  42
1
  50
15
  71
0
  3
isocp.shx
  0
STYLE
  2
KICADBI
  70
0
  40
0
  41
1
  42
1
  50
15
  71
0
  3
isocp.shx
  0
ENDTAB
  0
TABLE
  2
LAYER
  70
30
  0
LAYER
  2
BLACK
  70
0
  62
7
  6
CONTINUOUS
  0
LAYER
  2
GRAY1
  70
0
  62
251
  6
CONTINUOUS
  0
LAYER
  2
GRAY2
  70
0
  62
8
  6
CONTINUOUS
  0
LAYER
  2
GRAY3
  70
0
  62
9
  6
CONTINUOUS
  0
LAYER
  2
WHITE
  70
0
  62
7
  6
CONTINUOUS
  0
LAYER
  2
LYELLOW
  70
0
  62
51
  6
CONTINUOUS
  0
LAYER
  2
BLUE1
  70
0
  62
178
  6
CONTINUOUS
  0
LAYER
  2
GREEN1
  70
0
  62
98
  6
CONTINUOUS
  0
LAYER
  2
CYAN1
  70
0
  62
138
  6
CONTINUOUS
  0
LAYER
  2
RED1
  70
0
  62
18
  6
CONTINUOUS
  0
LAYER
  2
MAGENTA1
  70
0
  62
228
  6
CONTINUOUS
  0
LAYER
  2
BROWN1
  70
0
  62
58
  6
CONTINUOUS
  0
LAYER
  2
BLUE2
  70
0
  62
5
  6
CONTINUOUS
  0
LAYER
  2
GREEN2
  70
0
  62
3
  6
CONTINUOUS
  0
LAYER
  2
CYAN2
  70
0
  62
4
  6
CONTINUOUS
  0
LAYER
  2
RED2
  70
0
  62
1
  6
CONTINUOUS
  0
LAYER
  2
MAGENTA2
  70
0
  62
6
  6
CONTINUOUS
  0
LAYER
  2
BROWN2
  70
0
  62
54
  6
CONTINUOUS
  0
LAYER
  2
BLUE3
  70
0
  62
171
  6
CONTINUOUS
  0
LAYER
  2
GREEN3
  70
0
  62
91
  6
CONTINUOUS
  0
LAYER
  2
CYAN3
  70
0
  62
131
  6
CONTINUOUS
  0
LAYER
  2
RED3
  70
0
  62
11
  6
CONTINUOUS
  0
LAYER
  2
MAGENTA3
  70
0
  62
221
  6
CONTINUOUS
  0
LAYER
  2
YELLOW3
  70
0
  62
2
  6
CONTINUOUS
  0
LAYER
  2
BLUE4
  70
0
  62
5
  6
CONTINUOUS
  0
LAYER
  2
GREEN4
  70
0
  62
3
  6
CONTINUOUS
  0
LAYER
  2
CYAN4
  70
0
  62
4
  6
CONTINUOUS
  0
LAYER
  2
RED4
  70
0
  62
1
  6
CONTINUOUS
  0
LAYER
  2
MAGENTA4
  70
0
  62
6
  6
CONTINUOUS
  0
LAYER
  2
YELLOW4
  70
0
  62
2
  6
CONTINUOUS
  0
ENDTAB
  0
ENDSEC
  0
SECTION
  2
ENTITIES
0
LINE
8
BLACK
6
CONTINUOUS
10
142.8
20
-55.9029
11
142.8
21
-55.3654
0
LINE
8
BLACK
6
CONTINUOUS
10
142.8
20
-55.3654
11
142.803
21
-55.346
0
LINE
8
BLACK
6
CONTINUOUS
10
142.803
20
-55.346
11
142.817
21
-55.323
0
LINE
8
BLACK
6
CONTINUOUS
10
142.817
20
-55.323
11
142.837
21
-55.306
0
LINE
8
BLACK
6
CONTINUOUS
10
142.837
20
-55.306
11
142.862
21
-55.297
0
LINE
8
BLACK
6
CONTINUOUS
10
142.862
20
-55.297
11
142.888
21
-55.297
0
LINE
8
BLACK
6
CONTINUOUS
10
142.888
20
-55.297
11
142.913
21
-55.306
0
LINE
8
BLACK
6
CONTINUOUS
10
142.913
20
-55.306
11
142.933
21
-55.323
0
LINE
8
BLACK
6
CONTINUOUS
10
142.933
20
-55.323
11
142.947
21
-55.346
0
LINE
8
BLACK
6
CONTINUOUS
10
142.947
20
-55.346
11
142.95
21
-55.3654
0
LINE
8
BLACK
6
CONTINUOUS
10
142.95
20
-55.3654
11
142.95
21
-56.006
0
LINE
8
BLACK
6
CONTINUOUS
10
142.95
20
-56.006
11
142.95
21
-56.0182
0
LINE
8
BLACK
6
CONTINUOUS
10
142.95
20
-56.0182
11
142.95
21
-56.0192
0
LINE
8
BLACK
6
CONTINUOUS
10
142.95
20
-56.0192
11
142.95
21
-77.6036
0
LINE
8
BLACK
6
CONTINUOUS
10
142.95
20
-77.6036
11
142.947
21
-77.623
0
LINE
8
BLACK
6
CONTINUOUS
10
142.947
20
-77.623
11
142.933
21
-77.646
0
LINE
8
BLACK
6
CONTINUOUS
10
142.933
20
-77.646
11
142.913
21
-77.663
0
LINE
8
BLACK
6
CONTINUOUS
10
142.913
20
-77.663
11
142.888
21
-77.672
0
LINE
8
BLACK
6
CONTINUOUS
10
142.888
20
-77.672
11
142.862
21
-77.672
0
LINE
8
BLACK
6
CONTINUOUS
10
142.862
20
-77.672
11
142.837
21
-77.663
0
LINE
8
BLACK
6
CONTINUOUS
10
142.837
20
-77.663
11
142.817
21
-77.646
0
LINE
8
BLACK
6
CONTINUOUS
10
142.817
20
-77.646
11
142.803
21
-77.623
0
LINE
8
BLACK
6
CONTINUOUS
10
142.803
20
-77.623
11
142.8
21
-77.6036
0
LINE
8
BLACK
6
CONTINUOUS
10
142.8
20
-77.6036
11
142.8
21
-56.0611
0
LINE
8
BLACK
6
CONTINUOUS
10
142.8
20
-56.0611
11
142.101
21
-55.828
0
LINE
8
BLACK
6
CONTINUOUS
10
142.101
20
-55.828
11
142.1
21
-55.828
0
LINE
8
BLACK
6
CONTINUOUS
10
142.1
20
-55.828
11
142.088
21
-55.8238
0
LINE
8
BLACK
6
CONTINUOUS
10
142.088
20
-55.8238
11
142.083
21
-55.8221
0
LINE
8
BLACK
6
CONTINUOUS
10
142.083
20
-55.8221
11
142.082
21
-55.8216
0
LINE
8
BLACK
6
CONTINUOUS
10
142.082
20
-55.8216
11
142.075
21
-55.819
0
LINE
8
BLACK
6
CONTINUOUS
10
142.075
20
-55.819
11
142.071
21
-55.8153
0
LINE
8
BLACK
6
CONTINUOUS
10
142.071
20
-55.8153
11
142.066
21
-55.8127
0
LINE
8
BLACK
6
CONTINUOUS
10
142.066
20
-55.8127
11
142.061
21
-55.8069
0
LINE
8
BLACK
6
CONTINUOUS
10
142.061
20
-55.8069
11
142.055
21
-55.802
0
LINE
8
BLACK
6
CONTINUOUS
10
142.055
20
-55.802
11
142.052
21
-55.7971
0
LINE
8
BLACK
6
CONTINUOUS
10
142.052
20
-55.7971
11
142.048
21
-55.7929
0
LINE
8
BLACK
6
CONTINUOUS
10
142.048
20
-55.7929
11
142.045
21
-55.7857
0
LINE
8
BLACK
6
CONTINUOUS
10
142.045
20
-55.7857
11
142.041
21
-55.779
0
LINE
8
BLACK
6
CONTINUOUS
10
142.041
20
-55.779
11
142.04
21
-55.7735
0
LINE
8
BLACK
6
CONTINUOUS
10
142.04
20
-55.7735
11
142.038
21
-55.7683
0
LINE
8
BLACK
6
CONTINUOUS
10
142.038
20
-55.7683
11
142.038
21
-55.7606
0
LINE
8
BLACK
6
CONTINUOUS
10
142.038
20
-55.7606
11
142.038
21
-55.7596
0
LINE
8
BLACK
6
CONTINUOUS
10
142.038
20
-55.7596
11
142.038
21
-55.754
0
LINE
8
BLACK
6
CONTINUOUS
10
142.038
20
-55.754
11
142.038
21
-55.7418
0
LINE
8
BLACK
6
CONTINUOUS
10
142.038
20
-55.7418
11
142.038
21
-55.7408
0
LINE
8
BLACK
6
CONTINUOUS
10
142.038
20
-55.7408
11
142.038
21
-54.4764
0
LINE
8
BLACK
6
CONTINUOUS
10
142.038
20
-54.4764
11
142.038
21
-49.1424
0
LINE
8
BLACK
6
CONTINUOUS
10
142.038
20
-49.1424
11
142.038
21
-49.1424
0
LINE
8
BLACK
6
CONTINUOUS
10
142.038
20
-49.1424
11
142.038
21
-47.8912
0
LINE
8
BLACK
6
CONTINUOUS
10
142.038
20
-47.8912
11
142.038
21
-47.8902
0
LINE
8
BLACK
6
CONTINUOUS
10
142.038
20
-47.8902
11
142.038
21
-47.878
0
LINE
8
BLACK
6
CONTINUOUS
10
142.038
20
-47.878
11
142.038
21
-47.8724
0
LINE
8
BLACK
6
CONTINUOUS
10
142.038
20
-47.8724
11
142.038
21
-47.8714
0
LINE
8
BLACK
6
CONTINUOUS
10
142.038
20
-47.8714
11
142.038
21
-47.8637
0
LINE
8
BLACK
6
CONTINUOUS
10
142.038
20
-47.8637
11
142.04
21
-47.8585
0
LINE
8
BLACK
6
CONTINUOUS
10
142.04
20
-47.8585
11
142.041
21
-47.853
0
LINE
8
BLACK
6
CONTINUOUS
10
142.041
20
-47.853
11
142.045
21
-47.8463
0
LINE
8
BLACK
6
CONTINUOUS
10
142.045
20
-47.8463
11
142.048
21
-47.8391
0
LINE
8
BLACK
6
CONTINUOUS
10
142.048
20
-47.8391
11
142.052
21
-47.8349
0
LINE
8
BLACK
6
CONTINUOUS
10
142.052
20
-47.8349
11
142.055
21
-47.83
0
LINE
8
BLACK
6
CONTINUOUS
10
142.055
20
-47.83
11
142.061
21
-47.8251
0
LINE
8
BLACK
6
CONTINUOUS
10
142.061
20
-47.8251
11
142.066
21
-47.8193
0
LINE
8
BLACK
6
CONTINUOUS
10
142.066
20
-47.8193
11
142.071
21
-47.8167
0
LINE
8
BLACK
6
CONTINUOUS
10
142.071
20
-47.8167
11
142.075
21
-47.813
0
LINE
8
BLACK
6
CONTINUOUS
10
142.075
20
-47.813
11
142.082
21
-47.8104
0
LINE
8
BLACK
6
CONTINUOUS
10
142.082
20
-47.8104
11
142.083
21
-47.8099
0
LINE
8
BLACK
6
CONTINUOUS
10
142.083
20
-47.8099
11
142.088
21
-47.8082
0
LINE
8
BLACK
6
CONTINUOUS
10
142.088
20
-47.8082
11
142.1
21
-47.804
0
LINE
8
BLACK
6
CONTINUOUS
10
142.1
20
-47.804
11
142.101
21
-47.804
0
LINE
8
BLACK
6
CONTINUOUS
10
142.101
20
-47.804
11
142.8
21
-47.5709
0
LINE
8
BLACK
6
CONTINUOUS
10
142.8
20
-47.5709
11
142.8
21
-40.2639
0
LINE
8
BLACK
6
CONTINUOUS
10
142.8
20
-40.2639
11
142.724
21
-39.6869
0
LINE
8
BLACK
6
CONTINUOUS
10
142.724
20
-39.6869
11
142.503
21
-39.1538
0
LINE
8
BLACK
6
CONTINUOUS
10
142.503
20
-39.1538
11
142.152
21
-38.696
0
LINE
8
BLACK
6
CONTINUOUS
10
142.152
20
-38.696
11
141.694
21
-38.3448
0
LINE
8
BLACK
6
CONTINUOUS
10
141.694
20
-38.3448
11
141.161
21
-38.124
0
LINE
8
BLACK
6
CONTINUOUS
10
141.161
20
-38.124
11
140.584
21
-38.048
0
LINE
8
BLACK
6
CONTINUOUS
10
140.584
20
-38.048
11
135.172
21
-38.048
0
LINE
8
BLACK
6
CONTINUOUS
10
135.172
20
-38.048
11
134.18
21
-39.7827
0
LINE
8
BLACK
6
CONTINUOUS
10
134.18
20
-39.7827
11
134.178
21
-39.7891
0
LINE
8
BLACK
6
CONTINUOUS
10
134.178
20
-39.7891
11
134.169
21
-39.7992
0
LINE
8
BLACK
6
CONTINUOUS
10
134.169
20
-39.7992
11
134.161
21
-39.8091
0
LINE
8
BLACK
6
CONTINUOUS
10
134.161
20
-39.8091
11
134.161
21
-39.8092
0
LINE
8
BLACK
6
CONTINUOUS
10
134.161
20
-39.8092
11
134.161
21
-39.8093
0
LINE
8
BLACK
6
CONTINUOUS
10
134.161
20
-39.8093
11
134.15
21
-39.8159
0
LINE
8
BLACK
6
CONTINUOUS
10
134.15
20
-39.8159
11
134.138
21
-39.8224
0
LINE
8
BLACK
6
CONTINUOUS
10
134.138
20
-39.8224
11
134.138
21
-39.8225
0
LINE
8
BLACK
6
CONTINUOUS
10
134.138
20
-39.8225
11
134.138
21
-39.8226
0
LINE
8
BLACK
6
CONTINUOUS
10
134.138
20
-39.8226
11
134.125
21
-39.8248
0
LINE
8
BLACK
6
CONTINUOUS
10
134.125
20
-39.8248
11
134.112
21
-39.8272
0
LINE
8
BLACK
6
CONTINUOUS
10
134.112
20
-39.8272
11
134.106
21
-39.826
0
LINE
8
BLACK
6
CONTINUOUS
10
134.106
20
-39.826
11
121.614
21
-39.826
0
LINE
8
BLACK
6
CONTINUOUS
10
121.614
20
-39.826
11
121.614
21
-47.1236
0
LINE
8
BLACK
6
CONTINUOUS
10
121.614
20
-47.1236
11
121.614
21
-47.1236
0
LINE
8
BLACK
6
CONTINUOUS
10
121.614
20
-47.1236
11
121.614
21
-47.1302
0
LINE
8
BLACK
6
CONTINUOUS
10
121.614
20
-47.1302
11
121.612
21
-47.1365
0
LINE
8
BLACK
6
CONTINUOUS
10
121.612
20
-47.1365
11
121.611
21
-47.143
0
LINE
8
BLACK
6
CONTINUOUS
10
121.611
20
-47.143
11
121.607
21
-47.1488
0
LINE
8
BLACK
6
CONTINUOUS
10
121.607
20
-47.1488
11
121.605
21
-47.1551
0
LINE
8
BLACK
6
CONTINUOUS
10
121.605
20
-47.1551
11
121.601
21
-47.1602
0
LINE
8
BLACK
6
CONTINUOUS
10
121.601
20
-47.1602
11
121.597
21
-47.166
0
LINE
8
BLACK
6
CONTINUOUS
10
121.597
20
-47.166
11
121.592
21
-47.1702
0
LINE
8
BLACK
6
CONTINUOUS
10
121.592
20
-47.1702
11
121.588
21
-47.1753
0
LINE
8
BLACK
6
CONTINUOUS
10
121.588
20
-47.1753
11
121.582
21
-47.1787
0
LINE
8
BLACK
6
CONTINUOUS
10
121.582
20
-47.1787
11
121.577
21
-47.183
0
LINE
8
BLACK
6
CONTINUOUS
10
121.577
20
-47.183
11
121.571
21
-47.1852
0
LINE
8
BLACK
6
CONTINUOUS
10
121.571
20
-47.1852
11
121.565
21
-47.1886
0
LINE
8
BLACK
6
CONTINUOUS
10
121.565
20
-47.1886
11
121.558
21
-47.1897
0
LINE
8
BLACK
6
CONTINUOUS
10
121.558
20
-47.1897
11
121.552
21
-47.192
0
LINE
8
BLACK
6
CONTINUOUS
10
121.552
20
-47.192
11
121.546
21
-47.192
0
LINE
8
BLACK
6
CONTINUOUS
10
121.546
20
-47.192
11
121.546
21
-47.192
0
LINE
8
BLACK
6
CONTINUOUS
10
121.546
20
-47.192
11
100.45
21
-47.192
0
LINE
8
BLACK
6
CONTINUOUS
10
100.45
20
-47.192
11
100.45
21
-47.192
0
LINE
8
BLACK
6
CONTINUOUS
10
100.45
20
-47.192
11
100.444
21
-47.192
0
LINE
8
BLACK
6
CONTINUOUS
10
100.444
20
-47.192
11
100.438
21
-47.1897
0
LINE
8
BLACK
6
CONTINUOUS
10
100.438
20
-47.1897
11
100.431
21
-47.1886
0
LINE
8
BLACK
6
CONTINUOUS
10
100.431
20
-47.1886
11
100.425
21
-47.1852
0
LINE
8
BLACK
6
CONTINUOUS
10
100.425
20
-47.1852
11
100.419
21
-47.183
0
LINE
8
BLACK
6
CONTINUOUS
10
100.419
20
-47.183
11
100.414
21
-47.1787
0
LINE
8
BLACK
6
CONTINUOUS
10
100.414
20
-47.1787
11
100.408
21
-47.1753
0
LINE
8
BLACK
6
CONTINUOUS
10
100.408
20
-47.1753
11
100.404
21
-47.1702
0
LINE
8
BLACK
6
CONTINUOUS
10
100.404
20
-47.1702
11
100.399
21
-47.166
0
LINE
8
BLACK
6
CONTINUOUS
10
100.399
20
-47.166
11
100.395
21
-47.1602
0
LINE
8
BLACK
6
CONTINUOUS
10
100.395
20
-47.1602
11
100.391
21
-47.1551
0
LINE
8
BLACK
6
CONTINUOUS
10
100.391
20
-47.1551
11
100.389
21
-47.1488
0
LINE
8
BLACK
6
CONTINUOUS
10
100.389
20
-47.1488
11
100.385
21
-47.143
0
LINE
8
BLACK
6
CONTINUOUS
10
100.385
20
-47.143
11
100.384
21
-47.1365
0
LINE
8
BLACK
6
CONTINUOUS
10
100.384
20
-47.1365
11
100.382
21
-47.1302
0
LINE
8
BLACK
6
CONTINUOUS
10
100.382
20
-47.1302
11
100.382
21
-47.1038
0
LINE
8
BLACK
6
CONTINUOUS
10
100.382
20
-47.1038
11
100.382
21
-40.461
0
LINE
8
BLACK
6
CONTINUOUS
10
100.382
20
-40.461
11
83.9404
21
-40.461
0
LINE
8
BLACK
6
CONTINUOUS
10
83.9404
20
-40.461
11
83.9404
21
-40.461
0
LINE
8
BLACK
6
CONTINUOUS
10
83.9404
20
-40.461
11
83.9338
21
-40.461
0
LINE
8
BLACK
6
CONTINUOUS
10
83.9338
20
-40.461
11
83.9275
21
-40.4587
0
LINE
8
BLACK
6
CONTINUOUS
10
83.9275
20
-40.4587
11
83.921
21
-40.4576
0
LINE
8
BLACK
6
CONTINUOUS
10
83.921
20
-40.4576
11
83.9152
21
-40.4542
0
LINE
8
BLACK
6
CONTINUOUS
10
83.9152
20
-40.4542
11
83.9089
21
-40.452
0
LINE
8
BLACK
6
CONTINUOUS
10
83.9089
20
-40.452
11
83.9038
21
-40.4477
0
LINE
8
BLACK
6
CONTINUOUS
10
83.9038
20
-40.4477
11
83.898
21
-40.4443
0
LINE
8
BLACK
6
CONTINUOUS
10
83.898
20
-40.4443
11
83.8938
21
-40.4392
0
LINE
8
BLACK
6
CONTINUOUS
10
83.8938
20
-40.4392
11
83.8887
21
-40.435
0
LINE
8
BLACK
6
CONTINUOUS
10
83.8887
20
-40.435
11
83.8853
21
-40.4292
0
LINE
8
BLACK
6
CONTINUOUS
10
83.8853
20
-40.4292
11
83.881
21
-40.4241
0
LINE
8
BLACK
6
CONTINUOUS
10
83.881
20
-40.4241
11
83.8788
21
-40.4178
0
LINE
8
BLACK
6
CONTINUOUS
10
83.8788
20
-40.4178
11
83.8754
21
-40.412
0
LINE
8
BLACK
6
CONTINUOUS
10
83.8754
20
-40.412
11
83.8743
21
-40.4055
0
LINE
8
BLACK
6
CONTINUOUS
10
83.8743
20
-40.4055
11
83.872
21
-40.3992
0
LINE
8
BLACK
6
CONTINUOUS
10
83.872
20
-40.3992
11
83.872
21
-40.3926
0
LINE
8
BLACK
6
CONTINUOUS
10
83.872
20
-40.3926
11
83.872
21
-40.3926
0
LINE
8
BLACK
6
CONTINUOUS
10
83.872
20
-40.3926
11
83.872
21
-38.048
0
LINE
8
BLACK
6
CONTINUOUS
10
83.872
20
-38.048
11
54.1069
21
-38.048
0
LINE
8
BLACK
6
CONTINUOUS
10
54.1069
20
-38.048
11
53.5299
21
-38.124
0
LINE
8
BLACK
6
CONTINUOUS
10
53.5299
20
-38.124
11
52.9968
21
-38.3448
0
LINE
8
BLACK
6
CONTINUOUS
10
52.9968
20
-38.3448
11
52.539
21
-38.696
0
LINE
8
BLACK
6
CONTINUOUS
10
52.539
20
-38.696
11
52.1878
21
-39.1538
0
LINE
8
BLACK
6
CONTINUOUS
10
52.1878
20
-39.1538
11
51.967
21
-39.6869
0
LINE
8
BLACK
6
CONTINUOUS
10
51.967
20
-39.6869
11
51.891
21
-40.2639
0
LINE
8
BLACK
6
CONTINUOUS
10
51.891
20
-40.2639
11
51.891
21
-93.8502
0
LINE
8
BLACK
6
CONTINUOUS
10
51.891
20
-93.8502
11
51.9125
21
-94.1397
0
LINE
8
BLACK
6
CONTINUOUS
10
51.9125
20
-94.1397
11
52.0722
21
-94.6735
0
LINE
8
BLACK
6
CONTINUOUS
10
52.0722
20
-94.6735
11
52.3739
21
-95.139
0
LINE
8
BLACK
6
CONTINUOUS
10
52.3739
20
-95.139
11
52.794
21
-95.501
0
LINE
8
BLACK
6
CONTINUOUS
10
52.794
20
-95.501
11
53.2989
21
-95.7306
0
LINE
8
BLACK
6
CONTINUOUS
10
53.2989
20
-95.7306
11
53.8533
21
-95.81
0
LINE
8
BLACK
6
CONTINUOUS
10
53.8533
20
-95.81
11
140.84
21
-95.81
0
LINE
8
BLACK
6
CONTINUOUS
10
140.84
20
-95.81
11
141.13
21
-95.7885
0
LINE
8
BLACK
6
CONTINUOUS
10
141.13
20
-95.7885
11
141.664
21
-95.6288
0
LINE
8
BLACK
6
CONTINUOUS
10
141.664
20
-95.6288
11
142.129
21
-95.3271
0
LINE
8
BLACK
6
CONTINUOUS
10
142.129
20
-95.3271
11
142.491
21
-94.907
0
LINE
8
BLACK
6
CONTINUOUS
10
142.491
20
-94.907
11
142.721
21
-94.4021
0
LINE
8
BLACK
6
CONTINUOUS
10
142.721
20
-94.4021
11
142.8
21
-93.8477
0
LINE
8
BLACK
6
CONTINUOUS
10
142.8
20
-93.8477
11
142.8
21
-86.5334
0
LINE
8
BLACK
6
CONTINUOUS
10
142.8
20
-86.5334
11
142.083
21
-86.175
0
LINE
8
BLACK
6
CONTINUOUS
10
142.083
20
-86.175
11
142.075
21
-86.172
0
LINE
8
BLACK
6
CONTINUOUS
10
142.075
20
-86.172
11
142.067
21
-86.1649
0
LINE
8
BLACK
6
CONTINUOUS
10
142.067
20
-86.1649
11
142.058
21
-86.1584
0
LINE
8
BLACK
6
CONTINUOUS
10
142.058
20
-86.1584
11
142.056
21
-86.1564
0
LINE
8
BLACK
6
CONTINUOUS
10
142.056
20
-86.1564
11
142.055
21
-86.155
0
LINE
8
BLACK
6
CONTINUOUS
10
142.055
20
-86.155
11
142.049
21
-86.1454
0
LINE
8
BLACK
6
CONTINUOUS
10
142.049
20
-86.1454
11
142.043
21
-86.1363
0
LINE
8
BLACK
6
CONTINUOUS
10
142.043
20
-86.1363
11
142.043
21
-86.134
0
LINE
8
BLACK
6
CONTINUOUS
10
142.043
20
-86.134
11
142.041
21
-86.132
0
LINE
8
BLACK
6
CONTINUOUS
10
142.041
20
-86.132
11
142.04
21
-86.1212
0
LINE
8
BLACK
6
CONTINUOUS
10
142.04
20
-86.1212
11
142.037
21
-86.1106
0
LINE
8
BLACK
6
CONTINUOUS
10
142.037
20
-86.1106
11
142.038
21
-86.1017
0
LINE
8
BLACK
6
CONTINUOUS
10
142.038
20
-86.1017
11
142.038
21
-84.5754
0
LINE
8
BLACK
6
CONTINUOUS
10
142.038
20
-84.5754
11
142.038
21
-84.5754
0
LINE
8
BLACK
6
CONTINUOUS
10
142.038
20
-84.5754
11
142.038
21
-80.0034
0
LINE
8
BLACK
6
CONTINUOUS
10
142.038
20
-80.0034
11
142.038
21
-80.0034
0
LINE
8
BLACK
6
CONTINUOUS
10
142.038
20
-80.0034
11
142.038
21
-78.6173
0
LINE
8
BLACK
6
CONTINUOUS
10
142.038
20
-78.6173
11
142.037
21
-78.6084
0
LINE
8
BLACK
6
CONTINUOUS
10
142.037
20
-78.6084
11
142.04
21
-78.5978
0
LINE
8
BLACK
6
CONTINUOUS
10
142.04
20
-78.5978
11
142.041
21
-78.587
0
LINE
8
BLACK
6
CONTINUOUS
10
142.041
20
-78.587
11
142.043
21
-78.585
0
LINE
8
BLACK
6
CONTINUOUS
10
142.043
20
-78.585
11
142.043
21
-78.5827
0
LINE
8
BLACK
6
CONTINUOUS
10
142.043
20
-78.5827
11
142.049
21
-78.5736
0
LINE
8
BLACK
6
CONTINUOUS
10
142.049
20
-78.5736
11
142.055
21
-78.564
0
LINE
8
BLACK
6
CONTINUOUS
10
142.055
20
-78.564
11
142.056
21
-78.5626
0
LINE
8
BLACK
6
CONTINUOUS
10
142.056
20
-78.5626
11
142.058
21
-78.5606
0
LINE
8
BLACK
6
CONTINUOUS
10
142.058
20
-78.5606
11
142.067
21
-78.5541
0
LINE
8
BLACK
6
CONTINUOUS
10
142.067
20
-78.5541
11
142.075
21
-78.547
0
LINE
8
BLACK
6
CONTINUOUS
10
142.075
20
-78.547
11
142.083
21
-78.544
0
LINE
8
BLACK
6
CONTINUOUS
10
142.083
20
-78.544
11
142.847
21
-78.162
0
LINE
8
BLACK
6
CONTINUOUS
10
142.847
20
-78.162
11
142.866
21
-78.1563
0
LINE
8
BLACK
6
CONTINUOUS
10
142.866
20
-78.1563
11
142.893
21
-78.1579
0
LINE
8
BLACK
6
CONTINUOUS
10
142.893
20
-78.1579
11
142.917
21
-78.1684
0
LINE
8
BLACK
6
CONTINUOUS
10
142.917
20
-78.1684
11
142.936
21
-78.1866
0
LINE
8
BLACK
6
CONTINUOUS
10
142.936
20
-78.1866
11
142.948
21
-78.2103
0
LINE
8
BLACK
6
CONTINUOUS
10
142.948
20
-78.2103
11
142.951
21
-78.2366
0
LINE
8
BLACK
6
CONTINUOUS
10
142.951
20
-78.2366
11
142.945
21
-78.2623
0
LINE
8
BLACK
6
CONTINUOUS
10
142.945
20
-78.2623
11
142.93
21
-78.2844
0
LINE
8
BLACK
6
CONTINUOUS
10
142.93
20
-78.2844
11
142.914
21
-78.2962
0
LINE
8
BLACK
6
CONTINUOUS
10
142.914
20
-78.2962
11
142.188
21
-78.6594
0
LINE
8
BLACK
6
CONTINUOUS
10
142.188
20
-78.6594
11
142.188
21
-86.0596
0
LINE
8
BLACK
6
CONTINUOUS
10
142.188
20
-86.0596
11
142.905
21
-86.418
0
LINE
8
BLACK
6
CONTINUOUS
10
142.905
20
-86.418
11
142.913
21
-86.421
0
LINE
8
BLACK
6
CONTINUOUS
10
142.913
20
-86.421
11
142.921
21
-86.4281
0
LINE
8
BLACK
6
CONTINUOUS
10
142.921
20
-86.4281
11
142.93
21
-86.4346
0
LINE
8
BLACK
6
CONTINUOUS
10
142.93
20
-86.4346
11
142.932
21
-86.4366
0
LINE
8
BLACK
6
CONTINUOUS
10
142.932
20
-86.4366
11
142.933
21
-86.438
0
LINE
8
BLACK
6
CONTINUOUS
10
142.933
20
-86.438
11
142.939
21
-86.4476
0
LINE
8
BLACK
6
CONTINUOUS
10
142.939
20
-86.4476
11
142.945
21
-86.4567
0
LINE
8
BLACK
6
CONTINUOUS
10
142.945
20
-86.4567
11
142.945
21
-86.459
0
LINE
8
BLACK
6
CONTINUOUS
10
142.945
20
-86.459
11
142.947
21
-86.461
0
LINE
8
BLACK
6
CONTINUOUS
10
142.947
20
-86.461
11
142.948
21
-86.4718
0
LINE
8
BLACK
6
CONTINUOUS
10
142.948
20
-86.4718
11
142.951
21
-86.4824
0
LINE
8
BLACK
6
CONTINUOUS
10
142.951
20
-86.4824
11
142.95
21
-86.4913
0
LINE
8
BLACK
6
CONTINUOUS
10
142.95
20
-86.4913
11
142.95
21
-93.8596
0
LINE
8
BLACK
6
CONTINUOUS
10
142.95
20
-93.8596
11
142.949
21
-93.8648
0
LINE
8
BLACK
6
CONTINUOUS
10
142.949
20
-93.8648
11
142.868
21
-94.4339
0
LINE
8
BLACK
6
CONTINUOUS
10
142.868
20
-94.4339
11
142.867
21
-94.4349
0
LINE
8
BLACK
6
CONTINUOUS
10
142.867
20
-94.4349
11
142.864
21
-94.4446
0
LINE
8
BLACK
6
CONTINUOUS
10
142.864
20
-94.4446
11
142.862
21
-94.4544
0
LINE
8
BLACK
6
CONTINUOUS
10
142.862
20
-94.4544
11
142.623
21
-94.9788
0
LINE
8
BLACK
6
CONTINUOUS
10
142.623
20
-94.9788
11
142.623
21
-94.9797
0
LINE
8
BLACK
6
CONTINUOUS
10
142.623
20
-94.9797
11
142.617
21
-94.9882
0
LINE
8
BLACK
6
CONTINUOUS
10
142.617
20
-94.9882
11
142.612
21
-94.9967
0
LINE
8
BLACK
6
CONTINUOUS
10
142.612
20
-94.9967
11
142.236
21
-95.4332
0
LINE
8
BLACK
6
CONTINUOUS
10
142.236
20
-95.4332
11
142.235
21
-95.4339
0
LINE
8
BLACK
6
CONTINUOUS
10
142.235
20
-95.4339
11
142.227
21
-95.4405
0
LINE
8
BLACK
6
CONTINUOUS
10
142.227
20
-95.4405
11
142.22
21
-95.4472
0
LINE
8
BLACK
6
CONTINUOUS
10
142.22
20
-95.4472
11
141.736
21
-95.7605
0
LINE
8
BLACK
6
CONTINUOUS
10
141.736
20
-95.7605
11
141.735
21
-95.761
0
LINE
8
BLACK
6
CONTINUOUS
10
141.735
20
-95.761
11
141.726
21
-95.7652
0
LINE
8
BLACK
6
CONTINUOUS
10
141.726
20
-95.7652
11
141.717
21
-95.7695
0
LINE
8
BLACK
6
CONTINUOUS
10
141.717
20
-95.7695
11
141.165
21
-95.9345
0
LINE
8
BLACK
6
CONTINUOUS
10
141.165
20
-95.9345
11
141.164
21
-95.9348
0
LINE
8
BLACK
6
CONTINUOUS
10
141.164
20
-95.9348
11
141.156
21
-95.9358
0
LINE
8
BLACK
6
CONTINUOUS
10
141.156
20
-95.9358
11
141.149
21
-95.9375
0
LINE
8
BLACK
6
CONTINUOUS
10
141.149
20
-95.9375
11
140.852
21
-95.9595
0
LINE
8
BLACK
6
CONTINUOUS
10
140.852
20
-95.9595
11
140.85
21
-95.96
0
LINE
8
BLACK
6
CONTINUOUS
10
140.85
20
-95.96
11
53.8414
21
-95.96
0
LINE
8
BLACK
6
CONTINUOUS
10
53.8414
20
-95.96
11
53.8362
21
-95.9591
0
LINE
8
BLACK
6
CONTINUOUS
10
53.8362
20
-95.9591
11
53.2671
21
-95.8776
0
LINE
8
BLACK
6
CONTINUOUS
10
53.2671
20
-95.8776
11
53.2661
21
-95.8774
0
LINE
8
BLACK
6
CONTINUOUS
10
53.2661
20
-95.8774
11
53.2564
21
-95.8744
0
LINE
8
BLACK
6
CONTINUOUS
10
53.2564
20
-95.8744
11
53.2466
21
-95.8716
0
LINE
8
BLACK
6
CONTINUOUS
10
53.2466
20
-95.8716
11
52.7222
21
-95.6331
0
LINE
8
BLACK
6
CONTINUOUS
10
52.7222
20
-95.6331
11
52.7213
21
-95.6328
0
LINE
8
BLACK
6
CONTINUOUS
10
52.7213
20
-95.6328
11
52.7128
21
-95.6271
0
LINE
8
BLACK
6
CONTINUOUS
10
52.7128
20
-95.6271
11
52.7043
21
-95.6217
0
LINE
8
BLACK
6
CONTINUOUS
10
52.7043
20
-95.6217
11
52.2678
21
-95.2456
0
LINE
8
BLACK
6
CONTINUOUS
10
52.2678
20
-95.2456
11
52.2671
21
-95.245
0
LINE
8
BLACK
6
CONTINUOUS
10
52.2671
20
-95.245
11
52.2605
21
-95.2372
0
LINE
8
BLACK
6
CONTINUOUS
10
52.2605
20
-95.2372
11
52.2538
21
-95.2296
0
LINE
8
BLACK
6
CONTINUOUS
10
52.2538
20
-95.2296
11
51.9405
21
-94.7461
0
LINE
8
BLACK
6
CONTINUOUS
10
51.9405
20
-94.7461
11
51.94
21
-94.7453
0
LINE
8
BLACK
6
CONTINUOUS
10
51.94
20
-94.7453
11
51.9358
21
-94.7361
0
LINE
8
BLACK
6
CONTINUOUS
10
51.9358
20
-94.7361
11
51.9315
21
-94.7268
0
LINE
8
BLACK
6
CONTINUOUS
10
51.9315
20
-94.7268
11
51.7665
21
-94.1748
0
LINE
8
BLACK
6
CONTINUOUS
10
51.7665
20
-94.1748
11
51.7662
21
-94.174
0
LINE
8
BLACK
6
CONTINUOUS
10
51.7662
20
-94.174
11
51.7652
21
-94.1664
0
LINE
8
BLACK
6
CONTINUOUS
10
51.7652
20
-94.1664
11
51.7635
21
-94.1589
0
LINE
8
BLACK
6
CONTINUOUS
10
51.7635
20
-94.1589
11
51.7415
21
-93.8623
0
LINE
8
BLACK
6
CONTINUOUS
10
51.7415
20
-93.8623
11
51.741
21
-93.8596
0
LINE
8
BLACK
6
CONTINUOUS
10
51.741
20
-93.8596
11
51.741
21
-40.2524
0
LINE
8
BLACK
6
CONTINUOUS
10
51.741
20
-40.2524
11
51.7418
21
-40.2476
0
LINE
8
BLACK
6
CONTINUOUS
10
51.7418
20
-40.2476
11
51.8195
21
-39.6576
0
LINE
8
BLACK
6
CONTINUOUS
10
51.8195
20
-39.6576
11
51.8246
21
-39.6386
0
LINE
8
BLACK
6
CONTINUOUS
10
51.8246
20
-39.6386
11
51.8246
21
-39.6386
0
LINE
8
BLACK
6
CONTINUOUS
10
51.8246
20
-39.6386
11
52.053
21
-39.0873
0
LINE
8
BLACK
6
CONTINUOUS
10
52.053
20
-39.0873
11
52.0628
21
-39.0703
0
LINE
8
BLACK
6
CONTINUOUS
10
52.0628
20
-39.0703
11
52.4261
21
-38.5969
0
LINE
8
BLACK
6
CONTINUOUS
10
52.4261
20
-38.5969
11
52.4399
21
-38.5831
0
LINE
8
BLACK
6
CONTINUOUS
10
52.4399
20
-38.5831
11
52.9133
21
-38.2198
0
LINE
8
BLACK
6
CONTINUOUS
10
52.9133
20
-38.2198
11
52.9303
21
-38.21
0
LINE
8
BLACK
6
CONTINUOUS
10
52.9303
20
-38.21
11
53.4816
21
-37.9816
0
LINE
8
BLACK
6
CONTINUOUS
10
53.4816
20
-37.9816
11
53.5005
21
-37.9765
0
LINE
8
BLACK
6
CONTINUOUS
10
53.5005
20
-37.9765
11
54.0906
21
-37.8989
0
LINE
8
BLACK
6
CONTINUOUS
10
54.0906
20
-37.8989
11
54.0954
21
-37.898
0
LINE
8
BLACK
6
CONTINUOUS
10
54.0954
20
-37.898
11
83.9536
21
-37.898
0
LINE
8
BLACK
6
CONTINUOUS
10
83.9536
20
-37.898
11
83.9536
21
-37.898
0
LINE
8
BLACK
6
CONTINUOUS
10
83.9536
20
-37.898
11
83.9602
21
-37.898
0
LINE
8
BLACK
6
CONTINUOUS
10
83.9602
20
-37.898
11
83.9665
21
-37.9003
0
LINE
8
BLACK
6
CONTINUOUS
10
83.9665
20
-37.9003
11
83.973
21
-37.9014
0
LINE
8
BLACK
6
CONTINUOUS
10
83.973
20
-37.9014
11
83.9788
21
-37.9048
0
LINE
8
BLACK
6
CONTINUOUS
10
83.9788
20
-37.9048
11
83.9851
21
-37.907
0
LINE
8
BLACK
6
CONTINUOUS
10
83.9851
20
-37.907
11
83.9902
21
-37.9113
0
LINE
8
BLACK
6
CONTINUOUS
10
83.9902
20
-37.9113
11
83.996
21
-37.9147
0
LINE
8
BLACK
6
CONTINUOUS
10
83.996
20
-37.9147
11
84.0002
21
-37.9198
0
LINE
8
BLACK
6
CONTINUOUS
10
84.0002
20
-37.9198
11
84.0053
21
-37.924
0
LINE
8
BLACK
6
CONTINUOUS
10
84.0053
20
-37.924
11
84.0087
21
-37.9298
0
LINE
8
BLACK
6
CONTINUOUS
10
84.0087
20
-37.9298
11
84.013
21
-37.9349
0
LINE
8
BLACK
6
CONTINUOUS
10
84.013
20
-37.9349
11
84.0152
21
-37.9412
0
LINE
8
BLACK
6
CONTINUOUS
10
84.0152
20
-37.9412
11
84.0186
21
-37.947
0
LINE
8
BLACK
6
CONTINUOUS
10
84.0186
20
-37.947
11
84.0197
21
-37.9535
0
LINE
8
BLACK
6
CONTINUOUS
10
84.0197
20
-37.9535
11
84.022
21
-37.9598
0
LINE
8
BLACK
6
CONTINUOUS
10
84.022
20
-37.9598
11
84.022
21
-37.9664
0
LINE
8
BLACK
6
CONTINUOUS
10
84.022
20
-37.9664
11
84.022
21
-37.9664
0
LINE
8
BLACK
6
CONTINUOUS
10
84.022
20
-37.9664
11
84.022
21
-40.311
0
LINE
8
BLACK
6
CONTINUOUS
10
84.022
20
-40.311
11
100.464
21
-40.311
0
LINE
8
BLACK
6
CONTINUOUS
10
100.464
20
-40.311
11
100.464
21
-40.311
0
LINE
8
BLACK
6
CONTINUOUS
10
100.464
20
-40.311
11
100.47
21
-40.311
0
LINE
8
BLACK
6
CONTINUOUS
10
100.47
20
-40.311
11
100.476
21
-40.3133
0
LINE
8
BLACK
6
CONTINUOUS
10
100.476
20
-40.3133
11
100.483
21
-40.3144
0
LINE
8
BLACK
6
CONTINUOUS
10
100.483
20
-40.3144
11
100.489
21
-40.3178
0
LINE
8
BLACK
6
CONTINUOUS
10
100.489
20
-40.3178
11
100.495
21
-40.32
0
LINE
8
BLACK
6
CONTINUOUS
10
100.495
20
-40.32
11
100.5
21
-40.3243
0
LINE
8
BLACK
6
CONTINUOUS
10
100.5
20
-40.3243
11
100.506
21
-40.3277
0
LINE
8
BLACK
6
CONTINUOUS
10
100.506
20
-40.3277
11
100.51
21
-40.3328
0
LINE
8
BLACK
6
CONTINUOUS
10
100.51
20
-40.3328
11
100.515
21
-40.337
0
LINE
8
BLACK
6
CONTINUOUS
10
100.515
20
-40.337
11
100.519
21
-40.3428
0
LINE
8
BLACK
6
CONTINUOUS
10
100.519
20
-40.3428
11
100.523
21
-40.3479
0
LINE
8
BLACK
6
CONTINUOUS
10
100.523
20
-40.3479
11
100.525
21
-40.3542
0
LINE
8
BLACK
6
CONTINUOUS
10
100.525
20
-40.3542
11
100.529
21
-40.36
0
LINE
8
BLACK
6
CONTINUOUS
10
100.529
20
-40.36
11
100.53
21
-40.3665
0
LINE
8
BLACK
6
CONTINUOUS
10
100.53
20
-40.3665
11
100.532
21
-40.3728
0
LINE
8
BLACK
6
CONTINUOUS
10
100.532
20
-40.3728
11
100.532
21
-40.3794
0
LINE
8
BLACK
6
CONTINUOUS
10
100.532
20
-40.3794
11
100.532
21
-40.3794
0
LINE
8
BLACK
6
CONTINUOUS
10
100.532
20
-40.3794
11
100.532
21
-47.042
0
LINE
8
BLACK
6
CONTINUOUS
10
100.532
20
-47.042
11
121.464
21
-47.042
0
LINE
8
BLACK
6
CONTINUOUS
10
121.464
20
-47.042
11
121.464
21
-39.7444
0
LINE
8
BLACK
6
CONTINUOUS
10
121.464
20
-39.7444
11
121.464
21
-39.7444
0
LINE
8
BLACK
6
CONTINUOUS
10
121.464
20
-39.7444
11
121.464
21
-39.7378
0
LINE
8
BLACK
6
CONTINUOUS
10
121.464
20
-39.7378
11
121.466
21
-39.7315
0
LINE
8
BLACK
6
CONTINUOUS
10
121.466
20
-39.7315
11
121.467
21
-39.725
0
LINE
8
BLACK
6
CONTINUOUS
10
121.467
20
-39.725
11
121.471
21
-39.7192
0
LINE
8
BLACK
6
CONTINUOUS
10
121.471
20
-39.7192
11
121.473
21
-39.7129
0
LINE
8
BLACK
6
CONTINUOUS
10
121.473
20
-39.7129
11
121.477
21
-39.7078
0
LINE
8
BLACK
6
CONTINUOUS
10
121.477
20
-39.7078
11
121.481
21
-39.702
0
LINE
8
BLACK
6
CONTINUOUS
10
121.481
20
-39.702
11
121.486
21
-39.6978
0
LINE
8
BLACK
6
CONTINUOUS
10
121.486
20
-39.6978
11
121.49
21
-39.6927
0
LINE
8
BLACK
6
CONTINUOUS
10
121.49
20
-39.6927
11
121.496
21
-39.6893
0
LINE
8
BLACK
6
CONTINUOUS
10
121.496
20
-39.6893
11
121.501
21
-39.685
0
LINE
8
BLACK
6
CONTINUOUS
10
121.501
20
-39.685
11
121.507
21
-39.6828
0
LINE
8
BLACK
6
CONTINUOUS
10
121.507
20
-39.6828
11
121.513
21
-39.6794
0
LINE
8
BLACK
6
CONTINUOUS
10
121.513
20
-39.6794
11
121.52
21
-39.6783
0
LINE
8
BLACK
6
CONTINUOUS
10
121.52
20
-39.6783
11
121.526
21
-39.676
0
LINE
8
BLACK
6
CONTINUOUS
10
121.526
20
-39.676
11
121.532
21
-39.676
0
LINE
8
BLACK
6
CONTINUOUS
10
121.532
20
-39.676
11
121.532
21
-39.676
0
LINE
8
BLACK
6
CONTINUOUS
10
121.532
20
-39.676
11
134.068
21
-39.676
0
LINE
8
BLACK
6
CONTINUOUS
10
134.068
20
-39.676
11
135.06
21
-37.9413
0
LINE
8
BLACK
6
CONTINUOUS
10
135.06
20
-37.9413
11
135.062
21
-37.9349
0
LINE
8
BLACK
6
CONTINUOUS
10
135.062
20
-37.9349
11
135.07
21
-37.9249
0
LINE
8
BLACK
6
CONTINUOUS
10
135.07
20
-37.9249
11
135.079
21
-37.9149
0
LINE
8
BLACK
6
CONTINUOUS
10
135.079
20
-37.9149
11
135.079
21
-37.9148
0
LINE
8
BLACK
6
CONTINUOUS
10
135.079
20
-37.9148
11
135.079
21
-37.9147
0
LINE
8
BLACK
6
CONTINUOUS
10
135.079
20
-37.9147
11
135.09
21
-37.9081
0
LINE
8
BLACK
6
CONTINUOUS
10
135.09
20
-37.9081
11
135.102
21
-37.9016
0
LINE
8
BLACK
6
CONTINUOUS
10
135.102
20
-37.9016
11
135.102
21
-37.9015
0
LINE
8
BLACK
6
CONTINUOUS
10
135.102
20
-37.9015
11
135.102
21
-37.9014
0
LINE
8
BLACK
6
CONTINUOUS
10
135.102
20
-37.9014
11
135.115
21
-37.8991
0
LINE
8
BLACK
6
CONTINUOUS
10
135.115
20
-37.8991
11
135.128
21
-37.8968
0
LINE
8
BLACK
6
CONTINUOUS
10
135.128
20
-37.8968
11
135.134
21
-37.898
0
LINE
8
BLACK
6
CONTINUOUS
10
135.134
20
-37.898
11
140.596
21
-37.898
0
LINE
8
BLACK
6
CONTINUOUS
10
140.596
20
-37.898
11
140.6
21
-37.8989
0
LINE
8
BLACK
6
CONTINUOUS
10
140.6
20
-37.8989
11
141.19
21
-37.9765
0
LINE
8
BLACK
6
CONTINUOUS
10
141.19
20
-37.9765
11
141.19
21
-37.9765
0
LINE
8
BLACK
6
CONTINUOUS
10
141.19
20
-37.9765
11
141.209
21
-37.9816
0
LINE
8
BLACK
6
CONTINUOUS
10
141.209
20
-37.9816
11
141.761
21
-38.21
0
LINE
8
BLACK
6
CONTINUOUS
10
141.761
20
-38.21
11
141.778
21
-38.2198
0
LINE
8
BLACK
6
CONTINUOUS
10
141.778
20
-38.2198
11
141.778
21
-38.2198
0
LINE
8
BLACK
6
CONTINUOUS
10
141.778
20
-38.2198
11
142.251
21
-38.5831
0
LINE
8
BLACK
6
CONTINUOUS
10
142.251
20
-38.5831
11
142.265
21
-38.5969
0
LINE
8
BLACK
6
CONTINUOUS
10
142.265
20
-38.5969
11
142.628
21
-39.0703
0
LINE
8
BLACK
6
CONTINUOUS
10
142.628
20
-39.0703
11
142.638
21
-39.0873
0
LINE
8
BLACK
6
CONTINUOUS
10
142.638
20
-39.0873
11
142.866
21
-39.6386
0
LINE
8
BLACK
6
CONTINUOUS
10
142.866
20
-39.6386
11
142.871
21
-39.6576
0
LINE
8
BLACK
6
CONTINUOUS
10
142.871
20
-39.6576
11
142.949
21
-40.2476
0
LINE
8
BLACK
6
CONTINUOUS
10
142.949
20
-40.2476
11
142.95
21
-40.2524
0
LINE
8
BLACK
6
CONTINUOUS
10
142.95
20
-40.2524
11
142.95
21
-47.6128
0
LINE
8
BLACK
6
CONTINUOUS
10
142.95
20
-47.6128
11
142.95
21
-47.6138
0
LINE
8
BLACK
6
CONTINUOUS
10
142.95
20
-47.6138
11
142.95
21
-47.626
0
LINE
8
BLACK
6
CONTINUOUS
10
142.95
20
-47.626
11
142.95
21
-47.6316
0
LINE
8
BLACK
6
CONTINUOUS
10
142.95
20
-47.6316
11
142.95
21
-47.6326
0
LINE
8
BLACK
6
CONTINUOUS
10
142.95
20
-47.6326
11
142.95
21
-47.6403
0
LINE
8
BLACK
6
CONTINUOUS
10
142.95
20
-47.6403
11
142.948
21
-47.6455
0
LINE
8
BLACK
6
CONTINUOUS
10
142.948
20
-47.6455
11
142.947
21
-47.651
0
LINE
8
BLACK
6
CONTINUOUS
10
142.947
20
-47.651
11
142.943
21
-47.6577
0
LINE
8
BLACK
6
CONTINUOUS
10
142.943
20
-47.6577
11
142.94
21
-47.6649
0
LINE
8
BLACK
6
CONTINUOUS
10
142.94
20
-47.6649
11
142.936
21
-47.6691
0
LINE
8
BLACK
6
CONTINUOUS
10
142.936
20
-47.6691
11
142.933
21
-47.674
0
LINE
8
BLACK
6
CONTINUOUS
10
142.933
20
-47.674
11
142.927
21
-47.6789
0
LINE
8
BLACK
6
CONTINUOUS
10
142.927
20
-47.6789
11
142.922
21
-47.6847
0
LINE
8
BLACK
6
CONTINUOUS
10
142.922
20
-47.6847
11
142.917
21
-47.6873
0
LINE
8
BLACK
6
CONTINUOUS
10
142.917
20
-47.6873
11
142.913
21
-47.691
0
LINE
8
BLACK
6
CONTINUOUS
10
142.913
20
-47.691
11
142.906
21
-47.6936
0
LINE
8
BLACK
6
CONTINUOUS
10
142.906
20
-47.6936
11
142.905
21
-47.6941
0
LINE
8
BLACK
6
CONTINUOUS
10
142.905
20
-47.6941
11
142.9
21
-47.6958
0
LINE
8
BLACK
6
CONTINUOUS
10
142.9
20
-47.6958
11
142.888
21
-47.7
0
LINE
8
BLACK
6
CONTINUOUS
10
142.888
20
-47.7
11
142.887
21
-47.7
0
LINE
8
BLACK
6
CONTINUOUS
10
142.887
20
-47.7
11
142.188
21
-47.9331
0
LINE
8
BLACK
6
CONTINUOUS
10
142.188
20
-47.9331
11
142.188
21
-55.6989
0
LINE
8
BLACK
6
CONTINUOUS
10
142.188
20
-55.6989
11
142.8
21
-55.9029
  0
ENDSEC
  0
EOF
